<?xml version="1.0" encoding="utf-8"?>
<!-- Generator: Adobe Illustrator 24.1.2, SVG Export Plug-In . SVG Version: 6.00 Build 0)  -->
<svg version="1.1" id="Layer_1" xmlns="http://www.w3.org/2000/svg" xmlns:xlink="http://www.w3.org/1999/xlink" x="0px" y="0px"
	 viewBox="0 0 48 48" style="enable-background:new 0 0 48 48;" xml:space="preserve">
<style type="text/css">
	.st0{fill:#EC1C24;}
</style>
<path class="st0" d="M36,7.1c-2.5-1.5-5.5-0.4-8.1,0.6c-1.6,0.6-3,1.1-4.3,1.1c-1.2,0-2.7-0.6-4.3-1.2c-2.7-1.1-5.8-2.3-8.2-0.4
	c-5.5,4.1-4,17.8-1.2,26.2c1.1,3.2,3.3,8.5,6.3,8.5c2.9,0,3.3-3.3,3.8-6.4c0.5-3.9,1.1-6.4,3.6-6.4s3,2.5,3.6,6.4
	c0.4,3.1,0.9,6.4,3.8,6.4c3.4,0,6.4-6.6,8-12.3C41.2,21.3,41.8,10.6,36,7.1z"/>
</svg>
