<?xml version="1.0" encoding="utf-8"?>
<!-- Generator: Adobe Illustrator 24.3.0, SVG Export Plug-In . SVG Version: 6.00 Build 0)  -->
<svg version="1.1" id="Layer_1" xmlns="http://www.w3.org/2000/svg" xmlns:xlink="http://www.w3.org/1999/xlink" x="0px" y="0px"
	 viewBox="0 0 85 28.3" style="enable-background:new 0 0 85 28.3;" xml:space="preserve">
<style type="text/css">
	.st0{fill-rule:evenodd;clip-rule:evenodd;fill:#B4B4B5;}
	.st1{fill-rule:evenodd;clip-rule:evenodd;fill:#FFFFFF;}
</style>
<g id="Page-1">
	<g id="Proposta-2">
		<g id="Group-42-Copy-7" transform="translate(-0.000000, 0.000000)">
			<g id="Mask">
				<path id="path-2_1_" class="st0" d="M6.2,8.3h10.5c0.5,0,0.8,0.4,0.8,0.8v10.4c0,0.5-0.4,0.8-0.8,0.8H6.2
					c-0.5,0-0.8-0.4-0.8-0.8V9.2C5.4,8.7,5.8,8.3,6.2,8.3z"/>
			</g>
		</g>
		<g id="Group-37-Copy-10" transform="translate(78.507054, 7.275510)">
			<g id="Group-3" transform="translate(0.317842, 0.000000)">
				<g id="Clip-2">
				</g>
				<path id="Fill-1" class="st0" d="M-54.3,4.5c-0.2-0.5-0.6-0.6-1.3-0.6H-57c-0.1,0-0.2,0-0.2-0.1c-0.1,0-0.1-0.1-0.1-0.2
					s0-0.1,0.1-0.2c0.1,0,0.1-0.1,0.2-0.1h2.6V2.4h-2.5c-0.3,0-0.5,0.1-0.7,0.2c-0.3,0.1-0.4,0.3-0.5,0.5c-0.1,0.2-0.1,0.3-0.1,0.5
					c0,0.2,0,0.4,0.1,0.5c0.2,0.5,0.6,0.6,1.2,0.6h1.4c0.1,0,0.2,0,0.2,0.1c0.1,0,0.1,0.1,0.1,0.2c0,0.1-0.1,0.2-0.3,0.2h-2.6V6h2.5
					c0.3,0,0.5-0.1,0.7-0.2c0.3-0.1,0.5-0.3,0.5-0.5c0.1-0.2,0.1-0.3,0.1-0.5C-54.1,4.8-54.2,4.6-54.3,4.5L-54.3,4.5z M-48.7,2.5
					l-0.6,1.9c-0.1,0.3-0.2,0.5-0.3,0.6c-0.1-0.3-0.2-0.5-0.2-0.6l-0.6-1.9h-0.9l-0.6,1.9C-52,4.7-52.1,5-52.1,5.1
					c-0.1-0.3-0.2-0.5-0.3-0.6L-53,2.5h-1.1l1.4,3.6h1l0.8-2.1l0.8,2.1h1l1.4-3.6C-47.7,2.5-48.7,2.5-48.7,2.5z M-47.5,6.1h0.9V2.5
					h-0.9V6.1z M-42.3,4.5c-0.2-0.5-0.6-0.6-1.3-0.6H-45c-0.1,0-0.2,0-0.2-0.1c-0.1,0-0.1-0.1-0.1-0.2s0-0.1,0.1-0.2
					c0.1,0,0.1-0.1,0.2-0.1h2.6V2.4h-2.5c-0.3,0-0.5,0.1-0.7,0.2c-0.3,0.1-0.4,0.3-0.5,0.5c-0.1,0.2-0.1,0.3-0.1,0.5
					c0,0.2,0,0.4,0.1,0.5c0.2,0.5,0.6,0.6,1.2,0.6h1.4c0.1,0,0.2,0,0.2,0.1s0.1,0.1,0.1,0.2c0,0.1-0.1,0.2-0.3,0.2h-2.6V6h2.5
					c0.3,0,0.5-0.1,0.7-0.2c0.3-0.1,0.5-0.3,0.5-0.5c0.1-0.2,0.1-0.3,0.1-0.5C-42.3,4.8-42.3,4.6-42.3,4.5L-42.3,4.5z M-38.1,4.5
					c-0.2-0.5-0.6-0.6-1.3-0.6h-1.4c-0.1,0-0.2,0-0.2-0.1c-0.1,0-0.1-0.1-0.1-0.2s0-0.1,0.1-0.2c0.1,0,0.1-0.1,0.2-0.1h2.6V2.4h-2.5
					c-0.3,0-0.5,0.1-0.7,0.2c-0.3,0.1-0.4,0.3-0.5,0.5c-0.1,0.2-0.1,0.3-0.1,0.5c0,0.2,0,0.4,0.1,0.5c0.2,0.5,0.6,0.6,1.2,0.6h1.4
					c0.1,0,0.2,0,0.2,0.1S-39,4.9-39,5s-0.1,0.2-0.3,0.2h-2.6v0.9h2.5c0.3,0,0.5-0.1,0.7-0.2c0.3-0.1,0.5-0.3,0.5-0.5
					c0-0.1,0-0.2,0-0.4S-38,4.6-38.1,4.5L-38.1,4.5z"/>
			</g>
			<g id="Group-6" transform="translate(0.000000, 21.826531)">
				<g id="Clip-5">
				</g>
				<path id="Fill-4" class="st0" d="M-53.6-14c0-0.3-0.1-0.5-0.4-0.7c-0.2-0.2-0.5-0.3-0.7-0.3h-3.2v3.6h3.2c0.3,0,0.5-0.1,0.7-0.3
					c0.2-0.2,0.4-0.5,0.4-0.7V-14z M-54.5-12.5L-54.5-12.5l-2.4,0.1v-1.7h2.3c0.1,0,0.1,0,0.1,0.1l0.1,0.1L-54.5-12.5
					C-54.5-12.6-54.5-12.5-54.5-12.5L-54.5-12.5z M-49.5-12.4h-2.7v-0.5h2.6v-0.9h-2.6v-0.4h2.7v-0.9h-3.6v3.6h3.6V-12.4z
					 M-45.1-15.1H-46v2.4c-0.1-0.1-0.2-0.2-0.2-0.3l-1.9-2.1h-1v3.6h0.9v-2.3c0.1,0.1,0.2,0.2,0.3,0.3l1.8,2h1.1L-45.1-15.1
					L-45.1-15.1z M-41.3-15.1h-3.4v0.9h1.3v2.7h0.9v-2.7h1.3L-41.3-15.1L-41.3-15.1z M-38.9-15.1h-1l-1.9,3.6h1.1l0.4-0.7h1.9
					l0.4,0.7h1.1L-38.9-15.1z M-39.9-13.2c0.3-0.5,0.4-0.7,0.5-1c0.1,0.2,0.1,0.3,0.2,0.5c0.1,0.1,0.2,0.3,0.3,0.5L-39.9-13.2
					L-39.9-13.2z M-33.4-12.4H-36v-2.7h-0.9v3.6h3.6V-12.4z M-27.8-12.7c-0.1,0.2-0.3,0.3-0.3,0.3h-2.2c-0.1,0-0.1,0-0.1-0.1
					l-0.1-0.1V-14c0-0.1,0-0.1,0.1-0.1l0.1-0.1h2.2c0.1,0,0.1,0.1,0.2,0.2l0.8-0.5c-0.1-0.2-0.2-0.3-0.4-0.4S-27.8-15-28-15h-2.2
					c-0.3,0-0.5,0.1-0.7,0.3c-0.2,0.2-0.4,0.5-0.4,0.7v1.4c0,0.3,0.1,0.5,0.4,0.7c0.2,0.2,0.5,0.3,0.7,0.3h2.2
					c0.2,0,0.4-0.1,0.5-0.2c0.2-0.1,0.4-0.2,0.5-0.4L-27.8-12.7z M-23.2-12.4h-2.7v-0.5h2.6v-0.9h-2.6v-0.4h2.7v-0.9h-3.6v3.6h3.6
					V-12.4z M-18.7-14c0-0.3-0.1-0.5-0.3-0.7c-0.2-0.2-0.5-0.3-0.7-0.3h-3.1v3.6h0.9v-1h0.9l1,1h1.3l-1-1c0.3,0,0.5-0.1,0.7-0.4
					c0.2-0.2,0.3-0.5,0.3-0.7V-14z M-19.6-13.5L-19.6-13.5l-2.2,0.1v-0.7h2.1c0.1,0,0.1,0,0.1,0.1l0.1,0.1L-19.6-13.5
					C-19.6-13.6-19.6-13.5-19.6-13.5L-19.6-13.5z M-15.7-15.1h-1l-1.9,3.6h1.1l0.4-0.7h1.9l0.4,0.7h1.1L-15.7-15.1z M-16.6-13.2
					c0.3-0.5,0.4-0.7,0.5-1c0.1,0.2,0.1,0.3,0.2,0.5c0.1,0.1,0.2,0.3,0.3,0.5L-16.6-13.2L-16.6-13.2z M-9.2-15.1h-0.9l-1,2
					c-0.2,0.3-0.3,0.5-0.3,0.6c-0.1-0.3-0.3-0.5-0.3-0.6l-1-2h-0.9v3.6h0.9v-1.7c0.1,0.3,0.3,0.5,0.5,1c0.1,0.3,0.3,0.5,0.4,0.7h0.9
					c0.1-0.3,0.3-0.5,0.4-0.7c0.3-0.5,0.4-0.8,0.5-1v1.7h0.9C-9.2-11.5-9.2-15.1-9.2-15.1z M-8.7-11.5h0.9v-3.6h-0.9V-11.5z
					 M-3.8-12.7c-0.1,0.2-0.3,0.3-0.3,0.3h-2.2c-0.1,0-0.1,0-0.1-0.1l-0.1-0.1V-14c0-0.1,0-0.1,0.1-0.1l0.1-0.1h2.2
					c0.1,0,0.1,0.1,0.2,0.2l0.8-0.5c-0.2-0.2-0.3-0.3-0.5-0.4C-3.7-15-3.9-15-4.1-15h-2.2c-0.3,0-0.5,0.1-0.7,0.3
					c-0.2,0.2-0.4,0.5-0.4,0.7v1.4c0,0.3,0.1,0.5,0.4,0.7c0.2,0.2,0.5,0.3,0.7,0.3h2.2c0.2,0,0.4-0.1,0.5-0.2
					c0.2-0.1,0.4-0.2,0.5-0.4L-3.8-12.7z M1-13.1c-0.2-0.5-0.6-0.6-1.3-0.6h-1.3c-0.1,0-0.2,0-0.2-0.1c-0.1,0-0.1-0.1-0.1-0.2
					s0-0.1,0.1-0.2c0.1,0,0.1-0.1,0.2-0.1H1v-0.9h-2.5c-0.3,0-0.5,0.1-0.7,0.2s-0.4,0.3-0.5,0.5c-0.1,0.2-0.1,0.3-0.1,0.5
					s0,0.4,0.1,0.5c0.3,0.5,0.6,0.7,1.3,0.7h1.4c0.1,0,0.2,0,0.2,0.1c0.1,0,0.1,0.1,0.1,0.2c0,0.1-0.1,0.2-0.3,0.2h-2.6v0.9h2.5
					c0.3,0,0.5-0.1,0.7-0.2C0.8-11.8,1-12,1-12.3c0.1-0.2,0.1-0.3,0.1-0.5C1-12.8,1-13,1-13.1L1-13.1z"/>
			</g>
			<path id="Fill-7" class="st0" d="M-56.8,11.4l-0.4,0.6h0.7L-56.8,11.4z M-56.1,12.6l-0.2-0.4h-0.9l-0.2,0.4h-0.4L-57,11h0.3
				l0.8,1.6H-56.1z"/>
			<path id="Fill-9" class="st0" d="M-54.1,11.6c0-0.1,0-0.1,0-0.2l-0.1-0.1h-1v0.5h1c0.1,0,0.1,0,0.1,0
				C-54.2,11.7-54.1,11.7-54.1,11.6L-54.1,11.6z M-54.2,12.6l-0.5-0.5h-0.5v0.5h-0.3V11h1.3c0.1,0,0.2,0,0.2,0s0.1,0,0.2,0.1
				c0,0,0.1,0.1,0.1,0.2c0,0.1,0,0.1,0,0.2v0.1c0,0.1,0,0.2,0,0.3c0,0.1-0.1,0.1-0.1,0.2c0,0-0.1,0.1-0.2,0.1c-0.1,0-0.2,0-0.3,0
				l0.5,0.5L-54.2,12.6L-54.2,12.6z"/>
			<polygon id="Fill-11" class="st0" points="-53.2,12.6 -53.2,11.4 -53.8,11.4 -53.8,11 -52.4,11 -52.4,11.4 -52.9,11.4 
				-52.9,12.6 			"/>
			<polygon id="Fill-13" class="st0" points="-50.1,12.6 -50.1,11.6 -50.5,12.6 -50.8,12.6 -51.3,11.6 -51.3,12.6 -51.6,12.6 
				-51.6,11 -51.3,11 -50.6,12.3 -50.1,11 -49.8,11 -49.8,12.6 			"/>
			<path id="Fill-15" class="st0" d="M-48.6,11.4L-49,12h0.7L-48.6,11.4z M-48,12.6l-0.2-0.4h-0.9l-0.2,0.4h-0.4l0.8-1.6h0.3
				l0.8,1.6H-48z"/>
			<path id="Fill-17" class="st0" d="M-46.1,11.6c0-0.1,0-0.1,0-0.2c0,0-0.1,0-0.2,0h-0.9v0.9h1c0.1,0,0.1,0,0.2,0c0,0,0-0.1,0-0.2
				L-46.1,11.6L-46.1,11.6z M-47.5,12.6V11h1.3c0.1,0,0.2,0,0.3,0s0.1,0,0.2,0.1c0,0,0.1,0.1,0.1,0.2c0,0.1,0,0.2,0,0.3v0.5
				c0,0.1,0,0.2,0,0.3c0,0.1,0,0.1-0.1,0.2s-0.1,0.1-0.2,0.1s-0.2,0-0.3,0L-47.5,12.6L-47.5,12.6z"/>
			<polygon id="Fill-19" class="st0" points="-45.4,12.6 -45.4,11 -44,11 -44,11.4 -45.2,11.4 -45.2,11.7 -44,11.7 -44,11.9 
				-45.2,11.9 -45.2,12.3 -44,12.3 -44,12.6 			"/>
			<path id="Fill-21" class="st0" d="M-41.7,12.1C-41.7,12-41.7,12-41.7,12.1L-41.7,12.1l-1-0.1v0.4h0.9c0.1,0,0.1,0,0.1,0
				S-41.7,12.2-41.7,12.1L-41.7,12.1z M-41.7,11.5C-41.7,11.4-41.7,11.4-41.7,11.5L-41.7,11.5l-1-0.1v0.4h0.9c0.1,0,0.1,0,0.1,0
				C-41.7,11.7-41.7,11.6-41.7,11.5L-41.7,11.5z M-43,12.6V11h1.2c0.1,0,0.2,0,0.2,0c0.1,0,0.1,0,0.1,0.1l0.1,0.1c0,0,0,0.1,0,0.2
				v0.1c0,0.2-0.1,0.3-0.2,0.3c0.1,0,0.1,0,0.2,0.1c0,0,0.1,0.1,0.1,0.2v0.1c0,0.1,0,0.2,0,0.2c0,0.1,0,0.1-0.1,0.1
				c0,0-0.1,0.1-0.2,0.1c-0.1,0-0.1,0-0.2,0L-43,12.6L-43,12.6z"/>
			<polygon id="Fill-23" class="st0" points="-40.6,12.6 -40.6,12 -41.3,11 -41,11 -40.5,11.7 -39.9,11 -39.6,11 -40.3,12 
				-40.3,12.6 			"/>
			<path id="Fill-25" class="st0" d="M-37.9,11.4l-0.4,0.6h0.7L-37.9,11.4z M-37.3,12.6l-0.2-0.4h-0.9l-0.2,0.4h-0.4l0.8-1.6h0.3
				l0.8,1.6H-37.3z"/>
			<path id="Fill-27" class="st0" d="M-35.3,11.6c0-0.1,0-0.1,0-0.2l-0.1-0.1h-1v0.5h1c0.1,0,0.1,0,0.1,0
				C-35.3,11.7-35.3,11.7-35.3,11.6L-35.3,11.6z M-35.4,12.6l-0.5-0.5h-0.5v0.5h-0.3V11h1.3c0.1,0,0.2,0,0.2,0c0.1,0,0.1,0,0.2,0.1
				c0,0,0.1,0.1,0.1,0.2c0,0.1,0,0.1,0,0.2v0.1c0,0.1,0,0.2,0,0.3c0,0.1-0.1,0.1-0.1,0.2c0,0-0.1,0.1-0.2,0.1c-0.1,0-0.2,0-0.3,0
				l0.5,0.5L-35.4,12.6L-35.4,12.6z"/>
			<polygon id="Fill-29" class="st0" points="-34.4,12.6 -34.4,11.4 -34.9,11.4 -34.9,11 -33.5,11 -33.5,11.4 -34.1,11.4 
				-34.1,12.6 			"/>
			<g id="Clip-32">
			</g>
			<polygon id="Fill-31" class="st0" points="-33.3,12.6 -33,12.6 -33,11 -33.3,11 			"/>
			<path id="Fill-33" class="st0" d="M-31.2,12.1c0,0.1,0,0.2,0,0.2c0,0.1-0.1,0.1-0.1,0.1s-0.1,0.1-0.2,0.1c-0.1,0-0.2,0-0.3,0
				h-1.1c0-0.1,0-0.1,0-0.2c0-0.1,0-0.1,0-0.2h1h0.1h0.1c0,0,0,0,0-0.1s0-0.1,0-0.1c0-0.1,0-0.1,0-0.1s-0.1,0-0.2,0h-0.6
				c-0.1,0-0.2,0-0.2,0c-0.1,0-0.1,0-0.2-0.1l-0.1-0.1c0,0,0-0.1,0-0.2v-0.1c0-0.1,0-0.2,0-0.2c0-0.1,0-0.1,0.1-0.1s0.1-0.1,0.2-0.1
				s0.2,0,0.3,0h1.1c0,0.1,0,0.1,0,0.2c0,0.1,0,0.1,0,0.2h-1c-0.1,0-0.1,0-0.2,0s0,0.1,0,0.1c0,0.1,0,0.1,0,0.1s0.1,0,0.2,0h0.6
				c0.1,0,0.2,0,0.3,0s0.1,0,0.2,0.1l0.1,0.1C-31.2,11.9-31.2,12-31.2,12.1L-31.2,12.1z"/>
			<path id="Fill-34" class="st0" d="M-30.1,11.4l-0.4,0.6h0.7L-30.1,11.4z M-29.5,12.6l-0.2-0.4h-0.9l-0.2,0.4h-0.4l0.8-1.6h0.3
				l0.8,1.6H-29.5z"/>
			<polygon id="Fill-35" class="st0" points="-27.6,12.6 -28.7,11.5 -28.7,12.6 -29,12.6 -29,11 -28.6,11 -27.6,12.1 -27.6,11 
				-27.3,11 -27.3,12.6 			"/>
			<path id="Fill-36" class="st0" d="M-25.5,12.1c0,0.1,0,0.2,0,0.2c0,0.1-0.1,0.1-0.1,0.1s-0.1,0.1-0.2,0.1c-0.1,0-0.2,0-0.3,0h-1
				c0-0.1,0-0.1,0-0.2c0-0.1,0-0.1,0-0.2h1h0.1h0.1c0,0,0,0,0-0.1v-0.1c0-0.1,0-0.1,0-0.1s-0.1,0-0.2,0h-0.6c-0.1,0-0.2,0-0.2,0
				c-0.1,0-0.1,0-0.2-0.1l-0.1-0.1c0,0,0-0.1,0-0.2v-0.1c0-0.1,0-0.2,0-0.2c0-0.1,0-0.1,0.1-0.1c0,0,0.1-0.1,0.2-0.1
				c0.1,0,0.2,0,0.3,0h1.1c0,0.1,0,0.1,0,0.2c0,0.1,0,0.1,0,0.2h-1c-0.1,0-0.1,0-0.2,0s0,0.1,0,0.1c0,0.1,0,0.1,0,0.1s0.1,0,0.2,0
				h0.6c0.1,0,0.2,0,0.3,0c0.1,0,0.1,0,0.2,0.1l0.1,0.1C-25.5,11.9-25.5,12-25.5,12.1L-25.5,12.1z"/>
		</g>
		<g id="Group-55" transform="translate(8.740664, 7.153846)">
			<path id="Fill-1_1_" class="st1" d="M5.3,3.1C5.3,3.1,5.2,3.1,5.3,3.1C4.8,3.2,4.4,3.3,4.1,3.4C3.5,3.7,3.1,4,2.5,4.3
				c-0.4,0.2-0.6,0.5-1,0.8C1,5.6,0.7,6.1,0.3,6.7C0.1,7.1-0.1,7.5-0.1,8c0,0.2-0.1,0.4-0.1,0.6c0,0.2,0,0.5,0,0.6
				c0,0.1,0,0.3,0,0.4c0,0.1,0,0.3,0,0.4s0,0.3,0,0.4c0,0.1,0,0.3,0.1,0.4l0,0l0,0c-0.1-0.1-0.2-0.2-0.3-0.3c0,0,0,0,0-0.1
				s0-0.3-0.1-0.4c0-0.1,0-0.3-0.1-0.4c0-0.2,0-0.4,0-0.5c0-0.2,0-0.4,0-0.5c0-0.1,0-0.3,0-0.4c0-0.2,0.1-0.4,0.1-0.5
				c0.2-0.7,0.5-1.5,0.9-2.1c0.5-0.3,0.8-0.6,1.2-0.9c0.5-0.5,1-0.7,1.6-1c0.5-0.3,1.1-0.5,1.6-0.7h0.1C5,3,5.1,3,5.3,3.1
				C5.2,3.1,5.3,3.1,5.3,3.1"/>
			<path id="Fill-3" class="st1" d="M-0.7,10.1L-0.7,10.1C-0.8,10-0.9,9.8-1,9.7V9.7c0-0.2,0-0.4,0-0.5C-1,9.1-1,9-1,8.9
				c0-0.2,0-0.4,0-0.5C-1,8.2-1,8-1,7.9c0.1-0.5,0.3-1,0.5-1.5C-0.2,6,0,5.5,0.4,5.1c0.5-0.5,0.9-0.8,1.4-1.2C2.3,3.5,2.9,3.2,3.4,3
				C3.7,2.9,4,2.8,4.2,2.7h0.1c0.1,0,0.3,0.1,0.4,0.1l0,0l0,0C4.5,2.9,4.4,3,4.3,3C3.7,3.2,3.1,3.5,2.5,3.8C2,4.1,1.6,4.4,1.1,4.8
				c-0.5,0.5-0.8,1-1.2,1.6c-0.3,0.5-0.5,0.9-0.5,1.4c-0.1,0.2-0.1,0.4-0.1,0.5c0,0.3-0.1,0.5-0.1,0.7s0,0.5,0,0.6
				C-0.7,9.9-0.7,10-0.7,10.1L-0.7,10.1"/>
			<path id="Fill-5" class="st1" d="M4.1,2.7L4.1,2.7c-0.5,0.2-1,0.4-1.4,0.6C2.1,3.6,1.6,3.9,1.1,4.3C0.7,4.6,0.3,5-0.1,5.4
				C-0.4,6-0.7,6.5-1,7.1C-1.1,7.4-1.2,7.6-1.2,8c0,0.2-0.1,0.4-0.1,0.5s0,0.4,0,0.5l0,0l0,0c-0.1-0.2-0.2-0.5-0.2-0.6V8.4V8.3
				c0-0.2,0-0.4,0.1-0.5c0.1-0.3,0.1-0.6,0.2-0.9c0.1-0.5,0.5-1.1,0.8-1.6s0.8-1,1.4-1.4c0.4-0.3,0.8-0.5,1.2-0.7
				C2.6,3,3,2.8,3.4,2.7h0.1C3.7,2.6,3.9,2.7,4.1,2.7L4.1,2.7"/>
			<path id="Fill-7_1_" class="st1" d="M0.5,11.2C0.4,11.2,0.4,11.2,0.5,11.2c-0.1-0.1-0.2-0.1-0.3-0.2c0,0,0,0,0-0.1
				c0-0.2-0.1-0.3-0.1-0.5c0-0.2-0.1-0.4-0.1-0.5c0-0.2,0-0.3,0-0.5C0,9.3,0,9.2,0,9s0-0.4,0-0.5c0.1-0.5,0.2-1.1,0.4-1.6
				c0.2-0.5,0.5-0.9,0.8-1.4C1.5,5.3,2,4.8,2.4,4.5c0.5-0.4,1.1-0.7,1.7-1c0.4-0.2,0.7-0.3,1.1-0.4l0,0l0,0c0.2,0,0.3,0.1,0.4,0.1
				l0,0l0,0C5.3,3.4,5,3.5,4.6,3.6C4.1,3.9,3.5,4.2,3.1,4.5C3,4.5,2.9,4.6,2.8,4.6c0,0,0,0-0.1,0C2.2,4.7,1.9,4.9,1.6,5.3
				C1.3,5.5,1,5.9,1,6.4C0.9,6.4,0.9,6.6,0.9,6.8c0,0,0,0,0,0.1C0.8,7.2,0.6,7.5,0.5,7.7C0.4,7.9,0.3,8.2,0.3,8.5
				c0,0.2-0.1,0.4-0.1,0.5c0,0.1,0,0.3,0,0.4c0,0.2,0,0.3,0,0.5c0,0.1,0,0.2,0,0.3s0,0.2,0,0.4c0,0.2,0.1,0.4,0.1,0.5
				C0.4,11.1,0.4,11.1,0.5,11.2L0.5,11.2"/>
			<path id="Fill-9_1_" class="st1" d="M3.2,2.6L3.2,2.6C2.8,2.8,2.3,3.1,1.9,3.2C1.4,3.5,1,3.8,0.6,4.2C0.1,4.5-0.2,5-0.6,5.4
				c-0.5,0.6-0.7,1.3-0.9,2c0,0.1-0.1,0.2-0.1,0.4c0,0,0,0,0,0.1V7.8c0-0.2,0-0.4,0-0.5c0-0.2,0-0.5,0.1-0.6V6.5
				C-1.3,6-1,5.5-0.6,5.1c0.4-0.5,0.8-0.8,1.3-1.2s1-0.7,1.6-0.9c0,0,0,0,0.1,0c-0.1-0.3-0.1-0.3,0-0.3s0.2,0,0.4,0
				C3,2.6,3.1,2.6,3.2,2.6L3.2,2.6L3.2,2.6z"/>
			<path id="Fill-11_1_" class="st1" d="M1,11.6c-0.1,0-0.2-0.1-0.3-0.1c0,0,0,0,0-0.1c-0.1-0.4-0.2-0.6-0.3-1
				c-0.1-0.3-0.1-0.6-0.1-0.9c0-0.2,0-0.4,0-0.5c0-0.5,0.2-1,0.4-1.6l0,0l0,0l0,0c0,0.1,0,0.2,0,0.3C0.9,7.7,0.9,7.8,0.9,8v0.1
				c0,0.2-0.1,0.5-0.1,0.6c0,0.3-0.1,0.5,0,0.9c0,0.2,0,0.3,0,0.5c0,0.3,0.1,0.5,0.1,0.7C0.9,11,1,11.3,1,11.6C1,11.5,1,11.6,1,11.6
				"/>
			<path id="Fill-13_1_" class="st1" d="M3,4.6L3,4.6c0.6-0.5,1.1-0.7,1.6-0.9C5,3.5,5.3,3.4,5.7,3.3h0.1c0.1,0,0.1,0.1,0.2,0.1l0,0
				H5.9c-0.7,0.2-1.4,0.5-2,0.9C3.8,4.4,3.7,4.5,3.6,4.6c-0.1,0,0,0-0.1,0s-0.2,0-0.3,0C3.1,4.6,3.1,4.6,3,4.6L3,4.6L3,4.6"/>
			<path id="Fill-15_1_" class="st1" d="M1,8.4C1,8.4,1,8.4,1,8.4C1,8.6,1.1,8.6,1.2,8.8v0.1c0,0.2,0,0.3,0,0.5c0,0.2,0,0.3,0,0.5
				s0,0.4,0,0.5c0.1,0.5,0.2,1,0.3,1.5c0,0,0,0,0,0.1l0,0c-0.1,0-0.1,0-0.2-0.1l0,0c0-0.1-0.1-0.2-0.1-0.3C1.1,11.3,1,10.9,1,10.7
				C1,10.5,1,10.3,1,10.1c0-0.2,0-0.5,0-0.6C1,9.3,1,9.2,1,9C1,8.6,1,8.5,1,8.4L1,8.4"/>
			<path id="Fill-17_1_" class="st1" d="M-1.3,5.7C-1.3,5.7-1.3,5.6-1.3,5.7c0.2-0.5,0.4-1,0.7-1.4c0.4-0.5,0.8-0.8,1.4-1.1
				C1.1,3.1,1.6,2.9,2,2.8c0,0,0,0,0.1,0c0,0,0,0-0.1,0C1.8,3,1.5,3.1,1.1,3.2C0.7,3.5,0.3,3.8-0.1,4.2C-0.6,4.6-1,5.1-1.3,5.7
				C-1.3,5.6-1.3,5.7-1.3,5.7"/>
			<path id="Fill-19_1_" class="st1" d="M5.4,8.8C5.5,8.9,5.6,9,5.6,9l0,0c0,0.3-0.1,0.5-0.2,0.7c0,0.2,0,0.4,0,0.5
				c0,0.1,0,0.3,0,0.4c0,0.2,0.1,0.4,0.1,0.5c0,0,0,0,0,0.1c0,0-0.2,0.1-0.3,0.1l0,0c0-0.1-0.1-0.3-0.1-0.4s0-0.2-0.1-0.4
				c0-0.1,0-0.2,0-0.2c0-0.1,0-0.2,0-0.3s0-0.3,0-0.4c0-0.2,0.1-0.5,0.1-0.6c0-0.1,0-0.1,0.1-0.2c0,0,0,0,0-0.1
				C5.4,8.9,5.4,8.8,5.4,8.8"/>
			<path id="Fill-21_1_" class="st1" d="M6.3,3.8C5.5,4,4.8,4.3,4.1,4.8C4,4.7,3.8,4.7,3.7,4.6l0,0C3.8,4.5,4,4.4,4.2,4.3
				c0.6-0.3,1.3-0.5,1.9-0.7h0.1C6.3,3.6,6.3,3.7,6.3,3.8C6.3,3.7,6.3,3.8,6.3,3.8"/>
			<path id="Fill-23_1_" class="st1" d="M4.5,5C4.4,4.9,4.2,4.9,4.2,4.8l0,0c0.5-0.3,0.9-0.5,1.4-0.6c0.3-0.1,0.8-0.3,0.9-0.4
				C6.5,3.8,6.6,4,6.6,4C6.4,4.1,6.2,4.2,5.9,4.3C5.7,4.3,5.4,4.5,5.2,4.6C5,4.7,4.7,4.9,4.5,5"/>
			<path id="Fill-25_1_" class="st1" d="M1.4,9c0.1,0.1,0.2,0.2,0.3,0.3c0,0,0,0,0,0.1c0,0.3,0,0.5,0,0.7c0,0.2,0,0.5,0.1,0.6
				C1.9,11,1.9,11.3,2,11.6C2,11.7,2,11.8,2,11.9l0,0l0,0c-0.1,0-0.1,0-0.2,0c0,0,0,0-0.1,0c0-0.3,0-0.5-0.1-0.5
				c-0.1-0.3-0.2-0.5-0.2-0.8c0-0.2-0.1-0.3-0.1-0.5s0-0.5,0-0.6C1.4,9.3,1.4,9.2,1.4,9L1.4,9"/>
			<path id="Fill-27_1_" class="st1" d="M5.2,11.5c-0.1,0-0.2,0.1-0.3,0.1l0,0c-0.1-0.3-0.2-0.5-0.2-0.8c0-0.3-0.1-0.5,0-0.8
				c0-0.2,0-0.3,0.1-0.5c0,0,0,0,0-0.1C4.9,9.3,5,9.2,5.2,9.1l0,0l0,0c0,0.1-0.1,0.3-0.1,0.4S5,9.7,5,9.8c0,0.1,0,0.2,0,0.4
				c0,0.2,0,0.5,0.1,0.6C5.1,11.1,5.1,11.3,5.2,11.5L5.2,11.5"/>
			<g id="Group-31" transform="translate(31.984853, 7.632208)">
				<g id="Clip-30">
				</g>
				<path id="Fill-29_1_" class="st1" d="M-27.1-2.4c-0.1-0.1-0.2-0.1-0.3-0.2l0,0l0,0c0.3-0.2,0.5-0.3,0.7-0.4
					c0.5-0.2,0.9-0.4,1.4-0.5c0,0,0,0,0.1,0l0,0l0.1,0.1l0,0c0,0.1-0.1,0.1-0.1,0.2c0,0,0,0-0.1,0c-0.2,0.1-0.4,0.1-0.5,0.2
					C-26.3-2.9-26.7-2.6-27.1-2.4L-27.1-2.4L-27.1-2.4"/>
			</g>
			<path id="Fill-32" class="st1" d="M1.9,9.5C1.9,9.5,2,9.5,1.9,9.5C2,9.6,2,9.6,2,9.7c0,0,0.1,0,0.1,0.1c0,0.1,0,0.1,0,0.2
				c0,0.2,0,0.3,0,0.5s0,0.4,0.1,0.5c0.1,0.3,0.1,0.5,0.2,0.8c0,0.1,0.1,0.2,0.1,0.3c0,0,0,0,0,0.1H2.4H2.3c0,0,0,0,0-0.1
				C2.1,11.7,2,11.3,2,10.8c0-0.2-0.1-0.4-0.1-0.5C1.9,10,1.9,9.7,1.9,9.5L1.9,9.5L1.9,9.5"/>
			<path id="Fill-34_1_" class="st1" d="M4.2,9.7c0.1,0,0.2-0.1,0.3-0.2l0,0v0.1c0,0.1,0,0.1,0,0.2v0.1c0,0.1,0,0.2,0,0.2v0.1
				c0,0.1,0,0.1,0,0.2v0.1c0,0.1,0,0.1,0,0.2v0.1v0.1c0,0.1,0,0.1,0,0.2V11v0.1v0.1v0.1v0.1c-0.1,0-0.2,0.1-0.2,0.1l0,0
				c-0.1-0.3-0.2-0.6-0.3-0.9S4,10,4,9.7C4.2,9.8,4.2,9.7,4.2,9.7"/>
			<path id="Fill-36_1_" class="st1" d="M5.9,11.1c-0.1,0.1-0.2,0.1-0.3,0.2c0-0.1-0.1-0.2-0.1-0.4c-0.1-0.4-0.1-0.6,0-1
				c0-0.3,0.1-0.5,0.2-0.8l0,0C5.8,9.2,5.9,9.3,6,9.4l0,0c0,0.3,0,0.4-0.1,0.5c0,0.2-0.1,0.5,0,0.6C5.9,10.7,5.9,10.8,5.9,11.1
				C5.9,11,5.9,11,5.9,11.1"/>
			<g id="Group-40" transform="translate(20.344289, 36.533744)">
				<g id="Clip-39">
				</g>
				<path id="Fill-38" class="st1" d="M-17.2-24.6c-0.1,0-0.2,0-0.2,0l0,0c-0.2-0.5-0.4-0.8-0.5-1.3c0-0.2-0.1-0.4-0.1-0.5
					c0-0.1,0-0.3,0-0.4c0,0,0,0,0-0.1h0.1h0.1h0.1l0,0c0,0.1,0,0.2,0,0.3c0,0.2,0,0.4,0.1,0.6C-17.6-25.4-17.4-25-17.2-24.6
					C-17.3-24.6-17.2-24.6-17.2-24.6"/>
			</g>
			<path id="Fill-41" class="st1" d="M4.3,11.8c-0.1,0-0.2,0-0.2,0.1l0,0c-0.1-0.3-0.3-0.6-0.3-0.9c0-0.2-0.1-0.4-0.1-0.5
				c0-0.2,0-0.3,0-0.5l0,0l0,0C3.9,10,4,9.9,4.1,9.9c0,0.1,0,0.2,0,0.3c0,0.1,0,0.2,0,0.3c0,0.1,0,0.2,0,0.3c0,0.1,0,0.2,0.1,0.3
				c0,0.1,0,0.2,0.1,0.3c0,0.1,0.1,0.2,0.1,0.3C4.3,11.6,4.3,11.7,4.3,11.8"/>
			<path id="Fill-43" class="st1" d="M2.8,9.8c0.1,0,0.2,0,0.3,0l0,0v0.1c0,0.2,0,0.4,0,0.5c0.1,0.5,0.2,0.9,0.4,1.4c0,0,0,0,0,0.1
				H3.2l0,0C3.1,11.5,3,11,2.9,10.7c0-0.2-0.1-0.4-0.1-0.5C2.8,10.1,2.8,10,2.8,9.8L2.8,9.8"/>
			<path id="Fill-45" class="st1" d="M4,11.9c-0.1,0-0.2,0-0.2,0s0,0,0-0.1c-0.2-0.4-0.3-0.7-0.4-1.1c0-0.2-0.1-0.3-0.1-0.5
				c0-0.2,0-0.3,0-0.5c0,0,0,0,0-0.1c0.1,0,0.1,0,0.2,0c0.1,0,0.1,0,0.2,0C3.6,9.9,3.6,9.9,3.6,10c0,0.1,0,0.1,0,0.2
				c0,0.1,0,0.1,0,0.2c0,0.1,0,0.1,0,0.2s0,0.1,0,0.2c0,0.1,0,0.1,0,0.2c0,0.1,0,0.1,0,0.2s0,0.1,0,0.2c0,0.1,0,0.1,0,0.2
				c0,0.1,0,0.1,0,0.2s0,0.1,0,0.2c0,0.1,0,0.1,0.1,0.2c0,0.1,0,0.1,0.1,0.2C3.9,11.8,4,11.8,4,11.9"/>
			<path id="Fill-47" class="st1" d="M6.5,4.5L6.5,4.5C6.4,4.7,6.3,4.8,6.2,5c0,0,0,0-0.1,0C5.9,5.1,5.7,5.2,5.4,5.4
				c-0.1,0-0.1,0.1-0.2,0.2l0,0l0,0l0,0C5.1,5.4,5,5.4,5,5.3l0,0C5.1,5.2,5.4,5,5.6,4.9C5.9,4.7,6.4,4.5,6.5,4.5"/>
			<path id="Fill-49" class="st1" d="M6.2,9.6c0,0,0.2,0.2,0.3,0.3c-0.1,0.2-0.1,0.3-0.1,0.5c0,0.2,0,0.3,0,0.5c0,0-0.2,0.2-0.3,0.2
				l0,0c0-0.3-0.1-0.5,0-0.8C6.1,9.9,6.1,9.7,6.2,9.6"/>
			<path id="Fill-51" class="st1" d="M5.3,5.5C5.3,5.4,6,5.1,6.1,5.1l0,0C5.9,5.4,5.7,5.5,5.5,5.8c0,0,0,0-0.1,0.1
				C5.3,5.7,5.3,5.6,5.3,5.5"/>
			<path id="Fill-53" class="st1" d="M6.8,10.3L6.8,10.3c0,0.1,0,0.1-0.1,0.2c-0.1,0.1-0.2,0.2-0.3,0.3l0,0l0,0c0-0.1,0-0.2,0-0.3
				c0-0.1,0-0.3,0-0.4l0,0C6.5,10,6.7,10.1,6.8,10.3"/>
		</g>
	</g>
</g>
</svg>
