<?xml version="1.0" encoding="utf-8"?>
<!-- Generator: Adobe Illustrator 24.1.2, SVG Export Plug-In . SVG Version: 6.00 Build 0)  -->
<svg version="1.1" id="Layer_1" xmlns="http://www.w3.org/2000/svg" xmlns:xlink="http://www.w3.org/1999/xlink" x="0px" y="0px"
	 viewBox="0 0 85 28.3" style="enable-background:new 0 0 85 28.3;" xml:space="preserve">
<style type="text/css">
	.st0{fill:#B4B4B5;}
</style>
<g>
	<path class="st0" d="M49.5,12.6l-0.2,1.8l8.1,0L57.1,16L49,16l-0.2,1.8l8.1,0l-0.2,1.8l-10.7,0l1.2-8.7l10.7,0l-0.2,1.8L49.5,12.6z
		"/>
	<path class="st0" d="M60.8,19.6l-2.6,0l1.2-8.7l2.6,0L60.8,19.6z"/>
	<path class="st0" d="M75.2,15.2c-0.4,3-2.9,4.4-5.5,4.4l-7.4,0l1.2-8.7l7.4,0C73.5,10.8,75.6,12.2,75.2,15.2z M72.6,15.2
		c0.3-2.1-1-2.5-3-2.5l-3.8,0l-0.7,5l3.8,0C70.9,17.7,72.3,17.3,72.6,15.2z"/>
	<polygon class="st0" points="42.3,10.8 37.3,16.9 33.9,10.8 33.3,10.8 30.3,10.8 29.2,19.5 31.8,19.5 32.6,13.5 36,19.5 37.9,19.5 
		42.9,13.5 42.1,19.5 44.7,19.5 45.9,10.8 	"/>
	<g>
		<g>
			<path class="st0" d="M29.6,22l-0.3-0.5l-0.1,0.8h-0.3l0.2-1.3h0.3l0.3,0.6l0.5-0.6h0.3l-0.2,1.3H30l0.1-0.8L29.6,22L29.6,22z"/>
			<path class="st0" d="M30.6,21.8c0-0.1,0-0.1,0-0.2c0-0.1,0.1-0.1,0.1-0.2c0-0.1,0.1-0.1,0.1-0.2c0.1,0,0.1-0.1,0.2-0.1
				c0.1,0,0.1-0.1,0.2-0.1c0.1,0,0.1,0,0.2,0c0.1,0,0.2,0,0.2,0c0.1,0,0.1,0.1,0.2,0.1c0.1,0.1,0.1,0.1,0.1,0.2c0,0.1,0,0.2,0,0.2
				c0,0.1,0,0.1,0,0.2c0,0.1-0.1,0.1-0.1,0.2c0,0.1-0.1,0.1-0.1,0.2c-0.1,0-0.1,0.1-0.2,0.1c-0.1,0-0.1,0.1-0.2,0.1
				c-0.1,0-0.1,0-0.2,0c-0.1,0-0.2,0-0.2,0c-0.1,0-0.1-0.1-0.2-0.1c-0.1-0.1-0.1-0.1-0.1-0.2C30.6,21.9,30.6,21.9,30.6,21.8z
				 M30.9,21.8c0,0.1,0,0.1,0,0.1c0,0,0,0.1,0.1,0.1c0,0,0.1,0.1,0.1,0.1c0,0,0.1,0,0.1,0c0,0,0.1,0,0.1,0c0,0,0.1,0,0.1,0
				c0,0,0.1,0,0.1-0.1c0,0,0.1-0.1,0.1-0.1c0,0,0-0.1,0.1-0.1c0,0,0-0.1,0-0.1c0-0.1,0-0.1,0-0.1c0,0,0-0.1-0.1-0.1
				c0,0-0.1-0.1-0.1-0.1c0,0-0.1,0-0.1,0c-0.1,0-0.1,0-0.2,0c-0.1,0-0.1,0.1-0.2,0.1c0,0-0.1,0.1-0.1,0.2
				C30.9,21.6,30.9,21.7,30.9,21.8z"/>
			<path class="st0" d="M33.2,21h0.3l-0.8,1.3h-0.3L32.1,21h0.3l0.2,0.9h0L33.2,21z"/>
			<path class="st0" d="M33.6,21h0.3l-0.2,1.3h-0.3L33.6,21z"/>
			<path class="st0" d="M34.6,22l-0.3-0.5l-0.1,0.8h-0.3l0.2-1.3h0.3l0.3,0.6l0.5-0.6h0.3l-0.2,1.3H35l0.1-0.8L34.6,22L34.6,22z"/>
			<path class="st0" d="M35.8,21h0.9l0,0.3H36l0,0.3h0.5l0,0.3h-0.5l0,0.3h0.6l0,0.3h-0.9L35.8,21z"/>
			<path class="st0" d="M37.9,22.3h-0.3l-0.5-0.8L37,22.3h-0.3l0.2-1.3h0.3l0.5,0.8l0.1-0.8h0.3L37.9,22.3z"/>
			<path class="st0" d="M38.5,21.3h-0.4l0-0.3h1l0,0.3h-0.4l-0.2,1.1h-0.3L38.5,21.3z"/>
			<path class="st0" d="M39.2,21.8c0-0.1,0-0.1,0-0.2c0-0.1,0.1-0.1,0.1-0.2c0-0.1,0.1-0.1,0.1-0.2c0.1,0,0.1-0.1,0.2-0.1
				c0.1,0,0.1-0.1,0.2-0.1c0.1,0,0.1,0,0.2,0c0.1,0,0.2,0,0.2,0c0.1,0,0.1,0.1,0.2,0.1c0.1,0.1,0.1,0.1,0.1,0.2c0,0.1,0,0.2,0,0.2
				c0,0.1,0,0.1,0,0.2c0,0.1-0.1,0.1-0.1,0.2c0,0.1-0.1,0.1-0.1,0.2c-0.1,0-0.1,0.1-0.2,0.1c-0.1,0-0.1,0.1-0.2,0.1
				c-0.1,0-0.1,0-0.2,0c-0.1,0-0.2,0-0.2,0c-0.1,0-0.1-0.1-0.2-0.1c-0.1-0.1-0.1-0.1-0.1-0.2C39.2,21.9,39.2,21.9,39.2,21.8z
				 M39.5,21.8c0,0.1,0,0.1,0,0.1c0,0,0,0.1,0.1,0.1c0,0,0.1,0.1,0.1,0.1c0,0,0.1,0,0.1,0c0,0,0.1,0,0.1,0c0,0,0.1,0,0.1,0
				c0,0,0.1,0,0.1-0.1c0,0,0.1-0.1,0.1-0.1c0,0,0-0.1,0.1-0.1s0-0.1,0-0.1c0-0.1,0-0.1,0-0.1c0,0,0-0.1-0.1-0.1c0,0-0.1-0.1-0.1-0.1
				c0,0-0.1,0-0.1,0c-0.1,0-0.1,0-0.2,0c-0.1,0-0.1,0.1-0.2,0.1c0,0-0.1,0.1-0.1,0.2C39.5,21.6,39.5,21.7,39.5,21.8z"/>
			<path class="st0" d="M41.3,21h0.9l0,0.3h-0.6l0,0.3h0.5l0,0.3h-0.5l0,0.3h0.6l0,0.3h-0.9L41.3,21z"/>
			<path class="st0" d="M43.3,21h0.3l-0.1,0.8c0,0.1,0,0.2-0.1,0.2c0,0.1-0.1,0.1-0.1,0.2c-0.1,0-0.1,0.1-0.2,0.1
				c-0.1,0-0.2,0-0.2,0c-0.1,0-0.2,0-0.2,0c-0.1,0-0.1-0.1-0.2-0.1c0,0-0.1-0.1-0.1-0.2c0-0.1,0-0.1,0-0.2l0.1-0.8h0.3l-0.1,0.8
				c0,0,0,0.1,0,0.1c0,0,0,0.1,0,0.1c0,0,0,0,0.1,0.1c0,0,0.1,0,0.1,0c0,0,0.1,0,0.1,0c0,0,0.1,0,0.1-0.1s0.1-0.1,0.1-0.1
				c0,0,0-0.1,0-0.1L43.3,21z"/>
			<path class="st0" d="M44.1,21.9h-0.2l-0.1,0.4h-0.3l0.2-1.3h0.6c0.1,0,0.1,0,0.2,0c0.1,0,0.1,0,0.1,0.1c0,0,0.1,0.1,0.1,0.1
				c0,0,0,0.1,0,0.2c0,0.1,0,0.1,0,0.2c0,0,0,0.1-0.1,0.1c0,0-0.1,0.1-0.1,0.1c0,0-0.1,0.1-0.1,0.1l0.2,0.5h-0.4L44.1,21.9z
				 M44.2,21.7C44.3,21.7,44.3,21.6,44.2,21.7c0.1,0,0.1,0,0.2-0.1c0,0,0,0,0-0.1c0,0,0-0.1,0-0.1c0,0,0,0,0-0.1c0,0,0,0,0,0
				c0,0,0,0,0,0c0,0,0,0-0.1,0h-0.3L44,21.7H44.2z"/>
			<path class="st0" d="M44.8,21.8c0-0.1,0-0.1,0-0.2c0-0.1,0.1-0.1,0.1-0.2c0-0.1,0.1-0.1,0.1-0.2c0.1,0,0.1-0.1,0.2-0.1
				c0.1,0,0.1-0.1,0.2-0.1c0.1,0,0.1,0,0.2,0c0.1,0,0.2,0,0.2,0c0.1,0,0.1,0.1,0.2,0.1c0.1,0.1,0.1,0.1,0.1,0.2c0,0.1,0,0.2,0,0.2
				c0,0.1,0,0.1,0,0.2c0,0.1-0.1,0.1-0.1,0.2c0,0.1-0.1,0.1-0.1,0.2c-0.1,0-0.1,0.1-0.2,0.1c-0.1,0-0.1,0.1-0.2,0.1
				c-0.1,0-0.1,0-0.2,0c-0.1,0-0.2,0-0.2,0c-0.1,0-0.1-0.1-0.2-0.1s-0.1-0.1-0.1-0.2C44.9,21.9,44.8,21.9,44.8,21.8z M45.1,21.8
				c0,0.1,0,0.1,0,0.1c0,0,0,0.1,0.1,0.1s0.1,0.1,0.1,0.1c0,0,0.1,0,0.1,0c0,0,0.1,0,0.1,0c0,0,0.1,0,0.1,0c0,0,0.1,0,0.1-0.1
				c0,0,0.1-0.1,0.1-0.1c0,0,0-0.1,0.1-0.1c0,0,0-0.1,0-0.1c0-0.1,0-0.1,0-0.1c0,0,0-0.1-0.1-0.1c0,0-0.1-0.1-0.1-0.1
				c0,0-0.1,0-0.1,0c-0.1,0-0.1,0-0.2,0c-0.1,0-0.1,0.1-0.2,0.1c0,0-0.1,0.1-0.1,0.2C45.2,21.6,45.1,21.7,45.1,21.8z"/>
			<path class="st0" d="M46.7,21.9l-0.1,0.4h-0.3l0.2-1.3h0.6c0.1,0,0.1,0,0.2,0c0.1,0,0.1,0,0.1,0.1c0,0,0.1,0.1,0.1,0.1
				c0,0,0,0.1,0,0.2c0,0.1,0,0.1,0,0.2c0,0.1-0.1,0.1-0.1,0.2c-0.1,0-0.1,0.1-0.2,0.1c-0.1,0-0.1,0-0.2,0H46.7z M47,21.7
				C47.1,21.7,47.1,21.7,47,21.7c0.1,0,0.1,0,0.2-0.1c0,0,0,0,0-0.1c0,0,0-0.1,0-0.1c0,0,0,0,0-0.1c0,0,0,0,0-0.1c0,0,0,0,0,0
				c0,0,0,0-0.1,0h-0.3l-0.1,0.4H47z"/>
			<path class="st0" d="M47.8,21h0.9l0,0.3h-0.6l0,0.3h0.5l0,0.3H48l0,0.3h0.6l0,0.3h-0.9L47.8,21z"/>
			<path class="st0" d="M49.8,21h0.3l-0.1,0.8c0,0.1,0,0.2-0.1,0.2c0,0.1-0.1,0.1-0.1,0.2c-0.1,0-0.1,0.1-0.2,0.1
				c-0.1,0-0.2,0-0.2,0c-0.1,0-0.2,0-0.2,0c-0.1,0-0.1-0.1-0.2-0.1s-0.1-0.1-0.1-0.2c0-0.1,0-0.1,0-0.2l0.1-0.8h0.3l-0.1,0.8
				c0,0,0,0.1,0,0.1c0,0,0,0.1,0,0.1c0,0,0,0,0.1,0.1s0.1,0,0.1,0c0,0,0.1,0,0.1,0c0,0,0.1,0,0.1-0.1s0.1-0.1,0.1-0.1
				c0,0,0-0.1,0-0.1L49.8,21z"/>
			<path class="st0" d="M50.7,21h0.5c0.1,0,0.2,0,0.2,0c0.1,0,0.1,0.1,0.2,0.1c0.1,0,0.1,0.1,0.1,0.2c0,0.1,0,0.1,0,0.2
				c0,0.1,0,0.2-0.1,0.3c0,0.1-0.1,0.2-0.2,0.2c-0.1,0.1-0.2,0.1-0.3,0.2c-0.1,0-0.2,0.1-0.4,0.1h-0.5L50.7,21z M51,22.1
				c0.1,0,0.1,0,0.2,0c0.1,0,0.1-0.1,0.2-0.1s0.1-0.1,0.1-0.2c0-0.1,0-0.1,0-0.2c0,0,0-0.1,0-0.1c0,0,0-0.1-0.1-0.1
				c0,0-0.1,0-0.1-0.1c0,0-0.1,0-0.2,0H51l-0.1,0.8H51z"/>
			<path class="st0" d="M52.1,21h0.9l0,0.3h-0.6l0,0.3h0.5l0,0.3h-0.5l0,0.3h0.6l0,0.3h-0.9L52.1,21z"/>
			<path class="st0" d="M53.6,21H54l-0.2,1.3h-0.3L53.6,21z"/>
			<path class="st0" d="M54.7,22l-0.3-0.5l-0.1,0.8h-0.3l0.2-1.3h0.3l0.3,0.6l0.5-0.6h0.3l-0.2,1.3H55l0.1-0.8L54.7,22L54.7,22z"/>
			<path class="st0" d="M55.9,21.9l-0.1,0.4h-0.3l0.2-1.3h0.6c0.1,0,0.1,0,0.2,0c0.1,0,0.1,0,0.1,0.1c0,0,0.1,0.1,0.1,0.1
				c0,0,0,0.1,0,0.2c0,0.1,0,0.1,0,0.2c0,0.1-0.1,0.1-0.1,0.2c-0.1,0-0.1,0.1-0.2,0.1c-0.1,0-0.1,0-0.2,0H55.9z M56.2,21.7
				C56.2,21.7,56.3,21.7,56.2,21.7c0.1,0,0.1,0,0.2-0.1c0,0,0,0,0-0.1c0,0,0-0.1,0-0.1c0,0,0,0,0-0.1c0,0,0,0,0-0.1c0,0,0,0,0,0
				c0,0,0,0-0.1,0H56L56,21.7H56.2z"/>
			<path class="st0" d="M57,21h0.3l-0.2,1.1h0.6l0,0.3h-0.9L57,21z"/>
			<path class="st0" d="M58.7,22.1h-0.6L58,22.3h-0.3l0.8-1.3h0.3l0.3,1.3h-0.3L58.7,22.1z M58.3,21.9h0.3l-0.1-0.4l0,0h0l0,0
				L58.3,21.9z"/>
			<path class="st0" d="M60.4,22.3h-0.3l-0.5-0.8l-0.1,0.8h-0.3l0.2-1.3h0.3l0.5,0.8l0.1-0.8h0.3L60.4,22.3z"/>
			<path class="st0" d="M61.1,21.3h-0.4l0-0.3h1l0,0.3h-0.4l-0.2,1.1h-0.3L61.1,21.3z"/>
			<path class="st0" d="M61.9,21h0.9l0,0.3h-0.6l0,0.3h0.5l0,0.3h-0.5l0,0.3h0.6l0,0.3h-0.9L61.9,21z"/>
			<path class="st0" d="M63.1,21.9c0,0.1,0,0.1,0,0.1c0,0,0.1,0,0.2,0c0.1,0,0.2,0,0.2,0c0,0,0.1-0.1,0.1-0.1c0,0,0,0,0-0.1
				c0,0,0,0-0.1,0c0,0-0.1,0-0.1,0c0,0-0.1,0-0.1,0c0,0,0,0-0.1,0c0,0-0.1,0-0.1,0c0,0-0.1,0-0.1,0c0,0-0.1,0-0.1-0.1
				c0,0,0,0-0.1-0.1c0,0,0-0.1,0-0.1c0-0.1,0-0.1,0-0.2c0-0.1,0.1-0.1,0.1-0.1c0.1,0,0.1-0.1,0.2-0.1c0.1,0,0.2,0,0.3,0
				c0.1,0,0.1,0,0.2,0c0.1,0,0.1,0,0.1,0.1c0,0,0.1,0.1,0.1,0.1s0,0.1,0,0.2h-0.3c0,0,0,0,0-0.1c0,0,0,0,0,0c0,0,0,0-0.1,0
				c0,0-0.1,0-0.1,0c0,0-0.1,0-0.1,0c0,0-0.1,0-0.1,0c0,0,0,0,0,0c0,0,0,0,0,0.1c0,0,0,0,0,0.1c0,0,0,0,0.1,0c0,0,0.1,0,0.1,0
				c0,0,0.1,0,0.1,0c0.1,0,0.1,0,0.2,0c0.1,0,0.1,0,0.1,0.1c0,0,0.1,0.1,0.1,0.1c0,0,0,0.1,0,0.1c0,0.1,0,0.1,0,0.2
				s-0.1,0.1-0.1,0.2c-0.1,0-0.1,0.1-0.2,0.1c-0.1,0-0.2,0-0.3,0c-0.1,0-0.1,0-0.2,0c-0.1,0-0.1,0-0.1,0c0,0-0.1,0-0.1-0.1
				c0,0,0-0.1-0.1-0.1c0,0,0-0.1,0-0.1s0-0.1,0-0.1H63.1z"/>
			<path class="st0" d="M64.7,21h0.5c0.1,0,0.2,0,0.2,0c0.1,0,0.1,0.1,0.2,0.1c0.1,0,0.1,0.1,0.1,0.2c0,0.1,0,0.1,0,0.2
				c0,0.1,0,0.2-0.1,0.3c0,0.1-0.1,0.2-0.2,0.2c-0.1,0.1-0.2,0.1-0.3,0.2c-0.1,0-0.2,0.1-0.4,0.1h-0.5L64.7,21z M65,22.1
				c0.1,0,0.1,0,0.2,0c0.1,0,0.1-0.1,0.2-0.1s0.1-0.1,0.1-0.2c0-0.1,0-0.1,0-0.2c0,0,0-0.1,0-0.1c0,0,0-0.1-0.1-0.1s-0.1,0-0.1-0.1
				c0,0-0.1,0-0.2,0h-0.2l-0.1,0.8H65z"/>
			<path class="st0" d="M66.1,21h0.9l0,0.3h-0.6l0,0.3h0.5l0,0.3h-0.5l0,0.3h0.6l0,0.3h-0.9L66.1,21z"/>
			<path class="st0" d="M68.2,22.3h-0.3l-0.5-0.8l-0.1,0.8H67l0.2-1.3h0.3l0.5,0.8l0.1-0.8h0.3L68.2,22.3z"/>
			<path class="st0" d="M68.9,21.3h-0.4l0-0.3h1l0,0.3h-0.4L69,22.3h-0.3L68.9,21.3z"/>
			<path class="st0" d="M70.2,22.1h-0.6l-0.1,0.2h-0.3L70,21h0.3l0.3,1.3h-0.3L70.2,22.1z M69.8,21.9h0.3l-0.1-0.4l0,0h0l0,0
				L69.8,21.9z M70.6,20.6l-0.2,0.2h-0.2l0.2-0.3L70.6,20.6z"/>
			<path class="st0" d="M71.3,21.9h-0.2L71,22.3h-0.3L71,21h0.6c0.1,0,0.1,0,0.2,0c0.1,0,0.1,0,0.1,0.1c0,0,0.1,0.1,0.1,0.1
				c0,0,0,0.1,0,0.2c0,0.1,0,0.1,0,0.2c0,0,0,0.1-0.1,0.1c0,0-0.1,0.1-0.1,0.1c0,0-0.1,0.1-0.1,0.1l0.2,0.5h-0.4L71.3,21.9z
				 M71.4,21.7C71.5,21.7,71.5,21.6,71.4,21.7c0.1,0,0.1,0,0.2-0.1c0,0,0,0,0-0.1c0,0,0-0.1,0-0.1c0,0,0,0,0-0.1c0,0,0,0,0,0
				c0,0,0,0,0,0c0,0,0,0-0.1,0h-0.3l-0.1,0.4H71.4z"/>
			<path class="st0" d="M72.2,21h0.3l-0.2,1.3H72L72.2,21z"/>
			<path class="st0" d="M72.6,21.8c0-0.1,0-0.1,0-0.2c0-0.1,0.1-0.1,0.1-0.2c0-0.1,0.1-0.1,0.1-0.2c0.1,0,0.1-0.1,0.2-0.1
				c0.1,0,0.1-0.1,0.2-0.1c0.1,0,0.1,0,0.2,0c0.1,0,0.2,0,0.2,0c0.1,0,0.1,0.1,0.2,0.1c0.1,0.1,0.1,0.1,0.1,0.2c0,0.1,0,0.2,0,0.2
				c0,0.1,0,0.1,0,0.2c0,0.1-0.1,0.1-0.1,0.2c0,0.1-0.1,0.1-0.1,0.2c-0.1,0-0.1,0.1-0.2,0.1c-0.1,0-0.1,0.1-0.2,0.1
				c-0.1,0-0.1,0-0.2,0c-0.1,0-0.2,0-0.2,0c-0.1,0-0.1-0.1-0.2-0.1c-0.1-0.1-0.1-0.1-0.1-0.2C72.6,21.9,72.6,21.9,72.6,21.8z
				 M72.9,21.8c0,0.1,0,0.1,0,0.1c0,0,0,0.1,0.1,0.1c0,0,0.1,0.1,0.1,0.1c0,0,0.1,0,0.1,0c0,0,0.1,0,0.1,0c0,0,0.1,0,0.1,0
				c0,0,0.1,0,0.1-0.1c0,0,0.1-0.1,0.1-0.1c0,0,0-0.1,0.1-0.1c0,0,0-0.1,0-0.1c0-0.1,0-0.1,0-0.1c0,0,0-0.1-0.1-0.1
				c0,0-0.1-0.1-0.1-0.1c0,0-0.1,0-0.1,0c-0.1,0-0.1,0-0.2,0c-0.1,0-0.1,0.1-0.2,0.1c0,0-0.1,0.1-0.1,0.2
				C72.9,21.6,72.9,21.7,72.9,21.8z"/>
			<path class="st0" d="M74.4,21.9c0,0.1,0,0.1,0,0.1c0,0,0.1,0,0.2,0c0.1,0,0.2,0,0.2,0c0,0,0.1-0.1,0.1-0.1c0,0,0,0,0-0.1
				c0,0,0,0-0.1,0c0,0-0.1,0-0.1,0c0,0-0.1,0-0.1,0c0,0,0,0-0.1,0c0,0-0.1,0-0.1,0c0,0-0.1,0-0.1,0c0,0-0.1,0-0.1-0.1
				c0,0,0,0-0.1-0.1c0,0,0-0.1,0-0.1c0-0.1,0-0.1,0-0.2c0-0.1,0.1-0.1,0.1-0.1s0.1-0.1,0.2-0.1c0.1,0,0.2,0,0.3,0c0.1,0,0.1,0,0.2,0
				c0.1,0,0.1,0,0.1,0.1c0,0,0.1,0.1,0.1,0.1c0,0.1,0,0.1,0,0.2h-0.3c0,0,0,0,0-0.1c0,0,0,0,0,0c0,0,0,0-0.1,0c0,0-0.1,0-0.1,0
				c0,0-0.1,0-0.1,0c0,0-0.1,0-0.1,0c0,0,0,0,0,0c0,0,0,0,0,0.1c0,0,0,0,0,0.1c0,0,0,0,0.1,0c0,0,0.1,0,0.1,0c0,0,0.1,0,0.1,0
				c0.1,0,0.1,0,0.2,0c0.1,0,0.1,0,0.1,0.1c0,0,0.1,0.1,0.1,0.1c0,0,0,0.1,0,0.1c0,0.1,0,0.1,0,0.2s-0.1,0.1-0.1,0.2
				s-0.1,0.1-0.2,0.1c-0.1,0-0.2,0-0.3,0c-0.1,0-0.1,0-0.2,0c-0.1,0-0.1,0-0.1,0c0,0-0.1,0-0.1-0.1s0-0.1-0.1-0.1c0,0,0-0.1,0-0.1
				s0-0.1,0-0.1H74.4z"/>
		</g>
	</g>
	<g>
		<path class="st0" d="M30.5,6.8h1.1c0.2,0,0.4,0,0.5,0.1s0.3,0.1,0.4,0.2s0.2,0.2,0.3,0.4c0.1,0.1,0.1,0.3,0.1,0.5
			c0,0.2,0,0.4-0.1,0.6c-0.1,0.2-0.2,0.4-0.3,0.5c-0.1,0.1-0.3,0.3-0.5,0.3c-0.2,0.1-0.5,0.1-0.7,0.1H30L30.5,6.8z M31.2,9
			c0.2,0,0.3,0,0.4-0.1c0.1,0,0.2-0.1,0.3-0.2c0.1-0.1,0.2-0.2,0.2-0.3c0-0.1,0.1-0.3,0.1-0.4c0-0.1,0-0.2,0-0.3s-0.1-0.2-0.1-0.2
			c-0.1-0.1-0.1-0.1-0.2-0.1c-0.1,0-0.2,0-0.3,0H31L30.8,9H31.2z"/>
		<path class="st0" d="M33.5,6.8h1.9l-0.1,0.6H34l-0.1,0.6h1.1L35,8.4h-1.1L33.7,9h1.3L35,9.5h-2L33.5,6.8z"/>
		<path class="st0" d="M37.8,9.5h-0.6l-1-1.6L36,9.5h-0.6l0.5-2.8h0.6l1,1.6l0.3-1.6h0.6L37.8,9.5z"/>
		<path class="st0" d="M39.3,7.3h-0.8l0.1-0.6h2.2l-0.1,0.6h-0.8l-0.4,2.2h-0.6L39.3,7.3z"/>
		<path class="st0" d="M42.1,9.1H41l-0.3,0.4H40l1.6-2.8h0.6l0.6,2.8h-0.7L42.1,9.1z M41.3,8.5H42l-0.2-0.8l0-0.1h0l0,0.1L41.3,8.5z
			"/>
		<path class="st0" d="M43.6,6.8h0.6L43.9,9H45l-0.1,0.6h-1.8L43.6,6.8z"/>
	</g>
	<path class="st0" d="M24.5,9.8c-0.5-2.2-2-3-2.3-3.1c-3.2,0-9.1,0-9.1,0s0.4,3.3,3.1,3.3c2,0,6.2-1.3,8.2,0
		C24.5,10,24.5,9.9,24.5,9.8z"/>
	<path class="st0" d="M22.9,6.7c0,0,1.5,0.5,2,3c0.4,2,0.4,4.3,3.3,4.3c-0.5-1.9-0.7-3.3-1-5.2C26.9,6.8,24.7,6.6,22.9,6.7z"/>
	<path class="st0" d="M19.8,18.7c0.3,0,0.6,0,0.6,0l1.5-0.2c2.1-0.9,3.9-1.6,5.2-2.2c-1.1-2-2.9-1.8-3.9-1.4
		c-0.8,0.3-2.4,1.1-4.5,1.4c-1.3,0.2-2.2-0.3-2.7-0.6C16.5,18.2,18.6,18.7,19.8,18.7z"/>
	<path class="st0" d="M9.8,9.5c0,0,1.1,2.7,1.2,5.3c0.1,3.9,2,5.3,3.6,5.8c1.9,0.6,5.9-1.6,5.9-1.6s-4.2,0.7-5.1-3.6
		C14.8,12.4,13.8,9.1,9.8,9.5z"/>
</g>
</svg>
