<?xml version="1.0" encoding="utf-8"?>
<!-- Generator: Adobe Illustrator 24.1.2, SVG Export Plug-In . SVG Version: 6.00 Build 0)  -->
<svg version="1.1" id="Layer_1" xmlns="http://www.w3.org/2000/svg" xmlns:xlink="http://www.w3.org/1999/xlink" x="0px" y="0px"
	 viewBox="0 0 85 28.3" style="enable-background:new 0 0 85 28.3;" xml:space="preserve">
<style type="text/css">
	.st0{fill:#B4B4B5;}
</style>
<g>
	<path class="st0" d="M37.5,10.4c-0.2-0.5-0.7-0.7-1.4-0.7h-1.5c-0.1,0-0.2,0-0.2-0.1c-0.1,0-0.1-0.1-0.1-0.2c0-0.1,0-0.1,0.1-0.2
		c0.1,0,0.1-0.1,0.2-0.1h2.9v-1h-2.8c-0.3,0-0.6,0.1-0.8,0.2c-0.3,0.1-0.5,0.3-0.6,0.6c-0.1,0.2-0.1,0.4-0.1,0.5
		c0,0.2,0,0.4,0.1,0.5c0.2,0.5,0.7,0.7,1.4,0.7h1.5c0.1,0,0.2,0,0.2,0.1c0.1,0.1,0.1,0.1,0.1,0.2c0,0.2-0.1,0.2-0.3,0.2h-2.9v1h2.8
		c0.3,0,0.6-0.1,0.8-0.2c0.3-0.1,0.5-0.3,0.6-0.6c0.1-0.2,0.1-0.3,0.1-0.5C37.7,10.8,37.6,10.6,37.5,10.4 M32.8,10.4
		c-0.2-0.5-0.7-0.7-1.4-0.7h-1.5c-0.1,0-0.2,0-0.2-0.1c-0.1,0-0.1-0.1-0.1-0.2c0-0.1,0-0.1,0.1-0.2c0.1,0,0.1-0.1,0.2-0.1h2.9v-1
		h-2.8c-0.3,0-0.6,0.1-0.8,0.2c-0.3,0.1-0.5,0.3-0.6,0.6c-0.1,0.2-0.1,0.4-0.1,0.5c0,0.2,0,0.4,0.1,0.5c0.2,0.5,0.7,0.7,1.4,0.7h1.5
		c0.1,0,0.2,0,0.2,0.1c0.1,0.1,0.1,0.1,0.1,0.2c0,0.2-0.1,0.2-0.3,0.2h-2.9v1h2.8c0.3,0,0.6-0.1,0.8-0.2c0.3-0.1,0.5-0.3,0.6-0.6
		c0.1-0.2,0.1-0.3,0.1-0.5C32.9,10.8,32.8,10.6,32.8,10.4 M28,8.2h-1v4.1h1V8.2z M25.5,8.2l-0.7,2.2c-0.1,0.3-0.2,0.6-0.3,0.8
		c-0.1-0.3-0.2-0.6-0.2-0.8l-0.7-2.2h-1.1l-0.7,2.2c-0.1,0.4-0.2,0.6-0.2,0.8c-0.1-0.3-0.2-0.6-0.3-0.8l-0.7-2.2h-1.2l1.6,4.1h1.1
		l0.9-2.5l0.9,2.5h1.1l1.6-4.1H25.5z M19.2,10.4c-0.2-0.5-0.7-0.7-1.4-0.7h-1.5c-0.1,0-0.2,0-0.2-0.1c-0.1,0-0.1-0.1-0.1-0.2
		c0-0.1,0-0.1,0.1-0.2c0.1,0,0.1-0.1,0.2-0.1h2.9v-1h-2.8c-0.3,0-0.6,0.1-0.8,0.2c-0.3,0.1-0.5,0.3-0.6,0.6
		c-0.1,0.2-0.1,0.4-0.1,0.5c0,0.2,0,0.4,0.1,0.5c0.2,0.5,0.7,0.7,1.4,0.7h1.5c0.1,0,0.2,0,0.2,0.1c0.1,0.1,0.1,0.1,0.1,0.2
		c0,0.2-0.1,0.2-0.3,0.2H15v1h2.8c0.3,0,0.6-0.1,0.8-0.2c0.3-0.1,0.5-0.3,0.6-0.6c0.1-0.2,0.1-0.3,0.1-0.5
		C19.3,10.8,19.3,10.6,19.2,10.4"/>
	<path class="st0" d="M42.8,16.1h-3v-3h-1v4.1h4V16.1z M35.4,15.2c0.3-0.5,0.4-0.9,0.5-1.1c0.1,0.2,0.1,0.4,0.2,0.6
		c0.1,0.1,0.2,0.3,0.3,0.6H35.4z M36.5,13h-1.2l-2.1,4.1h1.2l0.4-0.9H37l0.4,0.9h1.2L36.5,13z M33.8,13h-3.9v1h1.4v3h1v-3h1.4V13z
		 M29.5,13h-1v2.7c-0.1-0.1-0.2-0.2-0.2-0.3L26,13h-1.1v4.1h1v-2.7c0.1,0.1,0.2,0.2,0.3,0.3l2.1,2.3h1.2V13z M24.4,16.1h-3v-0.5h2.9
		v-1h-2.9v-0.5h3v-1h-4.1v4.1h4.1V16.1z M18.8,16c0,0-0.1,0.1-0.1,0.1H16v-2h2.6c0.1,0,0.1,0,0.1,0.1c0,0,0.1,0.1,0.1,0.2v1.6
		C18.8,15.9,18.8,15.9,18.8,16 M19.9,14.3c0-0.3-0.1-0.6-0.4-0.9C19.3,13.1,19,13,18.6,13H15v4.1h3.6c0.3,0,0.6-0.1,0.9-0.4
		c0.2-0.2,0.4-0.5,0.4-0.9V14.3z"/>
	<path class="st0" d="M49.5,20.2v-0.4h-1.4v-0.4h1.4v-0.3h-1.4v-0.4h1.4v-0.4h-1.8v1.9H49.5z M46.9,19.1c0,0.1,0,0.1,0,0.2
		c0,0-0.1,0-0.1,0h-1.1v-0.6h1.1c0.1,0,0.1,0,0.1,0.1C46.9,18.8,46.9,18.9,46.9,19.1L46.9,19.1z M47.4,20.2l-0.7-0.6
		c0.1,0,0.2,0,0.3,0c0.1,0,0.1,0,0.2-0.1s0.1-0.1,0.1-0.2c0-0.1,0-0.2,0-0.3v-0.1c0-0.1,0-0.2,0-0.3c0-0.1,0-0.1-0.1-0.2
		c0,0-0.1-0.1-0.2-0.1c-0.1,0-0.2,0-0.3,0h-1.5v1.9h0.4v-0.6h0.6l0.6,0.6H47.4z M44.1,19.5h-0.8l0.4-0.8L44.1,19.5z M44.9,20.2
		l-1-1.9h-0.4l-1,1.9h0.4l0.2-0.4h1.1l0.2,0.4H44.9z M41.9,20.2c0.1,0,0.1,0,0.2,0c0.1,0,0.1,0,0.1-0.1c0,0,0.1-0.1,0.1-0.1
		c0,0,0-0.1,0-0.1l-0.2-0.2c0,0,0,0.1-0.1,0.1c0,0-0.1,0-0.2,0h-1c0,0-0.1,0-0.1,0c0,0-0.1,0-0.1,0c0,0,0,0,0-0.1c0,0,0-0.1,0-0.1
		v-0.7c0-0.1,0-0.1,0-0.2c0,0,0.1-0.1,0.2-0.1h1c0.1,0,0.1,0,0.2,0c0,0,0.1,0.1,0.1,0.1l0.2-0.2c0,0,0-0.1,0-0.1
		c0,0-0.1-0.1-0.1-0.1c0,0-0.1-0.1-0.1-0.1c-0.1,0-0.1,0-0.2,0h-1c-0.1,0-0.2,0-0.3,0c-0.1,0-0.1,0.1-0.2,0.1c0,0-0.1,0.1-0.1,0.2
		c0,0.1,0,0.2,0,0.3v0.7c0,0.1,0,0.2,0,0.3c0,0.1,0.1,0.1,0.1,0.2c0,0,0.1,0.1,0.2,0.1c0.1,0,0.2,0,0.3,0H41.9z M38.8,20.2v-1.9
		h-0.4v0.8h-1.1v-0.8H37v1.9h0.4v-0.8h1.1v0.8H38.8z M36,20.2v-1.5h0.7v-0.4h-1.7v0.4h0.7v1.5H36z M35,20.2v-0.4h-1.4v-1.5h-0.4v1.9
		H35z M32.1,19.5h-0.8l0.4-0.8L32.1,19.5z M32.9,20.2l-1-1.9h-0.4l-1,1.9h0.4l0.2-0.4h1.1l0.2,0.4H32.9z M30.2,20.2v-0.4h-1.4v-0.4
		h1.4v-0.3h-1.4v-0.4h1.4v-0.4h-1.8v1.9H30.2z M28,20.2v-1.9h-0.4v0.8h-1.1v-0.8h-0.4v1.9h0.4v-0.8h1.1v0.8H28z M24.7,20.2v-0.4
		h-1.4v-0.4h1.4v-0.3h-1.4v-0.4h1.4v-0.4h-1.8v1.9H24.7z M22.6,20.2v-0.4h-1.4v-1.5h-0.4v1.9H22.6z M20.4,18.3H20v1.9h0.4V18.3z
		 M19.5,20.2v-1.9h-0.4l-0.7,1.5l-0.7-1.5h-0.4v1.9h0.3V19l0.6,1.2h0.3l0.6-1.2v1.2H19.5z M16.9,19.6c0-0.1,0-0.2,0-0.2
		c0-0.1-0.1-0.1-0.1-0.1c0,0-0.1-0.1-0.2-0.1c-0.1,0-0.2,0-0.3,0h-0.7c-0.1,0-0.2,0-0.2,0c0,0,0-0.1,0-0.2c0-0.1,0-0.1,0-0.2
		c0,0,0.1,0,0.2,0h1.3c0-0.1,0-0.1,0-0.2c0-0.1,0-0.1,0-0.2h-1.3c-0.1,0-0.2,0-0.3,0c-0.1,0-0.1,0.1-0.2,0.1c0,0-0.1,0.1-0.1,0.2
		c0,0.1,0,0.1,0,0.2v0.1c0,0.1,0,0.2,0,0.2c0,0.1,0.1,0.1,0.1,0.2c0,0,0.1,0.1,0.2,0.1c0.1,0,0.2,0,0.3,0h0.8c0.1,0,0.2,0,0.2,0
		c0,0,0.1,0.1,0.1,0.2c0,0,0,0.1,0,0.1c0,0,0,0,0,0.1c0,0,0,0-0.1,0c0,0-0.1,0-0.1,0h-1.3c0,0.1,0,0.1,0,0.2c0,0.1,0,0.1,0,0.2h1.3
		c0.1,0,0.2,0,0.3,0c0.1,0,0.1,0,0.2-0.1c0,0,0.1-0.1,0.1-0.2C16.9,19.8,16.9,19.8,16.9,19.6L16.9,19.6z"/>
	<path class="st0" d="M12.3,13.5h-2v2.1H8.5v-2.1h-2v-1.8h2V9.6h1.8v2.1h2V13.5z M13.7,16.5V8.8c0,0,0-0.6-0.6-0.6H5.6
		c0,0-0.6,0-0.6,0.6v7.7c0,0,0,0.6,0.6,0.6h7.5C13.1,17.1,13.7,17.1,13.7,16.5"/>
	<path class="st0" d="M79.9,15.3c-0.2-0.5-0.7-0.7-1.4-0.7h-1.5c-0.1,0-0.2,0-0.2-0.1c-0.1,0-0.1-0.1-0.1-0.2c0-0.1,0-0.1,0.1-0.2
		c0.1,0,0.1-0.1,0.2-0.1h2.9v-1h-2.8c-0.3,0-0.6,0.1-0.8,0.2c-0.3,0.1-0.5,0.3-0.6,0.6c-0.1,0.2-0.1,0.4-0.1,0.5
		c0,0.2,0,0.4,0.1,0.5c0.2,0.5,0.7,0.7,1.4,0.7h1.5c0.1,0,0.2,0,0.2,0.1c0.1,0.1,0.1,0.1,0.1,0.2c0,0.2-0.1,0.2-0.3,0.2h-2.9v1h2.8
		c0.3,0,0.6-0.1,0.8-0.2c0.3-0.1,0.5-0.3,0.6-0.6C80,16.2,80,16,80,15.8C80,15.6,80,15.5,79.9,15.3 M75.2,16.1h-3v-0.5h2.9v-1h-2.9
		v-0.5h3v-1h-4.1v4.1h4.1V16.1z M70,15.8c-0.2,0.2-0.3,0.3-0.4,0.3h-2.4c-0.1,0-0.1,0-0.1-0.1S67,15.9,67,15.8v-1.6
		c0-0.1,0-0.1,0.1-0.2c0,0,0.1-0.1,0.1-0.1h2.4c0.1,0,0.1,0.1,0.2,0.2l0.9-0.7c-0.1-0.2-0.2-0.4-0.4-0.5c-0.2-0.1-0.4-0.2-0.6-0.2
		h-2.4c-0.3,0-0.6,0.1-0.9,0.4c-0.2,0.2-0.4,0.5-0.4,0.9v1.6c0,0.3,0.1,0.6,0.4,0.9c0.2,0.2,0.5,0.4,0.9,0.4h2.4
		c0.2,0,0.4-0.1,0.6-0.2c0.2-0.1,0.4-0.3,0.5-0.4L70,15.8z M65.6,13h-1v4.1h1V13z M63.2,13l-1.3,2.5c-0.1,0.2-0.2,0.4-0.3,0.6
		c-0.1-0.2-0.1-0.3-0.3-0.6L60.2,13H59l2.1,4.1h1.2l2.1-4.1H63.2z M58,14.8c0,0-0.1,0.1-0.1,0.1h-2.4v-0.8h2.4c0.1,0,0.1,0,0.1,0.1
		c0,0,0.1,0.1,0.1,0.2v0.4C58,14.7,58,14.8,58,14.8 M59.1,14.3c0-0.4-0.1-0.6-0.3-0.9c-0.2-0.2-0.5-0.4-0.9-0.4h-3.5v4.1h1v-1.2h1
		l1.2,1.2h1.5l-1.2-1.2c0.3,0,0.6-0.1,0.8-0.4c0.2-0.2,0.3-0.5,0.3-0.9V14.3z M54,16.1h-3v-0.5h2.9v-1h-2.9v-0.5h3v-1h-4.1v4.1H54
		V16.1z M49.4,15.3c-0.2-0.5-0.7-0.7-1.4-0.7h-1.5c-0.1,0-0.2,0-0.2-0.1c-0.1,0-0.1-0.1-0.1-0.2c0-0.1,0-0.1,0.1-0.2
		c0.1,0,0.1-0.1,0.2-0.1h2.9v-1h-2.8c-0.3,0-0.6,0.1-0.8,0.2c-0.3,0.1-0.5,0.3-0.6,0.6c-0.1,0.2-0.1,0.4-0.1,0.5
		c0,0.2,0,0.4,0.1,0.5c0.2,0.5,0.7,0.7,1.4,0.7h1.5c0.1,0,0.2,0,0.2,0.1c0.1,0.1,0.1,0.1,0.1,0.2c0,0.2-0.1,0.2-0.3,0.2h-2.9v1H48
		c0.3,0,0.6-0.1,0.8-0.2c0.3-0.1,0.5-0.3,0.6-0.6c0.1-0.2,0.1-0.3,0.1-0.5C49.5,15.6,49.5,15.5,49.4,15.3"/>
</g>
</svg>
