<?xml version="1.0" encoding="utf-8"?>
<!-- Generator: Adobe Illustrator 24.3.0, SVG Export Plug-In . SVG Version: 6.00 Build 0)  -->
<svg version="1.1" id="Layer_1" xmlns="http://www.w3.org/2000/svg" xmlns:xlink="http://www.w3.org/1999/xlink" x="0px" y="0px"
	 viewBox="0 0 85 28.3" style="enable-background:new 0 0 85 28.3;" xml:space="preserve">
<style type="text/css">
	.st0{fill-rule:evenodd;clip-rule:evenodd;fill:#B4B4B5;}
</style>
<g>
	<g transform="translate(0 .153)">
		<path class="st0" d="M78,8.2c0-0.3-0.1-0.6-0.2-0.8c-0.1-0.2-0.3-0.4-0.6-0.6c-0.2-0.1-0.5-0.2-0.8-0.2s-0.6,0.1-0.8,0.2
			c-0.2,0.1-0.4,0.3-0.6,0.6c-0.1,0.3-0.2,0.5-0.2,0.8c0,0.3,0.1,0.6,0.2,0.8c0.1,0.2,0.3,0.4,0.6,0.6c0.2,0.1,0.5,0.2,0.8,0.2
			s0.6-0.1,0.8-0.2c0.2-0.1,0.4-0.3,0.6-0.6C77.9,8.8,78,8.5,78,8.2 M77.8,8.2c0,0.2-0.1,0.5-0.2,0.7c-0.1,0.2-0.3,0.4-0.5,0.5
			c-0.2,0.1-0.4,0.2-0.7,0.2c-0.3,0-0.5-0.1-0.7-0.2c-0.2-0.1-0.4-0.3-0.5-0.5c-0.1-0.2-0.2-0.4-0.2-0.7c0-0.2,0.1-0.5,0.2-0.7
			c0.1-0.2,0.3-0.4,0.5-0.5C76,7,76.1,6.9,76.4,6.9c0.3,0,0.5,0.1,0.7,0.2c0.2,0.1,0.4,0.3,0.5,0.5S77.8,8,77.8,8.2"/>
		<path class="st0" d="M76.1,9l0.1-0.6c0.1,0,0.2,0,0.3,0l0,0L76.6,9h0.2l-0.3-0.6c0.2,0,0.4-0.2,0.4-0.5V7.8c0-0.3-0.2-0.4-0.5-0.4
			c-0.2,0-0.3,0-0.5,0L75.9,9H76.1z M76.1,8.2l0.1-0.6c0.1,0,0.2,0,0.3,0c0.2,0,0.3,0.1,0.3,0.2v0.1c0,0.2-0.2,0.3-0.4,0.3
			C76.3,8.2,76.2,8.2,76.1,8.2L76.1,8.2z M8.5,18.9l0.1-0.3c-0.1,0-0.3-0.1-0.5-0.1c-0.7,0-1,0.4-1.1,1.2c0,0.2,0,0.3,0,0.5
			c0,0.5,0.2,0.7,0.8,0.7c0.2,0,0.4,0,0.6-0.1v-0.3c-0.1,0-0.3,0-0.4,0c-0.4,0-0.5-0.2-0.5-0.4c0-0.1,0-0.3,0-0.4
			c0.1-0.5,0.1-0.8,0.7-0.8C8.2,18.8,8.4,18.8,8.5,18.9L8.5,18.9z M8.7,19.8c0,0.1,0,0.2,0,0.3c0,0.4,0.1,0.6,0.6,0.6
			c0.3,0,0.6,0,0.7-0.1v-0.3c-0.2,0-0.4,0-0.6,0C9.2,20.3,9,20.2,9,20v-0.1h0.3c0.2,0,0.6-0.1,0.8-0.1v-0.1c0-0.1,0-0.2,0-0.3
			c0-0.3-0.1-0.6-0.6-0.6C9,19,8.8,19.2,8.7,19.8L8.7,19.8z M9,19.8c0-0.3,0.1-0.5,0.5-0.5c0.2,0,0.3,0.1,0.3,0.3v0.1v0.1
			c-0.1,0-0.3,0-0.4,0H9z M11.9,19.6c0-0.1,0-0.2,0-0.2c0-0.2-0.1-0.4-0.6-0.4c-0.3,0-0.6,0.1-0.8,0.2c0,0.1,0,0.2-0.1,0.3l-0.2,1.3
			h0.4l0.2-1.2c0-0.1,0-0.2,0-0.2c0.1,0,0.2-0.1,0.3-0.1c0.3,0,0.3,0.1,0.3,0.2c0,0,0,0.1,0,0.2l-0.2,1.1h0.4L11.9,19.6z M12.6,18.6
			L12.5,19h-0.3v0.3h0.3l-0.2,1v0.1c0,0.2,0.1,0.3,0.4,0.3c0.1,0,0.2,0,0.3,0v-0.3h-0.1c-0.1,0-0.2,0-0.2-0.2c0,0,0,0,0-0.1l0.2-1
			h0.4v-0.3h-0.4l0.1-0.5L12.6,18.6z M13.8,20.7l0.2-1.2c0-0.1,0-0.2,0-0.2c0.1,0,0.2-0.1,0.3-0.1h0.1l0.1-0.3c0,0-0.1,0-0.2,0
			c-0.2,0-0.5,0-0.7,0.2c0,0.1,0,0.2-0.1,0.3l-0.2,1.3C13.3,20.7,13.8,20.7,13.8,20.7z M14.5,20.2c0,0.4,0.2,0.6,0.6,0.6
			c0.6,0,0.8-0.3,0.9-0.9c0-0.1,0-0.2,0-0.3c0-0.4-0.2-0.6-0.6-0.6c-0.6,0-0.8,0.2-0.9,0.9C14.5,20,14.5,20.1,14.5,20.2L14.5,20.2z
			 M15.6,19.8c-0.1,0.5-0.2,0.6-0.5,0.6c-0.2,0-0.3-0.1-0.3-0.3c0-0.1,0-0.2,0-0.3c0.1-0.5,0.2-0.6,0.5-0.6c0.2,0,0.3,0.1,0.3,0.3
			C15.7,19.6,15.7,19.7,15.6,19.8L15.6,19.8z M17.8,20.4c-0.2,0-0.3,0-0.3-0.2c0,0,0-0.1,0-0.2l0.1-0.3h0.9v-0.3h-0.9v-0.3
			c0-0.3,0.1-0.4,0.4-0.4h0.6v-0.3c-0.2,0-0.4,0-0.6,0c-0.4,0-0.8,0-0.8,0.5l-0.2,1.2c0,0.1,0,0.1,0,0.1c0,0.4,0.3,0.4,0.7,0.4
			c0.2,0,0.4,0,0.6,0v-0.3L17.8,20.4L17.8,20.4z M19.9,20.1c0,0.1,0,0.2,0,0.2c-0.1,0-0.2,0.1-0.3,0.1c-0.3,0-0.3-0.1-0.3-0.2
			c0,0,0-0.1,0-0.2l0.2-1.1h-0.4l-0.3,1.2c0,0.1,0,0.2,0,0.2c0,0.2,0.1,0.4,0.6,0.4c0.3,0,0.6-0.1,0.8-0.2c0-0.1,0-0.2,0.1-0.3
			l0.2-1.3H20L19.9,20.1z M20.9,20.7l0.2-1.2c0-0.1,0-0.2,0-0.2c0.1,0,0.2-0.1,0.3-0.1h0.1l0.1-0.3c0,0-0.1,0-0.2,0
			c-0.2,0-0.5,0-0.7,0.2c0,0.1,0,0.2-0.1,0.3l-0.2,1.3C20.4,20.7,20.9,20.7,20.9,20.7z M21.7,20.2c0,0.4,0.2,0.6,0.6,0.6
			c0.6,0,0.8-0.3,0.9-0.9c0-0.1,0-0.2,0-0.3c0-0.4-0.2-0.6-0.6-0.6c-0.6,0-0.8,0.2-0.9,0.9C21.7,20,21.7,20.1,21.7,20.2L21.7,20.2z
			 M22.9,19.8c-0.1,0.5-0.2,0.6-0.5,0.6c-0.2,0-0.3-0.1-0.3-0.3c0-0.1,0-0.2,0-0.3c0.1-0.5,0.2-0.6,0.5-0.6c0.2,0,0.3,0.1,0.3,0.3
			C22.9,19.6,22.9,19.7,22.9,19.8L22.9,19.8z M23.8,20.7c0.1,0,0.2,0,0.4,0c0.5,0,0.8-0.2,0.9-0.9c0-0.1,0-0.2,0-0.3
			c0-0.4-0.2-0.6-0.7-0.6c-0.2,0-0.5,0-0.7,0.2c0,0.1,0,0.2-0.1,0.3l-0.3,1.8h0.4L23.8,20.7z M24.1,20.4c-0.1,0-0.2,0-0.3,0l0.1-0.9
			c0-0.1,0-0.2,0-0.2c0.1,0,0.2-0.1,0.3-0.1c0.3,0,0.4,0.1,0.4,0.3c0,0.1,0,0.2,0,0.3C24.6,20.2,24.6,20.4,24.1,20.4L24.1,20.4z
			 M25.3,19.8c0,0.1,0,0.2,0,0.3c0,0.4,0.1,0.6,0.6,0.6c0.3,0,0.6,0,0.7-0.1v-0.3c-0.2,0-0.4,0-0.6,0s-0.4-0.1-0.4-0.3v-0.1h0.3
			c0.2,0,0.6-0.1,0.8-0.1v-0.1c0-0.1,0-0.2,0-0.3c0-0.3-0.1-0.6-0.6-0.6C25.6,19,25.4,19.2,25.3,19.8L25.3,19.8z M25.7,19.8
			c0-0.3,0.1-0.5,0.5-0.5c0.2,0,0.3,0.1,0.3,0.3v0.1v0.1c-0.1,0-0.3,0-0.4,0H25.7z M28.1,20.1c0,0.1,0,0.2,0,0.2
			c-0.1,0-0.2,0.1-0.3,0.1c-0.3,0-0.3-0.1-0.3-0.2c0,0,0-0.1,0-0.2l0.2-1.1h-0.4L27.1,20c0,0.1,0,0.2,0,0.2c0,0.2,0.1,0.4,0.6,0.4
			c0.3,0,0.6-0.1,0.8-0.2c0-0.1,0-0.2,0.1-0.3l0.2-1.3h-0.4L28.1,20.1z M29.6,20.7c0.2,0,0.4,0.1,0.7,0.1c0.8,0,1-0.4,1.2-1.2
			c0-0.2,0-0.3,0-0.5c0-0.5-0.2-0.7-0.8-0.7c-0.3,0-0.5,0-0.7,0.1L29.6,20.7z M30.3,18.8c0.1,0,0.2,0,0.3,0c0.4,0,0.6,0.2,0.6,0.4
			c0,0.1,0,0.3,0,0.4c-0.1,0.5-0.1,0.8-0.8,0.8c-0.1,0-0.2,0-0.3,0L30.3,18.8z M31.8,19.8c0,0.1,0,0.2,0,0.3c0,0.4,0.1,0.6,0.6,0.6
			c0.3,0,0.6,0,0.7-0.1v-0.3c-0.2,0-0.4,0-0.6,0S32,20.2,32,20v-0.1h0.3c0.2,0,0.6-0.1,0.8-0.1v-0.1c0-0.1,0-0.2,0-0.3
			c0-0.3-0.1-0.6-0.6-0.6C32,19,31.8,19.2,31.8,19.8L31.8,19.8z M32,19.8c0-0.3,0.1-0.5,0.5-0.5c0.2,0,0.3,0.1,0.3,0.3v0.1v0.1
			c-0.1,0-0.3,0-0.4,0H32z M34.8,19.8c0.1,0,0.2,0,0.3,0l0.3,0.9h0.5l-0.3-0.9c0.3-0.1,0.5-0.3,0.6-0.7c0-0.1,0-0.1,0-0.2
			c0-0.5-0.4-0.5-0.8-0.5c-0.3,0-0.5,0-0.7,0.1l-0.4,2.1h0.4L34.8,19.8z M34.8,19.5l0.1-0.8c0.1,0,0.2,0,0.3,0
			c0.3,0,0.4,0.1,0.4,0.3v0.1c-0.1,0.3-0.2,0.4-0.6,0.4C35,19.5,34.9,19.5,34.8,19.5L34.8,19.5z M36.2,19.8c0,0.1,0,0.2,0,0.3
			c0,0.4,0.1,0.6,0.6,0.6c0.3,0,0.6,0,0.7-0.1v-0.3c-0.2,0-0.4,0-0.6,0c-0.2,0-0.4-0.1-0.4-0.3v-0.1h0.3c0.2,0,0.6-0.1,0.8-0.1v-0.1
			c0-0.1,0-0.2,0-0.3c0-0.3-0.1-0.6-0.6-0.6C36.6,19,36.3,19.2,36.2,19.8L36.2,19.8z M36.6,19.8c0-0.3,0.1-0.5,0.5-0.5
			c0.2,0,0.3,0.1,0.3,0.3v0.1v0.1c-0.1,0-0.3,0-0.4,0H36.6z M39.4,19.5L39.4,19.5c0-0.4-0.3-0.5-0.6-0.5c-0.2,0-0.5,0-0.7,0.1v0.3
			c0.2,0,0.4,0,0.6,0c0.2,0,0.3,0.1,0.3,0.3v0.1c-0.2,0-0.4,0-0.6,0c-0.3,0.1-0.5,0.2-0.5,0.5v0.1c0,0.3,0.2,0.4,0.6,0.4
			c0.3,0,0.6,0,0.8-0.2c0-0.1,0-0.2,0.1-0.3L39.4,19.5z M38.5,19.9c0.1,0,0.3,0,0.5,0l-0.1,0.3c0,0.1,0,0.2,0,0.2
			c-0.1,0.1-0.3,0.1-0.4,0.1c-0.2,0-0.3,0-0.3-0.2c0,0,0,0,0-0.1C38.3,20,38.4,19.9,38.5,19.9L38.5,19.9z M40.4,18.4H40l-0.3,1.9
			c0,0.1,0,0.2,0,0.3c0.2,0.1,0.4,0.2,0.6,0.2c0.6,0,0.8-0.2,0.9-0.9c0-0.1,0-0.2,0-0.3c0-0.4-0.2-0.6-0.6-0.6c-0.1,0-0.3,0-0.4,0
			L40.4,18.4z M40.1,20.4c0-0.1,0-0.2,0-0.2l0.1-0.9c0.1,0,0.2,0,0.3,0c0.3,0,0.4,0.1,0.4,0.3c0,0.1,0,0.2,0,0.3
			c-0.1,0.3-0.1,0.6-0.5,0.6C40.2,20.4,40.1,20.4,40.1,20.4L40.1,20.4z M41.7,18.7c0,0.1,0.1,0.1,0.2,0.1c0.2,0,0.2-0.1,0.3-0.2
			v-0.1c0-0.1-0.1-0.1-0.2-0.1C41.8,18.4,41.7,18.4,41.7,18.7C41.7,18.6,41.7,18.7,41.7,18.7L41.7,18.7z M41.6,19.1l-0.3,1.6h0.4
			l0.3-1.6H41.6z M42.5,18.4l-0.3,1.9c0,0.1,0,0.1,0,0.2c0,0.1,0,0.3,0.1,0.4l0.3-0.2c0-0.1-0.1-0.2-0.1-0.3v-0.1l0.3-1.9H42.5z
			 M43.3,18.7c0,0.1,0.1,0.1,0.2,0.1c0.2,0,0.2-0.1,0.3-0.2v-0.1c0-0.1-0.1-0.1-0.2-0.1C43.4,18.4,43.3,18.4,43.3,18.7
			C43.3,18.6,43.3,18.7,43.3,18.7L43.3,18.7z M43.2,19.1L43,20.7h0.4l0.3-1.6C43.6,19.1,43.2,19.1,43.2,19.1z M44.2,18.6L44.1,19
			h-0.3v0.3h0.3l-0.2,1v0.1c0,0.2,0.1,0.3,0.4,0.3c0.1,0,0.2,0,0.3,0v-0.3h-0.1c-0.1,0-0.2,0-0.2-0.2c0,0,0,0,0-0.1l0.2-1h0.4v-0.3
			h-0.4l0.1-0.5L44.2,18.6z M46.5,19.5L46.5,19.5c0-0.4-0.3-0.5-0.6-0.5c-0.2,0-0.5,0-0.7,0.1v0.3c0.2,0,0.4,0,0.6,0
			c0.2,0,0.3,0.1,0.3,0.3v0.1c-0.2,0-0.4,0-0.6,0C45.2,19.9,45,20,45,20.3v0.1c0,0.3,0.2,0.4,0.6,0.4c0.3,0,0.6,0,0.8-0.2
			c0-0.1,0-0.2,0.1-0.3L46.5,19.5z M45.6,19.9c0.1,0,0.3,0,0.5,0L46,20.2c0,0.1,0,0.2,0,0.2c-0.1,0.1-0.3,0.1-0.4,0.1
			c-0.2,0-0.3,0-0.3-0.2c0,0,0,0,0-0.1C45.3,20,45.4,19.9,45.6,19.9L45.6,19.9z M46.8,21.3c0.1,0,0.2,0.1,0.2,0.1
			c0.2,0,0.4-0.1,0.4-0.3l0,0c0-0.1-0.1-0.2-0.2-0.2l0.1-0.2c0.1,0,0.3,0,0.4-0.1v-0.3c-0.1,0-0.2,0-0.3,0c-0.3,0-0.4-0.1-0.4-0.3
			c0-0.1,0-0.2,0-0.3c0.1-0.5,0.1-0.6,0.6-0.6c0.1,0,0.2,0,0.3,0l0.1-0.3c-0.1,0-0.2-0.1-0.4-0.1c-0.6,0-0.8,0.3-0.9,0.9
			c0,0.1,0,0.2,0,0.3c0,0.3,0.1,0.6,0.5,0.6L47,20.8c0.1,0,0.3,0,0.3,0.1c0,0.1-0.1,0.1-0.1,0.1c-0.1,0-0.1,0-0.2-0.1L46.8,21.3z
			 M49.5,19.5L49.5,19.5c0-0.4-0.3-0.5-0.6-0.5c-0.2,0-0.5,0-0.7,0.1v0.3c0.2,0,0.4,0,0.6,0c0.2,0,0.3,0.1,0.3,0.3v0.1
			c-0.2,0-0.4,0-0.6,0c-0.3,0.1-0.5,0.2-0.5,0.5v0.1c0,0.3,0.2,0.4,0.6,0.4c0.3,0,0.6,0,0.8-0.2c0-0.1,0-0.2,0.1-0.3L49.5,19.5z
			 M48.8,20.5c-0.2,0-0.3,0-0.3-0.2c0,0,0,0,0-0.1c0-0.2,0.1-0.3,0.3-0.3c0.1,0,0.3,0,0.5,0l-0.1,0.3c0,0.1,0,0.2,0,0.2
			C49,20.4,48.9,20.5,48.8,20.5L48.8,20.5z M49.4,18.4c0,0.1-0.1,0.2-0.1,0.2c-0.1,0-0.1-0.2-0.3-0.2c-0.1,0-0.3,0.1-0.3,0.4h0.2
			c0-0.1,0.1-0.2,0.1-0.2c0.1,0,0.1,0.2,0.3,0.2c0.1,0,0.3-0.1,0.3-0.4H49.4z M49.8,20.2c0,0.4,0.2,0.6,0.6,0.6
			c0.6,0,0.8-0.3,0.9-0.9c0-0.1,0-0.2,0-0.3c0-0.4-0.2-0.6-0.6-0.6c-0.6,0-0.8,0.2-0.9,0.9C49.8,20,49.8,20.1,49.8,20.2L49.8,20.2z
			 M51,19.8c-0.1,0.5-0.2,0.6-0.5,0.6c-0.2,0-0.3-0.1-0.3-0.3c0-0.1,0-0.2,0-0.3c0.1-0.5,0.2-0.6,0.5-0.6c0.2,0,0.3,0.1,0.3,0.3
			C51,19.6,51,19.7,51,19.8L51,19.8z M52.5,20c0,0.5,0.2,0.7,0.7,0.7c0.7,0,0.9-0.3,1.1-1.2c0-0.2,0-0.3,0-0.5
			c0-0.5-0.2-0.7-0.7-0.7c-0.7,0-0.9,0.3-1.1,1.2C52.5,19.7,52.5,19.9,52.5,20L52.5,20z M53.9,19.6c-0.1,0.5-0.2,0.8-0.6,0.8
			c-0.3,0-0.4-0.1-0.4-0.4c0-0.1,0-0.3,0.1-0.5c0.1-0.5,0.2-0.8,0.6-0.8c0.3,0,0.4,0.1,0.4,0.4C53.9,19.2,53.9,19.4,53.9,19.6
			L53.9,19.6z M54.9,20.7l0.2-1.2c0-0.1,0-0.2,0-0.2c0.1,0,0.2-0.1,0.3-0.1h0.1l0.1-0.3c0,0-0.1,0-0.2,0c-0.2,0-0.5,0-0.7,0.2
			c0,0.1,0,0.2-0.1,0.3l-0.2,1.3C54.4,20.7,54.9,20.7,54.9,20.7z M57.1,19.5L57.1,19.5c0-0.4-0.3-0.5-0.6-0.5c-0.2,0-0.5,0-0.7,0.1
			v0.3c0.2,0,0.4,0,0.6,0c0.2,0,0.3,0.1,0.3,0.3v0.1c-0.2,0-0.4,0-0.6,0c-0.3,0.1-0.5,0.2-0.5,0.5v0.1c0,0.3,0.2,0.4,0.6,0.4
			c0.3,0,0.6,0,0.8-0.2c0-0.1,0-0.2,0.1-0.3L57.1,19.5z M56.2,19.9c0.1,0,0.3,0,0.5,0l-0.1,0.3c0,0.1,0,0.2,0,0.2
			c-0.1,0.1-0.3,0.1-0.4,0.1c-0.2,0-0.3,0-0.3-0.2c0,0,0,0,0-0.1C56,20,56,19.9,56.2,19.9L56.2,19.9z M57.7,18.4l-0.3,1.9
			c0,0.1,0,0.1,0,0.2c0,0.1,0,0.3,0.1,0.4l0.3-0.2c0-0.1-0.1-0.2-0.1-0.3v-0.1l0.3-1.9H57.7z M60.7,20.7l-0.3-1.9
			c0-0.2-0.1-0.3-0.3-0.3c-0.2,0-0.3,0.1-0.4,0.3l-1,1.9h0.4l0.3-0.6h0.8l0.1,0.6H60.7z M59.5,19.8l0.5-1l0.2,1H59.5z M61.3,19.1H61
			l0.3,1.5c0,0.2,0.1,0.2,0.3,0.2c0.1,0,0.2-0.1,0.3-0.2l0.8-1.5h-0.4l-0.7,1.4L61.3,19.1z M64.1,19.5L64.1,19.5
			c0-0.4-0.3-0.5-0.6-0.5c-0.2,0-0.5,0-0.7,0.1v0.3c0.2,0,0.4,0,0.6,0c0.2,0,0.3,0.1,0.3,0.3v0.1c-0.2,0-0.4,0-0.6,0
			c-0.3,0.1-0.5,0.2-0.5,0.5v0.1c0,0.3,0.2,0.4,0.6,0.4c0.3,0,0.6,0,0.8-0.2c0-0.1,0-0.2,0.1-0.3L64.1,19.5z M63.2,19.9
			c0.1,0,0.3,0,0.5,0l-0.1,0.3c0,0.1,0,0.2,0,0.2c-0.1,0.1-0.3,0.1-0.4,0.1c-0.2,0-0.3,0-0.3-0.2c0,0,0,0,0-0.1
			C63,20,63.1,19.9,63.2,19.9L63.2,19.9z M65.9,19.6c0-0.1,0-0.2,0-0.2c0-0.2-0.1-0.4-0.6-0.4c-0.3,0-0.6,0.1-0.8,0.2
			c0,0.1,0,0.2-0.1,0.3l-0.2,1.3h0.4l0.2-1.2c0-0.1,0-0.2,0-0.2c0.1,0,0.2-0.1,0.3-0.1c0.3,0,0.3,0.1,0.3,0.2c0,0,0,0.1,0,0.2
			l-0.2,1.1h0.4L65.9,19.6z M66.4,21.3c0.1,0,0.2,0.1,0.2,0.1c0.2,0,0.4-0.1,0.4-0.3l0,0c0-0.1-0.1-0.2-0.2-0.2l0.1-0.2
			c0.1,0,0.3,0,0.4-0.1v-0.3c-0.1,0-0.2,0-0.3,0c-0.3,0-0.4-0.1-0.4-0.3c0-0.1,0-0.2,0-0.3c0.1-0.5,0.1-0.6,0.6-0.6
			c0.1,0,0.2,0,0.3,0l0.1-0.3c-0.1,0-0.2-0.1-0.4-0.1c-0.6,0-0.8,0.3-0.9,0.9c0,0.1,0,0.2,0,0.3c0,0.3,0.1,0.6,0.5,0.6l-0.2,0.3
			c0.1,0,0.3,0,0.3,0.1c0,0.1-0.1,0.1-0.1,0.1c-0.1,0-0.1,0-0.2-0.1L66.4,21.3z M69.1,19.5L69.1,19.5c0-0.4-0.3-0.5-0.6-0.5
			c-0.2,0-0.5,0-0.7,0.1v0.3c0.2,0,0.4,0,0.6,0c0.2,0,0.3,0.1,0.3,0.3v0.1c-0.2,0-0.4,0-0.6,0c-0.3,0.1-0.5,0.2-0.5,0.5v0.1
			c0,0.3,0.2,0.4,0.6,0.4c0.3,0,0.6,0,0.8-0.2c0-0.1,0-0.2,0.1-0.3L69.1,19.5z M68.2,19.9c0.1,0,0.3,0,0.5,0l-0.1,0.3
			c0,0.1,0,0.2,0,0.2c-0.1,0.1-0.3,0.1-0.4,0.1c-0.2,0-0.3,0-0.3-0.2c0,0,0,0,0-0.1C68,20,68,19.9,68.2,19.9L68.2,19.9z M70.5,19.1
			c-0.1,0-0.2,0-0.4,0c-0.5,0-0.8,0.2-0.9,0.9c0,0.1,0,0.2,0,0.3c0,0.4,0.2,0.6,0.7,0.6c0.2,0,0.5,0,0.7-0.2c0-0.1,0-0.2,0.1-0.3
			l0.3-1.9h-0.4L70.5,19.1z M70.2,19.2c0.1,0,0.2,0,0.3,0l-0.1,0.9c0,0.1,0,0.2,0,0.2c-0.1,0-0.2,0.1-0.3,0.1
			c-0.3,0-0.4-0.1-0.4-0.3c0-0.1,0-0.2,0-0.3C69.8,19.5,69.8,19.2,70.2,19.2L70.2,19.2z M72.6,19.5L72.6,19.5c0-0.4-0.3-0.5-0.6-0.5
			c-0.2,0-0.5,0-0.7,0.1v0.3c0.2,0,0.4,0,0.6,0s0.3,0.1,0.3,0.3v0.1c-0.2,0-0.4,0-0.6,0c-0.3,0.1-0.5,0.2-0.5,0.5v0.1
			c0,0.3,0.2,0.4,0.6,0.4c0.3,0,0.6,0,0.8-0.2c0-0.1,0-0.2,0.1-0.3L72.6,19.5z M71.7,19.9c0.1,0,0.3,0,0.5,0l-0.1,0.3
			c0,0.1,0,0.2,0,0.2c-0.1,0.1-0.3,0.1-0.4,0.1c-0.2,0-0.3,0-0.3-0.2c0,0,0,0,0-0.1C71.4,20,71.5,19.9,71.7,19.9L71.7,19.9z"/>
		<path class="st0" d="M18.9,16.3H9c-0.3,0-0.6-0.1-0.9-0.2c-0.3-0.1-0.5-0.3-0.7-0.5c-0.2-0.2-0.3-0.5-0.4-0.8
			c-0.1-0.3-0.1-0.7,0-1.1L8,9.2c0-0.4,0.2-0.7,0.4-1.1C8.5,7.8,8.8,7.5,9,7.3C9.3,7.2,9.6,7,9.9,6.9c0.3-0.1,0.6-0.2,0.9-0.2h10
			l-0.5,2.7h-9c-0.4,0-0.8,0.1-1,0.3c-0.2,0.2-0.4,0.6-0.5,1l-0.3,1.6c-0.1,0.5-0.1,0.8,0,1c0.1,0.2,0.4,0.3,0.8,0.3h9L18.9,16.3z"
			/>
	</g>
	<polygon class="st0" points="32.3,16.5 20,16.5 21.1,10.4 33.5,10.4 33,13 23,13 22.8,13.8 32.8,13.8 	"/>
	<polygon class="st0" points="21.9,6.9 21.3,9.5 33.6,9.5 34.1,6.9 	"/>
	<path class="st0" d="M46,16.5h-2.5L41.8,13h-5.3l-0.7,3.6h-2.3l1.2-6.2h10.2l0.1-0.8H34.8l0.5-2.7h10c0.3,0,0.6,0.1,0.9,0.2
		c0.3,0.1,0.5,0.2,0.7,0.5C47,7.7,47.1,8,47.2,8.4c0.1,0.3,0.1,0.7,0,1.1l-0.3,1.4c-0.1,0.3-0.2,0.7-0.4,0.9
		c-0.2,0.3-0.4,0.5-0.7,0.7c-0.3,0.2-0.5,0.4-0.8,0.5c-0.3,0.1-0.5,0.2-0.8,0.2L46,16.5z M56.7,16.5h-7.5c-0.3,0-0.6-0.1-0.9-0.2
		c-0.3-0.1-0.5-0.3-0.7-0.5s-0.3-0.5-0.4-0.8c-0.1-0.3-0.1-0.7,0-1.1l0.9-4.5c0.1-0.4,0.2-0.8,0.4-1.1c0.2-0.3,0.5-0.6,0.7-0.8
		C49.5,7.3,49.7,7.2,50,7c0.3-0.1,0.6-0.2,0.9-0.2h7.5c0.3,0,0.6,0.1,0.9,0.2c0.3,0.1,0.5,0.3,0.7,0.5c0.2,0.3,0.4,0.6,0.4,0.9l0,0
		c0.1,0.3,0.1,0.7,0,1.1L59.6,14c-0.1,0.4-0.2,0.8-0.4,1.1c-0.2,0.3-0.4,0.6-0.7,0.8c-0.3,0.2-0.6,0.4-0.9,0.5
		C57.3,16.4,57,16.5,56.7,16.5L56.7,16.5z M51.5,9.6c-0.4,0-0.8,0.1-1,0.3c-0.2,0.2-0.4,0.6-0.5,1l-0.3,1.6c-0.1,0.5-0.1,0.8,0,1
		c0.1,0.2,0.4,0.3,0.8,0.3h5.6c0.4,0,0.8-0.1,1-0.3c0.2-0.2,0.4-0.6,0.5-1l0.3-1.6c0.1-0.4,0.1-0.8-0.1-1c-0.1-0.2-0.4-0.3-0.8-0.3
		H51.5z M72.5,16.5h-2.3l0.7-3.6H63l-0.7,3.6H60l1.2-6.2h10.2l0.2-0.8H61.4V9.4c0.1-0.4,0.2-0.8,0.4-1.1C62,8,62.3,7.7,62.5,7.5
		c0.3-0.2,0.6-0.4,0.9-0.5C63.7,7,64,6.9,64.3,6.9h7.4c0.3,0,0.6,0.1,0.9,0.2c0.4,0.1,0.7,0.2,0.9,0.5c0.2,0.2,0.3,0.5,0.4,0.8
		c0.1,0.3,0.1,0.7,0,1.1L72.5,16.5z"/>
</g>
</svg>
