<?xml version="1.0" encoding="utf-8"?>
<!-- Generator: Adobe Illustrator 24.3.0, SVG Export Plug-In . SVG Version: 6.00 Build 0)  -->
<svg version="1.1" id="Layer_1" xmlns="http://www.w3.org/2000/svg" xmlns:xlink="http://www.w3.org/1999/xlink" x="0px" y="0px"
	 viewBox="0 0 85 28.3" style="enable-background:new 0 0 85 28.3;" xml:space="preserve">
<style type="text/css">
	.st0{fill:#B4B4B5;}
	.st1{fill-rule:evenodd;clip-rule:evenodd;fill:#B4B4B5;}
</style>
<g transform="translate(-8 -23)">
	<g transform="translate(106.37 27.047)">
		<path class="st0" d="M-18.1,9.3h-0.8v2.3c-0.1-0.1-0.1-0.2-0.2-0.3l-1.9-2h-0.9v3.4h0.8v-2.3c0.1,0.1,0.2,0.2,0.2,0.3l1.8,2h1V9.3
			z M-23.3,11.7L-23.3,11.7l-2.1,0.1c-0.1,0-0.1,0-0.1-0.1l-0.1-0.1v-1.3c0-0.1,0-0.1,0.1-0.1l0.1-0.1h2c0.1,0,0.1,0,0.1,0.1
			l0.1,0.1L-23.3,11.7C-23.2,11.6-23.2,11.7-23.3,11.7L-23.3,11.7z M-22.4,10.3c0-0.3-0.1-0.6-0.3-0.8c-0.2-0.2-0.5-0.3-0.8-0.3h-2
			c-0.3,0-0.6,0.1-0.8,0.3c-0.2,0.2-0.3,0.5-0.3,0.8v1.3c0,0.3,0.1,0.6,0.3,0.8c0.2,0.2,0.5,0.3,0.8,0.3h2c0.3,0,0.6-0.1,0.8-0.3
			c0.2-0.2,0.3-0.5,0.3-0.8V10.3z M-26.9,9.3h-0.8v3.4h0.8V9.3z M-28.2,9.3h-3.3v0.8h1.2v2.5h0.8v-2.5h1.2
			C-28.2,10.1-28.2,9.3-28.2,9.3z M-33.4,11.1c0.2-0.3,0.3-0.7,0.5-0.9c0.1,0.2,0.1,0.3,0.2,0.5c0.1,0.1,0.1,0.3,0.3,0.5H-33.4z
			 M-32.4,9.3h-0.9l-1.8,3.4h1l0.4-0.8h1.8l0.4,0.8h1L-32.4,9.3z M-35.9,11.6c-0.1,0.2-0.2,0.2-0.3,0.2h-2.1c0,0-0.1,0-0.1-0.1
			l-0.1-0.1v-1.3c0-0.1,0-0.1,0.1-0.1l0.1-0.1h2.1c0.1,0,0.1,0.1,0.2,0.2l0.8-0.6c-0.1-0.2-0.2-0.3-0.4-0.4s-0.4-0.1-0.6-0.1h-2.1
			c-0.3,0-0.6,0.1-0.8,0.3c-0.2,0.2-0.3,0.5-0.3,0.8v1.3c0,0.3,0.1,0.6,0.3,0.8c0.2,0.2,0.5,0.3,0.8,0.3h2.1c0.2,0,0.4-0.1,0.5-0.2
			c0.2-0.1,0.3-0.2,0.5-0.4L-35.9,11.6z M-39.8,9.3h-0.8v2.3c0,0.1,0,0.1-0.1,0.1l-0.1,0.1h-1.8c-0.1,0-0.1,0-0.1-0.1l-0.1-0.1V9.3
			h-0.8v2.3c0,0.3,0.1,0.6,0.3,0.8s0.5,0.3,0.8,0.3h1.8c0.3,0,0.6-0.1,0.8-0.3s0.3-0.5,0.3-0.8V9.3z M-44.9,11.7L-44.9,11.7
			l-2.3,0.1v-1.7h2.2c0,0,0.1,0,0.1,0.1l0.1,0.1L-44.9,11.7C-44.9,11.6-44.9,11.7-44.9,11.7L-44.9,11.7z M-44.1,10.3
			c0-0.3-0.1-0.6-0.3-0.8c-0.2-0.2-0.5-0.3-0.8-0.3h-3.1v3.4h3.1c0.3,0,0.6-0.1,0.8-0.3c0.2-0.2,0.3-0.5,0.3-0.8V10.3z M-48.5,11.8
			H-51v-0.4h2.4v-0.8H-51v-0.4h2.5V9.3h-3.4v3.4h3.4V11.8z M-53.9,11.8h-2.4V9.3h-0.8v3.4h3.4L-53.9,11.8L-53.9,11.8z M-60.1,11.1
			c0.2-0.3,0.3-0.7,0.5-0.9c0.1,0.2,0.1,0.3,0.2,0.5c0.1,0.1,0.1,0.3,0.3,0.5H-60.1z M-59.1,9.3h-0.9l-1.8,3.4h1l0.4-0.8h1.8
			l0.4,0.8h1L-59.1,9.3z M-61.4,9.3h-3.3v0.8h1.2v2.5h0.8v-2.5h1.2C-61.4,10.1-61.4,9.3-61.4,9.3z M-65.1,9.3h-0.8v2.3
			c-0.1-0.1-0.1-0.2-0.2-0.3l-1.9-2h-0.9v3.4h0.8v-2.3c0.1,0.1,0.1,0.2,0.2,0.3l1.8,2h1V9.3z M-69.3,11.8h-2.5v-0.4h2.4v-0.8h-2.4
			v-0.4h2.5V9.3h-3.4v3.4h3.4V11.8z M-74,11.7L-74,11.7l-2.3,0.1v-1.7h2.2c0.1,0,0.1,0,0.1,0.1l0.1,0.1L-74,11.7
			C-74,11.6-74,11.7-74,11.7L-74,11.7z M-73,10.3c0-0.3-0.1-0.6-0.3-0.8c-0.2-0.2-0.5-0.3-0.8-0.3h-3.1v3.4h3.1
			c0.3,0,0.6-0.1,0.8-0.3c0.2-0.2,0.3-0.5,0.3-0.8V10.3z"/>
		<path class="st0" d="M-58.3,7.3c-0.2-0.4-0.6-0.7-1.2-0.7h-1.2c-0.1,0-0.1,0-0.2-0.1C-61,6.6-61,6.5-61,6.4s0-0.1,0.1-0.2
			c0,0.1,0.1,0.1,0.2,0.1h2.4V5.3h-2.3c-0.2,0-0.5,0-0.7,0.1s-0.4,0.3-0.5,0.5c-0.2,0.3-0.2,0.7,0,0.9c0.2,0.4,0.6,0.6,1.1,0.6h1.3
			c0.1,0,0.1,0,0.2,0.1c0.1,0,0.1,0.1,0.1,0.2s-0.1,0.2-0.3,0.2h-2.4v0.8h2.3c0.3,0,0.5,0,0.7-0.1c0.2-0.1,0.4-0.3,0.6-0.5
			c0.1-0.1,0.1-0.3,0.1-0.5C-58.2,7.6-58.2,7.4-58.3,7.3L-58.3,7.3z M-62.2,7.3c-0.2-0.4-0.6-0.7-1.2-0.7h-1.3c-0.1,0-0.1,0-0.2-0.1
			c-0.1,0-0.1-0.1-0.1-0.2s0-0.1,0.1-0.2c0.1,0,0.1-0.1,0.2-0.1h2.4V5.3h-2.3c-0.2,0-0.5,0-0.7,0.1c-0.2,0.1-0.4,0.3-0.5,0.5
			c-0.2,0.3-0.2,0.7,0,0.9c0.2,0.4,0.6,0.6,1.1,0.6h1.3c0.1,0,0.1,0,0.2,0.1c0.1,0,0.1,0.1,0.1,0.2s-0.1,0.2-0.3,0.2h-2.4v0.8h2.3
			c0.3,0,0.5,0,0.7-0.1c0.2-0.1,0.4-0.3,0.6-0.5c0.1-0.1,0.1-0.3,0.1-0.5C-62.1,7.6-62.2,7.4-62.2,7.3z M-66.3,5.3h-0.8v3.4h0.8V5.3
			z M-68.3,5.3l-0.6,1.9c-0.1,0.3-0.2,0.5-0.2,0.7c-0.1-0.3-0.2-0.5-0.2-0.7l-0.6-1.9h-0.9l-0.6,1.9c-0.1,0.3-0.2,0.5-0.2,0.7
			c-0.1-0.3-0.2-0.5-0.2-0.7l-0.6-1.9h-1l1.3,3.4h0.9l0.8-2.1l0.8,2.1h0.9l1.3-3.4C-67.3,5.3-68.3,5.3-68.3,5.3z M-73.7,7.3
			c-0.2-0.4-0.6-0.7-1.2-0.7h-1.3c-0.1,0-0.1,0-0.2-0.1c-0.1,0-0.1-0.1-0.1-0.2s0-0.1,0.1-0.2c0.1,0,0.1-0.1,0.2-0.1h2.4V5.3h-2.3
			c-0.2,0-0.5,0-0.7,0.1s-0.4,0.3-0.5,0.5c-0.2,0.3-0.2,0.7,0,0.9c0.2,0.4,0.6,0.6,1.1,0.6h1.3c0.1,0,0.1,0,0.2,0.1
			c0.1,0,0.1,0.1,0.1,0.2s-0.1,0.2-0.3,0.2h-2.4v0.8h2.3c0.3,0,0.5,0,0.7-0.1c0.2-0.1,0.4-0.3,0.6-0.5c0.1-0.1,0.1-0.3,0.1-0.5
			C-73.6,7.6-73.6,7.4-73.7,7.3z"/>
		<path class="st0" d="M-42,15.2v-0.3h-1.2v-0.4h1.1v-0.3h-1.1v-0.4h1.2v-0.3h-1.5v1.5L-42,15.2z M-43.8,15.2v-0.9h-0.9v0.3h0.6v0.2
			c0,0,0,0.1-0.1,0.1s-0.1,0-0.2,0h-0.8h-0.1c0,0,0,0-0.1,0c0,0,0,0,0-0.1v-0.1v-0.5c0-0.1,0-0.1,0-0.2c0,0,0.1,0,0.2,0h0.8
			c0.1,0,0.1,0,0.1,0l0.1,0.1l0.2-0.2v-0.1c0,0,0-0.1-0.1-0.1c0,0-0.1,0-0.1-0.1c-0.1,0-0.1,0-0.2,0h-0.8c-0.1,0-0.2,0-0.3,0
			s-0.1,0-0.2,0.1c0,0-0.1,0.1-0.1,0.2c0,0.1,0,0.2,0,0.2v0.7c0,0.1,0,0.2,0,0.3c0,0.1,0,0.1,0.1,0.2c0,0,0.1,0.1,0.2,0.1
			c0.1,0,0.2,0,0.3,0h0.7h0.1h0.1c0,0,0,0,0.1-0.1c0,0,0,0,0-0.1v0.2L-43.8,15.2z M-46.3,14.7c0,0.1,0,0.1,0,0.2c0,0-0.1,0-0.2,0h-1
			V14h1c0.1,0,0.1,0,0.2,0c0,0,0,0.1,0,0.2V14.7z M-46.4,15.2c0.1,0,0.2,0,0.3,0s0.1,0,0.2-0.1c0,0,0.1-0.1,0.1-0.2s0-0.2,0-0.3
			v-0.6c0-0.1,0-0.2,0-0.3s0-0.1-0.1-0.2c0,0-0.1-0.1-0.2-0.1c-0.1,0-0.2,0-0.3,0h-1.3V15L-46.4,15.2z M-48.1,15.2v-0.3h-1.2v-0.4
			h1.1v-0.3h-1.1v-0.4h1.2v-0.3h-1.5v1.5L-48.1,15.2L-48.1,15.2z M-49.9,15.2v-0.3h-1.2v-1.2h-0.3v1.5H-49.9z M-52.3,15.2l0.6-1.5
			h-0.4l-0.4,1.2l-0.4-1.2h-0.3l-0.5,1.2l-0.4-1.2h-0.4l0.6,1.5h0.3l0.5-1.1l0.4,1.1H-52.3z M-54.8,14.7c0,0.1,0,0.1,0,0.2
			c0,0-0.1,0-0.2,0h-0.8h-0.1c0,0,0,0-0.1,0c0,0,0,0,0-0.1v-0.1v-0.6c0-0.1,0-0.1,0-0.2c0,0,0.1,0,0.2,0h0.8c0.1,0,0.1,0,0.2,0
			c0,0,0,0.1,0,0.2L-54.8,14.7z M-55,15.2c0.1,0,0.2,0,0.2,0c0.1,0,0.1,0,0.2-0.1c0,0,0.1-0.1,0.1-0.2s0-0.2,0-0.3v-0.6
			c0-0.1,0-0.2,0-0.3s0-0.1-0.1-0.2c0,0-0.1-0.1-0.2-0.1c-0.1,0-0.2,0-0.2,0h-0.8c-0.1,0-0.2,0-0.3,0c-0.1,0-0.1,0-0.2,0.1
			c0,0-0.1,0.1-0.1,0.2s0,0.2,0,0.3v0.7c0,0.1,0,0.2,0,0.3c0,0.1,0,0.1,0.1,0.2c0,0,0.1,0.1,0.2,0.1s0.2,0,0.3,0L-55,15.2z
			 M-56.7,15.2v-1.5H-57v1.1l-1-1.1h-0.3v1.5h0.3v-1.1l1.1,1.1H-56.7z M-58.7,15.2l-0.8-0.8l0.8-0.8h-0.5l-1.1,0.9v-0.9h-0.3v1.5
			h0.3V15l0.5-0.4l0.7,0.7L-58.7,15.2z M-62.3,15.2v-0.6l0.8-0.9h-0.4l-0.6,0.8l-0.6-0.8h-0.4l0.8,0.9v0.6H-62.3z M-63.8,14.4
			C-63.8,14.5-63.8,14.5-63.8,14.4L-63.8,14.4l-1,0.1V14h0.9c0.1,0,0.1,0,0.1,0.1C-63.8,14.2-63.8,14.2-63.8,14.4L-63.8,14.4z
			 M-63.5,15.2l-0.6-0.5c0.1,0,0.2,0,0.3,0c0.1,0,0.1,0,0.2-0.1l0.1-0.1c0-0.1,0-0.2,0-0.2v-0.1c0-0.1,0-0.2,0-0.2
			c0-0.1,0-0.1-0.1-0.2l-0.1-0.1c-0.1,0-0.1,0-0.2,0h-1.3v1.5h0.3v-0.6h0.5l0.6,0.5H-63.5z M-66.1,15.2V14h0.6v-0.3h-1.4V14h0.6v1.2
			H-66.1z M-67.2,14.7c0-0.1,0-0.1,0-0.2s-0.1-0.1-0.1-0.1s-0.1-0.1-0.2-0.1s-0.2,0-0.3,0h-0.7c-0.1,0-0.1,0-0.2,0v-0.1v-0.1
			c0,0,0.1,0,0.2,0h1c0-0.1,0-0.1,0-0.2v-0.2h-1.1c-0.1,0-0.2,0-0.3,0c-0.1,0-0.1,0-0.2,0.1l-0.1,0.1c0,0.1,0,0.1,0,0.2v0.1
			c0,0.1,0,0.1,0,0.2s0,0.1,0.1,0.1c0,0,0.1,0.1,0.2,0.1s0.2,0,0.3,0h0.7c0.1,0,0.1,0,0.2,0c0,0,0.1,0.1,0,0.1v0.1c0,0,0,0,0,0.1
			c0,0,0,0-0.1,0h-0.1h-1c0,0.1,0,0.1,0,0.2c0,0.1,0,0.1,0,0.2h1.1c0.1,0,0.2,0,0.3,0c0.1,0,0.1,0,0.2-0.1l0.1-0.1
			C-67.2,14.9-67.2,14.9-67.2,14.7L-67.2,14.7z M-69.3,13.7h-0.3v1.5h0.3V13.7z M-70.4,15.2V14h0.6v-0.3h-1.4V14h0.6v1.2H-70.4z
			 M-71.6,15.2v-1.5h-0.3v1.1l-1-1.1h-0.3v1.5h0.3v-1.1l1.1,1.1H-71.6z M-73.6,15.2v-0.3h-1.2v-0.4h1.1v-0.3h-1.1v-0.4h1.2v-0.3
			h-1.5v1.5L-73.6,15.2L-73.6,15.2z M-75.9,14.7c0,0.1,0,0.1,0,0.2c0,0-0.1,0-0.2,0h-1V14h1c0.1,0,0.1,0,0.2,0c0,0,0,0.1,0,0.2V14.7
			z M-76,15.2c0.1,0,0.2,0,0.3,0c0.1,0,0.1,0,0.2-0.1c0,0,0.1-0.1,0.1-0.2s0-0.2,0-0.3v-0.6c0-0.1,0-0.2,0-0.3s0-0.1-0.1-0.2
			c0,0-0.1-0.1-0.2-0.1s-0.2,0-0.3,0h-1.3V15L-76,15.2z"/>
	</g>
	<g transform="matrix(-.70710678 .70710678 .70710678 .70710678 61.852862 .302019)">
		<path class="st1" d="M51-5.1h11.7c0,1.6-1.3,2.9-2.9,2.9H48.1C48.1-3.8,49.4-5.1,51-5.1z"/>
		<path class="st1" d="M54.6-8.9h6c0,1.6-1.3,2.9-2.9,2.9h-6C51.7-7.6,53-8.9,54.6-8.9z M53.8-1.4h6c0,1.6-1.3,2.9-2.9,2.9h-6
			C50.9,0,52.2-1.4,53.8-1.4z"/>
	</g>
</g>
</svg>
