<!--svg-wync-1-->
<svg id="svg-wync-1" width="52px" x="0px" y="0px" viewBox="0 0 100 100">
	<g>
		<g>
			<g>
				<path class="st0" d="M13.3,66.8c-1.9,1.4-3.1,3.7-3.1,6.2v13.4l0.1,3c0,1.6,1.3,2.9,2.9,2.9c1.6,0,2.9-0.6,2.9-2.2v0.7
					c0,1.6,1.3,2.9,2.9,2.9c1.6,0,2.9-1.3,2.9-2.9v1.4c0,1.6,1.3,2.9,2.9,2.9c1.6,0,2.9-1.3,2.9-2.9l0,0.5c0,1.6,1.3,3,3,3
					c1.6,0,3-1.3,3-3l0-14.6l0.1,1.4v6c0,2.4,2,4.4,4.4,4.4h1.5c0.1,0-0.1,0,0,0v-5.5c0,0,0,0,0,0V77l-8.3-9.7"/>
				<g>
					<polyline class="st0" points="10.5,45.6 10.5,66 33.9,66 33.9,39.6 				"/>
				</g>
			</g>
		</g>
		<g>
			<g>
				<path class="st0" d="M66.6,86.6c1.4,1.9,3.7,3.1,6.2,3.1h13.4l3-0.1c1.6,0,2.9-1.3,2.9-2.9c0-1.6-0.6-2.9-2.2-2.9h0.7
					c1.6,0,2.9-1.3,2.9-2.9c0-1.6-1.3-2.9-2.9-2.9h1.4c1.6,0,2.9-1.3,2.9-2.9c0-1.6-1.3-2.9-2.9-2.9l0.5,0c1.6,0,3-1.3,3-3
					c0-1.6-1.3-3-3-3l-14.6,0l1.4-0.1h6c2.4,0,4.4-2,4.4-4.4v-1.5c0-0.1,0,0.1,0,0h-5.5c0,0,0,0,0,0h-7.3l-9.7,8.3"/>
				<g>
					<polyline class="st0" points="45.5,89.4 65.9,89.4 65.9,65.9 39.5,65.9 				"/>
				</g>
			</g>
		</g>
		<g>
			<g>
				<path class="st0" d="M86.5,33.2c1.9-1.4,3.1-3.7,3.1-6.2V13.6l-0.1-3c0-1.6-1.3-2.9-2.9-2.9c-1.6,0-2.9,0.6-2.9,2.2V9.2
					c0-1.6-1.3-2.9-2.9-2.9c-1.6,0-2.9,1.3-2.9,2.9V7.8c0-1.6-1.3-2.9-2.9-2.9c-1.6,0-2.9,1.3-2.9,2.9l0-0.5c0-1.6-1.3-3-3-3
					c-1.6,0-3,1.3-3,3l0,14.6l-0.1-1.4v-6c0-2.4-2-4.4-4.4-4.4h-1.5c-0.1,0,0.1,0,0,0v5.5c0,0,0,0,0,0V23l8.3,9.7"/>
				<g>
					<polyline class="st0" points="89.2,54.4 89.2,34 65.8,34 65.8,60.4 				"/>
				</g>
			</g>
		</g>
		<g>
			<g>
				<path class="st0" d="M33.4,14.1C32,12.2,29.7,11,27.2,11H13.7l-3,0.1c-1.6,0-2.9,1.3-2.9,2.9c0,1.6,0.6,2.9,2.2,2.9H9.3
					c-1.6,0-2.9,1.3-2.9,2.9c0,1.6,1.3,2.9,2.9,2.9H7.9C6.3,22.7,5,24,5,25.6c0,1.6,1.3,2.9,2.9,2.9l-0.5,0c-1.6,0-3,1.3-3,3
					c0,1.6,1.3,3,3,3l14.6,0l-1.4,0.1h-6c-2.4,0-4.4,2-4.4,4.4v1.5c0,0.1,0-0.1,0,0h5.5c0,0,0,0,0,0h7.3l9.7-8.3"/>
				<g>
					<polyline class="st0" points="54.5,11.4 34.1,11.4 34.1,34.8 60.5,34.8 				"/>
				</g>
			</g>
		</g>
	</g>
</svg>
<!--svg-wync-2-->
<svg id="svg-wync-2" width="52px" x="0px" y="0px" viewBox="0 0 100 100">
	<g>
		<path class="st0" d="M93.8,56.9l0-12.3l-10.9-0.9c-0.8-4-2.2-7.8-4.3-11.2l7.3-8.6l-8.7-8.7l-8.4,7.1c-3.3-2.2-7-3.9-10.9-4.8
			L56.9,6.2H44.6l-0.9,10.9c-4,0.8-7.8,2.2-11.2,4.3l-8.6-7.3l-8.7,8.7l7.1,8.4c-2.2,3.3-3.9,7-4.8,10.9L6.2,43.1l0,12.3l10.9,0.9
			c0.8,4,2.2,7.8,4.3,11.2l-7.3,8.6l8.7,8.7l8.4-7.1c3.3,2.2,7,3.9,10.9,4.8l0.9,11.3l12.3,0l0.9-10.9c4-0.8,7.8-2.2,11.2-4.3
			l8.6,7.3l8.7-8.7l-7.1-8.4c2.2-3.3,3.9-7,4.8-10.9L93.8,56.9z"/>
		<g>
			<path class="st0" d="M70.7,50c0,11.4-9.3,20.7-20.7,20.7c-11.4,0-20.7-9.3-20.7-20.7"/>
			<g>
				<g>
					<path class="st2" d="M29.3,50c0-0.6,0-1.2,0.1-1.8"/>
				</g>
				<g>
					<g>
						<path class="st0" d="M30,44.7c0.3-1,0.6-1.9,1-2.8"/>
						<path class="st3" d="M33.9,37.1c3.8-4.7,9.6-7.8,16.1-7.8c8.2,0,15.2,4.8,18.6,11.6"/>
						<path class="st0" d="M69.6,43.5c0.3,0.9,0.6,1.9,0.7,2.9"/>
					</g>
				</g>
				<g>
					<path class="st2" d="M70.6,48.2c0,0.6,0.1,1.2,0.1,1.8"/>
				</g>
			</g>
		</g>
		<g>
			<line class="st0" x1="50" y1="59.6" x2="50" y2="40.4"/>
			<line class="st0" x1="40.4" y1="50" x2="59.6" y2="50"/>
		</g>
	</g>
</svg>
<!--svg-wync-3-->
<svg id="svg-wync-3" width="52px" x="0px" y="0px" viewBox="0 0 100 100">
	<g>
		<polyline class="st0" points="37,62.4 37,90.9 26.6,90.9 17.9,62.4 	"/>
		<polyline class="st0" points="12.3,34.8 5.5,34.8 5.5,56.3 12.3,56.3 	"/>
		<polyline class="st0" points="88.3,9.1 94.5,9.1 94.5,82 88.3,82 	"/>
		<polyline class="st0" points="45,60.1 85.7,76.5 85.7,14.6 44.6,31.1 	"/>
		<rect x="12.8" y="29.2" class="st0" width="31.8" height="32.7"/>
		<line class="st0" x1="18.1" y1="36.9" x2="38" y2="36.9"/>
		<polyline class="st0" points="44.6,61.8 44.6,74.8 37.8,74.8 	"/>
		<line class="st0" x1="20.8" y1="71.8" x2="30.3" y2="71.8"/>
		<line class="st0" x1="23.9" y1="80.8" x2="30.3" y2="80.8"/>
	</g>
</svg>

<!--svg-wync-4-->
<svg id="svg-wync-4" width="52px" x="0px" y="0px" viewBox="0 0 100 100">
	<g>
		<g>
			<path class="st0" d="M92.1,56.6V44.8L81.6,44c-0.7-3.9-2.2-7.5-4.1-10.7l7-8.3l-8.4-8.4l-8,6.8c-3.2-2.1-6.7-3.7-10.5-4.7l-1-10.8
				H44.8L44,18.4c-3.9,0.7-7.5,2.2-10.7,4.1l-8.3-7l-8.4,8.4l6.8,8c-2.1,3.2-3.7,6.7-4.7,10.5l-10.8,1v11.8L18.4,56
				c0.7,3.9,2.2,7.5,4.1,10.7l-7,8.3l8.4,8.4l8-6.8c3.1,2.1,6.7,3.7,10.5,4.7l0.9,10.8h11.8L56,81.6c3.9-0.7,7.5-2.2,10.7-4.1l8.3,7
				l8.4-8.4l-6.8-8c2.1-3.2,3.7-6.7,4.7-10.5L92.1,56.6z"/>
		</g>
		<path class="st0" d="M71.5,50c0,11.9-9.6,21.5-21.5,21.5S28.5,61.9,28.5,50"/>
		<g>
			<path class="st0" d="M29.2,44.5c2.4-9.2,10.8-16,20.8-16c10.6,0,19.4,7.7,21.2,17.8"/>
		</g>
	</g>
	<g>
		<path class="st0" d="M54.8,45.1V44c0-1.9-1.6-3.5-3.5-3.5h-2.8c-1.9,0-3.5,1.6-3.5,3.5v2.4c0,1.1,0.9,2,2,2.7l5.3,2"/>
		<path class="st0" d="M45.2,55.3v1.1c0,1.9,1.6,3.5,3.5,3.5h2.8c1.9,0,3.5-1.6,3.5-3.5V54c0-1.1-0.9-2.1-2-2.8l-5.1-2"/>
		<line class="st0" x1="50.3" y1="35.7" x2="50.3" y2="40.3"/>
		<line class="st0" x1="50.3" y1="59.9" x2="50.3" y2="64.3"/>
	</g>
</svg>

<!--svg-wync-5-->
<svg id="svg-wync-5" width="52px" x="0px" y="0px" viewBox="0 0 100 100">
	<g>
		<path class="st0" d="M69.1,54c0-6-2.3-11.6-6.6-15.9c-4.2-4.2-9.9-6.6-15.9-6.6c-6,0-11.6,2.4-15.8,6.6c-8.7,8.8-8.7,23,0,31.7
			c4.2,4.2,9.9,6.6,15.9,6.6c6,0,11.6-2.3,15.8-6.6C66.8,65.6,69.1,60,69.1,54z"/>
		<path class="st0" d="M56.1,54c0-2.5-1-4.9-2.8-6.7c-1.8-1.8-4.1-2.8-6.7-2.8c-2.5,0-4.9,1-6.6,2.8c-3.7,3.7-3.7,9.6,0,13.3
			c1.8,1.8,4.2,2.8,6.7,2.8c2.5,0,4.9-1,6.6-2.8C55.1,58.8,56.1,56.5,56.1,54z"/>
		<g>
			<g>
				<path class="st1" d="M57.7,64.9c-3,3-6.9,4.6-11,4.6c-8.6,0-15.6-7-15.6-15.6c0-4.1,1.6-8,4.5-11c2.9-3,6.9-4.6,11-4.6
					c4.2,0,8.1,1.6,11,4.6c2.9,2.9,4.6,6.9,4.6,11C62.3,58.1,60.7,62,57.7,64.9z"/>
			</g>
		</g>
		<path class="st0" d="M48.7,22.8c16.6,0,32.2,9.1,43.9,25.6"/>
		<ellipse class="st0" cx="46.9" cy="53.9" rx="39.5" ry="23.2"/>
	</g>
</svg>

<!--svg-wync-6-->
<svg id="svg-wync-6" width="52px" x="0px" y="0px" viewBox="0 0 100 100">
	<g>
		<rect x="44.4" y="63.1" class="st0" width="10.6" height="18.5"/>
		<rect x="81.9" y="33.9" class="st0" width="10.6" height="47.7"/>
		<rect x="63.2" y="67.4" class="st0" width="10.6" height="14.3"/>
		<rect x="25.7" y="73.9" class="st0" width="10.6" height="7.7"/>
		<g>
			<g>
				<polyline class="st0" points="81.7,24.6 81.7,10.1 67.2,10.1 			"/>
				<line class="st0" x1="81.4" y1="10.3" x2="17.8" y2="73.8"/>
			</g>
		</g>
		<g>
			<line class="st0" x1="5.5" y1="82" x2="12.8" y2="82"/>
			<line class="st0" x1="5.5" y1="74" x2="12.8" y2="74"/>
			<line class="st0" x1="5.5" y1="66.1" x2="12.8" y2="66.1"/>
			<line class="st0" x1="5.5" y1="58.2" x2="12.8" y2="58.2"/>
			<line class="st0" x1="5.5" y1="50.3" x2="12.8" y2="50.3"/>
			<line class="st0" x1="5.5" y1="42.4" x2="12.8" y2="42.4"/>
			<line class="st0" x1="5.5" y1="34.4" x2="12.8" y2="34.4"/>
			<line class="st0" x1="5.5" y1="26.5" x2="12.8" y2="26.5"/>
			<line class="st0" x1="5.5" y1="18.6" x2="12.8" y2="18.6"/>
		</g>
		<line class="st0" x1="5.5" y1="89.9" x2="94.5" y2="89.9"/>
	</g>
</svg>

<!--svg-wync-7-->
<svg id="svg-wync-7" width="52px" x="0px" y="0px" viewBox="0 0 100 100">
	<g>
		<path class="st0" d="M88.8,61.7c2.2,0,5.4-2,5.4-4.4c0-8.9,0-17.7,0-26.6c0-2.4-1.7-5.2-4-5.9c-7.6-2.4-15.8-2.4-23.4,0
			c-2.2,0.7-4,3.5-4,5.9c0,8.9,0,17.7,0,26.6"/>
		<polyline class="st0" points="33.6,36 41,59 33,61.7 	"/>
		<path class="st0" d="M55.9,57c0,2.8-2.2,5-5,5c-2.8,0-5-2.2-5-5c0-2.8,2.2-5,5-5C53.7,52,55.9,54.2,55.9,57z"/>
		<rect x="43.6" y="67.1" class="st0" width="13.7" height="14.9"/>
		<line class="st0" x1="37.7" y1="59.6" x2="43.5" y2="67.1"/>
		<line class="st0" x1="57.4" y1="67.1" x2="63.2" y2="59.6"/>
		<g>
			<line class="st0" x1="46.5" y1="81.7" x2="46.5" y2="94.3"/>
			<line class="st0" x1="54.4" y1="81.7" x2="54.4" y2="94.3"/>
		</g>
		<path class="st0" d="M16.3,79.9c0.5,4.7,1,9.4,1.5,14.1h7.4c0.5-4.7,1-9.4,1.5-14.1"/>
		<g>
			<polyline class="st0" points="69.4,34.8 69.4,92.3 87.6,92.3 87.6,34.8 		"/>
		</g>
		<line class="st0" x1="78.5" y1="65.7" x2="78.5" y2="91.5"/>
		<path class="st0" d="M33.6,36c-0.8-2.4-2.8-5.2-4.4-5.9c-2.8-1.2-5.3-1.8-7.8-1.8h0c-2.5,0-5,0.6-7.8,1.8c-1.6,0.7-3.6,3.5-4.4,5.9
			C8.1,39.8,7,43.7,5.8,47.6C7,51.5,8.4,56.1,9.6,60"/>
		<g>
			<path class="st0" d="M14.6,37.4C12,50.1,9.5,62.8,6.9,75.5c9.7,0,19.5,0,29.2,0c-2.6-12.7-5.2-25.4-7.8-38.1"/>
		</g>
		<path class="st0" d="M87.1,14.3c0,4.7-3.8,8.6-8.6,8.6c-4.7,0-8.6-3.8-8.6-8.6c0-4.7,3.8-8.6,8.6-8.6C83.3,5.7,87.1,9.6,87.1,14.3z
			"/>
		<path class="st0" d="M29.6,19.5c0,4.5-3.6,8.1-8.1,8.1c-4.5,0-8.1-3.6-8.1-8.1c0-4.5,3.6-8.1,8.1-8.1C26,11.4,29.6,15,29.6,19.5z"
			/>
	</g>
</svg>

<!--svg-wync-8-->
<svg id="svg-wync-8" width="52px" x="0px" y="0px" viewBox="0 0 100 100">
	<g>
		<g>
			<g>
				<path class="st0" d="M13.9,72.6C3.5,56.3,5.5,34.3,19.8,20C36.3,3.5,63.1,3.5,79.7,20"/>
				<polyline class="st0" points="79.8,6.9 79.8,21.4 65.3,21.4 			"/>
			</g>
			<g>
				<path class="st0" d="M86.1,27.4c10.4,16.4,8.4,38.3-5.9,52.6c-16.5,16.5-43.4,16.5-59.9,0"/>
				<polyline class="st0" points="20.2,93.1 20.2,78.6 34.7,78.6 			"/>
			</g>
		</g>
	</g>
	<g>
		<path class="st0" d="M76.2,44.3H48c-2.2-4.9-7.1-8.4-12.8-8.4c-7.8,0-14,6.3-14,14s6.3,14,14,14c5.9,0,11-3.7,13.1-8.9l0.8,0.2
			l5.3-1.4l5.3,1.4l5.3-1.4l5.3,1.4l4.7-1.2l4-2.4v-4L76.2,44.3z"/>
		<line class="st0" x1="26.6" y1="50" x2="30.2" y2="50"/>
	</g>
</svg>

<!--svg-wync-9-->
<svg id="svg-wync-9" width="52px" x="0px" y="0px" viewBox="0 0 100 100">
	<g>
		<g>
			<g>
				<line class="st0" x1="96.5" y1="39.2" x2="86.4" y2="39.2"/>
				<line class="st0" x1="92.6" y1="17.5" x2="83.1" y2="20.9"/>
				<line class="st0" x1="92.7" y1="60.9" x2="83.2" y2="57.5"/>
				<line class="st0" x1="96.5" y1="39.2" x2="86.4" y2="39.2"/>
			</g>
			<g>
				<line class="st0" x1="3.5" y1="39.2" x2="13.6" y2="39.2"/>
				<line class="st0" x1="7.4" y1="17.5" x2="16.9" y2="20.9"/>
				<line class="st0" x1="7.3" y1="60.9" x2="16.8" y2="57.5"/>
				<line class="st0" x1="3.5" y1="39.2" x2="13.6" y2="39.2"/>
			</g>
		</g>
		<path class="st0" d="M68.5,26c-5.7-3.3-7.2-3.5-15.3-1.4C52,25,51,25.2,50,25.3c-1-0.1-2-0.3-3.2-0.6c-8-2.1-9.5-2-15.3,1.4
			c-5,2.7-7.9,10.3-6.5,19c1.7,10,5.5,10.7,5.5,21.5c0,10.7,3.9,16.1,7,16.1s4.7-3.7,8.1-12.9c2.4-6.3,5.9-7.3,8.6,0
			c3.4,9.2,5,12.9,8.2,12.9c3.1,0,7-5.4,7-16.1C69.5,55.7,73.3,55,75,45C76.4,36.3,73.5,28.7,68.5,26z"/>
		<g>
			<line class="st0" x1="40.7" y1="33.1" x2="33.7" y2="33.1"/>
			<line class="st0" x1="66.3" y1="33.1" x2="59.3" y2="33.1"/>
			<path class="st0" d="M36.8,42.4c0.3,8.2,6.2,14.7,13.5,14.7s13.2-6.5,13.5-14.7H36.8z"/>
		</g>
	</g>
</svg>

<!--svg-wync-10-->
<svg id="svg-wync-10" width="52px" x="0px" y="0px" viewBox="0 0 100 100">
	<g>
		<path class="st0" d="M63,31.1c-4-2.3-5.1-2.4-10.7-1c-0.9,0.2-1.6,0.4-2.3,0.4c-0.7-0.1-1.4-0.2-2.3-0.4c-5.6-1.5-6.7-1.4-10.7,1
			c-3.5,1.9-5.6,7.2-4.6,13.3c1.2,7,3.9,7.5,3.9,15.1c0,7.5,2.7,11.3,4.9,11.3c2.2,0,3.3-2.6,5.7-9c1.7-4.4,4.1-5.1,6,0
			c2.4,6.5,3.5,9,5.7,9c2.2,0,4.9-3.8,4.9-11.3c0-7.6,2.7-8,3.9-15.1C68.6,38.4,66.5,33,63,31.1z"/>
		<g>
			<g>
				<g>
					<path class="st0" d="M28.8,12.5c-2,2.1-2.8,4.9-2.3,7.5c2.7,0.4,5.5-0.4,7.5-2.5c2-2.1,2.8-4.9,2.3-7.5
						C33.7,9.5,30.9,10.4,28.8,12.5z"/>
					<path class="st0" d="M14.3,23.9c0.3,2.8,1.9,5.1,4.1,6.5c2-1.7,3.1-4.3,2.8-7.1c-0.3-2.8-1.9-5.1-4.1-6.5
						C15.2,18.5,14,21.1,14.3,23.9z"/>
					<path class="st0" d="M7.1,41.9c1.4,2.4,3.9,3.9,6.5,4.1c1-2.4,1-5.2-0.4-7.6c-1.4-2.4-3.9-3.9-6.5-4.1
						C5.7,36.6,5.7,39.5,7.1,41.9z"/>
					<path class="st0" d="M8.3,61.2c2.3,1.6,5.1,1.9,7.6,1c-0.1-2.6-1.3-5.1-3.6-6.7c-2.3-1.6-5.1-1.9-7.6-1
						C4.7,57.1,6,59.6,8.3,61.2z"/>
					<path class="st0" d="M17.5,78.3c2.8,0.5,5.4-0.5,7.3-2.3c-1.2-2.3-3.4-4.1-6.1-4.6c-2.8-0.5-5.4,0.5-7.3,2.3
						C12.5,76,14.7,77.8,17.5,78.3z"/>
					<path class="st0" d="M33,89.9c2.7-0.7,4.7-2.7,5.7-5.2c-2-1.6-4.8-2.3-7.5-1.6c-2.7,0.7-4.7,2.7-5.7,5.2
						C27.5,89.9,30.3,90.6,33,89.9z"/>
					<path class="st0" d="M45,84c-18.2-3.2-31.4-19.7-30.1-38.5c0.7-10.1,5.4-18.9,12.5-25"/>
				</g>
				<g>
					<path class="st0" d="M71.2,12.5c2,2.1,2.8,4.9,2.3,7.5c-2.7,0.4-5.5-0.4-7.5-2.5c-2-2.1-2.8-4.9-2.3-7.5
						C66.3,9.5,69.1,10.4,71.2,12.5z"/>
					<path class="st0" d="M85.7,23.9c-0.3,2.8-1.9,5.1-4.1,6.5c-2-1.7-3.1-4.3-2.8-7.1c0.3-2.8,1.9-5.1,4.1-6.5
						C84.8,18.5,86,21.1,85.7,23.9z"/>
					<path class="st0" d="M92.9,41.9c-1.4,2.4-3.9,3.9-6.5,4.1c-1.1-2.4-1-5.2,0.4-7.6c1.4-2.4,3.9-3.9,6.5-4.1
						C94.3,36.6,94.3,39.5,92.9,41.9z"/>
					<path class="st0" d="M91.7,61.2c-2.3,1.6-5.1,1.9-7.6,1c0.1-2.6,1.3-5.1,3.6-6.7c2.3-1.6,5.1-1.9,7.6-1
						C95.3,57.1,94,59.6,91.7,61.2z"/>
					<path class="st0" d="M82.5,78.3c-2.8,0.5-5.4-0.5-7.3-2.3c1.2-2.3,3.4-4.1,6.1-4.6c2.8-0.5,5.4,0.5,7.3,2.3
						C87.5,76,85.3,77.8,82.5,78.3z"/>
					<path class="st0" d="M67,89.9c-2.7-0.7-4.7-2.7-5.6-5.2c2-1.6,4.8-2.3,7.5-1.6c2.7,0.7,4.7,2.7,5.6,5.2
						C72.5,89.9,69.7,90.6,67,89.9z"/>
					<path class="st0" d="M55,84c18.2-3.2,31.4-19.7,30.1-38.5c-0.7-10.1-5.4-18.9-12.5-25"/>
				</g>
			</g>
		</g>
	</g>
</svg>

<!--svg-wync-11-->
<svg id="svg-wync-11" width="52px" x="0px" y="0px" viewBox="0 0 100 100">
	<g>
		<rect x="44.4" y="63.1" class="st0" width="10.6" height="18.5"/>
		<rect x="81.9" y="33.9" class="st0" width="10.6" height="47.7"/>
		<rect x="63.2" y="67.4" class="st0" width="10.6" height="14.3"/>
		<rect x="25.7" y="73.9" class="st0" width="10.6" height="7.7"/>
		<g>
			<g>
				<polyline class="st0" points="81.7,24.6 81.7,10.1 67.2,10.1 			"/>
				<line class="st0" x1="81.4" y1="10.3" x2="17.8" y2="73.8"/>
			</g>
		</g>
		<g>
			<line class="st0" x1="5.5" y1="82" x2="12.8" y2="82"/>
			<line class="st0" x1="5.5" y1="74" x2="12.8" y2="74"/>
			<line class="st0" x1="5.5" y1="66.1" x2="12.8" y2="66.1"/>
			<line class="st0" x1="5.5" y1="58.2" x2="12.8" y2="58.2"/>
			<line class="st0" x1="5.5" y1="50.3" x2="12.8" y2="50.3"/>
			<line class="st0" x1="5.5" y1="42.4" x2="12.8" y2="42.4"/>
			<line class="st0" x1="5.5" y1="34.4" x2="12.8" y2="34.4"/>
			<line class="st0" x1="5.5" y1="26.5" x2="12.8" y2="26.5"/>
			<line class="st0" x1="5.5" y1="18.6" x2="12.8" y2="18.6"/>
		</g>
		<line class="st0" x1="5.5" y1="89.9" x2="94.5" y2="89.9"/>
	</g>
</svg>

<!--svg-wync-12-->
<svg id="svg-wync-12" width="52px" x="0px" y="0px" viewBox="0 0 100 100">
	<g>
		<path class="st0" d="M88.8,61.7c2.2,0,5.4-2,5.4-4.4c0-8.9,0-17.7,0-26.6c0-2.4-1.7-5.2-4-5.9c-7.6-2.4-15.8-2.4-23.4,0
			c-2.2,0.7-4,3.5-4,5.9c0,8.9,0,17.7,0,26.6"/>
		<polyline class="st0" points="33.6,36 41,59 33,61.7 	"/>
		<path class="st0" d="M55.9,57c0,2.8-2.2,5-5,5c-2.8,0-5-2.2-5-5c0-2.8,2.2-5,5-5C53.7,52,55.9,54.2,55.9,57z"/>
		<rect x="43.6" y="67.1" class="st0" width="13.7" height="14.9"/>
		<line class="st0" x1="37.7" y1="59.6" x2="43.5" y2="67.1"/>
		<line class="st0" x1="57.4" y1="67.1" x2="63.2" y2="59.6"/>
		<g>
			<line class="st0" x1="46.5" y1="81.7" x2="46.5" y2="94.3"/>
			<line class="st0" x1="54.4" y1="81.7" x2="54.4" y2="94.3"/>
		</g>
		<path class="st0" d="M16.3,79.9c0.5,4.7,1,9.4,1.5,14.1h7.4c0.5-4.7,1-9.4,1.5-14.1"/>
		<g>
			<polyline class="st0" points="69.4,34.8 69.4,92.3 87.6,92.3 87.6,34.8 		"/>
		</g>
		<line class="st0" x1="78.5" y1="65.7" x2="78.5" y2="91.5"/>
		<path class="st0" d="M33.6,36c-0.8-2.4-2.8-5.2-4.4-5.9c-2.8-1.2-5.3-1.8-7.8-1.8h0c-2.5,0-5,0.6-7.8,1.8c-1.6,0.7-3.6,3.5-4.4,5.9
			C8.1,39.8,7,43.7,5.8,47.6C7,51.5,8.4,56.1,9.6,60"/>
		<g>
			<path class="st0" d="M14.6,37.4C12,50.1,9.5,62.8,6.9,75.5c9.7,0,19.5,0,29.2,0c-2.6-12.7-5.2-25.4-7.8-38.1"/>
		</g>
		<path class="st0" d="M87.1,14.3c0,4.7-3.8,8.6-8.6,8.6c-4.7,0-8.6-3.8-8.6-8.6c0-4.7,3.8-8.6,8.6-8.6C83.3,5.7,87.1,9.6,87.1,14.3z
			"/>
		<path class="st0" d="M29.6,19.5c0,4.5-3.6,8.1-8.1,8.1c-4.5,0-8.1-3.6-8.1-8.1c0-4.5,3.6-8.1,8.1-8.1C26,11.4,29.6,15,29.6,19.5z"
			/>
	</g>
</svg>

<!--svg-wync-13-->
<svg id="svg-wync-13" width="52px" x="0px" y="0px" viewBox="0 0 100 100">
	<g>
		<path class="st0" d="M63,31.1c-4-2.3-5.1-2.4-10.7-1c-0.9,0.2-1.6,0.4-2.3,0.4c-0.7-0.1-1.4-0.2-2.3-0.4c-5.6-1.5-6.7-1.4-10.7,1
			c-3.5,1.9-5.6,7.2-4.6,13.3c1.2,7,3.9,7.5,3.9,15.1c0,7.5,2.7,11.3,4.9,11.3c2.2,0,3.3-2.6,5.7-9c1.7-4.4,4.1-5.1,6,0
			c2.4,6.5,3.5,9,5.7,9c2.2,0,4.9-3.8,4.9-11.3c0-7.6,2.7-8,3.9-15.1C68.6,38.4,66.5,33,63,31.1z"/>
		<g>
			<g>
				<g>
					<path class="st0" d="M28.8,12.5c-2,2.1-2.8,4.9-2.3,7.5c2.7,0.4,5.5-0.4,7.5-2.5c2-2.1,2.8-4.9,2.3-7.5
						C33.7,9.5,30.9,10.4,28.8,12.5z"/>
					<path class="st0" d="M14.3,23.9c0.3,2.8,1.9,5.1,4.1,6.5c2-1.7,3.1-4.3,2.8-7.1c-0.3-2.8-1.9-5.1-4.1-6.5
						C15.2,18.5,14,21.1,14.3,23.9z"/>
					<path class="st0" d="M7.1,41.9c1.4,2.4,3.9,3.9,6.5,4.1c1-2.4,1-5.2-0.4-7.6c-1.4-2.4-3.9-3.9-6.5-4.1
						C5.7,36.6,5.7,39.5,7.1,41.9z"/>
					<path class="st0" d="M8.3,61.2c2.3,1.6,5.1,1.9,7.6,1c-0.1-2.6-1.3-5.1-3.6-6.7c-2.3-1.6-5.1-1.9-7.6-1
						C4.7,57.1,6,59.6,8.3,61.2z"/>
					<path class="st0" d="M17.5,78.3c2.8,0.5,5.4-0.5,7.3-2.3c-1.2-2.3-3.4-4.1-6.1-4.6c-2.8-0.5-5.4,0.5-7.3,2.3
						C12.5,76,14.7,77.8,17.5,78.3z"/>
					<path class="st0" d="M33,89.9c2.7-0.7,4.7-2.7,5.7-5.2c-2-1.6-4.8-2.3-7.5-1.6c-2.7,0.7-4.7,2.7-5.7,5.2
						C27.5,89.9,30.3,90.6,33,89.9z"/>
					<path class="st0" d="M45,84c-18.2-3.2-31.4-19.7-30.1-38.5c0.7-10.1,5.4-18.9,12.5-25"/>
				</g>
				<g>
					<path class="st0" d="M71.2,12.5c2,2.1,2.8,4.9,2.3,7.5c-2.7,0.4-5.5-0.4-7.5-2.5c-2-2.1-2.8-4.9-2.3-7.5
						C66.3,9.5,69.1,10.4,71.2,12.5z"/>
					<path class="st0" d="M85.7,23.9c-0.3,2.8-1.9,5.1-4.1,6.5c-2-1.7-3.1-4.3-2.8-7.1c0.3-2.8,1.9-5.1,4.1-6.5
						C84.8,18.5,86,21.1,85.7,23.9z"/>
					<path class="st0" d="M92.9,41.9c-1.4,2.4-3.9,3.9-6.5,4.1c-1.1-2.4-1-5.2,0.4-7.6c1.4-2.4,3.9-3.9,6.5-4.1
						C94.3,36.6,94.3,39.5,92.9,41.9z"/>
					<path class="st0" d="M91.7,61.2c-2.3,1.6-5.1,1.9-7.6,1c0.1-2.6,1.3-5.1,3.6-6.7c2.3-1.6,5.1-1.9,7.6-1
						C95.3,57.1,94,59.6,91.7,61.2z"/>
					<path class="st0" d="M82.5,78.3c-2.8,0.5-5.4-0.5-7.3-2.3c1.2-2.3,3.4-4.1,6.1-4.6c2.8-0.5,5.4,0.5,7.3,2.3
						C87.5,76,85.3,77.8,82.5,78.3z"/>
					<path class="st0" d="M67,89.9c-2.7-0.7-4.7-2.7-5.6-5.2c2-1.6,4.8-2.3,7.5-1.6c2.7,0.7,4.7,2.7,5.6,5.2
						C72.5,89.9,69.7,90.6,67,89.9z"/>
					<path class="st0" d="M55,84c18.2-3.2,31.4-19.7,30.1-38.5c-0.7-10.1-5.4-18.9-12.5-25"/>
				</g>
			</g>
		</g>
	</g>
</svg>
