<?xml version="1.0" encoding="utf-8"?>
<!-- Generator: Adobe Illustrator 24.1.2, SVG Export Plug-In . SVG Version: 6.00 Build 0)  -->
<svg version="1.1" id="Layer_1" xmlns="http://www.w3.org/2000/svg" xmlns:xlink="http://www.w3.org/1999/xlink" x="0px" y="0px"
	 viewBox="0 0 100 100" style="enable-background:new 0 0 100 100;" xml:space="preserve">
<style type="text/css">
	.st0{fill:none;stroke:#081F40;stroke-width:2;stroke-linecap:round;stroke-linejoin:round;}
	.st1{clip-path:url(#SVGID_3_);}
	.st2{fill:none;stroke:#081F40;stroke-width:2;stroke-linecap:round;stroke-linejoin:round;stroke-dasharray:1.7534;}
	.st3{fill:none;stroke:#081F40;stroke-width:2;stroke-linecap:round;stroke-linejoin:round;stroke-dasharray:5.5484,5.5484;}
</style>
<g>
	<path class="st0" d="M93.8,56.9l0-12.3l-10.9-0.9c-0.8-4-2.2-7.8-4.3-11.2l7.3-8.6l-8.7-8.7l-8.4,7.1c-3.3-2.2-7-3.9-10.9-4.8
		L56.9,6.2H44.6l-0.9,10.9c-4,0.8-7.8,2.2-11.2,4.3l-8.6-7.3l-8.7,8.7l7.1,8.4c-2.2,3.3-3.9,7-4.8,10.9L6.2,43.1l0,12.3l10.9,0.9
		c0.8,4,2.2,7.8,4.3,11.2l-7.3,8.6l8.7,8.7l8.4-7.1c3.3,2.2,7,3.9,10.9,4.8l0.9,11.3l12.3,0l0.9-10.9c4-0.8,7.8-2.2,11.2-4.3
		l8.6,7.3l8.7-8.7l-7.1-8.4c2.2-3.3,3.9-7,4.8-10.9L93.8,56.9z"/>
	<g>
		<path class="st0" d="M70.7,50c0,11.4-9.3,20.7-20.7,20.7c-11.4,0-20.7-9.3-20.7-20.7"/>
		<g>
			<g>
				<path class="st2" d="M29.3,50c0-0.6,0-1.2,0.1-1.8"/>
			</g>
			<g>
				<g>
					<path class="st0" d="M30,44.7c0.3-1,0.6-1.9,1-2.8"/>
					<path class="st3" d="M33.9,37.1c3.8-4.7,9.6-7.8,16.1-7.8c8.2,0,15.2,4.8,18.6,11.6"/>
					<path class="st0" d="M69.6,43.5c0.3,0.9,0.6,1.9,0.7,2.9"/>
				</g>
			</g>
			<g>
				<path class="st2" d="M70.6,48.2c0,0.6,0.1,1.2,0.1,1.8"/>
			</g>
		</g>
	</g>
	<g>
		<line class="st0" x1="50" y1="59.6" x2="50" y2="40.4"/>
		<line class="st0" x1="40.4" y1="50" x2="59.6" y2="50"/>
	</g>
</g>
</svg>
