<?xml version="1.0" encoding="utf-8"?>
<!-- Generator: Adobe Illustrator 24.1.2, SVG Export Plug-In . SVG Version: 6.00 Build 0)  -->
<svg version="1.1" id="Layer_1" xmlns="http://www.w3.org/2000/svg" xmlns:xlink="http://www.w3.org/1999/xlink" x="0px" y="0px"
	 viewBox="0 0 100 100" style="enable-background:new 0 0 100 100;" xml:space="preserve">
<style type="text/css">
	.st0{fill:none;stroke:#081F40;stroke-width:2;stroke-linecap:round;stroke-linejoin:round;}
</style>
<g>
	<g>
		<g>
			<path class="st0" d="M13.3,66.8c-1.9,1.4-3.1,3.7-3.1,6.2v13.4l0.1,3c0,1.6,1.3,2.9,2.9,2.9c1.6,0,2.9-0.6,2.9-2.2v0.7
				c0,1.6,1.3,2.9,2.9,2.9c1.6,0,2.9-1.3,2.9-2.9v1.4c0,1.6,1.3,2.9,2.9,2.9c1.6,0,2.9-1.3,2.9-2.9l0,0.5c0,1.6,1.3,3,3,3
				c1.6,0,3-1.3,3-3l0-14.6l0.1,1.4v6c0,2.4,2,4.4,4.4,4.4h1.5c0.1,0-0.1,0,0,0v-5.5c0,0,0,0,0,0V77l-8.3-9.7"/>
			<g>
				<polyline class="st0" points="10.5,45.6 10.5,66 33.9,66 33.9,39.6 				"/>
			</g>
		</g>
	</g>
	<g>
		<g>
			<path class="st0" d="M66.6,86.6c1.4,1.9,3.7,3.1,6.2,3.1h13.4l3-0.1c1.6,0,2.9-1.3,2.9-2.9c0-1.6-0.6-2.9-2.2-2.9h0.7
				c1.6,0,2.9-1.3,2.9-2.9c0-1.6-1.3-2.9-2.9-2.9h1.4c1.6,0,2.9-1.3,2.9-2.9c0-1.6-1.3-2.9-2.9-2.9l0.5,0c1.6,0,3-1.3,3-3
				c0-1.6-1.3-3-3-3l-14.6,0l1.4-0.1h6c2.4,0,4.4-2,4.4-4.4v-1.5c0-0.1,0,0.1,0,0h-5.5c0,0,0,0,0,0h-7.3l-9.7,8.3"/>
			<g>
				<polyline class="st0" points="45.5,89.4 65.9,89.4 65.9,65.9 39.5,65.9 				"/>
			</g>
		</g>
	</g>
	<g>
		<g>
			<path class="st0" d="M86.5,33.2c1.9-1.4,3.1-3.7,3.1-6.2V13.6l-0.1-3c0-1.6-1.3-2.9-2.9-2.9c-1.6,0-2.9,0.6-2.9,2.2V9.2
				c0-1.6-1.3-2.9-2.9-2.9c-1.6,0-2.9,1.3-2.9,2.9V7.8c0-1.6-1.3-2.9-2.9-2.9c-1.6,0-2.9,1.3-2.9,2.9l0-0.5c0-1.6-1.3-3-3-3
				c-1.6,0-3,1.3-3,3l0,14.6l-0.1-1.4v-6c0-2.4-2-4.4-4.4-4.4h-1.5c-0.1,0,0.1,0,0,0v5.5c0,0,0,0,0,0V23l8.3,9.7"/>
			<g>
				<polyline class="st0" points="89.2,54.4 89.2,34 65.8,34 65.8,60.4 				"/>
			</g>
		</g>
	</g>
	<g>
		<g>
			<path class="st0" d="M33.4,14.1C32,12.2,29.7,11,27.2,11H13.7l-3,0.1c-1.6,0-2.9,1.3-2.9,2.9c0,1.6,0.6,2.9,2.2,2.9H9.3
				c-1.6,0-2.9,1.3-2.9,2.9c0,1.6,1.3,2.9,2.9,2.9H7.9C6.3,22.7,5,24,5,25.6c0,1.6,1.3,2.9,2.9,2.9l-0.5,0c-1.6,0-3,1.3-3,3
				c0,1.6,1.3,3,3,3l14.6,0l-1.4,0.1h-6c-2.4,0-4.4,2-4.4,4.4v1.5c0,0.1,0-0.1,0,0h5.5c0,0,0,0,0,0h7.3l9.7-8.3"/>
			<g>
				<polyline class="st0" points="54.5,11.4 34.1,11.4 34.1,34.8 60.5,34.8 				"/>
			</g>
		</g>
	</g>
</g>
</svg>
