<?xml version="1.0" encoding="utf-8"?>
<!-- Generator: Adobe Illustrator 24.1.3, SVG Export Plug-In . SVG Version: 6.00 Build 0)  -->
<svg version="1.1" id="Layer_1" xmlns="http://www.w3.org/2000/svg" xmlns:xlink="http://www.w3.org/1999/xlink" x="0px" y="0px"
	 viewBox="0 0 100 100" style="enable-background:new 0 0 100 100;" xml:space="preserve">
<style type="text/css">
	.st0{fill:none;stroke:#081F40;stroke-width:2;stroke-linecap:round;stroke-linejoin:round;}
</style>
<g>
	<g>
		<path class="st0" d="M81.3,41.1l0-4.4l-7.8-0.7c-0.5-2.9-1.6-5.6-3.1-8l5.2-6.2l-6.2-6.2l-6,5.1c-2.3-1.6-5-2.8-7.8-3.5l-0.7-8.1
			h-8.8l-0.7,7.8c-2.9,0.5-5.6,1.6-8,3.1l-6.2-5.2l-6.2,6.2l5.1,6c-1.6,2.3-2.8,5-3.5,7.8l-8.1,0.7l0,4.4"/>
		<path class="st0" d="M40.2,40.6c0-5.4,4.4-9.8,9.8-9.8c5.4,0,9.8,4.4,9.8,9.8"/>
	</g>
	<g>
		<line class="st0" x1="16" y1="54.4" x2="83.5" y2="54.4"/>
		<line class="st0" x1="12" y1="54.4" x2="8.1" y2="54.4"/>
		<line class="st0" x1="91.9" y1="54.4" x2="88" y2="54.4"/>
		<line class="st0" x1="24.5" y1="49.5" x2="24.5" y2="59.2"/>
		<line class="st0" x1="16" y1="70.1" x2="83.5" y2="70.1"/>
		<line class="st0" x1="12" y1="70.1" x2="8.1" y2="70.1"/>
		<line class="st0" x1="91.9" y1="70.1" x2="88" y2="70.1"/>
		<line class="st0" x1="70.9" y1="65.2" x2="70.9" y2="75"/>
		<line class="st0" x1="16" y1="85.9" x2="83.5" y2="85.9"/>
		<line class="st0" x1="12" y1="85.9" x2="8.1" y2="85.9"/>
		<line class="st0" x1="91.9" y1="85.9" x2="88" y2="85.9"/>
		<line class="st0" x1="44" y1="81" x2="44" y2="90.8"/>
	</g>
</g>
</svg>
