<?xml version="1.0" encoding="utf-8"?>
<!-- Generator: Adobe Illustrator 24.1.2, SVG Export Plug-In . SVG Version: 6.00 Build 0)  -->
<svg version="1.1" id="Layer_1" xmlns="http://www.w3.org/2000/svg" xmlns:xlink="http://www.w3.org/1999/xlink" x="0px" y="0px"
	 viewBox="0 0 100 100" style="enable-background:new 0 0 100 100;" xml:space="preserve">
<style type="text/css">
	.st0{fill:none;stroke:#081F40;stroke-width:2;stroke-linecap:round;stroke-linejoin:round;}
</style>
<g>
	<path class="st0" d="M63,31.1c-4-2.3-5.1-2.4-10.7-1c-0.9,0.2-1.6,0.4-2.3,0.4c-0.7-0.1-1.4-0.2-2.3-0.4c-5.6-1.5-6.7-1.4-10.7,1
		c-3.5,1.9-5.6,7.2-4.6,13.3c1.2,7,3.9,7.5,3.9,15.1c0,7.5,2.7,11.3,4.9,11.3c2.2,0,3.3-2.6,5.7-9c1.7-4.4,4.1-5.1,6,0
		c2.4,6.5,3.5,9,5.7,9c2.2,0,4.9-3.8,4.9-11.3c0-7.6,2.7-8,3.9-15.1C68.6,38.4,66.5,33,63,31.1z"/>
	<g>
		<g>
			<g>
				<path class="st0" d="M28.8,12.5c-2,2.1-2.8,4.9-2.3,7.5c2.7,0.4,5.5-0.4,7.5-2.5c2-2.1,2.8-4.9,2.3-7.5
					C33.7,9.5,30.9,10.4,28.8,12.5z"/>
				<path class="st0" d="M14.3,23.9c0.3,2.8,1.9,5.1,4.1,6.5c2-1.7,3.1-4.3,2.8-7.1c-0.3-2.8-1.9-5.1-4.1-6.5
					C15.2,18.5,14,21.1,14.3,23.9z"/>
				<path class="st0" d="M7.1,41.9c1.4,2.4,3.9,3.9,6.5,4.1c1-2.4,1-5.2-0.4-7.6c-1.4-2.4-3.9-3.9-6.5-4.1
					C5.7,36.6,5.7,39.5,7.1,41.9z"/>
				<path class="st0" d="M8.3,61.2c2.3,1.6,5.1,1.9,7.6,1c-0.1-2.6-1.3-5.1-3.6-6.7c-2.3-1.6-5.1-1.9-7.6-1
					C4.7,57.1,6,59.6,8.3,61.2z"/>
				<path class="st0" d="M17.5,78.3c2.8,0.5,5.4-0.5,7.3-2.3c-1.2-2.3-3.4-4.1-6.1-4.6c-2.8-0.5-5.4,0.5-7.3,2.3
					C12.5,76,14.7,77.8,17.5,78.3z"/>
				<path class="st0" d="M33,89.9c2.7-0.7,4.7-2.7,5.7-5.2c-2-1.6-4.8-2.3-7.5-1.6c-2.7,0.7-4.7,2.7-5.7,5.2
					C27.5,89.9,30.3,90.6,33,89.9z"/>
				<path class="st0" d="M45,84c-18.2-3.2-31.4-19.7-30.1-38.5c0.7-10.1,5.4-18.9,12.5-25"/>
			</g>
			<g>
				<path class="st0" d="M71.2,12.5c2,2.1,2.8,4.9,2.3,7.5c-2.7,0.4-5.5-0.4-7.5-2.5c-2-2.1-2.8-4.9-2.3-7.5
					C66.3,9.5,69.1,10.4,71.2,12.5z"/>
				<path class="st0" d="M85.7,23.9c-0.3,2.8-1.9,5.1-4.1,6.5c-2-1.7-3.1-4.3-2.8-7.1c0.3-2.8,1.9-5.1,4.1-6.5
					C84.8,18.5,86,21.1,85.7,23.9z"/>
				<path class="st0" d="M92.9,41.9c-1.4,2.4-3.9,3.9-6.5,4.1c-1.1-2.4-1-5.2,0.4-7.6c1.4-2.4,3.9-3.9,6.5-4.1
					C94.3,36.6,94.3,39.5,92.9,41.9z"/>
				<path class="st0" d="M91.7,61.2c-2.3,1.6-5.1,1.9-7.6,1c0.1-2.6,1.3-5.1,3.6-6.7c2.3-1.6,5.1-1.9,7.6-1
					C95.3,57.1,94,59.6,91.7,61.2z"/>
				<path class="st0" d="M82.5,78.3c-2.8,0.5-5.4-0.5-7.3-2.3c1.2-2.3,3.4-4.1,6.1-4.6c2.8-0.5,5.4,0.5,7.3,2.3
					C87.5,76,85.3,77.8,82.5,78.3z"/>
				<path class="st0" d="M67,89.9c-2.7-0.7-4.7-2.7-5.6-5.2c2-1.6,4.8-2.3,7.5-1.6c2.7,0.7,4.7,2.7,5.6,5.2
					C72.5,89.9,69.7,90.6,67,89.9z"/>
				<path class="st0" d="M55,84c18.2-3.2,31.4-19.7,30.1-38.5c-0.7-10.1-5.4-18.9-12.5-25"/>
			</g>
		</g>
	</g>
</g>
</svg>
