<?xml version="1.0" encoding="utf-8"?>
<!-- Generator: Adobe Illustrator 24.1.2, SVG Export Plug-In . SVG Version: 6.00 Build 0)  -->
<svg version="1.1" id="Layer_1" xmlns="http://www.w3.org/2000/svg" xmlns:xlink="http://www.w3.org/1999/xlink" x="0px" y="0px"
	 viewBox="0 0 100 100" style="enable-background:new 0 0 100 100;" xml:space="preserve">
<style type="text/css">
	.st0{fill:none;stroke:#081F40;stroke-width:2;stroke-linecap:round;stroke-linejoin:round;}
</style>
<g>
	<g>
		<g>
			<line class="st0" x1="96.5" y1="39.2" x2="86.4" y2="39.2"/>
			<line class="st0" x1="92.6" y1="17.5" x2="83.1" y2="20.9"/>
			<line class="st0" x1="92.7" y1="60.9" x2="83.2" y2="57.5"/>
			<line class="st0" x1="96.5" y1="39.2" x2="86.4" y2="39.2"/>
		</g>
		<g>
			<line class="st0" x1="3.5" y1="39.2" x2="13.6" y2="39.2"/>
			<line class="st0" x1="7.4" y1="17.5" x2="16.9" y2="20.9"/>
			<line class="st0" x1="7.3" y1="60.9" x2="16.8" y2="57.5"/>
			<line class="st0" x1="3.5" y1="39.2" x2="13.6" y2="39.2"/>
		</g>
	</g>
	<path class="st0" d="M68.5,26c-5.7-3.3-7.2-3.5-15.3-1.4C52,25,51,25.2,50,25.3c-1-0.1-2-0.3-3.2-0.6c-8-2.1-9.5-2-15.3,1.4
		c-5,2.7-7.9,10.3-6.5,19c1.7,10,5.5,10.7,5.5,21.5c0,10.7,3.9,16.1,7,16.1s4.7-3.7,8.1-12.9c2.4-6.3,5.9-7.3,8.6,0
		c3.4,9.2,5,12.9,8.2,12.9c3.1,0,7-5.4,7-16.1C69.5,55.7,73.3,55,75,45C76.4,36.3,73.5,28.7,68.5,26z"/>
	<g>
		<line class="st0" x1="40.7" y1="33.1" x2="33.7" y2="33.1"/>
		<line class="st0" x1="66.3" y1="33.1" x2="59.3" y2="33.1"/>
		<path class="st0" d="M36.8,42.4c0.3,8.2,6.2,14.7,13.5,14.7s13.2-6.5,13.5-14.7H36.8z"/>
	</g>
</g>
</svg>
