<?xml version="1.0" encoding="utf-8"?>
<!-- Generator: Adobe Illustrator 24.1.2, SVG Export Plug-In . SVG Version: 6.00 Build 0)  -->
<svg version="1.1" id="Layer_1" xmlns="http://www.w3.org/2000/svg" xmlns:xlink="http://www.w3.org/1999/xlink" x="0px" y="0px"
	 viewBox="0 0 100 100" style="enable-background:new 0 0 100 100;" xml:space="preserve">
<style type="text/css">
	.st0{fill:none;stroke:#081F40;stroke-width:2;stroke-linecap:round;stroke-linejoin:round;}
</style>
<g>
	<g>
		<g>
			<path class="st0" d="M13.9,72.6C3.5,56.3,5.5,34.3,19.8,20C36.3,3.5,63.1,3.5,79.7,20"/>
			<polyline class="st0" points="79.8,6.9 79.8,21.4 65.3,21.4 			"/>
		</g>
		<g>
			<path class="st0" d="M86.1,27.4c10.4,16.4,8.4,38.3-5.9,52.6c-16.5,16.5-43.4,16.5-59.9,0"/>
			<polyline class="st0" points="20.2,93.1 20.2,78.6 34.7,78.6 			"/>
		</g>
	</g>
</g>
<g>
	<path class="st0" d="M76.2,44.3H48c-2.2-4.9-7.1-8.4-12.8-8.4c-7.8,0-14,6.3-14,14s6.3,14,14,14c5.9,0,11-3.7,13.1-8.9l0.8,0.2
		l5.3-1.4l5.3,1.4l5.3-1.4l5.3,1.4l4.7-1.2l4-2.4v-4L76.2,44.3z"/>
	<line class="st0" x1="26.6" y1="50" x2="30.2" y2="50"/>
</g>
</svg>
