<?xml version="1.0" encoding="utf-8"?>
<!-- Generator: Adobe Illustrator 24.1.2, SVG Export Plug-In . SVG Version: 6.00 Build 0)  -->
<svg version="1.1" id="Layer_1" xmlns="http://www.w3.org/2000/svg" xmlns:xlink="http://www.w3.org/1999/xlink" x="0px" y="0px"
	 viewBox="0 0 100 100" style="enable-background:new 0 0 100 100;" xml:space="preserve">
<style type="text/css">
	.st0{fill:none;stroke:#081F40;stroke-width:2;stroke-linecap:round;stroke-linejoin:round;}
	.st1{fill:none;stroke:#081F40;stroke-width:2;stroke-linecap:round;stroke-linejoin:round;stroke-dasharray:4,7;}
</style>
<g>
	<path class="st0" d="M69.1,54c0-6-2.3-11.6-6.6-15.9c-4.2-4.2-9.9-6.6-15.9-6.6c-6,0-11.6,2.4-15.8,6.6c-8.7,8.8-8.7,23,0,31.7
		c4.2,4.2,9.9,6.6,15.9,6.6c6,0,11.6-2.3,15.8-6.6C66.8,65.6,69.1,60,69.1,54z"/>
	<path class="st0" d="M56.1,54c0-2.5-1-4.9-2.8-6.7c-1.8-1.8-4.1-2.8-6.7-2.8c-2.5,0-4.9,1-6.6,2.8c-3.7,3.7-3.7,9.6,0,13.3
		c1.8,1.8,4.2,2.8,6.7,2.8c2.5,0,4.9-1,6.6-2.8C55.1,58.8,56.1,56.5,56.1,54z"/>
	<g>
		<g>
			<path class="st1" d="M57.7,64.9c-3,3-6.9,4.6-11,4.6c-8.6,0-15.6-7-15.6-15.6c0-4.1,1.6-8,4.5-11c2.9-3,6.9-4.6,11-4.6
				c4.2,0,8.1,1.6,11,4.6c2.9,2.9,4.6,6.9,4.6,11C62.3,58.1,60.7,62,57.7,64.9z"/>
		</g>
	</g>
	<path class="st0" d="M48.7,22.8c16.6,0,32.2,9.1,43.9,25.6"/>
	<ellipse class="st0" cx="46.9" cy="53.9" rx="39.5" ry="23.2"/>
</g>
</svg>
