<?xml version="1.0" encoding="utf-8"?>
<!-- Generator: Adobe Illustrator 24.1.2, SVG Export Plug-In . SVG Version: 6.00 Build 0)  -->
<svg version="1.1" id="Layer_1" xmlns="http://www.w3.org/2000/svg" xmlns:xlink="http://www.w3.org/1999/xlink" x="0px" y="0px"
	 viewBox="0 0 100 100" style="enable-background:new 0 0 100 100;" xml:space="preserve">
<style type="text/css">
	.st0{fill:none;stroke:#081F40;stroke-width:2;stroke-linecap:round;stroke-linejoin:round;}
	.st1{clip-path:url(#SVGID_3_);}
	.st2{fill:none;stroke:#081F40;stroke-width:2;stroke-linecap:round;stroke-linejoin:round;stroke-dasharray:1.7534;}
	.st3{fill:none;stroke:#081F40;stroke-width:2;stroke-linecap:round;stroke-linejoin:round;stroke-dasharray:5.5484,5.5484;}
</style>
<g>
	<rect x="44.4" y="63.1" class="st0" width="10.6" height="18.5"/>
	<rect x="81.9" y="33.9" class="st0" width="10.6" height="47.7"/>
	<rect x="63.2" y="67.4" class="st0" width="10.6" height="14.3"/>
	<rect x="25.7" y="73.9" class="st0" width="10.6" height="7.7"/>
	<g>
		<g>
			<polyline class="st0" points="81.7,24.6 81.7,10.1 67.2,10.1 			"/>
			<line class="st0" x1="81.4" y1="10.3" x2="17.8" y2="73.8"/>
		</g>
	</g>
	<g>
		<line class="st0" x1="5.5" y1="82" x2="12.8" y2="82"/>
		<line class="st0" x1="5.5" y1="74" x2="12.8" y2="74"/>
		<line class="st0" x1="5.5" y1="66.1" x2="12.8" y2="66.1"/>
		<line class="st0" x1="5.5" y1="58.2" x2="12.8" y2="58.2"/>
		<line class="st0" x1="5.5" y1="50.3" x2="12.8" y2="50.3"/>
		<line class="st0" x1="5.5" y1="42.4" x2="12.8" y2="42.4"/>
		<line class="st0" x1="5.5" y1="34.4" x2="12.8" y2="34.4"/>
		<line class="st0" x1="5.5" y1="26.5" x2="12.8" y2="26.5"/>
		<line class="st0" x1="5.5" y1="18.6" x2="12.8" y2="18.6"/>
	</g>
	<line class="st0" x1="5.5" y1="89.9" x2="94.5" y2="89.9"/>
</g>
</svg>
