<?xml version="1.0" encoding="utf-8"?>
<!-- Generator: Adobe Illustrator 24.1.2, SVG Export Plug-In . SVG Version: 6.00 Build 0)  -->
<svg version="1.1" id="Layer_1" xmlns="http://www.w3.org/2000/svg" xmlns:xlink="http://www.w3.org/1999/xlink" x="0px" y="0px"
	 viewBox="0 0 100 100" style="enable-background:new 0 0 100 100;" xml:space="preserve">
<style type="text/css">
	.st0{fill:none;stroke:#081F40;stroke-width:2;stroke-linecap:round;stroke-linejoin:round;}
</style>
<g>
	<g>
		<path class="st0" d="M92.1,56.6V44.8L81.6,44c-0.7-3.9-2.2-7.5-4.1-10.7l7-8.3l-8.4-8.4l-8,6.8c-3.2-2.1-6.7-3.7-10.5-4.7l-1-10.8
			H44.8L44,18.4c-3.9,0.7-7.5,2.2-10.7,4.1l-8.3-7l-8.4,8.4l6.8,8c-2.1,3.2-3.7,6.7-4.7,10.5l-10.8,1v11.8L18.4,56
			c0.7,3.9,2.2,7.5,4.1,10.7l-7,8.3l8.4,8.4l8-6.8c3.1,2.1,6.7,3.7,10.5,4.7l0.9,10.8h11.8L56,81.6c3.9-0.7,7.5-2.2,10.7-4.1l8.3,7
			l8.4-8.4l-6.8-8c2.1-3.2,3.7-6.7,4.7-10.5L92.1,56.6z"/>
	</g>
	<path class="st0" d="M71.5,50c0,11.9-9.6,21.5-21.5,21.5S28.5,61.9,28.5,50"/>
	<g>
		<path class="st0" d="M29.2,44.5c2.4-9.2,10.8-16,20.8-16c10.6,0,19.4,7.7,21.2,17.8"/>
	</g>
</g>
<g>
	<path class="st0" d="M54.8,45.1V44c0-1.9-1.6-3.5-3.5-3.5h-2.8c-1.9,0-3.5,1.6-3.5,3.5v2.4c0,1.1,0.9,2,2,2.7l5.3,2"/>
	<path class="st0" d="M45.2,55.3v1.1c0,1.9,1.6,3.5,3.5,3.5h2.8c1.9,0,3.5-1.6,3.5-3.5V54c0-1.1-0.9-2.1-2-2.8l-5.1-2"/>
	<line class="st0" x1="50.3" y1="35.7" x2="50.3" y2="40.3"/>
	<line class="st0" x1="50.3" y1="59.9" x2="50.3" y2="64.3"/>
</g>
</svg>
