<?xml version="1.0" encoding="utf-8"?>
<!-- Generator: Adobe Illustrator 24.1.2, SVG Export Plug-In . SVG Version: 6.00 Build 0)  -->
<svg version="1.1" id="Layer_1" xmlns="http://www.w3.org/2000/svg" xmlns:xlink="http://www.w3.org/1999/xlink" x="0px" y="0px"
	 viewBox="0 0 48 48" style="enable-background:new 0 0 48 48;" xml:space="preserve">
<style type="text/css">
	.st0{fill-rule:evenodd;clip-rule:evenodd;fill:#2B4258;}
</style>
<g>
	<path class="st0" d="M44,30.2c-0.1-0.2-0.2-0.4-0.3-0.5c-1.9-1.4-3.9-0.5-4-0.4l-7,2.9c0,0.1,0,0.3,0,0.4c0,0.9-0.4,2.3-2.3,2.3
		H19.7c-0.2,0-0.4,0.2-0.4,0.4c0,0.2,0.2,0.4,0.4,0.4h11.4c1.3,0,2.3-1,2.3-2.3c0-0.1,0-0.3,0-0.4l7-2.9C40.5,30,42.2,29.2,44,30.2
		L44,30.2z M45,30.6c0,0.3-0.1,0.6-0.3,0.9C44,33,27.5,42.6,23.3,42.6c-1.8,0-3.6-0.3-5.2-1l0,0l-5.7-2.8c-0.2-0.1-0.3-0.3-0.3-0.5
		v-8c0-1.2,0.9-2,2-2c0.6,0,1.2,0,1.2,0s3.8-0.2,6.5,2.5c0.8,0.8,2,1.3,3.2,1.3h6.3c0.2,0,0.3,0,0.4,0.1l0,0
		c-0.1-0.2-0.1-0.3-0.3-0.4c-0.2-0.3-0.6-0.4-1-0.4h-4.8c-1.3,0-2.4-0.4-3.2-1.3c-2.7-2.7-6.5-2.5-6.5-2.5l0,0h-3.2
		c-0.3,0-0.5-0.2-0.5-0.5c0-0.3,0.2-0.4,0.5-0.4h3.2c0.3,0,4.2-0.2,7.2,2.7c0.6,0.6,1.6,1,2.5,1h4.8c0.8,0,1.6,0.4,2,1l7-2.9
		C41.1,27.5,45.1,28.2,45,30.6L45,30.6z M20,16.7c-2.5-2.5-2.5-6.6,0-9.1l0.4-0.3c2.5-2.5,6.6-2.5,9.1,0l0.2,0.2l0.3-0.2
		c2.5-2.5,6.6-2.5,9.1,0l0.3,0.3c2.5,2.5,2.5,6.6,0,9.1l-0.2,0.2l-8.4,8.4c-0.6,0.6-1.6,0.6-2.1,0l-8.4-8.4L20,16.7z M10.9,25.5
		c0,0.1,0,0.1,0,0.2v14.2c0,0.1,0,0.1,0,0.2c-0.1,0.1-0.2,0.2-0.4,0.2H3.4c-0.2,0-0.4-0.2-0.4-0.4V25.7c0-0.2,0.2-0.4,0.4-0.4h7.2
		C10.7,25.3,10.9,25.4,10.9,25.5L10.9,25.5z"/>
</g>
</svg>
