<?xml version="1.0" encoding="utf-8"?>
<!-- Generator: Adobe Illustrator 24.1.2, SVG Export Plug-In . SVG Version: 6.00 Build 0)  -->
<svg version="1.1" id="Layer_1" xmlns="http://www.w3.org/2000/svg" xmlns:xlink="http://www.w3.org/1999/xlink" x="0px" y="0px"
	 viewBox="0 0 96 96" style="enable-background:new 0 0 96 96;" xml:space="preserve">
<style type="text/css">
	.st0{fill:#EC1C24;}
</style>
<g>
	<circle class="st0" cx="16.3" cy="70" r="8"/>
	<circle class="st0" cx="79.7" cy="70" r="8"/>
	<circle class="st0" cx="48" cy="14" r="8"/>
	<path class="st0" d="M36.1,15.9c-0.4-1-1.6-1.5-2.6-1.1c-16.6,6.8-26.2,24.3-22.9,42c0.2,0.9,1,1.6,2,1.6c0.1,0,0.2,0,0.4,0
		c1.1-0.2,1.8-1.2,1.6-2.3c-3-15.8,5.6-31.5,20.4-37.6C36.1,18.1,36.5,16.9,36.1,15.9C36.1,15.9,36.1,15.9,36.1,15.9z"/>
	<path class="st0" d="M81.4,56.1c-0.2,1.1,0.5,2.1,1.6,2.3c0.1,0,0.2,0,0.4,0c1,0,1.8-0.7,2-1.6c3.3-17.6-6.2-35.2-22.9-42
		c-1-0.4-2.2,0.1-2.6,1.1c-0.4,1,0.1,2.2,1.1,2.6c0,0,0,0,0,0C75.8,24.6,84.4,40.3,81.4,56.1z"/>
	<path class="st0" d="M68,77.4C56,86,40,86,28,77.4c-0.9-0.7-2.1-0.5-2.8,0.4c-0.7,0.9-0.5,2.1,0.4,2.8c0,0,0,0,0,0
		c13.3,9.7,31.3,9.7,44.6,0c0.9-0.6,1.1-1.9,0.4-2.8C70.1,77,68.9,76.8,68,77.4L68,77.4L68,77.4z"/>
	<path class="st0" d="M42.3,44.3c-0.4,3.8-0.4,7.6,0,11.4c3.8,0.4,7.6,0.4,11.4,0c0.2-1.9,0.3-3.8,0.3-5.7c0-1.9-0.1-3.8-0.3-5.7
		C49.9,43.9,46.1,43.9,42.3,44.3L42.3,44.3z"/>
	<path class="st0" d="M48,70c1.7,0,3.9-3.9,5.1-10.2C51.4,59.9,49.7,60,48,60s-3.4-0.1-5.1-0.2C44.1,66.1,46.3,70,48,70z"/>
	<path class="st0" d="M52.7,28.5c2.2,2.7,3.8,7.2,4.6,12.3c5.1,0.8,9.6,2.3,12.2,4.5C67.6,36.9,61.1,30.3,52.7,28.5z"/>
	<path class="st0" d="M28,50c0,1.7,3.9,3.9,10.2,5.1C38.1,53.4,38,51.7,38,50s0.1-3.4,0.2-5.1C31.9,46.1,28,48.3,28,50z"/>
	<path class="st0" d="M43.3,71.4c-2.2-2.6-3.8-7.1-4.6-12.2c-5.1-0.8-9.6-2.4-12.2-4.6C28.4,63,34.9,69.6,43.3,71.4z"/>
	<path class="st0" d="M26.5,45.3c2.6-2.2,7.1-3.7,12.2-4.5c0.8-5.2,2.4-9.7,4.6-12.3C34.9,30.3,28.4,36.9,26.5,45.3z"/>
	<path class="st0" d="M48,30c-1.7,0-3.9,3.9-5.1,10.4c3.4-0.3,6.8-0.3,10.2,0C51.9,33.9,49.7,30,48,30z"/>
	<path class="st0" d="M69.5,54.7c-2.6,2.2-7.1,3.8-12.2,4.6c-0.8,5.1-2.4,9.6-4.6,12.2C61.1,69.6,67.6,63,69.5,54.7z"/>
	<path class="st0" d="M68,50c0-1.7-3.9-3.9-10.2-5.1c0.1,1.7,0.2,3.4,0.2,5.1s-0.1,3.4-0.2,5.1C64.1,53.8,68,51.6,68,50z"/>
</g>
</svg>
