<?xml version="1.0" encoding="utf-8"?>
<!-- Generator: Adobe Illustrator 24.1.2, SVG Export Plug-In . SVG Version: 6.00 Build 0)  -->
<svg version="1.1" id="Layer_1" xmlns="http://www.w3.org/2000/svg" xmlns:xlink="http://www.w3.org/1999/xlink" x="0px" y="0px"
	 viewBox="0 0 48 48" style="enable-background:new 0 0 48 48;" xml:space="preserve">
<style type="text/css">
	.st0{fill:#EC1C24;}
</style>
<path class="st0" d="M37,5.6c-2.7-1.7-6-0.4-8.8,0.6c-1.7,0.6-3.3,1.2-4.7,1.2c-1.3,0-2.9-0.6-4.7-1.3C16,5,12.7,3.7,10,5.7
	C4.1,10.1,5.7,25,8.7,34.1c1.1,3.4,3.6,9.2,6.9,9.2c3.2,0,3.6-3.5,4.1-7c0.6-4.2,1.2-7,3.9-7s3.3,2.8,3.9,7c0.5,3.4,1,7,4.1,7
	c3.7,0,7-7.2,8.7-13.4C42.7,21.1,43.3,9.4,37,5.6z"/>
</svg>
