<?xml version="1.0" encoding="utf-8"?>
<!-- Generator: Adobe Illustrator 24.1.2, SVG Export Plug-In . SVG Version: 6.00 Build 0)  -->
<svg version="1.1" id="Layer_1" xmlns="http://www.w3.org/2000/svg" xmlns:xlink="http://www.w3.org/1999/xlink" x="0px" y="0px"
	 viewBox="0 0 48 48" style="enable-background:new 0 0 48 48;" xml:space="preserve">
<style type="text/css">
	.st0{fill:#2B4258;}
</style>
<path class="st0" d="M40.6,15.7h-3.1V4.3c0-0.6-0.5-1-1-1c0,0,0,0,0,0h-8.3c-0.6,0-1,0.5-1,1c0,0.2,0.1,0.4,0.2,0.6L29,7.4l-1.7,2.5
	c-0.3,0.5-0.2,1.1,0.3,1.4c0.2,0.1,0.4,0.2,0.6,0.2h7.3v4.1h-3.1c-0.6,0-1,0.5-1,1c0,0,0,0,0,0v5.2H24c-0.6,0-1,0.5-1,1c0,0,0,0,0,0
	v5.2h-7.3c-0.6,0-1,0.5-1,1c0,0,0,0,0,0v5.2H7.4c-0.6,0-1,0.5-1,1c0,0,0,0,0,0v8.3c0,0.6,0.5,1,1,1c0,0,0,0,0,0h33.2
	c0.6,0,1-0.5,1-1c0,0,0,0,0,0v-27C41.6,16.2,41.2,15.7,40.6,15.7C40.6,15.7,40.6,15.7,40.6,15.7z"/>
</svg>
