<?xml version="1.0" encoding="utf-8"?>
<!-- Generator: Adobe Illustrator 24.1.2, SVG Export Plug-In . SVG Version: 6.00 Build 0)  -->
<svg version="1.1" id="Layer_1" xmlns="http://www.w3.org/2000/svg" xmlns:xlink="http://www.w3.org/1999/xlink" x="0px" y="0px"
	 viewBox="0 0 48 48" style="enable-background:new 0 0 48 48;" xml:space="preserve">
<style type="text/css">
	.st0{fill:#2B4258;}
</style>
<path class="st0" d="M9,23h6c0.6,0,1,0.4,1,1v16c0,0.6-0.4,1-1,1H9c-0.6,0-1-0.4-1-1V24C8,23.4,8.4,23,9,23z"/>
<path class="st0" d="M21,15h6c0.6,0,1,0.4,1,1v24c0,0.6-0.4,1-1,1h-6c-0.6,0-1-0.4-1-1V16C20,15.4,20.4,15,21,15z"/>
<path class="st0" d="M33,7h6c0.6,0,1,0.4,1,1v32c0,0.6-0.4,1-1,1h-6c-0.6,0-1-0.4-1-1V8C32,7.4,32.4,7,33,7z"/>
</svg>
