<?xml version="1.0" encoding="utf-8"?>
<!-- Generator: Adobe Illustrator 24.1.2, SVG Export Plug-In . SVG Version: 6.00 Build 0)  -->
<svg version="1.1" id="Layer_1" xmlns="http://www.w3.org/2000/svg" xmlns:xlink="http://www.w3.org/1999/xlink" x="0px" y="0px"
	 viewBox="0 0 48 48" style="enable-background:new 0 0 48 48;" xml:space="preserve">
<style type="text/css">
	.st0{fill:#EC1C24;}
</style>
<path class="st0" d="M42.4,9.6L23.9,1.4L5.6,9.6C3.2,39.9,24,46.6,24,46.6S44.8,39.9,42.4,9.6z M29.5,22.2c1,0,1.8,0.8,1.8,1.8v7.4
	c0,1-0.8,1.8-1.8,1.8h-3.7V35c0,1-0.8,1.8-1.8,1.8S22.2,36,22.2,35v-1.8h-3.7c-1,0-1.8-0.8-1.8-1.8s0.8-1.8,1.8-1.8h9.2v-3.7h-9.2
	c-1,0-1.8-0.8-1.8-1.8v-7.4c0-1,0.8-1.8,1.8-1.8h3.7v-1.8c0-1,0.8-1.8,1.8-1.8s1.8,0.8,1.8,1.8v1.8h3.7c1,0,1.8,0.8,1.8,1.8
	s-0.8,1.8-1.8,1.8h-9.2v3.7H29.5z"/>
</svg>
