<?xml version="1.0" encoding="utf-8"?>
<!-- Generator: Adobe Illustrator 24.1.2, SVG Export Plug-In . SVG Version: 6.00 Build 0)  -->
<svg version="1.1" id="Layer_1" xmlns="http://www.w3.org/2000/svg" xmlns:xlink="http://www.w3.org/1999/xlink" x="0px" y="0px"
	 viewBox="0 0 48 48" style="enable-background:new 0 0 48 48;" xml:space="preserve">
<style type="text/css">
	.st0{fill:#2B4258;}
</style>
<g>
	<path class="st0" d="M29.4,16.8c-0.1-0.4-0.3-0.7-0.4-1.1c-0.2-0.4-0.1-0.8,0.2-1.1l1.5-1.5l-1.3-1.3l-1.5,1.5
		c-0.3,0.3-0.7,0.4-1.1,0.2c-0.3-0.2-0.7-0.3-1.1-0.4c-0.4-0.1-0.7-0.5-0.7-0.9V9.9h-1.9v2.2c0,0.4-0.3,0.8-0.7,0.9
		c-0.4,0.1-0.7,0.3-1.1,0.4c-0.4,0.2-0.8,0.1-1.1-0.2l-1.5-1.5L17.4,13l1.5,1.5c0.3,0.3,0.4,0.7,0.2,1.1c-0.2,0.3-0.3,0.7-0.4,1.1
		c-0.1,0.4-0.5,0.7-0.9,0.7h-2.2v1.9h2.2c0.4,0,0.8,0.3,0.9,0.7c0.1,0.4,0.3,0.7,0.4,1.1c0.2,0.4,0.1,0.8-0.2,1.1l-1.5,1.5l1.3,1.3
		l1.5-1.5c0.3-0.3,0.7-0.4,1.1-0.2c0.3,0.2,0.7,0.3,1.1,0.4c0.4,0.1,0.7,0.5,0.7,0.9v2.2h1.9v-2.2c0-0.4,0.3-0.8,0.7-0.9
		c0.4-0.1,0.7-0.3,1.1-0.4c0.4-0.2,0.8-0.1,1.1,0.2l1.5,1.5l1.3-1.3l-1.5-1.5c-0.3-0.3-0.4-0.7-0.2-1.1c0.2-0.3,0.3-0.7,0.4-1.1
		c0.1-0.4,0.5-0.7,0.9-0.7h2.2v-1.9h-2.2C29.9,17.4,29.5,17.2,29.4,16.8z M24,21.2c-1.6,0-2.8-1.3-2.8-2.8s1.3-2.8,2.8-2.8
		s2.8,1.3,2.8,2.8S25.6,21.2,24,21.2z"/>
	<path class="st0" d="M18.4,43.7c0,0.5,0.4,0.9,0.9,0.9h9.4c0.5,0,0.9-0.4,0.9-0.9v-1.9H18.4V43.7z"/>
	<path class="st0" d="M16.5,39c0,0.5,0.4,0.9,0.9,0.9c0,0,0,0,0,0h13.2c0.5,0,0.9-0.4,0.9-0.9c0,0,0,0,0,0v-1.9h-15V39z"/>
	<path class="st0" d="M24,3.3c-8.3,0-15,6.7-15,15c0,6.3,2.7,9.6,4.8,12.4c1.3,1.6,2.3,2.9,2.6,4.6h15.2c0.3-1.6,1.3-2.9,2.6-4.6
		C36.4,28,39,24.6,39,18.4C39,10.1,32.3,3.3,24,3.3z M34.3,20.2c0,0.5-0.4,0.9-0.9,0.9c0,0,0,0,0,0h-2.5c0,0,0,0.1,0,0.1l1.7,1.7
		c0.4,0.4,0.4,1,0,1.3c0,0,0,0,0,0L30,27c-0.4,0.4-1,0.4-1.3,0c0,0,0,0,0,0l-1.7-1.7c0,0-0.1,0-0.1,0v2.5c0,0.5-0.4,0.9-0.9,0.9
		c0,0,0,0,0,0h-3.8c-0.5,0-0.9-0.4-0.9-0.9c0,0,0,0,0,0v-2.5c0,0-0.1,0-0.1,0L19.3,27c-0.4,0.4-1,0.4-1.3,0c0,0,0,0,0,0l-2.7-2.7
		c-0.4-0.4-0.4-1,0-1.3c0,0,0,0,0,0l1.7-1.7c0,0,0-0.1,0-0.1h-2.5c-0.5,0-0.9-0.4-0.9-0.9c0,0,0,0,0,0v-3.8c0-0.5,0.4-0.9,0.9-0.9
		c0,0,0,0,0,0h2.5c0,0,0-0.1,0-0.1l-1.7-1.7c-0.4-0.4-0.4-1,0-1.3c0,0,0,0,0,0L18,9.7c0.4-0.4,1-0.4,1.3,0c0,0,0,0,0,0l1.7,1.7
		c0,0,0.1,0,0.1,0V9c0-0.5,0.4-0.9,0.9-0.9c0,0,0,0,0,0h3.8c0.5,0,0.9,0.4,0.9,0.9c0,0,0,0,0,0v2.5c0,0,0.1,0,0.1,0l1.7-1.7
		c0.4-0.4,1-0.4,1.3,0c0,0,0,0,0,0l2.7,2.7c0.4,0.4,0.4,1,0,1.3c0,0,0,0,0,0l-1.7,1.7c0,0,0,0.1,0,0.1h2.5c0.5,0,0.9,0.4,0.9,0.9
		c0,0,0,0,0,0V20.2z"/>
</g>
</svg>
