<?xml version="1.0" encoding="utf-8"?>
<!-- Generator: Adobe Illustrator 24.2.1, SVG Export Plug-In . SVG Version: 6.00 Build 0)  -->
<svg version="1.1" id="Layer_1" xmlns="http://www.w3.org/2000/svg" xmlns:xlink="http://www.w3.org/1999/xlink" x="0px" y="0px"
	 viewBox="0 0 170 170" style="enable-background:new 0 0 170 170;" xml:space="preserve">
<style type="text/css">
	.st0{fill:none;stroke:#041D3C;stroke-width:4;stroke-linecap:round;stroke-linejoin:round;stroke-miterlimit:10;}
	.st1{fill:#041D3C;}
	.st2{fill:none;stroke:#EB2027;stroke-width:4;stroke-miterlimit:10;}
	.st3{fill:#EB2027;}
</style>
<g>
	<g>
		<line class="st0" x1="79.3" y1="156.1" x2="79.3" y2="143.1"/>
		<path class="st0" d="M102.3,12c2.1,0.8,4.2,1.7,6.2,2.8c33.2,16.8,46.6,57.3,29.8,90.6C121.5,138.6,81,152,47.7,135.2
			c-2-1-4-2.2-5.9-3.4"/>
		<path class="st1" d="M31.7,166.5c0.2-5.2,4.4-10.9,9.6-10.9h75.8c5.2,0,9.4,5.7,9.6,10.9H31.7z"/>
		<line class="st0" x1="49.5" y1="120.2" x2="38.9" y2="141.2"/>
		<line class="st0" x1="108.5" y1="4.4" x2="98.8" y2="23.5"/>
	</g>
	<g>
		<g>
			<path class="st0" d="M28,52.1c-12.4,28.2,0.4,61.3,28.7,73.8c28.2,12.4,61.3-0.4,73.8-28.7c12.4-28.2-0.4-61.3-28.7-73.8
				c-7.6-3.3-15.5-4.9-23.3-4.7"/>
		</g>
		<g>
			<path class="st1" d="M134.9,81.3l-20.3,15.4c-0.8,0.6-1.8,0.5-2.5-0.2l-7.2-7.3c-0.3-0.3-0.5-0.7-0.5-1.2l-0.6-6.1
				c-0.1-1.4-1.6-2.2-2.8-1.5L98,82c-0.2,0.1-0.3,0.2-0.4,0.3l-4.2,4.1l-17.9,16.9c-1.2,1.2-3.2,0.3-3.2-1.4v-7.2
				c0-0.2,0-0.3,0.1-0.5l2.8-11.4c0.2-0.9-0.2-1.8-1-2.2L70.5,79c-0.6-0.3-1-0.9-1.1-1.5l-0.4-3.6c-0.1-0.6,0.2-1.3,0.7-1.7l5.7-4.8
				c0.6-0.5,1.5-0.6,2.2-0.2l5.4,3.1c0.7,0.4,1.7,0.3,2.3-0.3l3.7-3.7c0.9-0.9,0.7-2.4-0.4-3l-7.2-3.9c-0.8-0.4-1.2-1.3-1-2.1l0-0.2
				c0.1-0.4,0.3-0.7,0.6-1l6.5-5.7c0.2-0.2,0.4-0.3,0.6-0.4l7.7-2.6c0.7-0.2,1.4-0.1,1.9,0.4l4.7,4.4c0.3,0.3,0.7,0.5,1.1,0.5
				l12.6,1.4c0.1,0,0.2,0,0.3,0c1-0.1,6.4-0.4,12.4-0.9C129,53.2,136.2,60.2,134.9,81.3z"/>
			<path class="st1" d="M53,70.1l4.7,10.4c0.3,0.6,0.1,1.2-0.3,1.7L41,97.2c-0.8,0.7-2.1,0.4-2.4-0.7l-0.9-3.2
				c-0.1-0.3-0.1-0.7,0.1-1l4.5-9.9c0.1-0.1,0.1-0.2,0.1-0.4l-0.6-9.9"/>
			<polyline class="st0" points="92.4,32.2 85.6,41.4 75.9,44.1 			"/>
		</g>
	</g>
</g>
<g>
	<path class="st2" d="M48.9,6.1c-12.8,0-23.2,10.4-23.2,23.2s23.2,32.6,23.2,32.6s23.2-19.8,23.2-32.6C72.1,16.5,61.7,6.1,48.9,6.1z
		"/>
	<path class="st3" d="M48.9,37.1c-4.3,0-7.8-3.5-7.8-7.8s3.5-7.8,7.8-7.8s7.8,3.5,7.8,7.8S53.2,37.1,48.9,37.1z"/>
</g>
</svg>
