<?xml version="1.0" encoding="utf-8"?>
<!-- Generator: Adobe Illustrator 24.2.1, SVG Export Plug-In . SVG Version: 6.00 Build 0)  -->
<svg version="1.1" id="Layer_1" xmlns="http://www.w3.org/2000/svg" xmlns:xlink="http://www.w3.org/1999/xlink" x="0px" y="0px"
	 viewBox="0 0 170 170" style="enable-background:new 0 0 170 170;" xml:space="preserve">
<style type="text/css">
	.st0{fill:#041d3c;}
	.st1{fill:#ea2e2b;}
</style>
<g>
	<path class="st0 st1" d="M99.7,22.4l-8.1,8.1c-5.9-4.3-13.2-5.7-20.1-4.2L101,55.7c1.7-7.4-0.1-15.5-5.4-21.6l6.3-6.3h42.8v-5.4H99.7z"
		/>
	<path class="st0" d="M113.5,96.2h-8.2v-8.3h3.5v-5.4H76.4v5.4h3.5v8.3h-2.5L53.9,72.7c-3.4-3.4-9-3.4-12.4,0c-3.4,3.4-3.4,9,0,12.4
		l28.7,28.7h36l23.5,23.5c1.7,1.7,4,2.6,6.2,2.6c2.2,0,4.5-0.9,6.2-2.6c3.4-3.4,3.4-9,0-12.4L113.5,96.2z M85.3,87.9h14.6v8.3H85.3
		V87.9z"/>
	<path class="st0" d="M44.5,60.8l-2.4-5.6c-1.9-4.5-7-6.6-11.5-4.7c-4.5,1.9-6.6,7-4.7,11.5l2.4,5.6C29.7,71,33,73,36.4,73
		c1.1,0,2.3-0.2,3.4-0.7C44.3,70.5,46.4,65.3,44.5,60.8z"/>
	<polygon class="st0" points="102.6,121.7 73.8,121.7 73.8,143.7 68.4,143.7 68.4,153.7 108,153.7 108,143.7 102.6,143.7 	"/>
</g>
</svg>
