<?xml version="1.0" encoding="utf-8"?>
<!-- Generator: Adobe Illustrator 24.2.1, SVG Export Plug-In . SVG Version: 6.00 Build 0)  -->
<svg version="1.1" id="Layer_1" xmlns="http://www.w3.org/2000/svg" xmlns:xlink="http://www.w3.org/1999/xlink" x="0px" y="0px"
	 viewBox="0 0 170 170" style="enable-background:new 0 0 170 170;" xml:space="preserve">
<style type="text/css">
	.st1{fill:#041d3c;}
	.st0{fill:transparent;stroke: #EC2028;stroke-width: 4px}
</style>
<path class="st0" d="M99.6,46.2c-9.6-5.6-12.2-5.9-25.7-2.3c-2,0.5-3.8,0.8-5.4,1c-1.6-0.2-3.4-0.5-5.4-1c-13.5-3.6-16-3.3-25.7,2.3
	c-8.5,4.5-13.3,17.4-10.9,31.9c2.8,16.8,9.3,17.9,9.3,36.1c0,18.1,6.6,27.1,11.8,27.1c5.3,0,7.9-6.2,13.7-21.7
	c4-10.6,9.8-12.3,14.4,0c5.8,15.5,8.4,21.7,13.7,21.7c5.3,0,11.8-9,11.8-27.1s6.4-19.2,9.3-36.1C112.9,63.5,108.1,50.6,99.6,46.2z"
	/>
<polygon class="st1" points="110.2,34.6 110.2,47.5 123.5,47.5 82.4,87.3 59.6,67.7 32.5,96.4 34.4,104 35.3,112.9 60.5,85.5 
	83,104.8 131.2,58 131.2,68.5 144.1,68.5 144.1,34.6 "/>
</svg>
