<?xml version="1.0" encoding="utf-8"?>
<!-- Generator: Adobe Illustrator 24.2.1, SVG Export Plug-In . SVG Version: 6.00 Build 0)  -->
<svg version="1.1" id="Layer_1" xmlns="http://www.w3.org/2000/svg" xmlns:xlink="http://www.w3.org/1999/xlink" x="0px" y="0px"
	 viewBox="0 0 170 170" style="enable-background:new 0 0 170 170;" xml:space="preserve">
<style type="text/css">
	.st0{fill:#041d3c;}
	.st1{fill:#ea2e2b;}
</style>
<g>
	<g>
		<path class="st1" d="M75.6,128.6c-0.7,0-1.3-0.3-1.8-0.7L23.2,77.3C9.4,63.5,9.4,41,23.2,27.2l0.5-0.5c13.8-13.8,36.3-13.8,50.1,0
			l1.7,1.7l1.7-1.7C84,20,92.9,16.3,102.4,16.3c9.5,0,18.4,3.7,25.1,10.4l0.5,0.5c10,10.1,13.1,25.2,7.8,38.4
			c-0.5,1.3-2,1.9-3.3,1.4c-1.3-0.5-1.9-2-1.4-3.3c4.6-11.3,2-24.3-6.7-33l-0.5-0.5c-5.8-5.8-13.4-8.9-21.5-8.9
			c-8.1,0-15.8,3.2-21.5,8.9l-3.5,3.5c-0.9,0.9-2.6,0.9-3.5,0l-3.5-3.5c-11.9-11.9-31.2-11.9-43.1,0l-0.5,0.5
			c-11.9,11.9-11.9,31.2,0,43.1l48.8,48.8l7.4-7.4c1-1,2.6-1,3.5,0c1,1,1,2.6,0,3.5l-9.2,9.2C76.9,128.4,76.2,128.6,75.6,128.6z"/>
	</g>
</g>
<path class="st0" d="M147.4,74.1c-8.1-4.7-10.2-4.9-21.5-1.9c-1.7,0.4-3.2,0.7-4.5,0.9c-1.4-0.1-2.8-0.4-4.5-0.9
	c-11.3-3-13.4-2.8-21.5,1.9c-7.1,3.7-11.1,14.5-9.1,26.7c2.3,14,7.8,15,7.8,30.2c0,15.1,5.5,22.7,9.9,22.7c4.4,0,6.6-5.2,11.5-18.1
	c3.3-8.9,8.2-10.3,12.1,0c4.8,12.9,7.1,18.1,11.5,18.1c4.4,0,9.9-7.5,9.9-22.7c0-15.2,5.4-16,7.8-30.2
	C158.6,88.6,154.5,77.8,147.4,74.1z M107.6,82.2c-0.7,0-1.5,0.2-5.4,2.4l-0.2,0.2c-0.1,0-0.1,0.1-0.2,0.1c-2.4,1.3-5,7.3-3.6,15.5
	c0.2,1.4-0.7,2.7-2,2.9c-0.1,0-0.3,0-0.4,0c-1.2,0-2.3-0.9-2.5-2.1c-1.5-9.1,1.1-17.9,6.1-20.7l0.2-0.1c0,0,0.1-0.1,0.1-0.1
	c4.3-2.5,5.9-3.1,8-3.1c1.4,0,2.5,1.1,2.5,2.5S108.9,82.2,107.6,82.2z"/>
<g>
	<g>
		<path class="st0" d="M109.4,62.8c-1.4,0-2.5-1.1-2.5-2.5V48c0-1.4,1.1-2.5,2.5-2.5s2.5,1.1,2.5,2.5v12.3
			C111.9,61.7,110.7,62.8,109.4,62.8z"/>
	</g>
	<g>
		<path class="st0" d="M98.2,64.1c-1,0-2-0.6-2.4-1.6l-4.2-11.6c-0.5-1.3,0.2-2.7,1.5-3.2c1.3-0.5,2.7,0.2,3.2,1.5l4.2,11.6
			c0.5,1.3-0.2,2.7-1.5,3.2C98.7,64.1,98.4,64.1,98.2,64.1z"/>
	</g>
	<g>
		<path class="st0" d="M88.2,69.1c-0.7,0-1.4-0.3-1.9-0.9l-7.9-9.4c-0.9-1.1-0.8-2.6,0.3-3.5c1.1-0.9,2.6-0.8,3.5,0.3l7.9,9.4
			c0.9,1.1,0.8,2.6-0.3,3.5C89.3,68.9,88.7,69.1,88.2,69.1z"/>
	</g>
	<g>
		<path class="st0" d="M80.5,77.3c-0.4,0-0.8-0.1-1.2-0.3l-10.7-6.1c-1.2-0.7-1.6-2.2-0.9-3.4c0.7-1.2,2.2-1.6,3.4-0.9l10.7,6.1
			c1.2,0.7,1.6,2.2,0.9,3.4C82.2,76.9,81.3,77.3,80.5,77.3z"/>
	</g>
	<g>
		<path class="st0" d="M76,87.7c-0.1,0-0.3,0-0.5,0l-12.1-2.2c-1.4-0.2-2.3-1.5-2-2.9c0.2-1.4,1.5-2.3,2.9-2l12.1,2.2
			c1.4,0.2,2.3,1.5,2,2.9C78.2,86.9,77.1,87.7,76,87.7z"/>
	</g>
	<g>
		<path class="st0" d="M63.3,101c-1.2,0-2.2-0.9-2.5-2.1c-0.2-1.4,0.7-2.7,2-2.9L74.9,94c1.4-0.2,2.7,0.7,2.9,2
			c0.2,1.4-0.7,2.7-2,2.9L63.7,101C63.5,101,63.4,101,63.3,101z"/>
	</g>
</g>
</svg>
