<?xml version="1.0" encoding="utf-8"?>
<!-- Generator: Adobe Illustrator 24.2.0, SVG Export Plug-In . SVG Version: 6.00 Build 0)  -->
<svg version="1.1" id="Layer_1" xmlns="http://www.w3.org/2000/svg" xmlns:xlink="http://www.w3.org/1999/xlink" x="0px" y="0px"
	 viewBox="0 0 170 170" style="enable-background:new 0 0 170 170;" xml:space="preserve">
<style type="text/css">
	.st0{fill:none;stroke:#EC2028;stroke-width:5;stroke-linecap:round;stroke-linejoin:round;}
	.st1{fill:none;stroke:#EC2028;stroke-width:3.9927;stroke-linecap:round;stroke-linejoin:round;}
</style>
<g id="Icons_1_">
	<g>
		<g>
			<path class="st0" d="M104.6,37.7l-2.9-2.5l-12-10.3c-2.6-2.2-6.8-2.2-9.4,0l-12,10.3l-2.1,1.8"/>
			<polyline class="st0" points="35.2,63.3 22.3,74.3 22.3,74.3 22.3,74.4 22.2,74.4 22.3,74.4 22.3,146.7 147.6,146.7 147.6,74.4 
				147.6,74.4 147.6,74.3 147.6,74.3 147.5,74.3 134.5,63.2 			"/>
			<polyline class="st0" points="35.2,77.1 35.2,37.7 134,37.7 134,77.1 			"/>
			<g>
				<polyline class="st0" points="147.9,76.9 105,112 64.9,112 22.1,76.9 				"/>
				<g>
					<path class="st0" d="M26,145.7l13.9-11.9l10.5-9c1.2-1.1,2.9-2.5,4.5-3.9l10.4-9"/>
					<path class="st0" d="M104.5,112l10.4,9c1.6,1.4,3.2,2.8,4.5,3.9l10.5,9l15,12.9"/>
				</g>
			</g>
		</g>
		<g>
			<path class="st1" d="M96.2,88.5c-2.9,2.2-6.6,3.5-10.6,3.5c-9.7,0-17.5-7.9-17.5-17.5c0-9.7,7.8-17.5,17.5-17.5
				c5.5,0,10.3,2.5,13.6,6.4"/>
			<path class="st1" d="M91.1,66.4c0,0-7.2-1.6-11.4,2.3c-5,4.7-3.9,12,0.8,13.4c4.6,1.3,6.4-2.2,6.9-3.8
				C88,76.7,91.1,66.4,91.1,66.4z"/>
			<path class="st1" d="M90.6,68.1c0,0-3.1,10.8-0.9,12.8c6.3,5.7,20.7-9.1,6.6-20.3"/>
		</g>
	</g>
</g>
</svg>
