<?xml version="1.0" encoding="utf-8"?>
<!-- Generator: Adobe Illustrator 24.0.3, SVG Export Plug-In . SVG Version: 6.00 Build 0)  -->
<svg version="1.1" id="Layer_1" xmlns="http://www.w3.org/2000/svg" xmlns:xlink="http://www.w3.org/1999/xlink" x="0px" y="0px"
	 viewBox="0 0 170 170" style="enable-background:new 0 0 170 170;" xml:space="preserve">
<style type="text/css">
	.st0{fill:#041d3c;}
</style>
<g id="Icons">
	<g>
		<g>
			<g>
				<path class="st0" d="M97.7,17.3c-19.7,0-39.4,0-59,0c-1.2,0-2.2,1-2.2,2.2c0,35,0,70,0,105c0,8.6,0,17.3,0,25.9
					c0,1.2,1,2.2,2.2,2.2c27,0,54.1,0,81.1,0c3.9,0,7.8,0,11.6,0c1.2,0,2.2-1,2.2-2.2c0-24.3,0-48.7,0-73c0-8,0-16.1,0-24.1
					c0-2.9-4.5-2.9-4.5,0c0,27.1,0,54.2,0,81.3c0,5.3,0,10.6,0,15.8c0.8-0.8,1.5-1.5,2.2-2.2c-27,0-54.1,0-81.1,0
					c-3.9,0-7.8,0-11.6,0c0.8,0.8,1.5,1.5,2.2,2.2c0-34.5,0-68.9,0-103.4c0-9.2,0-18.3,0-27.5c-0.8,0.8-1.5,1.5-2.2,2.2
					c19.7,0,39.4,0,59,0C100.6,21.8,100.6,17.3,97.7,17.3L97.7,17.3z"/>
			</g>
		</g>
		<g>
			<g>
				<g>
					<path class="st0" d="M107.1,46.6c6.8,0,13.7,0,20.5,0c1.9,0,3-2.5,1.6-3.8c-6.8-6.8-13.7-13.7-20.5-20.5
						c-1.4-1.4-3.8-0.4-3.8,1.6c0,6.8,0,13.7,0,20.5c0,2.9,4.5,2.9,4.5,0c0-6.8,0-13.7,0-20.5c-1.3,0.5-2.6,1.1-3.8,1.6
						c6.8,6.8,13.7,13.7,20.5,20.5c0.5-1.3,1.1-2.6,1.6-3.8c-6.8,0-13.7,0-20.5,0C104.2,42.1,104.2,46.6,107.1,46.6z"/>
				</g>
			</g>
		</g>
		<g>
			<g>
				<path class="st0" d="M52,51.3c9.6,0,19.1,0,28.7,0c2.9,0,2.9-4.5,0-4.5c-9.6,0-19.1,0-28.7,0C49.1,46.8,49.1,51.3,52,51.3
					L52,51.3z"/>
			</g>
		</g>
		<g>
			<g>
				<path class="st0" d="M51.5,69.1c20.3,0,40.6,0,61,0c2.9,0,2.9-4.5,0-4.5c-20.3,0-40.6,0-61,0C48.6,64.6,48.6,69.1,51.5,69.1
					L51.5,69.1z"/>
			</g>
		</g>
		<g>
			<g>
				<path class="st0" d="M51.5,84.2c20.3,0,40.6,0,61,0c2.9,0,2.9-4.5,0-4.5c-20.3,0-40.6,0-61,0C48.6,79.7,48.6,84.2,51.5,84.2
					L51.5,84.2z"/>
			</g>
		</g>
		<g>
			<g>
				<path class="st0" d="M51.5,99.4c20.3,0,40.6,0,61,0c2.9,0,2.9-4.5,0-4.5c-20.3,0-40.6,0-61,0C48.6,94.9,48.6,99.4,51.5,99.4
					L51.5,99.4z"/>
			</g>
		</g>
		<g>
			<g>
				<path class="st0" d="M51.5,114.5c20.2,0,40.4,0,60.5,0c2.9,0,2.9-4.5,0-4.5c-20.2,0-40.4,0-60.5,0
					C48.6,110,48.6,114.5,51.5,114.5L51.5,114.5z"/>
			</g>
		</g>
		<g>
			<g>
				<path class="st0" d="M51.5,129.8c6.5,0,13.1,0,19.6,0c2.9,0,2.9-4.5,0-4.5c-6.5,0-13.1,0-19.6,0
					C48.6,125.3,48.6,129.8,51.5,129.8L51.5,129.8z"/>
			</g>
		</g>
	</g>
</g>
</svg>
