<?xml version="1.0" encoding="utf-8"?>
<!-- Generator: Adobe Illustrator 24.2.0, SVG Export Plug-In . SVG Version: 6.00 Build 0)  -->
<svg version="1.1" id="Layer_1" xmlns="http://www.w3.org/2000/svg" xmlns:xlink="http://www.w3.org/1999/xlink" x="0px" y="0px"
	 viewBox="0 0 64 64" style="enable-background:new 0 0 64 64;" xml:space="preserve">
<style type="text/css">
	.st0{fill:#fff;}
</style>
<path class="st0" d="M35.3,41.4C35.3,41.4,35.4,41.4,35.3,41.4c0.1,0.1,0.2,0.2,0.2,0.3v4.2c0,0,0,0.1,0,0.1l-0.9,3.2
	c0,0.1-0.1,0.1-0.1,0.2c-0.6,0.6-1.5,1-2.5,1s-1.8-0.3-2.5-1c-0.1-0.1-0.1-0.1-0.1-0.2L28.7,46c0,0,0-0.1,0-0.1v-4.2
	c0-0.1,0.1-0.2,0.2-0.3c0,0,0.1,0,0.1,0c-0.6,0-1.1-0.2-1.5-0.6v5.4l1,3.5c0,0,0,0.1,0,0.1c0,0,0,0.1,0.1,0.1c0.8,1.1,2,1.6,3.5,1.6
	s2.7-0.6,3.5-1.7c0,0,0.1-0.1,0.1-0.1c0,0,0-0.1,0-0.1l1-3.4v-5.4C36.3,41.1,35.8,41.3,35.3,41.4z"/>
<path class="st0" d="M22.1,61.7c-0.3,0-0.5-0.2-0.6-0.4l-0.6-2.1c-0.1-0.2,0-0.4,0.1-0.5l2-3.1c0.1-0.1,0.1-0.2,0.1-0.3
	c0-0.1-0.1-0.2-0.2-0.3l-2.2-1.4c-0.1-0.1-0.2-0.3-0.2-0.4c0-0.1,0-0.2,0.1-0.3l1.9-3.4c0.1-0.2,0.1-0.3,0-0.5
	c-0.1-0.1-0.2-0.1-0.3-0.1c-0.1,0-0.1,0-0.2,0c-4.8,1.8-8.5,5.9-10,10.9l-0.3,1.4c-0.1,0.2-0.4,0.4-0.6,0.4h-0.2
	c-0.3-0.1-0.4-0.4-0.4-0.7l0.4-1.5c1.8-6.2,6.8-11,13.2-12.5c0,0,0.1,0,0.1,0c0.2,0,0.3,0.1,0.4,0.2c0.1,0.2,0.2,0.4,0.1,0.7
	l-2.7,4.8c-0.1,0.2-0.1,0.4,0.1,0.6l2.2,1.5c0.2,0.1,0.2,0.2,0.3,0.4c0,0.2,0,0.3-0.1,0.5L22.1,59c-0.1,0.1-0.1,0.2-0.1,0.4l0.5,1.7
	c0,0.1,0,0.3-0.1,0.4c-0.1,0.1-0.2,0.2-0.3,0.2C22.2,61.7,22.1,61.7,22.1,61.7z"/>
<path class="st0" d="M41.8,61.6c-0.1,0-0.1,0-0.2-0.1c0,0-0.2-0.2-0.2-0.2c0,0,0-0.1-0.1-0.1l0-0.3l0.5-1.6c0-0.1,0-0.2-0.1-0.4
	l-2.3-3.5c-0.1-0.1-0.1-0.3-0.1-0.5c0-0.1,0.1-0.3,0.3-0.3l2.2-1.5c0.2-0.1,0.2-0.4,0.1-0.6l-2.6-4.8c-0.1-0.2-0.1-0.5,0-0.6
	c0.1-0.2,0.3-0.3,0.5-0.3c0,0,0.1,0,0.1,0c0,0,0.1,0,0.1,0c0,0,0.1,0,0.1,0c0.1,0,0.1,0.1,0.2,0.1c2.3,0.6,4.4,1.6,6.3,3
	c0,0.1,0.1,0.1,0.1,0.1c0,0.1,0.1,0.1,0.1,0.1c0.2,0.2,0.3,0.6,0.1,0.8c-0.1,0.1-0.3,0.2-0.5,0.2c-0.1,0-0.2,0-0.3-0.1L46.1,51
	c-1.2-0.9-2.5-1.7-3.9-2.2c0,0-0.1,0-0.2,0c-0.1,0-0.2,0.1-0.3,0.1c-0.1,0.1-0.1,0.3,0,0.5l1.9,3.4c0.2,0.4-0.1,0.7-0.2,0.8L41.2,55
	c-0.2,0.1-0.2,0.4-0.1,0.6l2,3.1c0.1,0.2,0.1,0.4,0.1,0.4l-0.2,0.7l-0.3,1.3c-0.1,0.2-0.3,0.4-0.6,0.4H41.8z"/>
<path class="st0" d="M53,61.6c-0.2,0-0.5-0.2-0.6-0.4l-0.3-1.2c0,0,0-0.1,0-0.1L52,59.6c0-0.1-0.1-0.2-0.1-0.4
	c0-0.1-0.1-0.2-0.1-0.4c-0.1-0.3-0.2-0.5-0.3-0.7c0-0.1-0.1-0.2-0.1-0.4c0-0.1-0.1-0.2-0.1-0.4c-0.4-1.1-1-2-1.7-2.9
	c-0.2-0.3-0.4-0.5-0.6-0.8c0-0.1-0.1-0.2,0-0.3c0-0.1,0.1-0.3,0.2-0.3c0.1-0.1,0.3-0.1,0.4-0.1c0.2,0,0.3,0.1,0.4,0.1
	c0.1,0.1,0.2,0.2,0.3,0.4c0.1,0.1,0.2,0.3,0.3,0.4c0.1,0.1,0.2,0.2,0.3,0.4l0.1,0.2c0,0,0,0,0,0c0,0,0,0,0,0c0,0.1,0,0.1,0.1,0.2
	l0.9,1.5c0,0.1,0.1,0.3,0.2,0.4c0.1,0.1,0.1,0.2,0.2,0.3c0,0,0,0.1,0,0.1c0.1,0.2,0.2,0.5,0.3,0.7l0.1,0.2c0.1,0.2,0.1,0.3,0.2,0.4
	c0,0.1,0.1,0.2,0.1,0.4l0.3,0.9l0.4,1.4c0,0.3-0.1,0.3-0.1,0.3c0,0-0.1,0.1-0.1,0.1c0,0-0.1,0.1-0.1,0.1c0,0-0.1,0-0.1,0.1H53z"/>
<path class="st0" d="M32,61.6c-0.3,0-0.5-0.2-0.6-0.4l-3.8-14.3c0-0.2-0.2-0.3-0.4-0.3h-1.7c-0.2,0-0.3,0.1-0.4,0.2l-3.2,5.7
	c-0.1,0.2-0.1,0.4,0.1,0.6l2.2,1.5c0.2,0.1,0.2,0.2,0.3,0.4c0,0.1,0,0.3-0.1,0.5l-2.3,3.5c-0.1,0.1-0.1,0.2-0.1,0.4l0.5,1.7
	c0.1,0.3-0.1,0.6-0.4,0.7l-0.2,0c-0.2,0-0.5-0.2-0.6-0.5l-0.6-2c-0.1-0.2,0-0.4,0.1-0.5l2-3.1c0.1-0.1,0.1-0.2,0.1-0.3
	c0-0.1-0.1-0.2-0.2-0.3l-2.2-1.4c-0.2-0.1-0.3-0.5-0.2-0.7l4-7c0.1-0.2,0.3-0.3,0.5-0.3h3c0.2,0,0.4,0.1,0.6,0.5l4,14.9
	c0.1,0.3-0.1,0.6-0.4,0.7C32.1,61.6,32,61.6,32,61.6z"/>
<path class="st0" d="M32.1,61.6c0,0-0.1,0-0.1,0c-0.2,0-0.3-0.2-0.4-0.3c0-0.1-0.1-0.2,0-0.3l3-11.5c0,0,0-0.1,0-0.1l1-3.6
	c0.1-0.2,0.3-0.4,0.6-0.4h3c0.2,0,0.4,0.1,0.5,0.3l4,7c0.2,0.4-0.1,0.7-0.2,0.7l-2.2,1.4c-0.1,0.1-0.2,0.2-0.2,0.3
	c0,0.1,0,0.2,0.1,0.3l2,3.1c0.1,0.2,0.1,0.4,0.1,0.4l-0.6,2.2c-0.1,0.2-0.4,0.4-0.6,0.4h-0.3c-0.2,0-0.3-0.4-0.3-0.7l0.5-1.7
	c0-0.1,0-0.2-0.1-0.4l-2.3-3.5c-0.1-0.1-0.1-0.3-0.1-0.5c0-0.1,0.1-0.3,0.3-0.3l2.2-1.5c0.2-0.1,0.2-0.4,0.1-0.6l-3.3-5.7
	c-0.1-0.1-0.2-0.2-0.4-0.2h-1.7c-0.2,0-0.4,0.1-0.4,0.3l-0.7,2.8c0,0,0,0.1,0,0.1l-3,11.4C32.5,61.4,32.3,61.6,32.1,61.6z"/>
<path class="st0" d="M16,22.6c-0.4,0-0.6-0.2-0.6-0.6v-5c0-0.4,0.2-0.6,0.6-0.6h13c0.1,0,0.3,0.1,0.4,0.2c0.7,0.5,1.7,0.9,2.7,0.9
	c0.1,0,0.3,0,0.4,0c0.1,0,0.1,0,0.1,0c0.3,0,0.5,0.3,0.5,0.4c0.1,0.2,0,0.5-0.2,0.7c-3.3,2.7-7.6,4.1-12,4.1H16z M17,17.6
	c-0.2,0-0.4,0.2-0.4,0.4v3c0,0.2,0.2,0.4,0.4,0.4h4c3.2,0,6.4-0.9,9.1-2.5c0.1-0.1,0.2-0.2,0.2-0.4c0-0.2-0.1-0.3-0.2-0.4l-1.2-0.6
	c-0.1,0-0.1,0-0.2,0H17z"/>
<path class="st0" d="M48,22.6c-0.7,0-1.5-0.1-2.1-0.2C44,22,42.1,21,40.5,19.5c-0.6-0.6-1.2-1.3-1.6-2.2c-0.1-0.2-0.1-0.4,0-0.6
	c0.1-0.2,0.3-0.3,0.4-0.3H48c0.4,0,0.6,0.2,0.6,0.6v5C48.6,22.4,48.4,22.6,48,22.6z M41.3,17.6c-0.2,0-0.3,0.1-0.4,0.3
	c-0.1,0.2,0,0.3,0.1,0.5c0.1,0.1,0.1,0.1,0.2,0.3c0,0,0,0.1,0.1,0.1c1.3,1.3,2.9,2.2,4.8,2.6c0.3,0.1,0.6,0.1,0.9,0.1
	c0.2,0,0.4-0.2,0.4-0.4v-3c0-0.2-0.2-0.4-0.4-0.4H41.3z"/>
<path class="st0" d="M46.1,21.4c-1.9-0.4-3.5-1.3-4.8-2.6c-0.5-0.6-1-1.2-1.4-1.9c-0.1-0.2-0.3-0.3-0.5-0.3H35
	c-0.1,0-0.3,0.1-0.3,0.1c-0.5,0.4-1.1,0.6-2.1,0.8c-0.1,0-0.2,0-0.2,0.1C29.2,20,25,21.4,21,21.4h-3c-0.4,0-0.6,0.2-0.6,0.6v5
	c0,0.2,0,0.3,0,0.5c0,0.5,0,1.1-0.1,1.7c0,0.2,0.1,0.3,0.1,0.5c0,0.2,0,0.3,0.1,0.5c0.1,0.4,0.2,0.8,0.3,1l0.1,0.2
	c0,0.1,0,0.1,0,0.2v0c0,0.1,0.1,0.1,0.1,0.2c0,0.1,0,0.1,0.1,0.2c0,0.1,0.1,0.1,0.1,0.2c0,0.1,0.1,0.1,0.1,0.2
	c1.3,3.2,3.7,5.9,6.8,7.5c0.3,0.2,0.7,0.3,1.1,0.5c-0.1-0.4-0.1-0.9,0-1.3c-0.2-0.1-0.4-0.2-0.5-0.3c-2.9-1.6-5.1-4.1-6.2-7
	l-0.1-0.3c0,0,0-0.1,0-0.1c0,0,0-0.1,0-0.1c0-0.1-0.1-0.2-0.1-0.3l-0.1-0.2C19,30.7,19,30.5,19,30.3c0-0.1,0-0.3-0.1-0.4
	c-0.1-0.3-0.2-0.7-0.2-1c-0.1-0.6-0.1-1.3-0.1-2v-4c0-0.2,0.2-0.4,0.4-0.4h2c4.2,0,8.5-1.4,11.9-4c0,0,0.1-0.1,0.1-0.1
	c0.7-0.2,1.4-0.5,2.1-0.9c0.1,0,0.1-0.1,0.2-0.1h3.5c0.2,0,0.3,0.1,0.4,0.2c0.3,0.6,0.8,1.2,1.3,1.7c1.4,1.3,3,2.3,4.6,2.7
	c0.2,0.1,0.3,0.2,0.3,0.4V27c0,1.1-0.2,2.3-0.5,3.7c-0.1,0.7-0.3,1.2-0.6,1.8l-0.3,0.6c-0.1,0.1-0.1,0.2-0.2,0.4
	c-0.1,0.1-0.1,0.2-0.2,0.3c-0.1,0.1-0.1,0.2-0.2,0.4c-0.1,0.1-0.1,0.2-0.2,0.3c-0.1,0.1-0.1,0.1-0.2,0.3c0,0,0,0.1-0.1,0.1L42.8,35
	c0,0-0.1,0.1-0.1,0.1c-0.1,0.1-0.1,0.2-0.2,0.2c-0.6,0.7-1.2,1.3-1.9,1.9c-0.1,0.1-0.2,0.2-0.3,0.3l-0.1,0.1
	c-0.2,0.2-0.5,0.4-0.7,0.5c-0.1,0.1-0.3,0.2-0.4,0.3c-0.1,0.1-0.2,0.1-0.3,0.2c0,0-0.1,0.1-0.1,0.1c0,0-0.1,0.1-0.2,0.1
	c0,0-0.1,0-0.1,0c-0.2,0.5-0.6,0.9-1.1,1.1c0,0.2,0,0.5,0,0.7c0.1,0,0.3-0.1,0.3-0.1l3.6-2.2c0.8-0.6,1.4-1.2,2.1-2.1
	c0.2-0.2,0.2-0.2,0.3-0.3c0-0.1,0.1-0.2,0.1-0.2c0,0,0,0,0,0c0.1-0.1,0.1-0.2,0.2-0.3c0-0.1,0.1-0.1,0.1-0.2
	c0.1-0.1,0.1-0.2,0.2-0.4c0.1-0.1,0.1-0.2,0.2-0.3c0.1-0.2,0.2-0.3,0.2-0.5c0.1-0.1,0.1-0.2,0.2-0.3c0-0.1,0.1-0.1,0.1-0.2
	c0.1-0.1,0.2-0.3,0.2-0.4l0.1-0.2c0.3-0.6,0.5-1.3,0.7-1.9c0.4-1.4,0.6-2.7,0.6-4.1v-5C46.6,21.7,46.4,21.5,46.1,21.4z"/>
<path class="st0" d="M17.5,31.6c-2.8,0-5.1-2.3-5.1-5.1c0-1.4,0.5-2.7,1.5-3.6c0.9-0.9,2.2-1.5,3.6-1.5H18c0.4,0,0.6,0.2,0.6,0.6v5
	c0,1.2,0.2,2.4,0.5,3.8c0,0.1,0.1,0.3-0.1,0.6c0,0,0,0.1-0.1,0.1c0,0.1-0.2,0.1-0.3,0.1H17.5z M16.9,22.6c-0.9,0.1-1.6,0.5-2.2,1.1
	c-0.8,0.8-1.1,1.7-1.1,2.8c0,2.1,1.6,3.8,3.7,3.9c0,0,0,0,0,0c0.1,0,0.2-0.1,0.3-0.1c0.1-0.1,0.1-0.2,0.1-0.4
	c-0.2-1-0.3-1.9-0.3-2.9v-4c0-0.1-0.1-0.2-0.1-0.3C17.2,22.6,17.1,22.6,16.9,22.6C17,22.6,17,22.6,16.9,22.6z"/>
<path class="st0" d="M45.4,31.6c-0.3,0-0.4-0.1-0.4-0.2c-0.1-0.2-0.1-0.3-0.1-0.6c0.3-1.1,0.5-2.2,0.5-3.8v-5c0-0.4,0.2-0.6,0.6-0.6
	h0.5c2.8,0,5.1,2.3,5.1,5.1c0,1.3-0.5,2.7-1.5,3.6c-0.8,0.9-2.1,1.5-3.5,1.5H45.4z M47,22.6c-0.1,0-0.2,0-0.3,0.1
	c-0.1,0.1-0.2,0.2-0.2,0.3v4c0,1-0.1,2-0.3,2.9c0,0.1,0,0.3,0.1,0.4c0.1,0.1,0.2,0.2,0.3,0.2c1,0,1.9-0.4,2.6-1.1
	c0.8-0.8,1.1-1.7,1.1-2.8C50.4,24.5,49,22.9,47,22.6C47,22.6,47,22.6,47,22.6z"/>
<path class="st0" d="M17,8.9c-0.2,0-0.2,0-0.3-0.1c-0.1-0.1-0.2-0.2-0.3-0.4c0-0.1,0-0.3,0.1-0.4c0.1-0.1,0.1-0.2,0.1-0.2
	c0.1-0.1,0.1-0.2,0.2-0.3c0.1-0.1,0.2-0.1,0.4-0.1c0.1,0,0.2,0,0.3,0.1c0.2,0.2,0.3,0.6,0.1,0.8c0,0,0,0.1-0.1,0.1
	c0,0-0.1,0.1-0.1,0.2C17.3,8.8,17.2,8.9,17,8.9z"/>
<path class="st0" d="M35,17.6c-0.2,0-0.4-0.2-0.5-0.4c-0.1-0.3,0-0.6,0.1-0.6c1.1-0.9,1.8-2.2,1.8-3.6c0-2.4-2-4.4-4.4-4.4
	c-2.4,0-4.4,2-4.4,4.4c0,1.4,0.6,2.6,1.8,3.5c0.1,0.1,0.3,0.4,0.2,0.6c-0.1,0.3-0.3,0.5-0.5,0.5H15c-0.4,0-0.6-0.2-0.6-0.6v-2
	c0-1.2,0.2-2.2,0.4-3.3c0-0.2,0.3-0.4,0.6-0.4c0,0,0.1,0,0.1,0c0.1,0,0.2,0.1,0.3,0.2c0.1,0.1,0.1,0.3,0.1,0.5c-0.2,1.1-0.3,2-0.3,3
	v1c0,0.2,0.2,0.4,0.4,0.4h10.8c0.2,0,0.3-0.1,0.4-0.2c0.1-0.1,0.1-0.3,0-0.4c-0.5-0.9-0.7-1.8-0.7-2.8c0-3.1,2.5-5.6,5.6-5.6
	c3.1,0,5.6,2.5,5.6,5.6c0,1-0.3,1.9-0.7,2.8c-0.1,0.1-0.1,0.3,0,0.4s0.2,0.2,0.4,0.2H48c0.2,0,0.4-0.2,0.4-0.4v-1
	c0-2.6-0.9-5.2-2.6-7.3c-2.2-2.6-5.4-4.2-8.8-4.2H27c-2.5,0-4.8,0.8-6.7,2.2c-0.1,0.1-0.2,0.1-0.3,0.1c-0.2,0-0.4-0.1-0.5-0.2
	c-0.1-0.1-0.1-0.3-0.1-0.4c0-0.2,0.1-0.3,0.2-0.4c2.1-1.6,4.5-2.4,7.3-2.4h10c3.7,0,7.2,1.6,9.6,4.5c0,0.1,0.1,0.2,0.2,0.3
	c1.8,2.2,2.7,5,2.7,7.8v2c0,0.4-0.2,0.6-0.6,0.6H35z"/>
<path class="st0" d="M32,18.6c-1.3,0-2.4-0.4-3.3-1.1c-1.4-1-2.2-2.7-2.2-4.5c0-3.1,2.5-5.6,5.6-5.6c3.1,0,5.6,2.5,5.6,5.6
	c0,1.8-0.8,3.4-2.2,4.5c-0.8,0.6-1.7,0.9-2.6,1c-0.1,0-0.1,0-0.1,0C32.5,18.6,32.2,18.6,32,18.6z M32,8.6c-2.4,0-4.4,2-4.4,4.4
	c0,1.4,0.6,2.6,1.8,3.5c0.8,0.6,1.8,0.9,2.8,0.9c0,0,0,0,0,0c0.1,0,0.3,0,0.4,0c0.9-0.1,1.5-0.4,2.1-0.9c1.1-0.9,1.8-2.2,1.8-3.5
	C36.4,10.6,34.4,8.6,32,8.6z"/>
<path class="st0" d="M30,41.6c-4.2,0-7.6-3.4-7.6-7.6v-5c0-0.4,0.2-0.6,0.6-0.6h12c0.4,0,0.6,0.2,0.6,0.6s-0.2,0.6-0.6,0.6H24
	c-0.2,0-0.4,0.2-0.4,0.4v4c0,3.5,2.9,6.4,6.4,6.4h4c3.5,0,6.4-2.9,6.4-6.4v-4c0-0.2-0.2-0.4-0.4-0.4h-1c-0.4,0-0.6-0.2-0.6-0.6
	s0.2-0.6,0.6-0.6h2c0.4,0,0.6,0.2,0.6,0.6v5c0,4.2-3.4,7.6-7.6,7.6H30z"/>
<path class="st0" d="M23,29.6c-0.2,0-0.4-0.1-0.5-0.2l-6-7c-0.1-0.1-0.2-0.2-0.1-0.4c0-0.2,0.1-0.3,0.2-0.4c0.1-0.1,0.3-0.1,0.3-0.1
	c0.2,0,0.3,0.1,0.4,0.2l6,7c0.3,0.3,0.1,0.6-0.1,0.8C23.3,29.5,23.1,29.6,23,29.6z"/>
<path class="st0" d="M41,29.6c-0.1,0-0.3,0-0.4-0.1c-0.1-0.1-0.2-0.3-0.2-0.4c0-0.1,0-0.3,0.1-0.4l6-7c0.1-0.1,0.3-0.2,0.5-0.2
	c0.1,0,0.2,0,0.3,0.1c0.2,0.2,0.3,0.6,0.1,0.8l-6,7c0,0,0,0.1-0.1,0.1C41.3,29.5,41.2,29.6,41,29.6z"/>
</svg>
