<?xml version="1.0" encoding="utf-8"?>
<!-- Generator: Adobe Illustrator 24.2.0, SVG Export Plug-In . SVG Version: 6.00 Build 0)  -->
<svg version="1.1" id="Layer_1" xmlns="http://www.w3.org/2000/svg" xmlns:xlink="http://www.w3.org/1999/xlink" x="0px" y="0px"
	 viewBox="0 0 64 64" style="enable-background:new 0 0 64 64;" xml:space="preserve">
<style type="text/css">
	.st0{fill:#fff;}
</style>
<path class="st0" d="M20.7,35.6c-2,0-3.9-1.3-4.6-3.2c-0.1-0.2-0.2-0.6-0.3-0.9c-0.1-0.4-0.3-0.9-0.4-1.4l0-0.1
	c-0.5-2-1.2-4.6-1.9-5.5c-2.3-2.8-3.3-6.4-2.9-10c0.1-0.9,0.3-1.9,0.6-2.7c0.1-0.3,0.4-0.4,0.7-0.4c0.1,0,0.1,0,0.2,0
	c0.2,0.1,0.4,0.4,0.4,0.8c-0.2,0.8-0.4,1.6-0.5,2.3c-0.3,3.4,0.7,6.7,2.7,9.1c0.9,1.1,1.6,3.8,2.2,6c0.3,1.1,0.4,1.8,0.6,2.3
	c0.6,1.5,1.9,2.5,3.5,2.5H35c0.4,0,0.6,0.2,0.6,0.6c0,0.3-0.2,0.7-0.6,0.7H20.7z"/>
<path class="st0" d="M39,35.6c-0.4,0-0.6-0.2-0.6-0.6s0.2-0.6,0.6-0.6h4.3c1.5,0,2.9-1,3.5-2.5c0.2-0.5,0.4-1.1,0.6-2.3
	c0.6-2.2,1.3-4.9,2.2-6c2.1-2.6,3-5.8,2.7-9.1c-0.5-5.7-5-10.4-10.8-11c-0.3,0-0.7-0.1-1.1-0.1c-1.2,0-2.5,0.2-3.9,0.7
	c-1.5,0.5-3,0.8-4.5,0.8c-1.5,0-3.1-0.3-4.5-0.8c-1.4-0.4-2.8-0.7-4.1-0.7c-0.3,0-0.6,0-0.8,0c-2.2,0.2-4.3,1-5.9,2.3
	c-0.1,0.1-0.2,0.1-0.3,0.1c-0.2,0-0.4-0.1-0.5-0.2c-0.2-0.2-0.1-0.6,0.1-0.8c1.9-1.5,4.2-2.3,6.5-2.5c0.4,0,0.8-0.1,1.2-0.1
	c1.4,0,2.8,0.2,4.4,0.7c1.3,0.5,2.7,0.7,4.1,0.7s2.8-0.2,4.1-0.7c1.5-0.5,2.9-0.7,4.3-0.7c0.4,0,0.8,0,1.2,0.1
	C48,3,53,8.1,53.7,14.4c0.4,3.6-0.6,7.1-2.9,10c-0.7,0.9-1.4,3.4-2,5.7c-0.2,0.7-0.4,1.4-0.6,1.9l-0.1,0.4c-0.8,1.9-2.8,3.2-4.8,3.2
	H39z"/>
<path class="st0" d="M32,10.3c-4.4,0-8.1-1.8-9.5-2.6c0,0-0.1-0.1-0.1-0.1c-0.3-0.2-0.3-0.5-0.1-0.8c0.1-0.2,0.3-0.3,0.5-0.3
	c0.1,0,0.2,0,0.4,0.1c0.2,0.1,4.2,2.5,8.9,2.5c4.8,0,8.8-2.4,8.9-2.5c0.1-0.1,0.2-0.1,0.3-0.1c0.2,0,0.4,0.1,0.5,0.3
	c0.1,0.1,0.1,0.2,0,0.4c0,0.2-0.1,0.3-0.3,0.4C41.5,7.7,37.4,10.3,32,10.3z"/>
<path class="st0" d="M28,61.6c-0.2,0-0.4-0.1-0.5-0.3c0,0-4-7.6-5-9.5c0,0,0-0.1-0.1-0.1c0,0,0,0,0,0c0,0,0-0.1,0-0.1l-1.1-16.5
	c0-0.1,0-0.3,0.2-0.5c0.1,0,0.3-0.1,0.3-0.1H35c0.4,0,0.6,0.2,0.6,0.6s-0.2,0.6-0.6,0.6H23c-0.1,0-0.2,0-0.3,0.1
	c-0.1,0.1-0.1,0.2-0.1,0.3l1,15.2c0,0.1,0,0.1,0.1,0.2c1.4,2.6,2.4,4.6,3.6,6.8l1,2c0.1,0.1,0.2,0.2,0.4,0.2h6.7
	c0.2,0,0.3-0.1,0.4-0.2c0.8-1.6,1.6-3,2.3-4.4c0.7-1.4,1.5-2.8,2.3-4.4c0-0.1,0-0.1,0-0.2L41.4,36c0-0.1,0-0.2-0.1-0.3
	c-0.1-0.1-0.2-0.1-0.3-0.1h-2c-0.4,0-0.6-0.2-0.6-0.6s0.2-0.6,0.6-0.6h3.1c0.2,0,0.3,0,0.4,0.2c0.1,0.1,0.2,0.3,0.2,0.5l-1.1,16.5
	c0,0.1,0,0.1,0,0.2c-1,1.9-1.8,3.5-2.6,5l-2.4,4.5c-0.1,0.1-0.4,0.3-0.5,0.3H28z"/>
<path class="st0" d="M19.9,39.6c-0.2,0-0.3-0.1-0.4-0.2c-0.1-0.1-0.1-0.3-0.1-0.4c0-0.3,0.2-0.6,0.5-0.6c0,0,24.1,2,24.1,2
	c0.2,0,0.3,0.1,0.4,0.2c0.1,0.1,0.1,0.3,0.1,0.4c0,0.3-0.3,0.5-0.6,0.5L19.9,39.6z"/>
<path class="st0" d="M19.9,44.6c-0.2,0-0.3-0.1-0.4-0.2c-0.1-0.1-0.1-0.3-0.1-0.4c0-0.3,0.2-0.6,0.5-0.6c0,0,24.1,2,24.1,2
	c0.2,0,0.3,0.1,0.4,0.2c0.1,0.1,0.1,0.3,0.1,0.4c0,0.3-0.3,0.5-0.6,0.5L19.9,44.6z"/>
<path class="st0" d="M28.9,50.3c-0.2,0-0.3-0.1-0.4-0.2c-0.1-0.1-0.1-0.3-0.1-0.4c0-0.3,0.2-0.6,0.5-0.6c0,0,14.1,1.3,14.1,1.3
	c0.2,0,0.3,0.1,0.4,0.2c0.1,0.1,0.1,0.3,0.1,0.4c-0.1,0.3-0.3,0.5-0.6,0.5L28.9,50.3z"/>
<path class="st0" d="M20.9,49.6c-0.2,0-0.3-0.1-0.4-0.2c-0.1-0.1-0.2-0.2-0.1-0.4c0-0.5,0.5-0.5,0.7-0.5l4.1,0.4
	c0.2,0,0.3,0.1,0.4,0.2c0.1,0.1,0.2,0.2,0.1,0.4c-0.1,0.3-0.3,0.5-0.6,0.5L20.9,49.6z"/>
<path class="st0" d="M40.9,56.6l-19-2c-0.3-0.1-0.5-0.4-0.5-0.7c0.1-0.2,0.4-0.5,0.7-0.5l19,2c0.3,0.1,0.5,0.4,0.5,0.7
	C41.5,56.3,41.3,56.6,40.9,56.6L40.9,56.6z"/>
<circle class="st0" cx="13.5" cy="8.3" r="0.6"/>
</svg>
