<?xml version="1.0" encoding="utf-8"?>
<!-- Generator: Adobe Illustrator 24.2.1, SVG Export Plug-In . SVG Version: 6.00 Build 0)  -->
<svg version="1.1" id="Layer_1" xmlns="http://www.w3.org/2000/svg" xmlns:xlink="http://www.w3.org/1999/xlink" x="0px" y="0px"
	 viewBox="0 0 59.8 53.6" style="enable-background:new 0 0 59.8 53.6;" xml:space="preserve">
<style type="text/css">
	.st0{fill:#fff;}
	.st1{fill:none;stroke:#fff;stroke-width:1.0296;stroke-linecap:round;stroke-miterlimit:10;}
	.st2{fill:none;stroke:#fff;stroke-linecap:round;stroke-miterlimit:10;}
</style>
<path class="st0" d="M2.5,25.7c-0.1-0.1-0.2-0.1-0.3-0.1c-0.3,0-0.5-0.2-0.6-0.5l0,0c0-0.2,0-0.4,0.1-0.6c0.1-0.1,0.2-0.2,0.4-0.2
	h0.1c0.3,0,0.5,0.2,0.6,0.5v0.1c0,0.2,0,0.4-0.1,0.6C2.6,25.6,2.6,25.7,2.5,25.7z"/>
<path class="st0" d="M14.6,52.6c-2.3,0-4.2-1.5-4.7-3.8c-0.3-1.4-0.6-3.1-1-5c-0.4-1.8-0.7-3.7-1.1-5.3C7.2,35.5,6,33,4.3,31
	c-0.5-0.6-0.9-1.2-1.3-1.7c-0.1-0.2-0.1-0.3-0.1-0.4c0-0.2,0.2-0.3,0.3-0.4c0.1-0.1,0.2-0.1,0.3-0.1c0.2,0,0.4,0.1,0.5,0.3
	c0.4,0.6,0.8,1.2,1.1,1.6c1.8,2.1,3,4.9,3.7,8c0.3,1.6,0.7,3.5,1.1,5.3s0.7,3.6,1,5c0.3,1.7,1.8,2.9,3.5,2.9c0.9,0,1.6-0.3,2.3-0.8
	c0.7-0.5,1.1-1.2,1.2-2.1l1.8-7.4c0.3-1.4,1.6-2.4,3-2.4c1.4,0,2.6,1,3,2.4l0.4,1.6c0,0.1,0,0.3-0.1,0.5c0,0.1-0.1,0.2-0.3,0.2h-0.1
	c-0.3,0-0.5-0.2-0.6-0.4l-0.4-1.6c-0.2-1.1-1.2-1.5-1.9-1.5s-1.7,0.4-1.9,1.5L19,48.7c-0.3,1-0.9,2-1.7,2.7
	C16.7,52.2,15.6,52.6,14.6,52.6z"/>
<path class="st0" d="M33,10.6c0.2-0.4,0.4-0.6,0.7-0.9c-0.4-0.1-0.9-0.2-1.3-0.2c-0.3-0.1-0.7-0.1-1.1-0.1c-1.4,0-2.8,0.2-4.3,0.7
	c-1.3,0.5-2.7,0.7-4.1,0.7s-2.8-0.2-4.1-0.7c-1.5-0.5-2.9-0.7-4.3-0.7c-0.4,0-0.8,0.1-1.2,0.1C7.2,10,2.2,14.8,1.4,20.9
	c0,0.3,0.3,0.6,0.6,0.7c0.1,0,0.2,0,0.2,0v-0.3c0-0.1,0-0.1,0-0.2c0.7-5.6,5.3-10,10.9-10.5H14c1.4,0,2.8,0.2,4.1,0.6
	c1.4,0.5,3,0.7,4.5,0.7s3.1-0.2,4.5-0.7c1.3-0.4,2.7-0.6,4.1-0.6h0.9c0.3,0,0.6,0.1,0.8,0.1C33,10.6,33,10.6,33,10.6z"/>
<path class="st0" d="M41.6,28.3c-0.3,0.6-0.7,1.2-1.2,1.7c-1.8,2-3,4.7-3.7,8c-0.4,1.6-0.7,3.5-1.1,5.3c-0.4,1.9-0.7,3.6-1,5
	c-0.1,0.8-0.5,1.5-1.2,2.1c-0.7,0.5-1.4,0.8-2.3,0.8c-1.6,0-3-1.1-3.5-2.7l-0.5-2c-0.1-0.2-0.3-0.4-0.6-0.4h-0.1
	c-0.2,0-0.3,0.1-0.3,0.2C26,46.6,26,46.8,26,46.9l0.5,2c0.6,2.2,2.5,3.7,4.7,3.7c1.1,0,2.2-0.4,2.8-0.9c1-0.9,1.5-1.8,1.7-2.8
	c0.3-1.4,0.6-3.2,1-5c0.4-1.8,0.7-3.6,1.1-5.3c0.7-3,1.9-5.5,3.5-7.5c0.7-0.9,1.3-1.8,1.8-2.9C42.6,28.3,42.1,28.4,41.6,28.3z"/>
<path class="st0" d="M29.1,14.9c-1.6,0.6-3.7,1.2-6.1,1.2c-4.7,0-8.7-2.4-8.9-2.5c-0.2-0.1-0.3-0.1-0.4-0.1c-0.2,0-0.4,0.1-0.5,0.3
	c-0.2,0.3-0.2,0.6,0.1,0.8l0.1,0.1c1.4,0.8,5.1,2.6,9.5,2.6c2.4,0,4.6-0.5,6.2-1.1C29.1,15.7,29.1,15.3,29.1,14.9z"/>
<path class="st0" d="M55.5,14.3c-0.4,0.1-0.6,0-0.7-0.4s0-0.6,0.4-0.7l2.9-0.8c0.4-0.1,0.6,0,0.7,0.4c0.1,0.4,0,0.6-0.4,0.7
	L55.5,14.3z"/>
<path class="st0" d="M48.7,5.2c-0.2,0.4-0.4,0.5-0.8,0.3s-0.5-0.4-0.3-0.8L48.8,2c0.2-0.4,0.4-0.5,0.8-0.3s0.5,0.4,0.3,0.8L48.7,5.2
	z"/>
<path class="st0" d="M36.8,4.6c0,0,0,0.1,0,0.2c0,0.2-0.2,0.4-0.4,0.4c-0.3,0.2-0.6-0.1-0.7-0.4L34.6,2c-0.1-0.1-0.1-0.2-0.1-0.3
	c0-0.2,0.2-0.4,0.4-0.4c0.3-0.2,0.7,0.1,0.7,0.4L36.8,4.6C36.8,4.5,36.8,4.6,36.8,4.6z"/>
<path class="st0" d="M46,33.6c0,0,0,0.1,0,0.2c0,0.2-0.2,0.4-0.4,0.4c-0.3,0.2-0.6-0.1-0.7-0.4L43.8,31c-0.1-0.1-0.1-0.2-0.1-0.3
	c0-0.2,0.2-0.4,0.4-0.4c0.3-0.2,0.7,0.1,0.7,0.4L46,33.6C46,33.5,46,33.6,46,33.6z"/>
<path class="st0" d="M55.7,26.6c-0.2,0-0.2,0-0.3-0.1L52.8,25c-0.3-0.2-0.3-0.6-0.2-0.9c0.1-0.2,0.3-0.2,0.5-0.2
	c0.1,0,0.2,0,0.3,0.1l2.5,1.5c0.3,0.2,0.3,0.6,0.2,0.9C56.1,26.5,55.9,26.6,55.7,26.6z"/>
<g>
	<path class="st1" d="M43.7,14.1v-0.6c0-1-0.8-1.8-1.8-1.8h-1.5c-1,0-1.8,0.8-1.8,1.8v1.3c0,0.6,0.4,1.1,1,1.4l2.8,1.1"/>
	<path class="st1" d="M38.5,19.5v0.6c0,1,0.8,1.8,1.8,1.8h1.5c1,0,1.8-0.8,1.8-1.8v-1.3c0-0.6-0.5-1.1-1.1-1.5l-2.7-1"/>
	<line class="st1" x1="41.2" y1="9.2" x2="41.2" y2="11.9"/>
	<line class="st1" x1="41.2" y1="21.5" x2="41.2" y2="24.3"/>
</g>
<circle class="st2" cx="41.5" cy="17.5" r="10.7"/>
</svg>
