<?xml version="1.0" encoding="utf-8"?>
<!-- Generator: Adobe Illustrator 24.2.0, SVG Export Plug-In . SVG Version: 6.00 Build 0)  -->
<svg version="1.1" id="Layer_1" xmlns="http://www.w3.org/2000/svg" xmlns:xlink="http://www.w3.org/1999/xlink" x="0px" y="0px"
	 viewBox="0 0 64 64" style="enable-background:new 0 0 64 64;" xml:space="preserve">
<style type="text/css">
	.st0{fill:#fff;}
</style>
<path class="st0" d="M36.8,10c-0.1-1.4-1.2-2.5-2.6-2.6c-0.4,0-0.8,0-1.2,0.1c-0.6,0.2-1.3,0.2-2,0c-0.4-0.1-0.8-0.2-1.2-0.1
	c-1.4,0.1-2.5,1.2-2.6,2.6c-0.1,0.8,0.2,1.5,0.6,2.1c0.4,0.5,0.7,1.1,0.8,1.8l0.5,2.4c0.1,0.5,0.5,0.8,0.9,0.8l0,0
	c0.4,0,0.8-0.3,0.9-0.7l0.4-1.7c0.1-0.3,0.4-0.5,0.7-0.4c0.2,0.1,0.4,0.2,0.4,0.4l0.4,1.7c0.1,0.4,0.5,0.7,0.9,0.7l0,0
	c0.5,0,0.9-0.3,0.9-0.8l0.5-2.4c0.1-0.7,0.4-1.3,0.8-1.8C36.7,11.5,36.9,10.7,36.8,10z"/>
<path class="st0" d="M21.1,19.6c-2,0-3.6-1.6-3.6-3.6V8.3c0-2,1.6-3.6,3.6-3.6H38c0.3,0,0.6,0.3,0.6,0.6S38.4,5.9,38,5.9H21.1
	c-1.3,0-2.4,1.1-2.4,2.4V16c0,1.3,1.1,2.4,2.4,2.4h21.7c1.3,0,2.4-1.1,2.4-2.4V8.3c0-1.3-1.1-2.4-2.4-2.4H41c-0.3,0-0.6-0.3-0.6-0.6
	s0.3-0.6,0.6-0.6h1.9c2,0,3.6,1.6,3.6,3.6V16c0,2-1.6,3.6-3.6,3.6H21.1z"/>
<path class="st0" d="M18,28.6c-0.3,0-0.6-0.3-0.6-0.6s0.3-0.6,0.6-0.6h1c0.3,0,0.6,0.3,0.6,0.6s-0.3,0.6-0.6,0.6H18z"/>
<path class="st0" d="M10,57.6c-0.3,0-0.6-0.3-0.6-0.6V28c0-0.3,0.3-0.6,0.6-0.6h4c0.3,0,0.6,0.3,0.6,0.6s-0.3,0.6-0.6,0.6h-3
	c-0.2,0-0.4,0.2-0.4,0.4v27c0,0.2,0.2,0.4,0.4,0.4h42c0.2,0,0.4-0.2,0.4-0.4v-3c0-0.3,0.3-0.6,0.6-0.6s0.6,0.3,0.6,0.6v4
	c0,0.3-0.3,0.6-0.6,0.6H10z"/>
<path class="st0" d="M54,49.6c-0.3,0-0.6-0.3-0.6-0.6V29c0-0.2-0.2-0.4-0.4-0.4H23c-0.3,0-0.6-0.3-0.6-0.6s0.3-0.6,0.6-0.6h31
	c0.3,0,0.6,0.3,0.6,0.6v21C54.6,49.3,54.3,49.6,54,49.6z"/>
<path class="st0" d="M24,23.6c-0.3,0-0.6-0.3-0.6-0.6v-4c0-0.3,0.3-0.6,0.6-0.6h16c0.3,0,0.6,0.3,0.6,0.6v4c0,0.3-0.3,0.6-0.6,0.6
	H24z M25,19.6c-0.2,0-0.4,0.2-0.4,0.4v2c0,0.2,0.2,0.4,0.4,0.4h14c0.2,0,0.4-0.2,0.4-0.4v-2c0-0.2-0.2-0.4-0.4-0.4H25z"/>
<path class="st0" d="M18,28.6c-0.3,0-0.6-0.3-0.6-0.6s0.3-0.6,0.6-0.6h1c0.3,0,0.6,0.3,0.6,0.6s-0.3,0.6-0.6,0.6H18z"/>
<path class="st0" d="M23,28.6c-0.3,0-0.6-0.3-0.6-0.6s0.3-0.6,0.6-0.6h33c0.2,0,0.4-0.2,0.4-0.4v-3c0-0.2-0.2-0.4-0.4-0.4H8
	c-0.2,0-0.4,0.2-0.4,0.4v3c0,0.2,0.2,0.4,0.4,0.4h6c0.3,0,0.6,0.3,0.6,0.6s-0.3,0.6-0.6,0.6H7c-0.3,0-0.6-0.3-0.6-0.6v-5
	c0-0.3,0.3-0.6,0.6-0.6h50c0.3,0,0.6,0.3,0.6,0.6v5c0,0.3-0.3,0.6-0.6,0.6H23z"/>
<path class="st0" d="M16,57.6c-0.3,0-0.6-0.3-0.6-0.6v-5c0-0.3,0.3-0.6,0.6-0.6s0.6,0.3,0.6,0.6v4c0,0.2,0.2,0.4,0.4,0.4h12
	c0.2,0,0.4-0.2,0.4-0.4V39c0-0.2-0.2-0.4-0.4-0.4H17c-0.2,0-0.4,0.2-0.4,0.4v9c0,0.3-0.3,0.6-0.6,0.6s-0.6-0.3-0.6-0.6V38
	c0-0.3,0.3-0.6,0.6-0.6h14c0.3,0,0.6,0.3,0.6,0.6v19c0,0.3-0.3,0.6-0.6,0.6H16z"/>
<path class="st0" d="M35,49.6c-0.3,0-0.6-0.3-0.6-0.6V38c0-0.3,0.3-0.6,0.6-0.6h13c0.3,0,0.6,0.3,0.6,0.6v11c0,0.3-0.3,0.6-0.6,0.6
	H35z M36,38.6c-0.2,0-0.4,0.2-0.4,0.4v9c0,0.2,0.2,0.4,0.4,0.4h11c0.2,0,0.4-0.2,0.4-0.4v-9c0-0.2-0.2-0.4-0.4-0.4H36z"/>
<path class="st0" d="M7,57.6c-0.3,0-0.6-0.3-0.6-0.6s0.3-0.6,0.6-0.6h50c0.3,0,0.6,0.3,0.6,0.6s-0.3,0.6-0.6,0.6H7z"/>
<path class="st0" d="M20,48.6c-0.3,0-0.6-0.3-0.6-0.6v-2c0-0.3,0.3-0.6,0.6-0.6s0.6,0.3,0.6,0.6v2C20.6,48.3,20.3,48.6,20,48.6z"/>
</svg>
