<?xml version="1.0" encoding="utf-8"?>
<!-- Generator: Adobe Illustrator 24.2.3, SVG Export Plug-In . SVG Version: 6.00 Build 0)  -->
<svg version="1.1" id="Layer_1" xmlns="http://www.w3.org/2000/svg" xmlns:xlink="http://www.w3.org/1999/xlink" x="0px" y="0px"
	 viewBox="0 0 59.8 53.6" style="enable-background:new 0 0 59.8 53.6;" xml:space="preserve">
<style type="text/css">
	.st0{fill:none;stroke:#ffffff;stroke-width:1.0296;stroke-linecap:round;stroke-miterlimit:10;}
</style>
<path class="st0" d="M17.5,41.4c-0.2-0.4-0.5-0.7-0.8-0.9c-1-0.6-1.2-0.6-2.6-0.2c-0.2,0.1-0.4,0.1-0.5,0.1c-0.2,0-0.3,0-0.5-0.1
	c-1.4-0.4-1.6-0.3-2.6,0.2c-0.9,0.4-1.3,1.7-1.1,3.2c0.3,1.7,0.9,1.8,0.9,3.6c0,1.8,0.7,2.7,1.2,2.7c0.5,0,0.8-0.6,1.4-2.2
	c0.4-1.1,1-1.2,1.5,0c0.6,1.6,0.8,2.2,1.4,2.2c0.5,0,1.2-0.9,1.2-2.7c0-1.8,0.6-1.9,0.9-3.6C17.7,43.7,18,42.4,17.5,41.4z"/>
<g>
	<path class="st0" d="M49.9,21.3c1.8,0,3.3,1.3,3.3,2.8s-1.5,2.8-3.3,2.8"/>
	<path class="st0" d="M44,36.7h5.2c2.4,0,4.4,1.8,4.4,4.1v10.3"/>
	<path class="st0" d="M25.4,51.1V40.8c0-2.3,2-4.1,4.4-4.1h5.2"/>
	<polyline class="st0" points="44,33.5 44,36.6 39.6,39.2 35.1,36.6 35.1,33.5 	"/>
	<path class="st0" d="M34.4,7.1c0-2.8,2.3-5.1,5.1-5.1c2.8,0,5.1,2.3,5.1,5.1"/>
	<path class="st0" d="M49.9,20.2v3.7c0,5.8-4.7,10.4-10.4,10.4l0,0c-5.8,0-10.4-4.7-10.4-10.4v-3.7"/>
	<line class="st0" x1="39.6" y1="41.8" x2="39.6" y2="43.5"/>
	<line class="st0" x1="39.6" y1="45.3" x2="39.6" y2="47"/>
	<path class="st0" d="M39.5,5.2c-5.8,0-10.4,4.7-10.4,10.4v1.9h13.5l1.8-3.2l1.8,3.2h3.6v-1.9C49.9,9.8,45.3,5.2,39.5,5.2z"/>
	<path class="st0" d="M37.6,28.2c0.4,0.8,1.2,1.3,2,1.3c0.8,0,1.5-0.5,2-1.3"/>
	<line class="st0" x1="35.2" y1="23" x2="33.3" y2="23"/>
	<line class="st0" x1="45.7" y1="23" x2="43.8" y2="23"/>
	<line class="st0" x1="3.8" y1="50.5" x2="56.3" y2="50.5"/>
	<line class="st0" x1="51" y1="45" x2="44.1" y2="45"/>
	<line class="st0" x1="13.5" y1="36.9" x2="13.5" y2="34.8"/>
	<line class="st0" x1="9.3" y1="38" x2="8.3" y2="36.2"/>
	<line class="st0" x1="6.3" y1="41.1" x2="4.5" y2="40"/>
	<line class="st0" x1="20.8" y1="41.1" x2="22.5" y2="40"/>
	<line class="st0" x1="17.7" y1="38" x2="18.7" y2="36.2"/>
</g>
</svg>
