<?xml version="1.0" encoding="utf-8"?>
<!-- Generator: Adobe Illustrator 24.2.0, SVG Export Plug-In . SVG Version: 6.00 Build 0)  -->
<svg version="1.1" id="Layer_1" xmlns="http://www.w3.org/2000/svg" xmlns:xlink="http://www.w3.org/1999/xlink" x="0px" y="0px"
	 viewBox="0 0 64 64" style="enable-background:new 0 0 64 64;" xml:space="preserve">
<style type="text/css">
	.st0{fill:#fff;}
</style>
<path class="st0" d="M54,48.6c-1,0-1.9-0.4-2.5-1.1l-6.3-6.3c-0.5-0.5-0.9-0.8-1.4-1c-0.7-0.4-1.6-0.6-2.5-0.6H40
	c-0.4,0-0.6-0.2-0.6-0.6s0.2-0.6,0.6-0.6h1.3c1,0,2,0.3,3,0.8c0.6,0.3,1.1,0.8,1.7,1.2l6.3,6.3c0.4,0.4,1,0.7,1.7,0.7
	c0.7,0,1.4-0.3,1.8-0.8c0.8-1,0.7-2.4-0.2-3.4l-6.8-6.8c-1.8-1.8-4.1-2.7-6.7-2.7H26.7c-1.8,0-3.4-0.7-4.7-2l-4.6-4.6
	C17.3,27,17.2,27,17.1,27s-0.2,0-0.3,0.1l-2.3,2.3c-0.2,0.2-0.3,0.2-0.5,0.3c-0.1,0.1-0.2,0.2-0.2,0.3c0,0.1,0,0.3,0.1,0.4l5.3,5.3
	c1.3,1.3,3,2.2,4.9,2.6l0.2,0c0.5,0.1,1,0.2,1.6,0.2H36c0.4,0,0.6,0.2,0.6,0.6s-0.2,0.6-0.6,0.6H25.9c-0.7,0-1.4-0.1-2-0.2
	c-2-0.4-3.8-1.3-5.5-2.9L11.8,30c-0.2-0.2-0.2-0.5-0.1-0.7c0.1-0.2,0.3-0.3,0.5-0.3c0,0,0.1,0,0.1,0c0.1,0,0.2,0.1,0.3,0.1
	c0.4,0,0.8-0.2,1-0.5l2-2c0.2-0.2,0.5-0.6,0.6-0.8c0.1-0.2,0.3-0.4,0.5-0.5c0,0,0.1,0,0.1,0c0.1,0,0.2,0,0.3,0.1l5.6,5.6
	c1,1,2.4,1.6,3.8,1.6h15.4c2.9,0,5.5,1.1,7.5,3.1l6.8,6.8c1.4,1.4,1.5,3.6,0.3,5C55.9,48.1,55,48.6,54,48.6z"/>
<path class="st0" d="M26,33.6c-0.1,0-0.3-0.1-0.4-0.2c0,0-0.1-0.2-0.1-0.3c0-0.2,0-0.3,0.1-0.4l4-5c0.1-0.1,0.3-0.2,0.5-0.2h11
	c0.4,0,0.6,0.2,0.6,0.6s-0.2,0.6-0.6,0.6H30.5c-0.1,0-0.3,0.1-0.3,0.2l-3.7,4.6C26.3,33.5,26.1,33.6,26,33.6z"/>
<path class="st0" d="M27,44.6c-2,0-3.6-1.6-3.6-3.6v-2.2c0-0.3,0.1-0.4,0.2-0.4c0.2-0.1,0.3-0.2,0.3-0.2c0,0,0.1,0,0.2,0l0.2,0
	c0.5,0.1,1,0.2,1.5,0.2H36c0.4,0,0.6,0.2,0.6,0.6s-0.2,0.6-0.6,0.6H25c-0.2,0-0.4,0.2-0.4,0.4v1c0,1.3,1.1,2.4,2.4,2.4h14
	c1.3,0,2.4-1.1,2.4-2.4v-0.7c0-0.2-0.1-0.3-0.3-0.4c-0.5-0.2-1.2-0.3-1.9-0.3H40c-0.4,0-0.6-0.2-0.6-0.6s0.2-0.6,0.6-0.6h1.3
	c1,0,2,0.3,3,0.8c0.2,0.1,0.3,0.3,0.3,0.5V41c0,1.9-1.6,3.6-3.5,3.6H27z"/>
<path class="st0" d="M13,57.6c-0.4,0-0.6-0.2-0.6-0.6s0.2-0.6,0.6-0.6h42c0.4,0,0.6,0.2,0.6,0.6s-0.2,0.6-0.6,0.6H13z"/>
<path class="st0" d="M32.5,18.1c-0.2,0-0.3,0-0.4-0.2L28,13.8c-0.1-0.1-0.2-0.3-0.2-0.4c0-0.1,0.1-0.3,0.2-0.4
	c0.1-0.1,0.3-0.2,0.4-0.2c0.1,0,0.3,0.1,0.4,0.2l3.4,3.4c0.1,0.1,0.2,0.1,0.3,0.1c0,0,0,0,0,0c0.1,0,0.2-0.1,0.3-0.2
	c1.6-2.2,1.5-5.2-0.4-7.2c-1.1-1-2.5-1.5-3.9-1.5c-1.2,0-2.4,0.4-3.4,1.2C25,8.8,25,9,25,9.1c0,0.1,0,0.2,0.1,0.3l0.9,0.9
	c0.1,0.1,0.2,0.3,0.2,0.4c0,0.1-0.1,0.3-0.2,0.4c-0.1,0.1-0.3,0.2-0.4,0.2c-0.1,0-0.3-0.1-0.4-0.2l-1.6-1.6c-0.2-0.2-0.2-0.6,0-0.8
	c0,0,0.1-0.1,0.1-0.1l0.2-0.3c1.2-1.2,2.9-1.9,4.7-1.9c1.8,0,3.4,0.7,4.7,2c2.5,2.5,2.5,6.8,0,9.4L33,17.9
	C32.8,18,32.6,18.1,32.5,18.1z"/>
<path class="st0" d="M32.5,9.1c-0.2,0-0.3,0-0.4-0.2c-0.2-0.2-0.2-0.6,0-0.8l1.5-1.5c0.1-0.1,0.3-0.2,0.4-0.2s0.3,0.1,0.4,0.2
	c0.2,0.2,0.2,0.6,0,0.8l-1.5,1.5C32.8,9,32.6,9.1,32.5,9.1z"/>
<path class="st0" d="M46,34.4c-0.4,0-0.6-0.2-0.6-0.6V12c0-2.4-2-4.4-4.4-4.4h-7c-0.4,0-0.6-0.2-0.6-0.6s0.2-0.6,0.6-0.6h7
	c3.1,0,5.6,2.5,5.6,5.6v21.8C46.6,34.2,46.4,34.4,46,34.4z"/>
<path class="st0" d="M12.7,30.1c-0.1,0-0.4,0-0.5-0.1c0,0-0.1,0-0.1,0c-0.4-0.1-0.8-0.3-1.2-0.7l-0.7-0.7c-0.1-0.1-0.2-0.3-0.2-0.4
	c0-0.1,0.1-0.3,0.2-0.4c0.1-0.1,0.3-0.2,0.4-0.2c0.1,0,0.3,0.1,0.4,0.2l0.7,0.7c0.1,0.1,0.4,0.3,0.6,0.3c0.1,0,0.2,0,0.4,0
	c0.3,0,0.6-0.1,0.9-0.3l2.2-2.2c0.2-0.2,0.5-0.6,0.6-0.8c0.4-0.9,0.2-1.9-0.6-2.6L13,20.2c-0.5-0.5-1.1-0.7-1.7-0.7
	c-0.6,0-1.2,0.3-1.7,0.7l-2.1,2.1c-0.6,0.6-0.6,1.4,0,2L8.2,25c0.1,0.1,0.2,0.3,0.2,0.4c0,0.1-0.1,0.3-0.2,0.4
	C8.1,25.9,7.9,26,7.8,26c-0.1,0-0.3-0.1-0.4-0.2l-0.7-0.7c-0.5-0.5-0.8-1.2-0.8-1.9c0-0.7,0.3-1.3,0.8-1.7l2.1-2.1
	c0.7-0.7,1.6-1.1,2.5-1.1s1.9,0.4,2.5,1.1l2.8,2.8c1,1,1.3,2.4,0.8,3.7c-0.2,0.6-0.5,1-0.8,1.4l-2.1,2.1
	C14.1,29.8,13.4,30.1,12.7,30.1z"/>
<path class="st0" d="M28,52.6c-0.4,0-0.6-0.2-0.6-0.6s0.2-0.6,0.6-0.6h1c0.4,0,0.6,0.2,0.6,0.6s-0.2,0.6-0.6,0.6H28z"/>
<path class="st0" d="M17,57.6c-0.4,0-0.6-0.2-0.6-0.6v-1c0-2.6,2-4.6,4.6-4.6h3c0.4,0,0.6,0.2,0.6,0.6s-0.2,0.6-0.6,0.6h-3
	c-1.9,0-3.4,1.5-3.4,3.4c0,0.2,0.2,0.4,0.4,0.4h34c0.2,0,0.4-0.2,0.4-0.4c0-1.9-1.5-3.4-3.4-3.4H33c-0.4,0-0.6-0.2-0.6-0.6
	s0.2-0.6,0.6-0.6h16c2.6,0,4.6,2,4.6,4.6v1c0,0.4-0.2,0.6-0.6,0.6H17z"/>
<path class="st0" d="M42,52.6c-0.2,0-0.3,0-0.4-0.2l-8-8c-0.2-0.2-0.3-0.4-0.2-0.7c0.1-0.2,0.3-0.3,0.5-0.3H41c0.2,0,0.3,0,0.4,0.2
	l8,8c0.2,0.2,0.2,0.4,0.1,0.6c-0.1,0.3-0.3,0.4-0.5,0.4H42z M36.4,44.6c-0.2,0-0.3,0.1-0.4,0.3c-0.1,0.2,0,0.3,0.1,0.5l6,6
	c0.1,0.1,0.2,0.1,0.3,0.1h4.3c0.2,0,0.3-0.1,0.4-0.3c0.1-0.2,0-0.3-0.1-0.5l-6-6c-0.1-0.1-0.2-0.1-0.3-0.1H36.4z"/>
</svg>
