<?xml version="1.0" encoding="utf-8"?>
<!-- Generator: Adobe Illustrator 24.2.0, SVG Export Plug-In . SVG Version: 6.00 Build 0)  -->
<svg version="1.1" id="Layer_1" xmlns="http://www.w3.org/2000/svg" xmlns:xlink="http://www.w3.org/1999/xlink" x="0px" y="0px"
	 viewBox="0 0 485.5 61.1" style="enable-background:new 0 0 485.5 61.1;" xml:space="preserve">
<style type="text/css">
	.st0{fill:#041D3C;}
	.st1{fill:#FFFFFF;}
	.st2{fill:#EC2227;}
	.st3{fill:#77797C;}
</style>
<g>
	<path class="st0" d="M44.7,47.3H9c-4.5,0-8.1-3.6-8.1-8.1V8.1C0.9,3.6,4.5,0,9,0h35.7c4.5,0,8.1,3.6,8.1,8.1v31.1
		C52.8,43.7,49.2,47.3,44.7,47.3z"/>
	<g>
		<path class="st1" d="M40.8,31.8C40.6,32,40.4,32,40.2,32h-8.6v-3.3h8.6c0.2,0,0.4,0.1,0.6,0.2c0.2,0.2,0.2,0.4,0.2,0.6v1.6
			C41,31.4,41,31.6,40.8,31.8 M45.2,29.7c0-1.4-0.5-2.5-1.5-3.5c-1-1-2.1-1.5-3.5-1.5H27.4v16h4.1V36h8.6c1.4,0,2.5-0.5,3.5-1.4
			c1-0.9,1.5-2.1,1.5-3.5V29.7z"/>
		<polygon class="st1" points="23.9,24.7 19.8,24.7 19.8,30.6 11.5,30.6 11.5,24.7 7.4,24.7 7.4,40.7 11.5,40.7 11.5,34.6 
			19.8,34.6 19.8,40.7 23.9,40.7 		"/>
		<path class="st1" d="M42.4,18.3c-0.2,0.2-0.4,0.2-0.6,0.2H31.4v-7.8h10.4c0.2,0,0.4,0.1,0.6,0.2c0.2,0.2,0.2,0.4,0.2,0.6v6.1
			C42.6,17.9,42.5,18.1,42.4,18.3 M46.7,11.6c0-1.4-0.5-2.5-1.5-3.5c-1-1-2.1-1.4-3.5-1.4H27.3v16h14.5c1.4,0,2.5-0.5,3.5-1.4
			c1-1,1.5-2.1,1.5-3.5V11.6z"/>
		<path class="st2" d="M24.2,15.6c-1-1.9-2.9-2.9-5.7-2.9h-6.1c-0.4,0-0.7-0.1-0.9-0.3c-0.3-0.2-0.4-0.4-0.4-0.7
			c0-0.3,0.1-0.5,0.4-0.7c0.3-0.2,0.6-0.3,0.9-0.3h11.5V6.6H13c-1.2,0-2.2,0.2-3.2,0.6C8.7,7.8,7.9,8.5,7.4,9.5
			c-0.3,0.7-0.5,1.4-0.5,2.1c0,0.8,0.2,1.5,0.5,2.2c1,1.9,2.8,2.8,5.5,2.8h6.1c0.3,0,0.6,0.1,0.9,0.3c0.2,0.2,0.4,0.4,0.4,0.7
			c0,0.6-0.4,0.9-1.2,0.9H7.5v4.1h11c1.2,0,2.3-0.2,3.3-0.6c1.1-0.5,1.9-1.3,2.4-2.3c0.3-0.6,0.5-1.3,0.5-2.1
			C24.7,16.9,24.5,16.2,24.2,15.6"/>
	</g>
	<g>
		<g>
			<path class="st0" d="M484.9,36.3c-1.3-2.5-3.7-3.7-7.4-3.7h-7.8c-0.5,0-0.9-0.1-1.2-0.4c-0.3-0.2-0.5-0.6-0.5-0.9
				s0.2-0.7,0.5-0.9c0.3-0.2,0.7-0.3,1.2-0.3h14.9v-5.3h-14.1c-1.5,0-2.9,0.3-4.1,0.8c-1.4,0.6-2.4,1.6-3.1,2.9
				c-0.4,0.9-0.7,1.8-0.7,2.7c0,1,0.2,1.9,0.7,2.8c1.3,2.4,3.6,3.6,7.1,3.6h7.9c0.4,0,0.8,0.1,1.1,0.4c0.3,0.3,0.5,0.6,0.5,1
				c0,0.8-0.5,1.2-1.6,1.2h-15v5.3h14.2c1.6,0,3-0.3,4.2-0.8c1.4-0.7,2.5-1.6,3.2-3c0.4-0.8,0.6-1.7,0.6-2.7
				C485.5,38,485.3,37.1,484.9,36.3 M460.2,24.7h-5.3v13.8c-0.4-0.6-0.8-1.1-1.3-1.6l-11.4-12.2h-5.6v20.6h5.3V31.9
				c0.4,0.6,0.9,1.2,1.4,1.7L454,45.4h6.2V24.7z M419,35.6c1.4-2.5,2.3-4.4,2.7-5.7c0.3,0.9,0.8,1.8,1.3,2.9
				c0.3,0.6,0.8,1.6,1.5,2.8H419z M424.7,24.7h-6l-10.9,20.6h6.2l2.2-4.4h11.1l2.2,4.4h6.2L424.7,24.7z M407.5,40.1h-15.2V24.7h-5.3
				v20.6h20.5V40.1z M379.4,33.9c-0.2,0.2-0.5,0.3-0.8,0.3h-11.2V30h11.2c0.3,0,0.6,0.1,0.8,0.3c0.2,0.2,0.3,0.5,0.3,0.8v2
				C379.7,33.4,379.6,33.7,379.4,33.9 M385,31.1c0-1.8-0.6-3.3-1.9-4.5c-1.3-1.3-2.8-1.9-4.5-1.9h-16.5v20.6h5.3v-6h11.2
				c1.8,0,3.3-0.6,4.5-1.8c1.3-1.2,1.9-2.7,1.9-4.5V31.1z"/>
			<path class="st0" d="M349.6,24.7h-5.3v7.7h-10.6v-7.7h-5.3v20.6h5.3v-7.8h10.6v7.8h5.3V24.7z M326.1,24.7h-20V30h7.3v15.4h5.3V30
				h7.4V24.7z M309.7,40.1h-15.2V24.7h-5.3v20.6h20.5V40.1z M271.6,35.6c1.4-2.5,2.3-4.4,2.7-5.7c0.3,0.9,0.8,1.8,1.3,2.9
				c0.3,0.6,0.8,1.6,1.5,2.8H271.6z M277.3,24.7h-6l-10.9,20.6h6.2l2.2-4.4h11.1l2.2,4.4h6.2L277.3,24.7z M259.4,40.1h-15.4v-2.5h15
				v-5.2h-15V30h15.4v-5.3h-20.8v20.6h20.8V40.1z M236.1,24.7h-5.3v7.7h-10.6v-7.7h-5.3v20.6h5.3v-7.8h10.6v7.8h5.3V24.7z"/>
			<path class="st0" d="M203.2,40.1H188V24.7h-5.3v20.6h20.5V40.1z M165.1,35.6c1.4-2.5,2.3-4.4,2.7-5.7c0.3,0.9,0.8,1.8,1.3,2.9
				c0.3,0.6,0.8,1.6,1.5,2.8H165.1z M170.8,24.7h-6l-10.9,20.6h6.2l2.2-4.4h11.1l2.2,4.4h6.2L170.8,24.7z M157,24.7h-20V30h7.3v15.4
				h5.3V30h7.4V24.7z M134.8,24.7h-5.3v13.8c-0.4-0.6-0.8-1.1-1.3-1.6l-11.4-12.2h-5.6v20.6h5.3V31.9c0.4,0.6,0.9,1.2,1.4,1.7
				l10.7,11.8h6.2V24.7z M108.9,40.1H93.4v-2.5h15v-5.2h-15V30h15.5v-5.3H88.1v20.6h20.8V40.1z M79.9,39.8c-0.2,0.2-0.5,0.3-0.8,0.3
				H65.8V30h13.4c0.3,0,0.5,0.1,0.8,0.3c0.2,0.2,0.3,0.5,0.3,0.8V39C80.3,39.3,80.2,39.6,79.9,39.8 M85.6,31.1
				c0-1.8-0.6-3.3-1.9-4.5c-1.3-1.2-2.8-1.9-4.5-1.9H60.5v20.6h18.7c1.8,0,3.3-0.6,4.5-1.9c1.3-1.2,1.9-2.7,1.9-4.5V31.1z"/>
		</g>
		<path class="st2" d="M176.1,11.5c-1.3-2.5-3.7-3.7-7.4-3.7h-7.8c-0.5,0-0.9-0.1-1.2-0.4c-0.3-0.2-0.5-0.6-0.5-0.9
			c0-0.4,0.2-0.7,0.5-0.9c0.3-0.2,0.7-0.3,1.2-0.3h14.9V0h-14.1c-1.5,0-2.9,0.3-4.1,0.8c-1.4,0.6-2.4,1.6-3.1,2.9
			c-0.4,0.9-0.7,1.8-0.7,2.7c0,1,0.2,1.9,0.7,2.8c1.3,2.4,3.6,3.6,7.1,3.6h7.9c0.4,0,0.8,0.1,1.1,0.4c0.3,0.3,0.5,0.6,0.5,1
			c0,0.8-0.5,1.2-1.6,1.2h-15v5.3h14.2c1.6,0,3-0.3,4.2-0.8c1.4-0.7,2.5-1.6,3.2-3c0.4-0.8,0.6-1.7,0.6-2.7
			C176.8,13.2,176.6,12.4,176.1,11.5"/>
		<path class="st2" d="M151.6,11.5c-1.3-2.5-3.7-3.7-7.4-3.7h-7.8c-0.5,0-0.9-0.1-1.2-0.4c-0.3-0.2-0.5-0.6-0.5-0.9
			c0-0.4,0.2-0.7,0.5-0.9c0.3-0.2,0.7-0.3,1.2-0.3h14.9V0h-14.1c-1.5,0-2.9,0.3-4.1,0.8c-1.4,0.6-2.4,1.6-3.1,2.9
			c-0.4,0.9-0.7,1.8-0.7,2.7c0,1,0.2,1.9,0.7,2.8c1.3,2.4,3.6,3.6,7.1,3.6h7.9c0.4,0,0.8,0.1,1.1,0.4c0.3,0.3,0.5,0.6,0.5,1
			c0,0.8-0.5,1.2-1.6,1.2h-15v5.3h14.2c1.6,0,3-0.3,4.2-0.8c1.4-0.7,2.5-1.6,3.2-3c0.4-0.8,0.6-1.7,0.6-2.7
			C152.3,13.2,152.1,12.4,151.6,11.5"/>
		<rect x="121.8" class="st2" width="5.3" height="20.6"/>
		<path class="st2" d="M114.6,0l-3.5,11.3c-0.6,1.7-1.1,3-1.4,3.9c-0.5-1.7-0.9-3-1.2-3.9L104.9,0h-5.6l-3.6,11.3
			c-0.6,1.8-1,3.1-1.2,3.9c-0.6-1.7-1.1-3-1.4-3.9L89.6,0h-6.1l8.1,20.6h5.8l4.8-12.5l4.7,12.5h5.8L120.7,0H114.6z"/>
		<path class="st2" d="M82.1,11.5c-1.3-2.5-3.7-3.7-7.4-3.7h-7.8c-0.5,0-0.9-0.1-1.2-0.4c-0.3-0.2-0.5-0.6-0.5-0.9
			c0-0.4,0.2-0.7,0.5-0.9c0.3-0.2,0.7-0.3,1.2-0.3h14.9V0H67.6c-1.5,0-2.9,0.3-4.1,0.8c-1.4,0.6-2.4,1.6-3.1,2.9
			c-0.4,0.9-0.7,1.8-0.7,2.7c0,1,0.2,1.9,0.7,2.8c1.3,2.4,3.6,3.6,7.1,3.6h7.9c0.4,0,0.8,0.1,1.1,0.4c0.3,0.3,0.5,0.6,0.5,1
			c0,0.8-0.5,1.2-1.6,1.2h-15v5.3h14.2c1.6,0,3-0.3,4.2-0.8c1.4-0.7,2.5-1.6,3.2-3c0.4-0.8,0.6-1.7,0.6-2.7
			C82.7,13.2,82.5,12.4,82.1,11.5"/>
		<g>
			<path class="st3" d="M305.1,61.1v-9.4h-1.8v3.8h-5.7v-3.8h-1.8v9.4h1.8v-3.9h5.7v3.9H305.1z M290.4,61.1v-7.6h3.5v-1.9h-8.8v1.9
				h3.5v7.6H290.4z M285.5,61.1v-1.9h-7.2v-7.6h-1.9v9.4H285.5z M270.7,57.4h-4.3l2.2-3.9L270.7,57.4z M274.8,61.1l-5.2-9.4h-2
				l-5.2,9.4h2.1l1.2-2.2h5.8l1.2,2.2H274.8z M260.9,61.1v-1.9h-7.3v-2.1h7.1v-1.5h-7.1v-2.1h7.3v-1.9h-9.2v9.4H260.9z M249.3,61.1
				v-9.4h-1.8v3.8h-5.7v-3.8H240v9.4h1.8v-3.9h5.7v3.9H249.3z"/>
			<path class="st3" d="M233.2,61.1v-1.9H226v-7.6h-1.9v9.4H233.2z M218.4,57.4h-4.3l2.2-3.9L218.4,57.4z M222.5,61.1l-5.2-9.4h-2
				l-5.2,9.4h2.1l1.2-2.2h5.8l1.2,2.2H222.5z M207.1,61.1v-7.6h3.5v-1.9h-8.8v1.9h3.5v7.6H207.1z M200,61.1v-9.4h-1.8v6.8l-6.5-6.8
				h-2v9.4h1.8v-7l6.7,7H200z M187.5,61.1v-1.9h-7.3v-2.1h7.1v-1.5h-7.1v-2.1h7.3v-1.9h-9.2v9.4H187.5z M174.1,58
				c0,0.5-0.1,0.8-0.2,0.9c-0.2,0.2-0.5,0.2-0.9,0.2h-6.1v-5.7h6.1c0.4,0,0.7,0.1,0.9,0.3c0.2,0.2,0.2,0.5,0.2,1V58z M173,61.1
				c0.6,0,1.1-0.1,1.5-0.2c0.4-0.1,0.7-0.3,0.9-0.5c0.2-0.2,0.4-0.6,0.5-0.9c0.1-0.4,0.1-0.9,0.1-1.5v-3.3c0-0.6,0-1.1-0.1-1.4
				c-0.1-0.4-0.3-0.7-0.5-0.9c-0.2-0.2-0.5-0.4-0.9-0.5c-0.4-0.1-0.9-0.2-1.5-0.2h-8v9.4H173z"/>
			<path class="st3" d="M157.8,57.3v-1.6h-6.9v-2.2h7.1v-1.9h-9v9.4h1.9v-3.8H157.8z M144.8,58c0,0.5-0.1,0.8-0.2,0.9
				c-0.2,0.2-0.5,0.2-0.9,0.2h-5c-0.2,0-0.4,0-0.5-0.1c-0.1,0-0.3-0.1-0.3-0.2c-0.1-0.1-0.2-0.2-0.2-0.4c0-0.2-0.1-0.3-0.1-0.6v-3.3
				c0-0.5,0.1-0.8,0.2-1c0.2-0.2,0.5-0.3,0.9-0.3h5c0.4,0,0.7,0.1,0.9,0.3c0.2,0.2,0.2,0.5,0.2,1V58z M143.6,61.1
				c0.6,0,1-0.1,1.4-0.2c0.4-0.1,0.7-0.3,0.9-0.5c0.2-0.2,0.4-0.6,0.5-0.9c0.1-0.4,0.1-0.9,0.1-1.5v-3.3c0-0.6,0-1.1-0.1-1.5
				c-0.1-0.4-0.3-0.7-0.5-0.9c-0.2-0.2-0.5-0.4-0.9-0.5c-0.4-0.1-0.9-0.2-1.4-0.2h-5c-0.6,0-1.1,0.1-1.4,0.2
				c-0.4,0.1-0.7,0.3-0.9,0.5c-0.2,0.2-0.4,0.6-0.5,0.9c-0.1,0.4-0.1,0.9-0.1,1.5V58c0,0.6,0,1.1,0.1,1.5c0.1,0.4,0.3,0.7,0.5,0.9
				c0.2,0.2,0.5,0.4,0.9,0.5c0.4,0.1,0.9,0.2,1.4,0.2H143.6z"/>
			<polygon class="st3" points="128.3,61.1 128.3,51.7 126.3,51.7 122.7,59.2 119.2,51.7 117.1,51.7 117.1,61.1 118.8,61.1 
				118.8,54.9 121.8,61.1 123.6,61.1 126.6,54.9 126.6,61.1 			"/>
			<polygon class="st3" points="115,61.1 115,59.2 107.7,59.2 107.7,57.1 114.8,57.1 114.8,55.6 107.7,55.6 107.7,53.5 115,53.5 
				115,51.7 105.8,51.7 105.8,61.1 			"/>
			<polygon class="st3" points="100.5,61.1 100.5,53.5 104,53.5 104,51.7 95.1,51.7 95.1,53.5 98.6,53.5 98.6,61.1 			"/>
			<path class="st3" d="M93.6,58c0-0.4-0.1-0.8-0.2-1.1c-0.1-0.3-0.3-0.6-0.5-0.8c-0.2-0.2-0.6-0.3-1-0.4c-0.4-0.1-0.9-0.1-1.5-0.1
				h-3.8c-0.5,0-0.8-0.1-0.9-0.2c-0.2-0.2-0.2-0.4-0.2-0.8c0-0.4,0.1-0.6,0.2-0.8c0.2-0.2,0.5-0.2,0.9-0.2H93c0-0.3,0.1-0.6,0.1-0.9
				c0-0.3,0.1-0.6,0.1-0.9h-6.7c-0.6,0-1.1,0.1-1.5,0.2c-0.4,0.1-0.7,0.3-1,0.5c-0.2,0.2-0.4,0.5-0.5,0.8c-0.1,0.3-0.2,0.7-0.2,1.2
				v0.3c0,0.4,0.1,0.8,0.2,1.1c0.1,0.3,0.3,0.6,0.5,0.8c0.2,0.2,0.5,0.4,0.9,0.5c0.4,0.1,0.9,0.2,1.4,0.2h3.9c0.5,0,0.8,0.1,1,0.2
				c0.2,0.2,0.3,0.4,0.3,0.8c0,0.2,0,0.4-0.1,0.5c0,0.1-0.1,0.2-0.2,0.3c-0.1,0.1-0.2,0.1-0.4,0.2c-0.2,0-0.4,0-0.6,0h-6.5
				c0,0.3,0,0.6-0.1,0.9c0,0.3,0,0.6-0.1,0.9h6.7c0.6,0,1,0,1.4-0.1c0.4-0.1,0.7-0.3,1-0.5c0.2-0.2,0.4-0.5,0.5-0.8
				c0.1-0.3,0.2-0.8,0.2-1.3V58z"/>
			<polygon class="st3" points="77.9,61.1 77.9,57.6 82.5,51.7 80.3,51.7 77,56.1 73.7,51.7 71.5,51.7 76,57.6 76,61.1 			"/>
			<path class="st3" d="M70.3,58c0-0.4-0.1-0.8-0.2-1.1c-0.1-0.3-0.3-0.6-0.5-0.8c-0.3-0.2-0.6-0.3-1-0.4c-0.4-0.1-0.9-0.1-1.5-0.1
				h-3.8c-0.5,0-0.8-0.1-0.9-0.2c-0.2-0.2-0.2-0.4-0.2-0.8c0-0.4,0.1-0.6,0.2-0.8s0.5-0.2,0.9-0.2h6.5c0-0.3,0.1-0.6,0.1-0.9
				c0-0.3,0.1-0.6,0.1-0.9h-6.7c-0.6,0-1.1,0.1-1.5,0.2c-0.4,0.1-0.7,0.3-0.9,0.5c-0.2,0.2-0.4,0.5-0.5,0.8
				c-0.1,0.3-0.2,0.7-0.2,1.2v0.3c0,0.4,0.1,0.8,0.2,1.1c0.1,0.3,0.3,0.6,0.5,0.8c0.2,0.2,0.5,0.4,0.9,0.5c0.4,0.1,0.9,0.2,1.4,0.2
				h3.9c0.5,0,0.8,0.1,1,0.2c0.2,0.2,0.3,0.4,0.3,0.8c0,0.2,0,0.4-0.1,0.5c0,0.1-0.1,0.2-0.2,0.3c-0.1,0.1-0.2,0.1-0.4,0.2
				c-0.2,0-0.4,0-0.6,0h-6.5c0,0.3,0,0.6-0.1,0.9c0,0.3,0,0.6-0.1,0.9h6.7c0.6,0,1,0,1.4-0.1c0.4-0.1,0.7-0.3,1-0.5
				c0.2-0.2,0.4-0.5,0.5-0.8c0.1-0.3,0.2-0.8,0.2-1.3V58z"/>
		</g>
	</g>
</g>
</svg>
