<?xml version="1.0" encoding="utf-8"?>
<!-- Generator: Adobe Illustrator 24.1.2, SVG Export Plug-In . SVG Version: 6.00 Build 0)  -->
<svg version="1.1" id="Layer_1" xmlns="http://www.w3.org/2000/svg" xmlns:xlink="http://www.w3.org/1999/xlink" x="0px" y="0px"
	 viewBox="0 0 85 28.3" style="enable-background:new 0 0 85 28.3;" xml:space="preserve">
<style type="text/css">
	.st0{fill:#B4B4B5;}
</style>
<g>
	<path class="st0" d="M24.3,15.3c0-0.4-0.1-0.7-0.4-0.9C23.7,14.2,23.4,14,23,14h-3.8v4.2H23c0.4,0,0.7-0.1,0.9-0.4
		c0.3-0.3,0.4-0.6,0.4-0.9V15.3L24.3,15.3z M23.2,17.1c0,0-0.1,0.1-0.2,0.1h-2.7v-2.1H23c0.1,0,0.1,0,0.2,0.1c0,0,0.1,0.1,0.1,0.2
		V17C23.3,17,23.2,17.1,23.2,17.1L23.2,17.1z M29.1,17.2h-3.1v-0.5h3v-1.1h-3v-0.5h3.1V14h-4.2v4.2h4.2V17.2L29.1,17.2z M34.3,14
		h-1.1v2.8c-0.1-0.1-0.2-0.2-0.3-0.3L30.7,14h-1.1v4.2h1.1v-2.8c0.1,0.1,0.2,0.2,0.3,0.3l2.2,2.4h1.3V14L34.3,14z M38.8,14h-4v1.1
		h1.5v3.2h1.1v-3.2h1.5V14L38.8,14z M41.6,14h-1.2l-2.2,4.2h1.2l0.4-0.9h2.2l0.4,0.9h1.2L41.6,14L41.6,14z M40.4,16.3
		c0.3-0.5,0.5-0.9,0.6-1.2c0.1,0.2,0.2,0.4,0.3,0.6c0.1,0.1,0.2,0.3,0.3,0.6H40.4L40.4,16.3z M48.2,17.2h-3.1V14H44v4.2h4.2V17.2
		L48.2,17.2z M51.6,14h-1.1v4.2h1.1V14L51.6,14z M57,14h-1.1v2.8c-0.1-0.1-0.2-0.2-0.3-0.3L53.3,14h-1.1v4.2h1.1v-2.8
		c0.1,0.1,0.2,0.2,0.3,0.3l2.2,2.4H57V14L57,14z M61.6,14l-1.3,2.6c-0.1,0.3-0.2,0.4-0.3,0.6c-0.1-0.2-0.2-0.4-0.3-0.6L58.5,14h-1.2
		l2.2,4.2h1.2l2.2-4.2H61.6L61.6,14z M67.2,17.2H64v-0.5h3v-1.1h-3v-0.5h3.1V14H63v4.2h4.2V17.2L67.2,17.2z M72.1,16.4
		c-0.3-0.5-0.8-0.8-1.5-0.8H69c-0.1,0-0.2,0-0.2-0.1c-0.1-0.1-0.1-0.1-0.1-0.2c0-0.1,0-0.1,0.1-0.2c0.1,0,0.1-0.1,0.2-0.1h3V14h-2.9
		c-0.3,0-0.6,0.1-0.8,0.2c-0.3,0.1-0.5,0.3-0.6,0.6c-0.1,0.2-0.1,0.4-0.1,0.6c0,0.2,0,0.4,0.1,0.6c0.3,0.5,0.7,0.7,1.4,0.7h1.6
		c0.1,0,0.2,0,0.2,0.1c0.1,0.1,0.1,0.1,0.1,0.2c0,0.2-0.1,0.2-0.3,0.2h-3v1.1h2.9c0.3,0,0.6-0.1,0.9-0.2c0.3-0.1,0.5-0.3,0.6-0.6
		c0.1-0.2,0.1-0.4,0.1-0.5C72.2,16.8,72.1,16.6,72.1,16.4L72.1,16.4L72.1,16.4z M76.5,14h-4v1.1H74v3.2H75v-3.2h1.5V14L76.5,14z"/>
	<path class="st0" d="M23.8,11.2c-0.3-0.5-0.8-0.8-1.5-0.8h-1.6c-0.1,0-0.2,0-0.2-0.1c-0.1-0.1-0.1-0.1-0.1-0.2c0-0.1,0-0.1,0.1-0.2
		c0.1,0,0.1-0.1,0.2-0.1h3V8.8h-2.9c-0.3,0-0.6,0.1-0.8,0.2c-0.3,0.1-0.5,0.3-0.6,0.6c-0.1,0.2-0.1,0.4-0.1,0.6c0,0.2,0,0.4,0.1,0.6
		c0.3,0.5,0.7,0.7,1.4,0.7h1.6c0.1,0,0.2,0,0.2,0.1c0.1,0.1,0.1,0.1,0.1,0.2c0,0.2-0.1,0.2-0.3,0.2h-3V13h2.9c0.3,0,0.6-0.1,0.9-0.2
		c0.3-0.1,0.5-0.3,0.6-0.6c0.1-0.2,0.1-0.4,0.1-0.5C23.9,11.5,23.9,11.3,23.8,11.2L23.8,11.2L23.8,11.2z M30.4,8.8l-0.7,2.3
		c-0.1,0.4-0.2,0.6-0.3,0.8c-0.1-0.4-0.2-0.6-0.2-0.8l-0.7-2.3h-1.1l-0.7,2.3c-0.1,0.4-0.2,0.6-0.2,0.8c-0.1-0.4-0.2-0.6-0.3-0.8
		l-0.7-2.3h-1.2l1.6,4.2h1.2l1-2.6l1,2.6H30l1.6-4.2H30.4L30.4,8.8z M32.9,8.8h-1.1V13h1.1V8.8L32.9,8.8z M37.9,11.2
		c-0.3-0.5-0.8-0.8-1.5-0.8h-1.6c-0.1,0-0.2,0-0.2-0.1c-0.1-0.1-0.1-0.1-0.1-0.2c0-0.1,0-0.1,0.1-0.2c0.1,0,0.1-0.1,0.2-0.1h3V8.8
		h-2.9c-0.3,0-0.6,0.1-0.8,0.2c-0.3,0.1-0.5,0.3-0.6,0.6c-0.1,0.2-0.1,0.4-0.1,0.6c0,0.2,0,0.4,0.1,0.6c0.3,0.5,0.7,0.7,1.4,0.7h1.6
		c0.1,0,0.2,0,0.2,0.1c0.1,0.1,0.1,0.1,0.1,0.2c0,0.2-0.1,0.2-0.3,0.2h-3V13h2.9c0.3,0,0.6-0.1,0.9-0.2c0.3-0.1,0.5-0.3,0.6-0.6
		c0.1-0.2,0.1-0.4,0.1-0.5C38,11.5,38,11.3,37.9,11.2L37.9,11.2L37.9,11.2z M42.8,11.2c-0.3-0.5-0.8-0.8-1.5-0.8h-1.6
		c-0.1,0-0.2,0-0.2-0.1c-0.1-0.1-0.1-0.1-0.1-0.2c0-0.1,0-0.1,0.1-0.2c0.1,0,0.1-0.1,0.2-0.1h3V8.8h-2.9c-0.3,0-0.6,0.1-0.8,0.2
		c-0.3,0.1-0.5,0.3-0.6,0.6c-0.1,0.2-0.1,0.4-0.1,0.6c0,0.2,0,0.4,0.1,0.6c0.3,0.5,0.7,0.7,1.4,0.7h1.6c0.1,0,0.2,0,0.2,0.1
		c0.1,0.1,0.1,0.1,0.1,0.2c0,0.2-0.1,0.2-0.3,0.2h-3V13h2.9c0.3,0,0.6-0.1,0.9-0.2c0.3-0.1,0.5-0.3,0.6-0.6c0.1-0.2,0.1-0.4,0.1-0.5
		C43,11.5,42.9,11.3,42.8,11.2L42.8,11.2L42.8,11.2z"/>
	<path class="st0" d="M21.1,21.2c0.1,0,0.2,0,0.3,0c0.1,0,0.1-0.1,0.2-0.1c0,0,0.1-0.1,0.1-0.2c0-0.1,0-0.2,0-0.3v-0.7
		c0-0.1,0-0.2,0-0.3c0-0.1-0.1-0.1-0.1-0.2c0,0-0.1-0.1-0.2-0.1c-0.1,0-0.2,0-0.3,0H20c-0.1,0-0.2,0-0.3,0c-0.1,0-0.1,0.1-0.2,0.1
		c0,0-0.1,0.1-0.1,0.2c0,0.1,0,0.2,0,0.3v0.7c0,0.1,0,0.2,0,0.3c0,0.1,0.1,0.1,0.1,0.2c0,0,0.1,0.1,0.2,0.1c0.1,0,0.2,0,0.3,0H21.1
		L21.1,21.2z M21.3,20.5c0,0.1,0,0.2-0.1,0.2c0,0-0.1,0.1-0.2,0.1H20c0,0-0.1,0-0.1,0c0,0-0.1,0-0.1,0c0,0,0,0,0-0.1
		c0,0,0-0.1,0-0.1v-0.7c0-0.1,0-0.2,0.1-0.2c0,0,0.1-0.1,0.2-0.1h1.1c0.1,0,0.1,0,0.2,0.1c0,0,0.1,0.1,0.1,0.2V20.5L21.3,20.5z
		 M23.7,20.5c0.1,0,0.2,0,0.3,0c0.1,0,0.1-0.1,0.2-0.1c0,0,0.1-0.1,0.1-0.2c0-0.1,0-0.2,0-0.3v-0.2c0-0.1,0-0.2,0-0.3
		c0-0.1-0.1-0.1-0.1-0.2c0,0-0.1-0.1-0.2-0.1c-0.1,0-0.2,0-0.3,0h-1.5v1.9h0.4v-0.6H23.7L23.7,20.5z M23.9,20c0,0.1,0,0.1,0,0.2
		c0,0-0.1,0-0.2,0h-1.1v-0.6h1.1c0.1,0,0.1,0,0.2,0c0,0,0,0.1,0,0.2V20L23.9,20z M26.2,20.5c0.1,0,0.2,0,0.3,0
		c0.1,0,0.1-0.1,0.2-0.1c0,0,0.1-0.1,0.1-0.2c0-0.1,0-0.2,0-0.3v-0.2c0-0.1,0-0.2,0-0.3c0-0.1-0.1-0.1-0.1-0.2c0,0-0.1-0.1-0.2-0.1
		c-0.1,0-0.2,0-0.3,0h-1.5v1.9h0.4v-0.6H26.2L26.2,20.5z M26.4,20c0,0.1,0,0.1,0,0.2c0,0-0.1,0-0.2,0h-1.1v-0.6h1.1
		c0.1,0,0.1,0,0.2,0c0,0,0,0.1,0,0.2V20L26.4,20z M28.9,21.2c0.1,0,0.2,0,0.3,0c0.1,0,0.1-0.1,0.2-0.1c0,0,0.1-0.1,0.1-0.2
		c0-0.1,0-0.2,0-0.3v-0.7c0-0.1,0-0.2,0-0.3c0-0.1-0.1-0.1-0.1-0.2c0,0-0.1-0.1-0.2-0.1c-0.1,0-0.2,0-0.3,0h-1.1c-0.1,0-0.2,0-0.3,0
		c-0.1,0-0.1,0.1-0.2,0.1c0,0-0.1,0.1-0.1,0.2c0,0.1,0,0.2,0,0.3v0.7c0,0.1,0,0.2,0,0.3c0,0.1,0.1,0.1,0.1,0.2c0,0,0.1,0.1,0.2,0.1
		c0.1,0,0.2,0,0.3,0H28.9L28.9,21.2z M29.1,20.5c0,0.1,0,0.2-0.1,0.2c0,0-0.1,0.1-0.2,0.1h-1.1c0,0-0.1,0-0.1,0c0,0-0.1,0-0.1,0
		c0,0,0,0,0-0.1c0,0,0-0.1,0-0.1v-0.7c0-0.1,0-0.2,0.1-0.2c0,0,0.1-0.1,0.2-0.1h1.1c0.1,0,0.1,0,0.2,0.1c0,0,0.1,0.1,0.1,0.2V20.5
		L29.1,20.5z M32.3,21.2l-0.7-0.6c0.1,0,0.2,0,0.3,0c0.1,0,0.2,0,0.2-0.1c0.1,0,0.1-0.1,0.1-0.2c0-0.1,0-0.2,0-0.3v-0.1
		c0-0.1,0-0.2,0-0.3c0-0.1-0.1-0.1-0.1-0.2c0,0-0.1-0.1-0.2-0.1c-0.1,0-0.2,0-0.3,0H30v1.9h0.4v-0.6H31l0.7,0.6H32.3L32.3,21.2z
		 M31.8,20c0,0.1,0,0.1,0,0.2c0,0-0.1,0.1-0.1,0.1h-1.2v-0.6h1.2c0.1,0,0.1,0,0.2,0.1C31.8,19.7,31.8,19.8,31.8,20L31.8,20L31.8,20z
		 M33.7,21.2v-1.6h0.7v-0.4h-1.9v0.4h0.7v1.6H33.7L33.7,21.2z M36.4,21.2c0.1,0,0.2,0,0.3,0c0.1,0,0.1-0.1,0.2-0.1
		c0,0,0.1-0.1,0.1-0.2c0-0.1,0-0.2,0-0.3v-1.3h-0.4v1.3c0,0.1,0,0.1,0,0.2c0,0-0.1,0.1-0.2,0.1h-1c-0.1,0-0.1,0-0.2-0.1
		c0,0,0-0.1,0-0.2v-1.3h-0.4v1.3c0,0.1,0,0.2,0,0.3c0,0.1,0.1,0.1,0.1,0.2c0,0,0.1,0.1,0.2,0.1c0.1,0,0.2,0,0.3,0H36.4L36.4,21.2z
		 M39.6,21.2v-1.9h-0.4v1.4l-1.4-1.4h-0.4v1.9h0.4v-1.4l1.4,1.4H39.6L39.6,21.2z M40.5,21.2v-1.9h-0.4v1.9H40.5L40.5,21.2z M42,21.2
		v-1.6h0.7v-0.4h-1.9v0.4h0.7v1.6H42L42,21.2z M43.6,21.2v-1.9h-0.4v1.9H43.6L43.6,21.2z M46,21.2v-0.4h-1.5v-0.4h1.5V20h-1.5v-0.4
		H46v-0.4h-1.9v1.9H46L46,21.2z M48.5,20.5c0-0.1,0-0.2,0-0.2c0-0.1-0.1-0.1-0.1-0.2c-0.1,0-0.1-0.1-0.2-0.1c-0.1,0-0.2,0-0.3,0H47
		c-0.1,0-0.2,0-0.2,0c0,0-0.1-0.1-0.1-0.2c0-0.1,0-0.1,0.1-0.2c0,0,0.1,0,0.2,0h1.4c0-0.1,0-0.1,0-0.2c0-0.1,0-0.1,0-0.2H47
		c-0.1,0-0.2,0-0.3,0c-0.1,0-0.1,0.1-0.2,0.1c-0.1,0-0.1,0.1-0.1,0.2c0,0.1,0,0.2,0,0.2v0.1c0,0.1,0,0.2,0,0.2
		c0,0.1,0.1,0.1,0.1,0.2c0,0,0.1,0.1,0.2,0.1c0.1,0,0.2,0,0.3,0h0.8c0.1,0,0.2,0,0.2,0c0,0,0.1,0.1,0.1,0.2c0,0,0,0.1,0,0.1
		c0,0,0,0,0,0.1c0,0,0,0-0.1,0c0,0-0.1,0-0.1,0h-1.4c0,0.1,0,0.1,0,0.2c0,0.1,0,0.1,0,0.2h1.4c0.1,0,0.2,0,0.3,0
		c0.1,0,0.2-0.1,0.2-0.1c0.1,0,0.1-0.1,0.1-0.2C48.5,20.8,48.5,20.7,48.5,20.5L48.5,20.5L48.5,20.5z M51,21.2v-1.6h0.7v-0.4h-1.9
		v0.4h0.7v1.6H51L51,21.2z M54.1,21.2v-1.9h-0.4V20h-1.2v-0.8h-0.4v1.9h0.4v-0.8h1.2v0.8H54.1L54.1,21.2z M57,21.2l-1.1-1.9h-0.4
		l-1.1,1.9h0.4l0.3-0.4h1.2l0.2,0.4H57L57,21.2z M56.2,20.4h-0.9l0.5-0.8L56.2,20.4L56.2,20.4z M58,21.2v-1.6h0.7v-0.4h-1.9v0.4h0.7
		v1.6H58L58,21.2z M62.5,21.2v-1.9h-0.4l-0.7,1.5l-0.7-1.5h-0.4v1.9h0.4v-1.3l0.6,1.3h0.4l0.6-1.3v1.3H62.5L62.5,21.2z M65.5,21.2
		l-1.1-1.9H64l-1.1,1.9h0.4l0.2-0.4h1.2l0.2,0.4H65.5L65.5,21.2z M64.6,20.4h-0.9l0.5-0.8L64.6,20.4L64.6,20.4z M66.5,21.2v-1.6h0.7
		v-0.4h-1.9v0.4h0.7v1.6H66.5L66.5,21.2z M68.7,21.2v-1.6h0.7v-0.4h-1.9v0.4h0.7v1.6H68.7L68.7,21.2z M71.7,21.2v-0.4h-1.5v-0.4h1.5
		V20h-1.5v-0.4h1.5v-0.4h-1.9v1.9H71.7L71.7,21.2z M74.4,21.2l-0.7-0.6c0.1,0,0.2,0,0.3,0c0.1,0,0.2,0,0.2-0.1
		c0.1,0,0.1-0.1,0.1-0.2c0-0.1,0-0.2,0-0.3v-0.1c0-0.1,0-0.2,0-0.3c0-0.1-0.1-0.1-0.1-0.2c0,0-0.1-0.1-0.2-0.1c-0.1,0-0.2,0-0.3,0
		h-1.6v1.9h0.4v-0.6h0.6l0.7,0.6H74.4L74.4,21.2z M74,20c0,0.1,0,0.1,0,0.2c0,0-0.1,0.1-0.1,0.1h-1.2v-0.6h1.2c0.1,0,0.1,0,0.2,0.1
		C74,19.7,74,19.8,74,20L74,20L74,20z"/>
	<g>
		<path class="st0" d="M17.4,12.4c0-0.3-0.1-0.6-0.1-0.9c-0.1-0.4-0.1-0.8-0.2-1.1C16.6,10,16,9.7,15.3,9.4c-0.2-0.1-0.3-0.1-0.4,0
			c-0.1,0.1-0.1,0.2-0.1,0.3c0,0.6,0,1.3,0,2.1c0,0.1,0,0.2,0,0.3c0.8,0.2,1.6,0.5,2.3,0.7c0.1,0,0.2,0,0.3,0
			C17.4,12.7,17.4,12.6,17.4,12.4z"/>
		<path class="st0" d="M14.2,9c0-0.3-0.4-0.7-0.9-0.8c-1-0.3-2.1-0.4-3.1-0.4C9.9,8.3,9.7,9.1,9.5,10c-0.1,0.5,0.3,1,0.9,1.1
			c1.3,0.2,2.5,0.4,3.7,0.7c0,0,0.1,0,0.1,0c0,0,0,0,0-0.1C14.2,10.8,14.2,9.8,14.2,9z"/>
		<path class="st0" d="M13.1,12.3c-0.9-0.2-1.9-0.4-2.9-0.5c-0.3,0-0.6,0-0.8,0.2C9.2,12.1,9,12.3,9,12.6c-0.1,0.7-0.2,1.5-0.3,2.2
			c-0.1,0.6-0.1,1.2-0.2,1.8c1.3,0.3,2.6,0.6,3.9,0.8c0.3,0,0.6,0,0.8-0.2c0.2-0.2,0.4-0.4,0.4-0.7c0.2-1.3,0.4-2.7,0.5-4
			C13.8,12.4,13.4,12.4,13.1,12.3z"/>
		<path class="st0" d="M17.5,13.5c-0.7-0.3-1.7-0.6-2.7-0.9c-0.1,1.3-0.2,2.6-0.5,3.9c-0.1,0.6,0.2,1.1,0.8,1.2
			c0.9,0.1,1.7,0.1,2.3,0c0.3-0.9,0.5-2,0.6-3C18,14.2,17.8,13.7,17.5,13.5z"/>
	</g>
</g>
</svg>
