<?xml version="1.0" encoding="utf-8"?>
<!-- Generator: Adobe Illustrator 24.2.0, SVG Export Plug-In . SVG Version: 6.00 Build 0)  -->
<svg version="1.1" id="Layer_1" xmlns="http://www.w3.org/2000/svg" xmlns:xlink="http://www.w3.org/1999/xlink" x="0px" y="0px"
	 viewBox="0 0 485.5 61.1" style="enable-background:new 0 0 485.5 61.1;" xml:space="preserve">
<style type="text/css">
	.st0{fill:#041D3C;}
	.st1{fill:#FFFFFF;}
	.st2{fill:#EC2227;}
	.st3{fill:#77797C;}
</style>
<g>
	<g>
		<path class="st1" d="M39.3,28.8h-8.6v3.3h8.6c0.2,0,0.4-0.1,0.6-0.2c0.2-0.2,0.2-0.4,0.2-0.6v-1.6c0-0.2-0.1-0.4-0.2-0.6
			C39.8,28.9,39.6,28.8,39.3,28.8z"/>
		<path class="st1" d="M40.9,10.8H30.6v7.8h10.4c0.2,0,0.4-0.1,0.6-0.2c0.2-0.2,0.2-0.4,0.2-0.6v-6.1c0-0.2-0.1-0.4-0.2-0.6
			S41.2,10.8,40.9,10.8z"/>
		<path class="st1" d="M43.8,0.1H8.1C3.6,0.1,0,3.7,0,8.2v31.1c0,4.5,3.6,8.1,8.1,8.1h35.7c4.5,0,8.1-3.6,8.1-8.1V8.2
			C51.9,3.7,48.3,0.1,43.8,0.1z M23,40.8h-4.1v-6.1h-8.2v6.1H6.5v-16h4.1v5.9h8.2v-5.9H23V40.8z M23.3,19.7c-0.5,1-1.3,1.8-2.4,2.3
			c-1,0.4-2,0.6-3.3,0.6h-11v-4.1h11.6c0.8,0,1.2-0.3,1.2-0.9c0-0.3-0.1-0.5-0.4-0.7c-0.2-0.2-0.5-0.3-0.9-0.3h-6.1
			c-2.7,0-4.5-0.9-5.5-2.8c-0.3-0.7-0.5-1.4-0.5-2.2c0-0.8,0.2-1.5,0.5-2.1c0.5-1,1.3-1.7,2.4-2.2c0.9-0.4,2-0.6,3.2-0.6h11v4.1
			H11.5c-0.4,0-0.7,0.1-0.9,0.3s-0.4,0.4-0.4,0.7c0,0.3,0.1,0.5,0.4,0.7c0.3,0.2,0.6,0.3,0.9,0.3h6.1c2.8,0,4.7,1,5.7,2.9
			c0.3,0.7,0.5,1.3,0.5,2.1C23.8,18.4,23.6,19.1,23.3,19.7z M44.3,31.2c0,1.4-0.5,2.5-1.5,3.5c-1,0.9-2.1,1.4-3.5,1.4h-8.6v4.7h-4.1
			v-16h12.8c1.4,0,2.5,0.5,3.5,1.5c1,1,1.5,2.1,1.5,3.5V31.2z M45.9,17.7c0,1.4-0.5,2.5-1.5,3.5c-1,1-2.1,1.4-3.5,1.4H26.4v-16h14.5
			c1.4,0,2.5,0.5,3.5,1.4c1,1,1.5,2.1,1.5,3.5V17.7z"/>
	</g>
	<g>
		<g>
			<path class="st1" d="M484,36.3c-1.3-2.5-3.7-3.7-7.4-3.7h-7.8c-0.5,0-0.9-0.1-1.2-0.4c-0.3-0.2-0.5-0.6-0.5-0.9s0.2-0.7,0.5-0.9
				c0.3-0.2,0.7-0.3,1.2-0.3h14.9v-5.3h-14.1c-1.5,0-2.9,0.3-4.1,0.8c-1.4,0.6-2.4,1.6-3.1,2.9c-0.4,0.9-0.7,1.8-0.7,2.7
				c0,1,0.2,1.9,0.7,2.8c1.3,2.4,3.6,3.6,7.1,3.6h7.9c0.4,0,0.8,0.1,1.1,0.4c0.3,0.3,0.5,0.6,0.5,1c0,0.8-0.5,1.2-1.6,1.2h-15v5.3
				h14.2c1.6,0,3-0.3,4.2-0.8c1.4-0.7,2.5-1.6,3.2-3c0.4-0.8,0.6-1.7,0.6-2.7C484.6,38,484.4,37.2,484,36.3 M459.4,24.8h-5.3v13.8
				c-0.4-0.6-0.8-1.1-1.3-1.6l-11.4-12.2h-5.6v20.6h5.3V31.9c0.4,0.6,0.9,1.2,1.4,1.7l10.7,11.8h6.2V24.8z M418.1,35.7
				c1.4-2.5,2.3-4.4,2.7-5.7c0.3,0.9,0.8,1.8,1.3,2.9c0.3,0.6,0.8,1.6,1.5,2.8H418.1z M423.9,24.8h-6l-10.9,20.6h6.2l2.2-4.4h11.1
				l2.2,4.4h6.2L423.9,24.8z M406.6,40.2h-15.2V24.8h-5.3v20.6h20.5V40.2z M378.5,33.9c-0.2,0.2-0.5,0.3-0.8,0.3h-11.2v-4.2h11.2
				c0.3,0,0.6,0.1,0.8,0.3c0.2,0.2,0.3,0.5,0.3,0.8v2C378.9,33.5,378.8,33.7,378.5,33.9 M384.2,31.2c0-1.8-0.6-3.3-1.9-4.5
				c-1.3-1.3-2.8-1.9-4.5-1.9h-16.5v20.6h5.3v-6h11.2c1.8,0,3.3-0.6,4.5-1.8c1.3-1.2,1.9-2.7,1.9-4.5V31.2z"/>
			<path class="st1" d="M348.7,24.8h-5.3v7.7h-10.6v-7.7h-5.3v20.6h5.3v-7.8h10.6v7.8h5.3V24.8z M325.2,24.8h-20v5.3h7.3v15.4h5.3
				V30.1h7.4V24.8z M308.8,40.2h-15.2V24.8h-5.3v20.6h20.5V40.2z M270.7,35.7c1.4-2.5,2.3-4.4,2.7-5.7c0.3,0.9,0.8,1.8,1.3,2.9
				c0.3,0.6,0.8,1.6,1.5,2.8H270.7z M276.5,24.8h-6l-10.9,20.6h6.2l2.2-4.4H279l2.2,4.4h6.2L276.5,24.8z M258.5,40.2h-15.4v-2.5h15
				v-5.2h-15v-2.4h15.4v-5.3h-20.8v20.6h20.8V40.2z M235.2,24.8h-5.3v7.7h-10.6v-7.7h-5.3v20.6h5.3v-7.8h10.6v7.8h5.3V24.8z"/>
			<path class="st1" d="M202.3,40.2h-15.2V24.8h-5.3v20.6h20.5V40.2z M164.2,35.7c1.4-2.5,2.3-4.4,2.7-5.7c0.3,0.9,0.8,1.8,1.3,2.9
				c0.3,0.6,0.8,1.6,1.5,2.8H164.2z M170,24.8h-6L153,45.4h6.2l2.2-4.4h11.1l2.2,4.4h6.2L170,24.8z M156.2,24.8h-20v5.3h7.3v15.4
				h5.3V30.1h7.4V24.8z M134,24.8h-5.3v13.8c-0.4-0.6-0.8-1.1-1.3-1.6L116,24.8h-5.6v20.6h5.3V31.9c0.4,0.6,0.9,1.2,1.4,1.7
				l10.7,11.8h6.2V24.8z M108,40.2H92.5v-2.5h15v-5.2h-15v-2.4H108v-5.3H87.2v20.6H108V40.2z M79.1,39.8c-0.2,0.2-0.5,0.3-0.8,0.3
				H64.9V30.1h13.4c0.3,0,0.5,0.1,0.8,0.3c0.2,0.2,0.3,0.5,0.3,0.8V39C79.4,39.4,79.3,39.6,79.1,39.8 M84.7,31.2
				c0-1.8-0.6-3.3-1.9-4.5c-1.3-1.2-2.8-1.9-4.5-1.9H59.6v20.6h18.7c1.8,0,3.3-0.6,4.5-1.9c1.3-1.2,1.9-2.7,1.9-4.5V31.2z"/>
		</g>
		<path class="st1" d="M175.3,11.6c-1.3-2.5-3.7-3.7-7.4-3.7h-7.8c-0.5,0-0.9-0.1-1.2-0.4c-0.3-0.2-0.5-0.6-0.5-0.9
			c0-0.4,0.2-0.7,0.5-0.9c0.3-0.2,0.7-0.3,1.2-0.3h14.9V0.1h-14.1c-1.5,0-2.9,0.3-4.1,0.8c-1.4,0.6-2.4,1.6-3.1,2.9
			c-0.4,0.9-0.7,1.8-0.7,2.7c0,1,0.2,1.9,0.7,2.8c1.3,2.4,3.6,3.6,7.1,3.6h7.9c0.4,0,0.8,0.1,1.1,0.4c0.3,0.3,0.5,0.6,0.5,1
			c0,0.8-0.5,1.2-1.6,1.2h-15v5.3h14.2c1.6,0,3-0.3,4.2-0.8c1.4-0.7,2.5-1.6,3.2-3c0.4-0.8,0.6-1.7,0.6-2.7
			C175.9,13.3,175.7,12.4,175.3,11.6"/>
		<path class="st1" d="M150.8,11.6c-1.3-2.5-3.7-3.7-7.4-3.7h-7.8c-0.5,0-0.9-0.1-1.2-0.4c-0.3-0.2-0.5-0.6-0.5-0.9
			c0-0.4,0.2-0.7,0.5-0.9c0.3-0.2,0.7-0.3,1.2-0.3h14.9V0.1h-14.1c-1.5,0-2.9,0.3-4.1,0.8c-1.4,0.6-2.4,1.6-3.1,2.9
			c-0.4,0.9-0.7,1.8-0.7,2.7c0,1,0.2,1.9,0.7,2.8c1.3,2.4,3.6,3.6,7.1,3.6h7.9c0.4,0,0.8,0.1,1.1,0.4c0.3,0.3,0.5,0.6,0.5,1
			c0,0.8-0.5,1.2-1.6,1.2h-15v5.3h14.2c1.6,0,3-0.3,4.2-0.8c1.4-0.7,2.5-1.6,3.2-3c0.4-0.8,0.6-1.7,0.6-2.7
			C151.4,13.3,151.2,12.4,150.8,11.6"/>
		<rect x="120.9" y="0.1" class="st1" width="5.3" height="20.6"/>
		<path class="st1" d="M113.8,0.1l-3.5,11.3c-0.6,1.7-1.1,3-1.4,3.9c-0.5-1.7-0.9-3-1.2-3.9L104,0.1h-5.6l-3.6,11.3
			c-0.6,1.8-1,3.1-1.2,3.9c-0.6-1.7-1.1-3-1.4-3.9L88.8,0.1h-6.1l8.1,20.6h5.8l4.8-12.5l4.7,12.5h5.8l8.1-20.6H113.8z"/>
		<path class="st1" d="M81.2,11.6c-1.3-2.5-3.7-3.7-7.4-3.7H66c-0.5,0-0.9-0.1-1.2-0.4c-0.3-0.2-0.5-0.6-0.5-0.9
			c0-0.4,0.2-0.7,0.5-0.9c0.3-0.2,0.7-0.3,1.2-0.3h14.9V0.1H66.7c-1.5,0-2.9,0.3-4.1,0.8c-1.4,0.6-2.4,1.6-3.1,2.9
			c-0.4,0.9-0.7,1.8-0.7,2.7c0,1,0.2,1.9,0.7,2.8c1.3,2.4,3.6,3.6,7.1,3.6h7.9c0.4,0,0.8,0.1,1.1,0.4c0.3,0.3,0.5,0.6,0.5,1
			c0,0.8-0.5,1.2-1.6,1.2h-15v5.3h14.2c1.6,0,3-0.3,4.2-0.8c1.4-0.7,2.5-1.6,3.2-3c0.4-0.8,0.6-1.7,0.6-2.7
			C81.8,13.3,81.6,12.4,81.2,11.6"/>
		<g>
			<path class="st1" d="M304.3,61.2v-9.4h-1.8v3.8h-5.7v-3.8h-1.8v9.4h1.8v-3.9h5.7v3.9H304.3z M289.6,61.2v-7.6h3.5v-1.9h-8.8v1.9
				h3.5v7.6H289.6z M284.7,61.2v-1.9h-7.2v-7.6h-1.9v9.4H284.7z M269.9,57.5h-4.3l2.2-3.9L269.9,57.5z M273.9,61.2l-5.2-9.4h-2
				l-5.2,9.4h2.1l1.2-2.2h5.8l1.2,2.2H273.9z M260,61.2v-1.9h-7.3v-2.1h7.1v-1.5h-7.1v-2.1h7.3v-1.9h-9.2v9.4H260z M248.5,61.2v-9.4
				h-1.8v3.8H241v-3.8h-1.8v9.4h1.8v-3.9h5.7v3.9H248.5z"/>
			<path class="st1" d="M232.3,61.2v-1.9h-7.2v-7.6h-1.9v9.4H232.3z M217.6,57.5h-4.3l2.2-3.9L217.6,57.5z M221.6,61.2l-5.2-9.4h-2
				l-5.2,9.4h2.1l1.2-2.2h5.8l1.2,2.2H221.6z M206.3,61.2v-7.6h3.5v-1.9h-8.8v1.9h3.5v7.6H206.3z M199.1,61.2v-9.4h-1.8v6.8
				l-6.5-6.8h-2v9.4h1.8v-7l6.7,7H199.1z M186.6,61.2v-1.9h-7.3v-2.1h7.1v-1.5h-7.1v-2.1h7.3v-1.9h-9.2v9.4H186.6z M173.2,58.1
				c0,0.5-0.1,0.8-0.2,0.9c-0.2,0.2-0.5,0.2-0.9,0.2H166v-5.7h6.1c0.4,0,0.7,0.1,0.9,0.3c0.2,0.2,0.2,0.5,0.2,1V58.1z M172.1,61.2
				c0.6,0,1.1-0.1,1.5-0.2c0.4-0.1,0.7-0.3,0.9-0.5c0.2-0.2,0.4-0.6,0.5-0.9c0.1-0.4,0.1-0.9,0.1-1.5v-3.3c0-0.6,0-1.1-0.1-1.4
				c-0.1-0.4-0.3-0.7-0.5-0.9c-0.2-0.2-0.5-0.4-0.9-0.5c-0.4-0.1-0.9-0.2-1.5-0.2h-8v9.4H172.1z"/>
			<path class="st1" d="M156.9,57.4v-1.6H150v-2.2h7.1v-1.9h-9v9.4h1.9v-3.8H156.9z M143.9,58.1c0,0.5-0.1,0.8-0.2,0.9
				c-0.2,0.2-0.5,0.2-0.9,0.2h-5c-0.2,0-0.4,0-0.5-0.1c-0.1,0-0.3-0.1-0.3-0.2c-0.1-0.1-0.2-0.2-0.2-0.4c0-0.2-0.1-0.3-0.1-0.6v-3.3
				c0-0.5,0.1-0.8,0.2-1c0.2-0.2,0.5-0.3,0.9-0.3h5c0.4,0,0.7,0.1,0.9,0.3c0.2,0.2,0.2,0.5,0.2,1V58.1z M142.8,61.2
				c0.6,0,1-0.1,1.4-0.2c0.4-0.1,0.7-0.3,0.9-0.5c0.2-0.2,0.4-0.6,0.5-0.9c0.1-0.4,0.1-0.9,0.1-1.5v-3.3c0-0.6,0-1.1-0.1-1.5
				c-0.1-0.4-0.3-0.7-0.5-0.9c-0.2-0.2-0.5-0.4-0.9-0.5c-0.4-0.1-0.9-0.2-1.4-0.2h-5c-0.6,0-1.1,0.1-1.4,0.2
				c-0.4,0.1-0.7,0.3-0.9,0.5c-0.2,0.2-0.4,0.6-0.5,0.9c-0.1,0.4-0.1,0.9-0.1,1.5v3.3c0,0.6,0,1.1,0.1,1.5c0.1,0.4,0.3,0.7,0.5,0.9
				c0.2,0.2,0.5,0.4,0.9,0.5c0.4,0.1,0.9,0.2,1.4,0.2H142.8z"/>
			<polygon class="st1" points="127.5,61.2 127.5,51.7 125.5,51.7 121.9,59.3 118.3,51.7 116.3,51.7 116.3,61.2 118,61.2 118,55 
				121,61.2 122.7,61.2 125.7,55 125.7,61.2 			"/>
			<polygon class="st1" points="114.1,61.2 114.1,59.3 106.8,59.3 106.8,57.2 113.9,57.2 113.9,55.7 106.8,55.7 106.8,53.6 
				114.1,53.6 114.1,51.7 104.9,51.7 104.9,61.2 			"/>
			<polygon class="st1" points="99.6,61.2 99.6,53.6 103.1,53.6 103.1,51.7 94.3,51.7 94.3,53.6 97.8,53.6 97.8,61.2 			"/>
			<path class="st1" d="M92.7,58.1c0-0.4-0.1-0.8-0.2-1.1c-0.1-0.3-0.3-0.6-0.5-0.8c-0.2-0.2-0.6-0.3-1-0.4
				c-0.4-0.1-0.9-0.1-1.5-0.1h-3.8c-0.5,0-0.8-0.1-0.9-0.2c-0.2-0.2-0.2-0.4-0.2-0.8c0-0.4,0.1-0.6,0.2-0.8s0.5-0.2,0.9-0.2h6.4
				c0-0.3,0.1-0.6,0.1-0.9c0-0.3,0.1-0.6,0.1-0.9h-6.7c-0.6,0-1.1,0.1-1.5,0.2c-0.4,0.1-0.7,0.3-1,0.5c-0.2,0.2-0.4,0.5-0.5,0.8
				c-0.1,0.3-0.2,0.7-0.2,1.2v0.3c0,0.4,0.1,0.8,0.2,1.1c0.1,0.3,0.3,0.6,0.5,0.8c0.2,0.2,0.5,0.4,0.9,0.5c0.4,0.1,0.9,0.2,1.4,0.2
				h3.9c0.5,0,0.8,0.1,1,0.2s0.3,0.4,0.3,0.8c0,0.2,0,0.4-0.1,0.5c0,0.1-0.1,0.2-0.2,0.3c-0.1,0.1-0.2,0.1-0.4,0.2
				c-0.2,0-0.4,0-0.6,0H83c0,0.3,0,0.6-0.1,0.9c0,0.3,0,0.6-0.1,0.9h6.7c0.6,0,1,0,1.4-0.1c0.4-0.1,0.7-0.3,1-0.5
				c0.2-0.2,0.4-0.5,0.5-0.8c0.1-0.3,0.2-0.8,0.2-1.3V58.1z"/>
			<polygon class="st1" points="77,61.2 77,57.7 81.6,51.7 79.4,51.7 76.1,56.1 72.8,51.7 70.7,51.7 75.1,57.7 75.1,61.2 			"/>
			<path class="st1" d="M69.4,58.1c0-0.4-0.1-0.8-0.2-1.1c-0.1-0.3-0.3-0.6-0.5-0.8c-0.3-0.2-0.6-0.3-1-0.4
				c-0.4-0.1-0.9-0.1-1.5-0.1h-3.8c-0.5,0-0.8-0.1-0.9-0.2c-0.2-0.2-0.2-0.4-0.2-0.8c0-0.4,0.1-0.6,0.2-0.8c0.2-0.2,0.5-0.2,0.9-0.2
				h6.5c0-0.3,0.1-0.6,0.1-0.9c0-0.3,0.1-0.6,0.1-0.9h-6.7c-0.6,0-1.1,0.1-1.5,0.2c-0.4,0.1-0.7,0.3-0.9,0.5
				c-0.2,0.2-0.4,0.5-0.5,0.8c-0.1,0.3-0.2,0.7-0.2,1.2v0.3c0,0.4,0.1,0.8,0.2,1.1c0.1,0.3,0.3,0.6,0.5,0.8c0.2,0.2,0.5,0.4,0.9,0.5
				c0.4,0.1,0.9,0.2,1.4,0.2h3.9c0.5,0,0.8,0.1,1,0.2c0.2,0.2,0.3,0.4,0.3,0.8c0,0.2,0,0.4-0.1,0.5c0,0.1-0.1,0.2-0.2,0.3
				c-0.1,0.1-0.2,0.1-0.4,0.2c-0.2,0-0.4,0-0.6,0h-6.5c0,0.3,0,0.6-0.1,0.9c0,0.3,0,0.6-0.1,0.9h6.7c0.6,0,1,0,1.4-0.1
				c0.4-0.1,0.7-0.3,1-0.5c0.2-0.2,0.4-0.5,0.5-0.8c0.1-0.3,0.2-0.8,0.2-1.3V58.1z"/>
		</g>
	</g>
</g>
</svg>
