<?xml version="1.0" encoding="utf-8"?>
<!-- Generator: Adobe Illustrator 24.1.2, SVG Export Plug-In . SVG Version: 6.00 Build 0)  -->
<svg version="1.1" id="Layer_1" xmlns="http://www.w3.org/2000/svg" xmlns:xlink="http://www.w3.org/1999/xlink" x="0px" y="0px"
	 viewBox="0 0 85 28.3" style="enable-background:new 0 0 85 28.3;" xml:space="preserve">
<style type="text/css">
	.st0{fill:#B4B4B5;}
</style>
<g>
	<path class="st0" d="M76.5,13.5h-1v2.6c-0.1-0.1-0.2-0.2-0.2-0.3l-2.1-2.3h-1.1v3.9h1v-2.6c0.1,0.1,0.2,0.2,0.3,0.3l2,2.2h1.2V13.5
		z M70.6,16.3c0,0-0.1,0.1-0.1,0.1h-2.3c-0.1,0-0.1,0-0.1-0.1c0,0-0.1-0.1-0.1-0.1v-1.5c0-0.1,0-0.1,0.1-0.1c0,0,0.1-0.1,0.1-0.1
		h2.3c0.1,0,0.1,0,0.1,0.1c0,0,0.1,0.1,0.1,0.1v1.5C70.6,16.3,70.6,16.3,70.6,16.3 M71.6,14.7c0-0.3-0.1-0.6-0.4-0.9
		c-0.2-0.2-0.5-0.4-0.9-0.4h-2.3c-0.3,0-0.6,0.1-0.9,0.4c-0.2,0.2-0.4,0.5-0.4,0.9v1.5c0,0.3,0.1,0.6,0.4,0.9
		c0.2,0.2,0.5,0.4,0.9,0.4h2.3c0.3,0,0.6-0.1,0.9-0.4c0.2-0.2,0.4-0.5,0.4-0.9V14.7z M66.4,13.5h-1v3.9h1V13.5z M65,13.5h-3.8v1h1.4
		v2.9h1v-2.9H65V13.5z M59,15.6c0.3-0.5,0.4-0.8,0.5-1.1c0.1,0.2,0.1,0.3,0.2,0.5c0.1,0.1,0.2,0.3,0.3,0.5H59z M60,13.5h-1.1
		l-2.1,3.9H58l0.4-0.8h2.1l0.4,0.8h1.2L60,13.5z M56,16.1c-0.1,0.2-0.3,0.3-0.3,0.3h-2.4c-0.1,0-0.1,0-0.1-0.1c0,0-0.1-0.1-0.1-0.1
		v-1.5c0-0.1,0-0.1,0.1-0.1c0,0,0.1-0.1,0.1-0.1h2.4c0.1,0,0.1,0.1,0.2,0.2l0.9-0.6c-0.1-0.2-0.2-0.3-0.4-0.4
		c-0.2-0.1-0.4-0.1-0.6-0.1h-2.4c-0.3,0-0.6,0.1-0.8,0.4c-0.2,0.2-0.4,0.5-0.4,0.9v1.5c0,0.3,0.1,0.6,0.4,0.9
		c0.2,0.2,0.5,0.4,0.8,0.4h2.4c0.2,0,0.4-0.1,0.6-0.2c0.2-0.1,0.4-0.2,0.5-0.4L56,16.1z M51.7,13.5h-1v2.7c0,0.1,0,0.1-0.1,0.1
		c0,0-0.1,0.1-0.1,0.1h-2.1c-0.1,0-0.1,0-0.1-0.1c0,0-0.1-0.1-0.1-0.1v-2.7h-1v2.7c0,0.3,0.1,0.6,0.4,0.9c0.2,0.2,0.5,0.4,0.9,0.4
		h2.1c0.3,0,0.6-0.1,0.8-0.4c0.2-0.2,0.4-0.5,0.4-0.9V13.5z M45.6,16.3c0,0-0.1,0.1-0.1,0.1H43v-1.9h2.5c0.1,0,0.1,0,0.1,0.1
		c0,0,0.1,0.1,0.1,0.1v1.5C45.7,16.3,45.7,16.3,45.6,16.3 M46.7,14.7c0-0.3-0.1-0.6-0.4-0.9c-0.2-0.2-0.5-0.4-0.8-0.4H42v3.9h3.5
		c0.3,0,0.6-0.1,0.8-0.4c0.2-0.2,0.4-0.5,0.4-0.9V14.7z M41.5,16.4h-2.9v-0.5h2.8v-1h-2.8v-0.5h2.9v-1h-3.9v3.9h3.9V16.4z
		 M35.4,16.4h-2.9v-2.9h-1v3.9h3.9V16.4z M28.3,15.6c0.3-0.5,0.4-0.8,0.5-1.1c0.1,0.2,0.1,0.3,0.2,0.5c0.1,0.1,0.2,0.3,0.3,0.5H28.3
		z M29.4,13.5h-1.1l-2.1,3.9h1.2l0.4-0.8h2.1l0.4,0.8h1.2L29.4,13.5z M26.8,13.5H23v1h1.4v2.9h1v-2.9h1.4V13.5z M22.6,13.5h-1v2.6
		c-0.1-0.1-0.2-0.2-0.2-0.3l-2.1-2.3h-1.1v3.9h1v-2.6c0.1,0.1,0.2,0.2,0.3,0.3l2,2.2h1.2V13.5z M17.7,16.4h-2.9v-0.5h2.8v-1h-2.8
		v-0.5h2.9v-1h-3.9v3.9h3.9V16.4z M12.3,16.3c0,0-0.1,0.1-0.1,0.1H9.6v-1.9h2.5c0.1,0,0.1,0,0.1,0.1c0,0,0.1,0.1,0.1,0.1v1.5
		C12.4,16.3,12.3,16.3,12.3,16.3 M13.4,14.7c0-0.3-0.1-0.6-0.4-0.9c-0.2-0.2-0.5-0.4-0.8-0.4H8.6v3.9h3.5c0.3,0,0.6-0.1,0.8-0.4
		c0.2-0.2,0.4-0.5,0.4-0.9V14.7z"/>
	<path class="st0" d="M30.4,11c-0.2-0.5-0.7-0.7-1.4-0.7h-1.5c-0.1,0-0.2,0-0.2-0.1c-0.1,0-0.1-0.1-0.1-0.2c0-0.1,0-0.1,0.1-0.2
		c0.1,0,0.1-0.1,0.2-0.1h2.8v-1h-2.7c-0.3,0-0.5,0.1-0.8,0.2c-0.3,0.1-0.4,0.3-0.6,0.5c-0.1,0.2-0.1,0.3-0.1,0.5
		c0,0.2,0,0.4,0.1,0.5c0.2,0.5,0.7,0.7,1.3,0.7h1.5c0.1,0,0.2,0,0.2,0.1c0.1,0,0.1,0.1,0.1,0.2c0,0.2-0.1,0.2-0.3,0.2h-2.8v1H29
		c0.3,0,0.6-0.1,0.8-0.2c0.3-0.1,0.5-0.3,0.6-0.6c0.1-0.2,0.1-0.3,0.1-0.5C30.5,11.3,30.5,11.1,30.4,11 M25.8,11
		c-0.2-0.5-0.7-0.7-1.4-0.7h-1.5c-0.1,0-0.2,0-0.2-0.1s-0.1-0.1-0.1-0.2c0-0.1,0-0.1,0.1-0.2c0.1,0,0.1-0.1,0.2-0.1h2.8v-1h-2.7
		c-0.3,0-0.5,0.1-0.8,0.2c-0.3,0.1-0.4,0.3-0.6,0.5c-0.1,0.2-0.1,0.3-0.1,0.5c0,0.2,0,0.4,0.1,0.5c0.2,0.5,0.7,0.7,1.3,0.7h1.5
		c0.1,0,0.2,0,0.2,0.1c0.1,0,0.1,0.1,0.1,0.2c0,0.2-0.1,0.2-0.3,0.2h-2.8v1h2.7c0.3,0,0.6-0.1,0.8-0.2c0.3-0.1,0.5-0.3,0.6-0.6
		c0.1-0.2,0.1-0.3,0.1-0.5C25.9,11.3,25.9,11.1,25.8,11 M21.2,8.8h-1v3.9h1V8.8z M18.8,8.8l-0.7,2.1c-0.1,0.3-0.2,0.6-0.3,0.7
		c-0.1-0.3-0.2-0.6-0.2-0.7L17,8.8H16l-0.7,2.1c-0.1,0.3-0.2,0.6-0.2,0.7c-0.1-0.3-0.2-0.6-0.3-0.7l-0.7-2.1H13l1.5,3.9h1.1l0.9-2.4
		l0.9,2.4h1.1L20,8.8H18.8z M12.7,11c-0.2-0.5-0.7-0.7-1.4-0.7H9.8c-0.1,0-0.2,0-0.2-0.1c-0.1,0-0.1-0.1-0.1-0.2
		c0-0.1,0-0.1,0.1-0.2c0.1,0,0.1-0.1,0.2-0.1h2.8v-1H10c-0.3,0-0.5,0.1-0.8,0.2C8.9,9.1,8.8,9.2,8.6,9.5C8.5,9.7,8.5,9.8,8.5,10
		c0,0.2,0,0.4,0.1,0.5c0.2,0.5,0.7,0.7,1.3,0.7h1.5c0.1,0,0.2,0,0.2,0.1c0.1,0,0.1,0.1,0.1,0.2c0,0.2-0.1,0.2-0.3,0.2H8.6v1h2.7
		c0.3,0,0.6-0.1,0.8-0.2c0.3-0.1,0.5-0.3,0.6-0.6c0.1-0.2,0.1-0.3,0.1-0.5C12.8,11.3,12.8,11.1,12.7,11"/>
	<path class="st0" d="M49.2,20.4V20h-1.4v-0.4h1.3v-0.3h-1.3V19h1.4v-0.4h-1.7v1.8H49.2z M47.1,20.4v-1h-1v0.3h0.7v0.2
		c0,0.1,0,0.1-0.1,0.1c0,0-0.1,0-0.2,0h-0.8c0,0-0.1,0-0.1,0c0,0,0,0-0.1,0c0,0,0,0,0-0.1c0,0,0-0.1,0-0.1v-0.6c0-0.1,0-0.1,0-0.2
		c0,0,0.1,0,0.2,0h0.9c0.1,0,0.1,0,0.2,0c0,0,0.1,0.1,0.1,0.1l0.2-0.2c0,0,0-0.1,0-0.1c0,0,0-0.1-0.1-0.1c0,0-0.1,0-0.1-0.1
		c0,0-0.1,0-0.2,0h-0.9c-0.1,0-0.2,0-0.3,0c-0.1,0-0.1,0.1-0.2,0.1c0,0-0.1,0.1-0.1,0.2c0,0.1,0,0.2,0,0.3v0.6c0,0.1,0,0.2,0,0.3
		c0,0.1,0,0.1,0.1,0.2c0,0,0.1,0.1,0.2,0.1c0.1,0,0.2,0,0.3,0h0.8c0.1,0,0.1,0,0.1,0c0,0,0.1,0,0.1-0.1c0,0,0.1,0,0.1-0.1
		c0,0,0-0.1,0-0.1l0,0.2H47.1z M44.3,19.8c0,0.1,0,0.1,0,0.2c0,0-0.1,0-0.2,0h-1.2V19h1.2c0.1,0,0.1,0,0.2,0c0,0,0,0.1,0,0.2V19.8z
		 M44.1,20.4c0.1,0,0.2,0,0.3,0c0.1,0,0.1-0.1,0.2-0.1c0,0,0.1-0.1,0.1-0.2c0-0.1,0-0.2,0-0.3v-0.6c0-0.1,0-0.2,0-0.3
		c0-0.1,0-0.1-0.1-0.2c0,0-0.1-0.1-0.2-0.1c-0.1,0-0.2,0-0.3,0h-1.5v1.8H44.1z M42.2,20.4V20h-1.4v-0.4h1.3v-0.3h-1.3V19h1.4v-0.4
		h-1.7v1.8H42.2z M40.1,20.4V20h-1.3v-1.4h-0.4v1.8H40.1z M37.4,20.4l0.7-1.8h-0.4L37.2,20l-0.5-1.4h-0.4L35.9,20l-0.5-1.4H35
		l0.7,1.8h0.4l0.5-1.3l0.5,1.3H37.4z M34.5,19.8c0,0.1,0,0.1,0,0.2c0,0-0.1,0-0.2,0h-0.9c0,0-0.1,0-0.1,0c0,0,0,0-0.1,0
		c0,0,0,0,0-0.1c0,0,0-0.1,0-0.1v-0.6c0-0.1,0-0.1,0-0.2c0,0,0.1,0,0.2,0h0.9c0.1,0,0.1,0,0.2,0c0,0,0,0.1,0,0.2V19.8z M34.3,20.4
		c0.1,0,0.2,0,0.3,0c0.1,0,0.1-0.1,0.2-0.1c0,0,0.1-0.1,0.1-0.2c0-0.1,0-0.2,0-0.3v-0.6c0-0.1,0-0.2,0-0.3c0-0.1,0-0.1-0.1-0.2
		c0,0-0.1-0.1-0.2-0.1c-0.1,0-0.2,0-0.3,0h-0.9c-0.1,0-0.2,0-0.3,0c-0.1,0-0.1,0.1-0.2,0.1c0,0-0.1,0.1-0.1,0.2c0,0.1,0,0.2,0,0.3
		v0.6c0,0.1,0,0.2,0,0.3c0,0.1,0,0.1,0.1,0.2c0,0,0.1,0.1,0.2,0.1c0.1,0,0.2,0,0.3,0H34.3z M32.3,20.4v-1.8H32v1.3l-1.2-1.3h-0.4
		v1.8h0.3v-1.3l1.3,1.3H32.3z M30.1,20.4l-1-0.9l1-0.9h-0.5l-1.2,1.1v-1.1H28v1.8h0.4v-0.2l0.5-0.5l0.7,0.7H30.1z M25.9,20.4v-0.7
		l0.9-1.1h-0.4l-0.6,0.8l-0.6-0.8h-0.4l0.8,1.1v0.7H25.9z M24.1,19.3c0,0.1,0,0.1,0,0.2c0,0-0.1,0-0.1,0h-1.1V19H24
		c0.1,0,0.1,0,0.1,0.1C24.1,19.1,24.1,19.1,24.1,19.3L24.1,19.3z M24.5,20.4l-0.7-0.6c0.1,0,0.2,0,0.3,0c0.1,0,0.1,0,0.2-0.1
		c0,0,0.1-0.1,0.1-0.2c0-0.1,0-0.2,0-0.3v-0.1c0-0.1,0-0.2,0-0.3c0-0.1,0-0.1-0.1-0.2c0,0-0.1-0.1-0.2-0.1c-0.1,0-0.1,0-0.2,0h-1.5
		v1.8h0.4v-0.6h0.6l0.6,0.6H24.5z M21.5,20.4V19h0.7v-0.4h-1.7V19h0.7v1.4H21.5z M20.2,19.8c0-0.1,0-0.1,0-0.2
		c0-0.1-0.1-0.1-0.1-0.1c0,0-0.1-0.1-0.2-0.1c-0.1,0-0.2,0-0.3,0h-0.7c-0.1,0-0.1,0-0.2,0c0,0,0-0.1,0-0.2c0-0.1,0-0.1,0-0.2
		c0,0,0.1,0,0.2,0h1.2c0-0.1,0-0.1,0-0.2c0-0.1,0-0.1,0-0.2h-1.3c-0.1,0-0.2,0-0.3,0c-0.1,0-0.1,0-0.2,0.1c0,0-0.1,0.1-0.1,0.2
		c0,0.1,0,0.1,0,0.2v0.1c0,0.1,0,0.2,0,0.2c0,0.1,0.1,0.1,0.1,0.2c0,0,0.1,0.1,0.2,0.1c0.1,0,0.2,0,0.3,0h0.7c0.1,0,0.2,0,0.2,0
		c0,0,0,0.1,0,0.2c0,0,0,0.1,0,0.1c0,0,0,0,0,0.1c0,0,0,0-0.1,0c0,0-0.1,0-0.1,0h-1.2c0,0.1,0,0.1,0,0.2c0,0.1,0,0.1,0,0.2h1.3
		c0.1,0,0.2,0,0.3,0c0.1,0,0.1,0,0.2-0.1c0,0,0.1-0.1,0.1-0.2C20.2,20.1,20.2,20,20.2,19.8L20.2,19.8z M17.9,18.6h-0.4v1.8h0.4V18.6
		z M16.6,20.4V19h0.7v-0.4h-1.7V19h0.7v1.4H16.6z M15.2,20.4v-1.8h-0.3v1.3l-1.2-1.3h-0.4v1.8h0.3v-1.3l1.3,1.3H15.2z M12.9,20.4V20
		h-1.4v-0.4h1.3v-0.3h-1.3V19h1.4v-0.4h-1.7v1.8H12.9z M10.4,19.8c0,0.1,0,0.1,0,0.2c0,0-0.1,0-0.2,0H9V19h1.2c0.1,0,0.1,0,0.2,0
		c0,0,0,0.1,0,0.2V19.8z M10.1,20.4c0.1,0,0.2,0,0.3,0c0.1,0,0.1-0.1,0.2-0.1c0,0,0.1-0.1,0.1-0.2c0-0.1,0-0.2,0-0.3v-0.6
		c0-0.1,0-0.2,0-0.3c0-0.1,0-0.1-0.1-0.2c0,0-0.1-0.1-0.2-0.1c-0.1,0-0.2,0-0.3,0H8.6v1.8H10.1z"/>
</g>
</svg>
