<?xml version="1.0" encoding="utf-8"?>
<!-- Generator: Adobe Illustrator 24.1.2, SVG Export Plug-In . SVG Version: 6.00 Build 0)  -->
<svg version="1.1" id="Layer_1" xmlns="http://www.w3.org/2000/svg" xmlns:xlink="http://www.w3.org/1999/xlink" x="0px" y="0px"
	 viewBox="0 0 85 28.3" style="enable-background:new 0 0 85 28.3;" xml:space="preserve">
<style type="text/css">
	.st0{fill:#B4B4B5;}
</style>
<g>
	<path class="st0" d="M59,11.8h-1.3l-1,4.8H58l0.4-1.9h0.4l0.9,1.9h1.6L60,14.1l2.2-2.3h-1.5L59,13.6h-0.4L59,11.8z M55.7,11.8
		L55,14.9c-0.1,0.6-0.3,0.6-0.9,0.6c-0.5,0-0.8,0-0.7-0.5l0.7-3.2h-1.3L52.2,15c-0.2,1.1-0.1,1.6,1.8,1.6c1.4,0,2.1-0.4,2.3-1.6
		l0.7-3.2H55.7z M47.9,14.3l-0.2,1h1.7l0.2-1H47.9z M41.5,12.7l0.5-2.2h1.4c0.8,0,0.9,0.3,0.7,1.1c-0.2,1-0.4,1.1-1.2,1.1H41.5z
		 M40.7,16.5l0.4-2H43c2.2,0,2.8-0.8,3.3-3c0.4-2-0.1-2.9-2.1-2.9h-3.9l-1.7,7.8H40.7z M32.8,10.5L32.8,10.5l1,6h3.6L39,8.7h-2.1
		l-1.2,6h-0.1l-1-6h-3.5l-1.7,7.8h2.1L32.8,10.5z M29.9,8.7h-2.1l-1.7,7.8h2.1L29.9,8.7z M21.3,10.5h1.8c0.7,0,1,0.2,0.8,1.2
		l-0.4,1.6c-0.2,0.8-0.6,1.3-1.3,1.3h-1.8L21.3,10.5z M17.9,16.5h4.3c2.2,0,3.1-1,3.5-3.2l0.4-1.6c0.5-2.2-0.3-3-2.5-3h-4L17.9,16.5
		z"/>
	<path class="st0" d="M76.3,18.1h1l0.1-0.5h-1.6l-0.5,2.2h1.6l0.1-0.5h-1l0.1-0.4h0.9l0.1-0.4h-0.9L76.3,18.1z M73.1,18.1L73.1,18.1
		l0.2,1.7h0.5l0.9-1.7h0l-0.4,1.7H75l0.5-2.2h-1L73.8,19h0l-0.1-1.4h-0.9l-0.5,2.2h0.6L73.1,18.1z M70,18.1L70,18.1l0.2,1.7h0.5
		l0.9-1.7h0l-0.4,1.7h0.6l0.5-2.2h-1L70.7,19h0l-0.1-1.4h-0.9l-0.5,2.2h0.6L70,18.1z M68.3,19h-0.5l0.5-1h0L68.3,19z M68.3,19.4
		l0,0.4H69l-0.2-2.2h-0.9l-1.1,2.2h0.6l0.2-0.4H68.3z M64.7,19.8h0.6l0.1-0.6h0.5c0.2,0,0.2,0.1,0.2,0.3L66,19.8h0.6l0.1-0.4
		c0.1-0.3-0.1-0.4-0.3-0.4l0,0c0.4-0.1,0.5-0.3,0.6-0.7c0.1-0.6-0.1-0.7-0.6-0.7h-1.1L64.7,19.8z M65.6,18.7l0.1-0.6h0.5
		c0.2,0,0.2,0.1,0.2,0.3c-0.1,0.3-0.1,0.3-0.3,0.3H65.6z M64.8,18.3c0.1-0.7-0.3-0.7-0.8-0.7c-0.7,0-1.1,0.1-1.2,0.8L62.6,19
		c-0.2,0.7,0.2,0.8,0.9,0.8c0.8,0,1-0.1,1.2-0.9l0.1-0.4h-1L63.6,19H64c-0.1,0.3-0.2,0.4-0.5,0.4c-0.3,0-0.4,0-0.4-0.4l0.1-0.4
		c0.1-0.4,0.1-0.5,0.5-0.5c0.2,0,0.4,0,0.3,0.2H64.8z M61.3,19.3c-0.3,0-0.4,0-0.3-0.4l0.1-0.5c0.1-0.3,0.2-0.4,0.5-0.4
		s0.4,0,0.3,0.4L61.8,19C61.7,19.3,61.6,19.3,61.3,19.3 M61.2,19.8c0.6,0,1.1-0.1,1.2-0.8l0.1-0.6c0.1-0.7-0.3-0.8-0.9-0.8
		c-0.6,0-1.1,0.1-1.2,0.8L60.3,19C60.2,19.7,60.6,19.8,61.2,19.8 M58,19.8h0.6l0.1-0.6h0.5c0.2,0,0.2,0.1,0.2,0.3l-0.1,0.3h0.6
		l0.1-0.4c0.1-0.3-0.1-0.4-0.3-0.4l0,0c0.4-0.1,0.5-0.3,0.6-0.7c0.1-0.6-0.1-0.7-0.6-0.7h-1.1L58,19.8z M58.9,18.7l0.1-0.6h0.5
		c0.2,0,0.2,0.1,0.2,0.3c-0.1,0.3-0.1,0.3-0.3,0.3H58.9z M56.8,18.7l0.1-0.6h0.4c0.2,0,0.3,0.1,0.2,0.3c-0.1,0.3-0.1,0.3-0.3,0.3
		H56.8z M56.5,19.8l0.1-0.6h0.5c0.6,0,0.8-0.2,0.9-0.8c0.1-0.6,0-0.8-0.6-0.8h-1.1l-0.5,2.2H56.5z M54.2,17.6h-0.6l-0.5,2.2h1.5
		l0.1-0.5h-0.9L54.2,17.6z M52.3,19h-0.6l0.5-1h0L52.3,19z M52.4,19.4l0,0.4H53l-0.2-2.2h-0.9l-1.1,2.2h0.6l0.2-0.4H52.4z
		 M49.3,18.1L49.3,18.1l0.3,1.7h1l0.5-2.2h-0.6l-0.3,1.7h0l-0.3-1.7h-1l-0.5,2.2H49L49.3,18.1z M47.2,19.3c-0.3,0-0.4,0-0.3-0.4
		l0.1-0.5c0.1-0.3,0.2-0.4,0.5-0.4c0.3,0,0.4,0,0.3,0.4L47.7,19C47.6,19.3,47.5,19.3,47.2,19.3 M47.1,19.8c0.6,0,1.1-0.1,1.2-0.8
		l0.1-0.6c0.1-0.7-0.3-0.8-0.9-0.8c-0.6,0-1.1,0.1-1.2,0.8L46.2,19C46.1,19.7,46.5,19.8,47.1,19.8 M46.3,17.6h-0.6l-0.5,2.2h0.6
		L46.3,17.6z M44.8,18.1h0.6l0.1-0.5h-1.8l-0.1,0.5h0.6l-0.4,1.7h0.6L44.8,18.1z M42.7,19h-0.5l0.5-1h0L42.7,19z M42.7,19.4l0,0.4
		h0.6l-0.2-2.2h-0.9l-1.1,2.2h0.6l0.2-0.4H42.7z M39.7,18.1L39.7,18.1l0.3,1.7h1l0.5-2.2h-0.6l-0.3,1.7h0l-0.3-1.7h-1l-0.5,2.2h0.6
		L39.7,18.1z M36.7,18.5c-0.2,0-0.2,0-0.2-0.2c0-0.1,0.1-0.2,0.4-0.2c0.2,0,0.3,0,0.3,0.2h0.6l0-0.1c0.1-0.6-0.3-0.6-0.8-0.6
		c-0.6,0-0.9,0-1.1,0.7c-0.1,0.6,0.2,0.6,0.7,0.7l0.1,0c0.3,0,0.3,0,0.3,0.2c0,0.2-0.1,0.2-0.4,0.2c-0.3,0-0.4,0-0.3-0.3h-0.6
		c-0.2,0.7,0.2,0.7,0.8,0.7c1,0,1-0.4,1.1-0.7c0.1-0.5,0-0.6-0.7-0.6L36.7,18.5z M35.2,18.1h0.6l0.1-0.5h-1.8L34,18.1h0.6l-0.4,1.7
		h0.6L35.2,18.1z M32.2,18.1L32.2,18.1l0.3,1.7h1l0.5-2.2h-0.6L33,19.3h0l-0.3-1.7h-1l-0.5,2.2h0.6L32.2,18.1z M30.4,19h-0.5l0.5-1
		h0L30.4,19z M30.5,19.4l0,0.4h0.6l-0.2-2.2H30l-1.1,2.2h0.6l0.2-0.4H30.5z M28.4,17.6h-0.6l-0.5,2.2h1.5l0.1-0.5H28L28.4,17.6z
		 M26.1,18.7l0.1-0.6h0.4c0.2,0,0.3,0.1,0.2,0.3c-0.1,0.3-0.1,0.3-0.3,0.3H26.1z M25.8,19.8l0.1-0.6h0.5c0.6,0,0.8-0.2,0.9-0.8
		c0.1-0.6,0-0.8-0.6-0.8h-1.1l-0.5,2.2H25.8z M23,18.1L23,18.1l0.2,1.7h0.5l0.9-1.7h0l-0.4,1.7h0.6l0.5-2.2h-1L23.7,19h0l-0.1-1.4
		h-0.9l-0.5,2.2h0.6L23,18.1z M22.3,17.6h-0.6l-0.5,2.2h0.6L22.3,17.6z M19.4,17.6h-0.6l-0.5,2.2h1.5l0.1-0.5h-0.9L19.4,17.6z
		 M17.6,19H17l0.5-1h0L17.6,19z M17.6,19.4l0,0.4h0.6L18,17.6h-0.9L16,19.8h0.6l0.2-0.4H17.6z M15.9,18.1h0.6l0.1-0.5h-1.8l-0.1,0.5
		h0.6l-0.4,1.7h0.6L15.9,18.1z M12.9,18.1L12.9,18.1l0.3,1.7h1l0.5-2.2h-0.6l-0.3,1.7h0l-0.3-1.7h-1L12,19.8h0.6L12.9,18.1z
		 M10.9,18.1h1l0.1-0.5h-1.6L10,19.8h1.6l0.1-0.5h-1l0.1-0.4h0.9l0.1-0.4h-0.9L10.9,18.1z M8.6,18.1h0.5c0.2,0,0.3,0.1,0.2,0.3
		l-0.1,0.5c-0.1,0.2-0.2,0.4-0.4,0.4H8.3L8.6,18.1z M7.6,19.8h1.2c0.6,0,0.9-0.3,1-0.9l0.1-0.5c0.1-0.6-0.1-0.9-0.7-0.9H8.1
		L7.6,19.8z"/>
	<path class="st0" d="M8.2,13.3c0,1.4,1.3,2.3,2.6,2.3c2.4,0,4.8-1.9,4.8-4.1c0-1.1-0.9-2.3-2.7-2.3C10.3,9.3,8.2,11.4,8.2,13.3
		 M11.8,16.7c-3.1,0-4-1.9-4-3.1c0-2.9,3.3-5.1,6-5.1c3.1,0,3.8,1.5,3.8,3.2C17.6,14.4,14.4,16.7,11.8,16.7"/>
</g>
</svg>
