<?xml version="1.0" encoding="utf-8"?>
<!-- Generator: Adobe Illustrator 24.1.2, SVG Export Plug-In . SVG Version: 6.00 Build 0)  -->
<svg version="1.1" id="Layer_1" xmlns="http://www.w3.org/2000/svg" xmlns:xlink="http://www.w3.org/1999/xlink" x="0px" y="0px"
	 viewBox="0 0 85 28.3" style="enable-background:new 0 0 85 28.3;" xml:space="preserve">
<style type="text/css">
	.st0{fill:#B4B4B5;}
</style>
<g>
	<polygon class="st0" points="15.9,15.2 10.4,15.2 12,10.9 12.9,10.9 11.7,14.3 16.2,14.3 	"/>
	<polygon class="st0" points="22.3,15.2 16.7,15.2 18.3,10.9 23.9,10.9 23.6,11.8 18.8,11.8 18.5,12.6 23.2,12.6 22.9,13.5 
		18.2,13.5 17.9,14.3 22.6,14.3 	"/>
	<path class="st0" d="M29.1,14.1c-0.3,0.7-0.6,1.1-1.1,1.1h-4.9l0.3-0.9h4.8c0.2,0,0.3-0.1,0.3-0.3l0.1-0.2c0.1-0.2,0-0.3-0.1-0.3
		h-4.1c-0.5,0-0.6-0.3-0.4-1l0.2-0.6c0.3-0.7,0.6-1,1.1-1l4.9,0l-0.3,0.9h-4.8c-0.2,0-0.3,0.1-0.4,0.3l-0.1,0.2
		c-0.1,0.2-0.1,0.3,0.1,0.3h4.1c0.5,0,0.6,0.3,0.3,1L29.1,14.1z"/>
	<path class="st0" d="M35.4,14.1c-0.3,0.7-0.6,1.1-1.1,1.1h-4.9l0.3-0.9h4.8c0.2,0,0.3-0.1,0.3-0.3l0.1-0.2c0.1-0.2,0-0.3-0.1-0.3
		h-4.1c-0.5,0-0.6-0.3-0.4-1l0.2-0.6c0.3-0.7,0.6-1,1.1-1l4.9,0l-0.3,0.9h-4.8c-0.2,0-0.3,0.1-0.4,0.3l-0.1,0.2
		c-0.1,0.2-0.1,0.3,0.1,0.3h4.1c0.5,0,0.6,0.3,0.3,1L35.4,14.1z"/>
	<polygon class="st0" points="41.3,15.2 35.7,15.2 37.3,10.9 42.8,10.9 42.5,11.8 37.8,11.8 37.5,12.6 42.2,12.6 41.9,13.5 
		37.2,13.5 36.8,14.3 41.6,14.3 	"/>
	<polygon class="st0" points="44.1,12 43,15.2 42,15.2 43.6,10.9 44.5,10.9 47.1,13.8 48.1,10.9 49.1,10.9 47.6,15.2 47,15.2 	"/>
	<polygon class="st0" points="61.1,15.2 55.5,15.2 57.1,10.9 62.7,10.9 62.4,11.8 57.7,11.8 57.4,12.6 62,12.6 61.7,13.5 57.1,13.5 
		56.7,14.3 61.4,14.3 	"/>
	<path class="st0" d="M67.6,11.8H64L63.6,13h3.6c0.2,0,0.3-0.1,0.4-0.4l0.2-0.5C67.8,11.9,67.8,11.8,67.6,11.8 M67.4,15.2h-0.9
		l-0.2-1.4h-3.1l-0.5,1.4h-0.9l1.6-4.3h4.9c0.5,0,0.6,0.3,0.3,1l-0.3,0.9c-0.2,0.7-0.6,1-1.1,1L67.4,15.2z"/>
	<polygon class="st0" points="68.2,15.2 69.8,10.9 70.7,10.9 69.1,15.2 	"/>
	<path class="st0" d="M71.6,13h3.9l0.3-0.9c0.1-0.2,0-0.3-0.1-0.3h-3.4c-0.2,0-0.3,0.1-0.4,0.4L71.6,13z M75.5,15.2h-0.8l0.5-1.4
		h-3.9l-0.5,1.4H70l1.2-3.2c0.3-0.7,0.6-1.1,1.1-1.1h4.2c0.5,0,0.6,0.4,0.3,1.1L75.5,15.2z"/>
	<path class="st0" d="M82.4,14.1c-0.3,0.7-0.6,1.1-1.1,1.1h-4.9l0.3-0.9h4.8c0.2,0,0.3-0.1,0.3-0.3l0.1-0.2c0.1-0.2,0-0.3-0.1-0.3
		h-4.1c-0.5,0-0.6-0.3-0.4-1l0.2-0.6c0.3-0.7,0.6-1,1.1-1l4.9,0l-0.3,0.9h-4.8c-0.2,0-0.3,0.1-0.4,0.3l-0.1,0.2
		c-0.1,0.2-0.1,0.3,0.1,0.3h4.1c0.5,0,0.6,0.3,0.3,1L82.4,14.1z"/>
	<polygon class="st0" points="9,13.2 5.6,16.6 7.5,16.6 9,18.1 2,18.1 3.5,16.6 9,11.1 	"/>
	<polygon class="st0" points="2.9,11.7 4.8,11.7 1.4,15.1 1.4,17.2 6.9,11.7 8.4,10.2 1.4,10.2 	"/>
	<rect x="10.5" y="15.9" class="st0" width="73.1" height="0.2"/>
	<polygon class="st0" points="54.7,15.2 49.3,15.2 50.9,10.9 51.8,10.9 50.5,14.3 55,14.3 	"/>
	<rect x="10.5" y="16.9" class="st0" width="0.2" height="1.1"/>
	<polygon class="st0" points="11.7,17.2 11.7,18.1 11.4,18.1 11.4,16.9 11.7,16.9 13.4,17.8 13.4,16.9 13.6,16.9 13.6,18.1 
		13.4,18.1 	"/>
	<polygon class="st0" points="15.7,18.1 15.5,18.1 15.5,17.2 14.3,17.2 14.3,16.9 16.9,16.9 16.9,17.2 15.7,17.2 	"/>
	<polygon class="st0" points="19.8,18.1 17.6,18.1 17.6,16.9 19.8,16.9 19.8,17.2 17.8,17.2 17.8,17.4 19.8,17.4 19.8,17.6 
		17.8,17.6 17.8,17.8 19.8,17.8 	"/>
	<path class="st0" d="M22.4,17.2h-1.6v0.3h1.6c0.1,0,0.1,0,0.1-0.1v-0.1C22.5,17.2,22.4,17.2,22.4,17.2 M22.7,18.1h-0.3l-0.3-0.4
		h-1.4v0.4h-0.2l0-1.1h1.9c0.2,0,0.3,0.1,0.3,0.3v0.2c0,0.2-0.1,0.3-0.3,0.3L22.7,18.1z"/>
	<polygon class="st0" points="23.6,17.2 23.6,18.1 23.4,18.1 23.4,16.9 23.6,16.9 25.3,17.8 25.3,16.9 25.6,16.9 25.6,18.1 
		25.3,18.1 	"/>
	<path class="st0" d="M26.5,17.5h1.7v-0.2c0-0.1,0-0.1-0.1-0.1h-1.5c-0.1,0-0.1,0-0.1,0.1V17.5z M28.5,18.1h-0.2v-0.4h-1.7v0.4h-0.2
		v-0.9c0-0.2,0.1-0.3,0.3-0.3h1.6c0.2,0,0.3,0.1,0.3,0.3V18.1z"/>
	<polygon class="st0" points="30.6,18.1 30.3,18.1 30.3,17.2 29.2,17.2 29.2,16.9 31.7,16.9 31.7,17.2 30.6,17.2 	"/>
	<rect x="32.5" y="16.9" class="st0" width="0.2" height="1.1"/>
	<path class="st0" d="M35.4,17.7v-0.5c0-0.1,0-0.1-0.1-0.1h-1.5c-0.1,0-0.1,0-0.1,0.1v0.5c0,0.1,0,0.1,0.1,0.1L35.4,17.7
		C35.4,17.8,35.4,17.8,35.4,17.7 M33.7,18.1c-0.2,0-0.3-0.1-0.3-0.3v-0.6c0-0.2,0.1-0.3,0.3-0.3h1.6c0.2,0,0.3,0.1,0.3,0.3v0.6
		c0,0.2-0.1,0.3-0.3,0.3L33.7,18.1z"/>
	<polygon class="st0" points="36.5,17.2 36.5,18.1 36.3,18.1 36.3,16.9 36.5,16.9 38.3,17.8 38.3,16.9 38.5,16.9 38.5,18.1 
		38.3,18.1 	"/>
	<path class="st0" d="M39.4,17.5h1.7v-0.2c0-0.1,0-0.1-0.1-0.1h-1.5c-0.1,0-0.1,0-0.1,0.1V17.5z M41.4,18.1h-0.2v-0.4h-1.7v0.4h-0.2
		v-0.9c0-0.2,0.1-0.3,0.3-0.3h1.6c0.2,0,0.3,0.1,0.3,0.3V18.1z"/>
	<polygon class="st0" points="44.3,18.1 42.1,18.1 42.1,16.9 42.3,16.9 42.3,17.8 44.3,17.8 	"/>
	<path class="st0" d="M47,17.4h1.6c0.1,0,0.1,0,0.1-0.1v0c0-0.1,0-0.1-0.1-0.1H47V17.4z M48.7,17.8C48.7,17.8,48.8,17.8,48.7,17.8
		l0.1-0.1c0-0.1,0-0.1-0.1-0.1H47v0.2H48.7z M48.7,18.1l-1.9,0v-1.1h1.9c0.2,0,0.3,0.1,0.3,0.3v0.1c0,0.1,0,0.1-0.1,0.2
		c0.1,0,0.1,0.1,0.1,0.2v0.1C49,18,48.9,18.1,48.7,18.1"/>
	<path class="st0" d="M51.7,17.7v-0.8h0.2v0.9c0,0.2-0.1,0.3-0.3,0.3H50c-0.2,0-0.3-0.1-0.3-0.3v-0.9h0.2v0.8c0,0.1,0,0.1,0.1,0.1
		L51.7,17.7C51.6,17.8,51.7,17.8,51.7,17.7"/>
	<path class="st0" d="M54.8,17.8c0,0.2-0.1,0.3-0.3,0.3h-1.9l0-0.2h1.9c0.1,0,0.1,0,0.1-0.1v-0.1c0-0.1,0-0.1-0.1-0.1h-1.6
		c-0.2,0-0.3-0.1-0.3-0.3v-0.2c0-0.2,0.1-0.3,0.3-0.3l1.9,0v0.2h-1.9c-0.1,0-0.1,0-0.1,0.1v0c0,0.1,0,0.1,0.1,0.1h1.6
		c0.2,0,0.3,0.1,0.3,0.3V17.8z"/>
	<rect x="55.5" y="16.9" class="st0" width="0.2" height="1.1"/>
	<polygon class="st0" points="56.7,17.2 56.7,18.1 56.5,18.1 56.5,16.9 56.7,16.9 58.4,17.8 58.4,16.9 58.7,16.9 58.7,18.1 
		58.4,18.1 	"/>
	<polygon class="st0" points="61.6,18.1 59.4,18.1 59.4,16.9 61.6,16.9 61.6,17.2 59.6,17.2 59.6,17.4 61.6,17.4 61.6,17.6 
		59.6,17.6 59.6,17.8 61.6,17.8 	"/>
	<path class="st0" d="M64.5,17.8c0,0.2-0.1,0.3-0.3,0.3h-1.9l0-0.2h1.9c0.1,0,0.1,0,0.1-0.1v-0.1c0-0.1,0-0.1-0.1-0.1h-1.6
		c-0.2,0-0.3-0.1-0.3-0.3v-0.2c0-0.2,0.1-0.3,0.3-0.3l1.9,0v0.2h-1.9c-0.1,0-0.1,0-0.1,0.1v0c0,0.1,0,0.1,0.1,0.1h1.6
		c0.2,0,0.3,0.1,0.3,0.3V17.8z"/>
	<path class="st0" d="M67.3,17.8c0,0.2-0.1,0.3-0.3,0.3h-1.9l0-0.2H67c0.1,0,0.1,0,0.1-0.1v-0.1c0-0.1,0-0.1-0.1-0.1h-1.6
		c-0.2,0-0.3-0.1-0.3-0.3v-0.2c0-0.2,0.1-0.3,0.3-0.3l1.9,0v0.2h-1.9c-0.1,0-0.1,0-0.1,0.1v0c0,0.1,0,0.1,0.1,0.1h1.6
		c0.2,0,0.3,0.1,0.3,0.3V17.8z"/>
	<path class="st0" d="M70.9,17.6v-0.2H72v0.4c0,0.2-0.1,0.3-0.3,0.3h-1.6c-0.2,0-0.3-0.1-0.3-0.3l0-0.6c0-0.2,0.1-0.3,0.3-0.3H72
		v0.2h-1.9c-0.1,0-0.1,0-0.1,0.1v0.5c0,0.1,0,0.1,0.1,0.1h1.6c0.1,0,0.1,0,0.1-0.1v-0.1H70.9z"/>
	<path class="st0" d="M74.6,17.2H73v0.3h1.6c0.1,0,0.1,0,0.1-0.1v-0.1C74.7,17.2,74.7,17.2,74.6,17.2 M74.9,18.1h-0.3l-0.3-0.4H73
		v0.4h-0.2l0-1.1h1.9c0.2,0,0.3,0.1,0.3,0.3v0.2c0,0.2-0.1,0.3-0.3,0.3L74.9,18.1z"/>
	<path class="st0" d="M77.6,17.7v-0.5c0-0.1,0-0.1-0.1-0.1H76c-0.1,0-0.1,0-0.1,0.1v0.5c0,0.1,0,0.1,0.1,0.1L77.6,17.7
		C77.6,17.8,77.6,17.8,77.6,17.7 M75.9,18.1c-0.2,0-0.3-0.1-0.3-0.3v-0.6c0-0.2,0.1-0.3,0.3-0.3h1.6c0.2,0,0.3,0.1,0.3,0.3v0.6
		c0,0.2-0.1,0.3-0.3,0.3L75.9,18.1z"/>
	<path class="st0" d="M80.5,17.7v-0.8h0.2v0.9c0,0.2-0.1,0.3-0.3,0.3h-1.6c-0.2,0-0.3-0.1-0.3-0.3v-0.9h0.2v0.8c0,0.1,0,0.1,0.1,0.1
		L80.5,17.7C80.5,17.8,80.5,17.8,80.5,17.7"/>
	<path class="st0" d="M83.3,17.2h-1.6l0,0.3h1.6c0.1,0,0.1,0,0.1-0.1L83.3,17.2C83.4,17.2,83.4,17.2,83.3,17.2 M81.7,17.7v0.4h-0.2
		v-1.1h1.9c0.2,0,0.3,0.1,0.3,0.3v0.2c0,0.2-0.1,0.3-0.3,0.3L81.7,17.7z"/>
</g>
</svg>
