<?xml version="1.0" encoding="utf-8"?>
<!-- Generator: Adobe Illustrator 24.2.0, SVG Export Plug-In . SVG Version: 6.00 Build 0)  -->
<svg version="1.1" id="Layer_1" xmlns="http://www.w3.org/2000/svg" xmlns:xlink="http://www.w3.org/1999/xlink" x="0px" y="0px"
	 viewBox="0 0 299.6 55.4" style="enable-background:new 0 0 299.6 55.4;" xml:space="preserve">
<style type="text/css">
	.st0{fill:#041D3C;}
	.st1{fill:#FFFFFF;}
	.st2{fill:#EC2227;}
	.st3{fill:#77797C;}
</style>
<g>
	<g>
		<path class="st1" d="M37.1,9.7h-9.4v7.1h9.4c0.2,0,0.4-0.1,0.5-0.2s0.2-0.3,0.2-0.6v-5.5c0-0.2-0.1-0.4-0.2-0.6
			C37.5,9.8,37.4,9.7,37.1,9.7z"/>
		<path class="st1" d="M35.7,26.1h-7.8v3h7.8c0.2,0,0.4-0.1,0.5-0.2c0.1-0.1,0.2-0.3,0.2-0.5v-1.4c0-0.2-0.1-0.4-0.2-0.6
			C36.1,26.2,35.9,26.1,35.7,26.1z"/>
		<path class="st1" d="M39.8,0H7.4C3.3,0,0,3.3,0,7.4v28.2C0,39.7,3.3,43,7.4,43h32.4c4.1,0,7.4-3.3,7.4-7.4V7.4
			C47.2,3.3,43.9,0,39.8,0z M20.9,37h-3.7v-5.5H9.7V37H5.9V22.4h3.7v5.4h7.5v-5.4h3.7V37z M40.2,28.3c0,1.2-0.4,2.3-1.3,3.1
			c-0.9,0.9-1.9,1.3-3.2,1.3h-7.8V37h-3.7V22.4h11.6c1.2,0,2.3,0.4,3.2,1.3c0.9,0.9,1.3,1.9,1.3,3.2V28.3z M41.7,16.1
			c0,1.2-0.4,2.3-1.3,3.2c-0.9,0.9-1.9,1.3-3.2,1.3H24V6h13.1c1.2,0,2.3,0.4,3.2,1.3c0.9,0.9,1.3,1.9,1.3,3.2V16.1z"/>
	</g>
	<path class="st2" d="M21.2,14.1c-0.9-1.7-2.6-2.6-5.2-2.6h-5.5c-0.3,0-0.6-0.1-0.8-0.3c-0.2-0.2-0.4-0.4-0.4-0.7
		c0-0.3,0.1-0.5,0.3-0.6c0.2-0.2,0.5-0.2,0.8-0.2h10.5V6H11C9.9,6,9,6.2,8.1,6.6c-1,0.5-1.7,1.1-2.1,2c-0.3,0.6-0.5,1.2-0.5,1.9
		c0,0.7,0.2,1.3,0.5,2c0.9,1.7,2.6,2.6,5,2.6h5.6c0.3,0,0.6,0.1,0.8,0.3c0.2,0.2,0.3,0.4,0.3,0.7c0,0.6-0.4,0.8-1.1,0.8H6v3.7h10
		c1.1,0,2.1-0.2,3-0.6c1-0.5,1.8-1.2,2.2-2.1c0.3-0.6,0.4-1.2,0.4-1.9C21.6,15.4,21.5,14.7,21.2,14.1"/>
	<path class="st1" d="M299,32.9c-1.1-2.3-3.4-3.4-6.7-3.4h-7.1c-0.4,0-0.8-0.1-1.1-0.3c-0.3-0.2-0.5-0.5-0.5-0.8
		c0-0.3,0.1-0.6,0.4-0.8c0.3-0.2,0.7-0.3,1.1-0.3h13.5v-4.8h-12.8c-1.4,0-2.6,0.3-3.7,0.7c-1.2,0.6-2.2,1.4-2.8,2.6
		c-0.4,0.8-0.6,1.6-0.6,2.5c0,0.9,0.2,1.7,0.6,2.5c1.1,2.2,3.3,3.3,6.5,3.3h7.2c0.4,0,0.7,0.1,1,0.3c0.3,0.2,0.4,0.5,0.4,0.9
		c0,0.7-0.5,1.1-1.5,1.1h-13.6v4.8h12.9c1.4,0,2.7-0.2,3.8-0.7c1.3-0.6,2.3-1.5,2.9-2.7c0.4-0.7,0.6-1.6,0.6-2.4
		C299.6,34.5,299.4,33.7,299,32.9 M276.7,22.5h-4.8V35c-0.4-0.5-0.8-1-1.1-1.4l-10.4-11.1h-5.1v18.7h4.8V28.9
		c0.4,0.6,0.8,1.1,1.2,1.5l9.7,10.7h5.7V22.5z M239.2,32.4c1.2-2.3,2.1-4,2.5-5.2c0.3,0.8,0.7,1.7,1.2,2.6c0.3,0.6,0.7,1.4,1.3,2.6
		H239.2z M244.4,22.5H239l-9.9,18.7h5.6l2-4h10.1l2,4h5.6L244.4,22.5z M228.7,36.4H215v-14h-4.8v18.7h18.6V36.4z M203.3,30.8
		c-0.2,0.2-0.4,0.3-0.7,0.3h-10.1v-3.8h10.1c0.3,0,0.5,0.1,0.7,0.3c0.2,0.2,0.3,0.4,0.3,0.7v1.8C203.6,30.3,203.5,30.6,203.3,30.8
		 M208.4,28.3c0-1.6-0.6-3-1.7-4.1c-1.1-1.1-2.5-1.7-4.1-1.7h-15v18.7h4.8v-5.5h10.1c1.6,0,3-0.6,4.1-1.7c1.1-1.1,1.7-2.5,1.7-4
		V28.3z"/>
	<path class="st1" d="M176.2,22.5h-4.8v6.9h-9.6v-6.9h-4.8v18.7h4.8v-7.1h9.6v7.1h4.8V22.5z M154.9,22.5h-18.1v4.8h6.6v14h4.8v-14
		h6.7V22.5z M140,36.4h-13.8v-14h-4.8v18.7H140V36.4z M105.4,32.4c1.2-2.3,2.1-4,2.5-5.2c0.3,0.8,0.7,1.7,1.2,2.6
		c0.3,0.6,0.7,1.4,1.3,2.6H105.4z M110.6,22.5h-5.4l-9.9,18.7h5.6l2-4h10.1l2,4h5.6L110.6,22.5z M94.3,36.4h-14v-2.3h13.6v-4.7H80.3
		v-2.2h14v-4.8H75.5v18.7h18.9V36.4z M73.2,22.5h-4.8v6.9h-9.6v-6.9h-4.8v18.7h4.8v-7.1h9.6v7.1h4.8V22.5z"/>
	<path class="st1" d="M299.4,14h-13.8V0h-4.8v18.7h18.6V14z M264.8,9.9c1.2-2.3,2.1-4,2.5-5.2c0.3,0.8,0.7,1.7,1.2,2.6
		c0.3,0.6,0.7,1.4,1.3,2.6H264.8z M270,0h-5.4l-9.9,18.7h5.6l2-4h10.1l2,4h5.6L270,0z M257.5,0h-18.1v4.8h6.6v14h4.8v-14h6.7V0z
		 M237.4,0h-4.8v12.5c-0.4-0.5-0.7-1-1.1-1.4L221.1,0H216v18.7h4.8V6.5c0.4,0.6,0.8,1.1,1.2,1.5l9.7,10.7h5.7V0z M213.8,14h-14v-2.3
		h13.6V6.9h-13.6V4.8h14V0h-18.9v18.7h18.9V14z M187.6,13.7c-0.2,0.2-0.4,0.3-0.7,0.3h-12.1V4.8h12.1c0.3,0,0.5,0.1,0.7,0.3
		c0.2,0.2,0.3,0.4,0.3,0.7v7.2C187.8,13.2,187.7,13.5,187.6,13.7 M192.7,5.8c0-1.6-0.6-3-1.7-4.1c-1.1-1.1-2.5-1.7-4.1-1.7h-17v18.7
		h17c1.6,0,3-0.6,4.1-1.7c1.1-1.1,1.7-2.5,1.7-4.1V5.8z"/>
	<path class="st1" d="M159.1,10.5c-1.1-2.3-3.4-3.4-6.7-3.4h-7.1c-0.4,0-0.8-0.1-1.1-0.3c-0.3-0.2-0.5-0.5-0.5-0.8
		c0-0.3,0.1-0.6,0.4-0.8c0.3-0.2,0.7-0.3,1.1-0.3h13.5V0H146c-1.4,0-2.6,0.3-3.7,0.7c-1.2,0.6-2.2,1.4-2.8,2.6
		c-0.4,0.8-0.6,1.6-0.6,2.5c0,0.9,0.2,1.7,0.6,2.5c1.1,2.2,3.3,3.3,6.5,3.3h7.2c0.4,0,0.7,0.1,1,0.3c0.3,0.2,0.4,0.5,0.4,0.9
		c0,0.7-0.5,1.1-1.5,1.1h-13.6v4.8h12.9c1.4,0,2.7-0.2,3.8-0.7c1.3-0.6,2.3-1.5,2.9-2.7c0.4-0.7,0.6-1.6,0.6-2.4
		C159.7,12,159.5,11.2,159.1,10.5"/>
	<path class="st1" d="M136.9,10.5c-1.1-2.3-3.4-3.4-6.7-3.4h-7.1c-0.4,0-0.8-0.1-1.1-0.3c-0.3-0.2-0.5-0.5-0.5-0.8
		c0-0.3,0.1-0.6,0.4-0.8c0.3-0.2,0.7-0.3,1.1-0.3h13.5V0h-12.8c-1.4,0-2.6,0.3-3.7,0.7c-1.2,0.6-2.2,1.4-2.8,2.6
		c-0.4,0.8-0.6,1.6-0.6,2.5c0,0.9,0.2,1.7,0.6,2.5c1.1,2.2,3.3,3.3,6.5,3.3h7.2c0.4,0,0.7,0.1,1,0.3c0.3,0.2,0.4,0.5,0.4,0.9
		c0,0.7-0.5,1.1-1.5,1.1h-13.6v4.8h12.9c1.4,0,2.7-0.2,3.8-0.7c1.3-0.6,2.3-1.5,2.9-2.7c0.4-0.7,0.6-1.6,0.6-2.4
		C137.5,12,137.3,11.2,136.9,10.5"/>
	<rect x="109.8" y="0" class="st1" width="4.8" height="18.7"/>
	<path class="st1" d="M103.3,0L100,10.2c-0.5,1.6-1,2.7-1.3,3.5c-0.5-1.6-0.8-2.7-1.1-3.5L94.4,0h-5.1l-3.2,10.2
		c-0.5,1.6-0.9,2.8-1.1,3.5c-0.6-1.6-1-2.7-1.3-3.5L80.6,0H75l7.3,18.7h5.3l4.3-11.3l4.3,11.3h5.3L108.8,0H103.3z"/>
	<path class="st1" d="M73.7,10.5c-1.1-2.3-3.4-3.4-6.7-3.4h-7.1c-0.4,0-0.8-0.1-1.1-0.3c-0.3-0.2-0.5-0.5-0.5-0.8
		c0-0.3,0.1-0.6,0.4-0.8c0.3-0.2,0.7-0.3,1.1-0.3h13.5V0H60.6c-1.4,0-2.6,0.3-3.7,0.7c-1.2,0.6-2.2,1.4-2.8,2.6
		c-0.4,0.8-0.6,1.6-0.6,2.5c0,0.9,0.2,1.7,0.6,2.5c1.1,2.2,3.3,3.3,6.5,3.3h7.2c0.4,0,0.7,0.1,1,0.3c0.3,0.2,0.4,0.5,0.4,0.9
		c0,0.7-0.5,1.1-1.5,1.1H54.1v4.8H67c1.4,0,2.7-0.2,3.8-0.7c1.3-0.6,2.3-1.5,2.9-2.7c0.4-0.7,0.6-1.6,0.6-2.4
		C74.3,12,74.1,11.2,73.7,10.5"/>
	<g>
		<path class="st1" d="M275.8,55.4v-8.6h-1.7v3.5H269v-3.5h-1.7v8.6h1.7v-3.5h5.2v3.5H275.8z M262.5,55.4v-6.9h3.2v-1.7h-8v1.7h3.2
			v6.9H262.5z M258,55.4v-1.7h-6.5v-6.9h-1.7v8.6H258z M244.6,52.1h-3.9l2-3.5L244.6,52.1z M248.3,55.4l-4.7-8.6h-1.8l-4.7,8.6h1.9
			l1.1-2h5.2l1.1,2H248.3z M235.6,55.4v-1.7H229v-1.9h6.4v-1.4H229v-1.9h6.6v-1.7h-8.3v8.6H235.6z M225.2,55.4v-8.6h-1.7v3.5h-5.2
			v-3.5h-1.7v8.6h1.7v-3.5h5.2v3.5H225.2z"/>
		<path class="st1" d="M210.5,55.4v-1.7H204v-6.9h-1.7v8.6H210.5z M197.1,52.1h-3.9l2-3.5L197.1,52.1z M200.8,55.4l-4.7-8.6h-1.8
			l-4.7,8.6h1.9l1.1-2h5.2l1.1,2H200.8z M186.8,55.4v-6.9h3.2v-1.7h-8v1.7h3.2v6.9H186.8z M180.4,55.4v-8.6h-1.6V53l-5.9-6.2H171
			v8.6h1.6v-6.3l6.1,6.3H180.4z M169,55.4v-1.7h-6.6v-1.9h6.4v-1.4h-6.4v-1.9h6.6v-1.7h-8.3v8.6H169z M156.9,52.6
			c0,0.4-0.1,0.7-0.2,0.9c-0.1,0.1-0.4,0.2-0.8,0.2h-5.6v-5.2h5.6c0.4,0,0.6,0.1,0.8,0.2c0.2,0.2,0.2,0.4,0.2,0.9V52.6z M155.9,55.4
			c0.5,0,1,0,1.3-0.1c0.3-0.1,0.6-0.2,0.8-0.5c0.2-0.2,0.4-0.5,0.4-0.9c0.1-0.4,0.1-0.8,0.1-1.3v-3c0-0.5,0-1-0.1-1.3
			c-0.1-0.4-0.2-0.6-0.4-0.9c-0.2-0.2-0.5-0.4-0.8-0.5c-0.3-0.1-0.8-0.1-1.3-0.1h-7.3v8.6H155.9z"/>
		<path class="st1" d="M142.1,52v-1.5h-6.3v-2h6.4v-1.7h-8.1v8.6h1.7V52H142.1z M130.2,52.6c0,0.4-0.1,0.7-0.2,0.9
			c-0.1,0.1-0.4,0.2-0.8,0.2h-4.6c-0.2,0-0.4,0-0.5-0.1c-0.1,0-0.2-0.1-0.3-0.2c-0.1-0.1-0.1-0.2-0.2-0.3c0-0.1-0.1-0.3-0.1-0.5v-3
			c0-0.4,0.1-0.7,0.2-0.9c0.2-0.2,0.4-0.2,0.8-0.2h4.6c0.4,0,0.6,0.1,0.8,0.2c0.2,0.2,0.2,0.4,0.2,0.9V52.6z M129.2,55.4
			c0.5,0,0.9,0,1.3-0.1c0.3-0.1,0.6-0.2,0.8-0.5c0.2-0.2,0.4-0.5,0.4-0.9c0.1-0.4,0.1-0.8,0.1-1.3v-3c0-0.5,0-1-0.1-1.3
			c-0.1-0.4-0.2-0.6-0.4-0.9c-0.2-0.2-0.5-0.4-0.8-0.5c-0.3-0.1-0.8-0.1-1.3-0.1h-4.6c-0.5,0-1,0-1.3,0.1c-0.3,0.1-0.6,0.2-0.8,0.5
			c-0.2,0.2-0.4,0.5-0.4,0.9c-0.1,0.4-0.1,0.8-0.1,1.3v3c0,0.5,0,1,0.1,1.3c0.1,0.4,0.2,0.6,0.4,0.9c0.2,0.2,0.5,0.4,0.8,0.5
			c0.3,0.1,0.8,0.1,1.3,0.1H129.2z"/>
		<polygon class="st1" points="115.3,55.4 115.3,46.8 113.5,46.8 110.2,53.7 107,46.8 105.1,46.8 105.1,55.4 106.7,55.4 106.7,49.8 
			109.4,55.4 111,55.4 113.8,49.8 113.8,55.4 		"/>
		<polygon class="st1" points="103.2,55.4 103.2,53.7 96.6,53.7 96.6,51.8 103,51.8 103,50.4 96.6,50.4 96.6,48.5 103.2,48.5 
			103.2,46.8 94.9,46.8 94.9,55.4 		"/>
		<polygon class="st1" points="90.1,55.4 90.1,48.5 93.2,48.5 93.2,46.8 85.2,46.8 85.2,48.5 88.4,48.5 88.4,55.4 		"/>
		<path class="st1" d="M83.8,52.6c0-0.4-0.1-0.7-0.2-1c-0.1-0.3-0.3-0.5-0.5-0.7c-0.2-0.2-0.5-0.3-0.9-0.4c-0.4-0.1-0.8-0.1-1.4-0.1
			h-3.5c-0.4,0-0.7-0.1-0.8-0.2c-0.1-0.1-0.2-0.4-0.2-0.7c0-0.3,0.1-0.6,0.2-0.7c0.1-0.1,0.4-0.2,0.8-0.2h5.9c0-0.3,0.1-0.6,0.1-0.9
			c0-0.3,0.1-0.6,0.1-0.9h-6.1c-0.5,0-1,0-1.3,0.1c-0.4,0.1-0.6,0.2-0.9,0.4c-0.2,0.2-0.4,0.4-0.5,0.7c-0.1,0.3-0.1,0.7-0.1,1.1v0.3
			c0,0.4,0,0.7,0.1,1c0.1,0.3,0.2,0.5,0.5,0.7c0.2,0.2,0.5,0.3,0.8,0.4c0.3,0.1,0.8,0.1,1.3,0.1h3.5c0.4,0,0.7,0.1,0.9,0.2
			c0.2,0.1,0.2,0.4,0.2,0.7c0,0.2,0,0.3-0.1,0.5c0,0.1-0.1,0.2-0.2,0.3c-0.1,0.1-0.2,0.1-0.4,0.2c-0.2,0-0.3,0-0.6,0h-5.9
			c0,0.3,0,0.6-0.1,0.8c0,0.3,0,0.6-0.1,0.8H81c0.5,0,0.9,0,1.3-0.1c0.4-0.1,0.7-0.2,0.9-0.4c0.2-0.2,0.4-0.4,0.5-0.8
			c0.1-0.3,0.2-0.7,0.2-1.2V52.6z"/>
		<polygon class="st1" points="69.5,55.4 69.5,52.3 73.7,46.8 71.7,46.8 68.7,50.8 65.7,46.8 63.8,46.8 67.8,52.3 67.8,55.4 		"/>
		<path class="st1" d="M62.6,52.6c0-0.4-0.1-0.7-0.2-1c-0.1-0.3-0.3-0.5-0.5-0.7c-0.2-0.2-0.5-0.3-0.9-0.4c-0.4-0.1-0.8-0.1-1.4-0.1
			h-3.5c-0.4,0-0.7-0.1-0.8-0.2c-0.1-0.1-0.2-0.4-0.2-0.7c0-0.3,0.1-0.6,0.2-0.7c0.1-0.1,0.4-0.2,0.8-0.2h5.9c0-0.3,0.1-0.6,0.1-0.9
			c0-0.3,0.1-0.6,0.1-0.9h-6.1c-0.5,0-1,0-1.3,0.1c-0.4,0.1-0.6,0.2-0.9,0.4c-0.2,0.2-0.4,0.4-0.5,0.7c-0.1,0.3-0.1,0.7-0.1,1.1v0.3
			c0,0.4,0,0.7,0.1,1c0.1,0.3,0.2,0.5,0.5,0.7c0.2,0.2,0.5,0.3,0.8,0.4c0.3,0.1,0.8,0.1,1.3,0.1h3.5c0.4,0,0.7,0.1,0.9,0.2
			c0.2,0.1,0.2,0.4,0.2,0.7c0,0.2,0,0.3-0.1,0.5c0,0.1-0.1,0.2-0.2,0.3c-0.1,0.1-0.2,0.1-0.4,0.2c-0.2,0-0.3,0-0.6,0h-5.9
			c0,0.3,0,0.6-0.1,0.8c0,0.3,0,0.6-0.1,0.8h6.1c0.5,0,0.9,0,1.3-0.1c0.4-0.1,0.7-0.2,0.9-0.4c0.2-0.2,0.4-0.4,0.5-0.8
			c0.1-0.3,0.2-0.7,0.2-1.2V52.6z"/>
	</g>
</g>
</svg>
