<?xml version="1.0" encoding="utf-8"?>
<!-- Generator: Adobe Illustrator 24.0.3, SVG Export Plug-In . SVG Version: 6.00 Build 0)  -->
<svg version="1.1" id="Layer_1" xmlns="http://www.w3.org/2000/svg" xmlns:xlink="http://www.w3.org/1999/xlink" x="0px" y="0px"
	 viewBox="0 0 170 170" style="enable-background:new 0 0 170 170;" xml:space="preserve">
<style type="text/css">
	.st0{fill:#041d3c;}
</style>
<g>
	<g>
		<g>
			<path class="st0" d="M85,17c-26.3,0.3-52.1,14.6-62.9,39.2c-11.7,26.5-1.9,56.1,20.5,73.3c-0.4-0.6-0.7-1.3-1.1-1.9
				c0,7.7,0,15.5,0,23.2c0,1.7,1.9,2.8,3.4,1.9c4.2-2.3,8.3-4.6,12.5-6.9c2.5-1.4,5-2.7,7.5-4.1c3.2-1.7,2.6-0.5,6.5,0.2
				c18.8,3.5,39-0.4,54.7-11.5c29-20.6,35.8-61.1,12.8-88.9C125.7,25.6,105.5,17.2,85,17c-2.9,0-2.9,4.5,0,4.5
				c34.9,0.3,67.6,28.5,63.1,65.3c-2,17-12.3,32.1-26.5,41.3c-7.2,4.7-15.3,7.9-23.8,9.5c-4.5,0.9-9.1,1.2-13.7,1.2
				c-3,0-6-0.2-9-0.7c-2.7-0.4-5.7-1.8-8.4-1.8c-3.8,0-8.4,3.9-11.6,5.7c-4.2,2.3-8.3,4.6-12.5,6.9c1.1,0.6,2.3,1.3,3.4,1.9
				c0-6.8,0-13.6,0-20.5c0-4-0.9-4.3-4.2-7.2c-5.5-4.7-10.2-10.4-13.6-16.8c-13.1-24.2-5.8-53.8,15.4-70.7
				C55.3,26.3,70,21.6,85,21.5C87.9,21.5,87.9,17,85,17z"/>
		</g>
	</g>
	<g>
		<polygon class="st0" points="91.7,101.2 75,83.4 42.3,101.2 78.3,63.1 95.4,80.9 127.7,63.1 		"/>
		<g>
			<path class="st0" d="M93.3,99.6c-5.6-6-11.2-11.9-16.7-17.9c-0.7-0.7-1.9-0.8-2.7-0.4c-10.9,6-21.8,11.9-32.7,17.9
				c0.9,1.2,1.8,2.4,2.7,3.5c12-12.7,24-25.4,35.9-38.2c-1.1,0-2.1,0-3.2,0c5.7,6,11.4,11.9,17.2,17.9c0.7,0.7,1.9,0.8,2.7,0.4
				c10.8-6,21.5-11.9,32.3-17.9c-0.9-1.2-1.8-2.4-2.7-3.5c-12,12.7-24,25.4-35.9,38.2c-2,2.1,1.2,5.3,3.2,3.2
				c12-12.7,24-25.4,35.9-38.2c1.7-1.9-0.5-4.8-2.7-3.5C115.8,67.1,105,73,94.3,79c0.9,0.1,1.8,0.2,2.7,0.4
				c-5.7-6-11.4-11.9-17.2-17.9c-0.8-0.9-2.4-0.9-3.2,0c-12,12.7-24,25.4-35.9,38.2c-1.8,1.9,0.5,4.8,2.7,3.5
				c10.9-6,21.8-11.9,32.7-17.9c-0.9-0.1-1.8-0.2-2.7-0.4c5.6,6,11.2,11.9,16.7,17.9C92.1,104.9,95.3,101.8,93.3,99.6z"/>
		</g>
	</g>
</g>
</svg>
