<?xml version="1.0" encoding="utf-8"?>
<!-- Generator: Adobe Illustrator 24.0.3, SVG Export Plug-In . SVG Version: 6.00 Build 0)  -->
<svg version="1.1" id="Layer_1" xmlns="http://www.w3.org/2000/svg" xmlns:xlink="http://www.w3.org/1999/xlink" x="0px" y="0px"
	 viewBox="0 0 170 170" style="enable-background:new 0 0 170 170;" xml:space="preserve">
<style type="text/css">
	.st0{fill:none;stroke:#041d3c;stroke-width:5;stroke-linecap:round;stroke-linejoin:round;}
</style>
<g id="Icons">
	<g>
		<g>
			<path class="st0" d="M120.1,149.7c0,2.4-2,4.4-4.4,4.4H54.3c-2.4,0-4.4-2-4.4-4.4V20.3c0-2.4,2-4.4,4.4-4.4h61.4
				c2.4,0,4.4,2,4.4,4.4V149.7z"/>
			<line class="st0" x1="119.6" y1="131.5" x2="50.4" y2="131.5"/>
			<line class="st0" x1="50.4" y1="36" x2="119.6" y2="36"/>
			<g>
				<line class="st0" x1="73.3" y1="25.7" x2="96.7" y2="25.7"/>
			</g>
			<line class="st0" x1="82.1" y1="142.7" x2="87.9" y2="142.7"/>
		</g>
		<g>
			<line class="st0" x1="142.3" y1="85.5" x2="156.6" y2="85.5"/>
			<g>
				<line class="st0" x1="137.3" y1="63.1" x2="150.3" y2="57"/>
				<line class="st0" x1="137.3" y1="107.9" x2="150.3" y2="113.9"/>
			</g>
			<line class="st0" x1="27.7" y1="85.5" x2="13.4" y2="85.5"/>
			<g>
				<line class="st0" x1="32.7" y1="107.9" x2="19.7" y2="113.9"/>
				<line class="st0" x1="32.7" y1="63.1" x2="19.7" y2="57"/>
			</g>
		</g>
	</g>
</g>
</svg>
