<?xml version="1.0" encoding="utf-8"?>
<!-- Generator: Adobe Illustrator 24.2.1, SVG Export Plug-In . SVG Version: 6.00 Build 0)  -->
<svg version="1.1" id="Layer_1" xmlns="http://www.w3.org/2000/svg" xmlns:xlink="http://www.w3.org/1999/xlink" x="0px" y="0px"
	 viewBox="0 0 170 170" style="enable-background:new 0 0 170 170;" xml:space="preserve">
<style type="text/css">
	.st0{fill:#041D3C;}
</style>
<g>
	<g>
		<g>
			<path class="st0" d="M85,123.3l-1.7-2.5c-1.1-1.7-27.5-41.8-27.5-57.3c0-16.1,13.1-29.2,29.2-29.2c16.1,0,29.2,13.1,29.2,29.2
				c0,15.4-26.4,55.6-27.5,57.3L85,123.3z M85,38.3c-13.9,0-25.2,11.3-25.2,25.2c0,12.1,19.3,43.3,25.2,52.5
				c5.9-9.2,25.2-40.4,25.2-52.5C110.2,49.6,98.9,38.3,85,38.3z"/>
		</g>
		<g>
			<path class="st0" d="M85,76.4c-7.1,0-12.9-5.8-12.9-12.9c0-7.1,5.8-12.9,12.9-12.9c7.1,0,12.9,5.8,12.9,12.9
				C97.9,70.6,92.1,76.4,85,76.4z M85,54.6c-4.9,0-8.9,4-8.9,8.9c0,4.9,4,8.9,8.9,8.9c4.9,0,8.9-4,8.9-8.9
				C93.9,58.6,89.9,54.6,85,54.6z"/>
		</g>
	</g>
	<g>
		<path class="st0" d="M85,135.7c-20.6,0-36.1-6.4-36.1-14.8c0-6.1,7.8-11.1,20.9-13.5l0.7,3.9c-12.1,2.2-17.6,6.5-17.6,9.6
			c0,5.1,13.2,10.8,32.1,10.8s32.1-5.7,32.1-10.8c0-3.1-5.5-7.4-17.6-9.6l0.7-3.9c13.1,2.4,20.9,7.4,20.9,13.5
			C121.1,129.3,105.6,135.7,85,135.7z"/>
	</g>
</g>
</svg>
