<?xml version="1.0" encoding="utf-8"?>
<!-- Generator: Adobe Illustrator 24.2.1, SVG Export Plug-In . SVG Version: 6.00 Build 0)  -->
<svg version="1.1" id="Layer_1" xmlns="http://www.w3.org/2000/svg" xmlns:xlink="http://www.w3.org/1999/xlink" x="0px" y="0px"
	 viewBox="0 0 170 170" style="enable-background:new 0 0 170 170;" xml:space="preserve">
<style type="text/css">
	.st0{fill:#041D3C;}
</style>
<g>
	<g>
		<path class="st0" d="M85,137.3c-28.9,0-52.3-23.5-52.3-52.3c0-28.9,23.5-52.3,52.3-52.3c28.9,0,52.3,23.5,52.3,52.3
			C137.3,113.9,113.9,137.3,85,137.3z M85,36.7c-26.7,0-48.3,21.7-48.3,48.3c0,26.6,21.7,48.3,48.3,48.3c26.7,0,48.3-21.7,48.3-48.3
			C133.3,58.4,111.7,36.7,85,36.7z"/>
	</g>
	<g>
		<path class="st0" d="M85,129.2c-24.4,0-44.2-19.8-44.2-44.2c0-24.4,19.8-44.2,44.2-44.2c24.4,0,44.2,19.8,44.2,44.2
			C129.2,109.4,109.4,129.2,85,129.2z M85,44.8c-22.1,0-40.2,18-40.2,40.2c0,22.1,18,40.2,40.2,40.2c22.1,0,40.2-18,40.2-40.2
			C125.2,62.9,107.1,44.8,85,44.8z"/>
	</g>
	<g>
		<g>
			<g>
				<rect x="83" y="47.4" class="st0" width="4" height="7.8"/>
			</g>
			<g>
				
					<rect x="97.9" y="53.8" transform="matrix(0.4999 -0.8661 0.8661 0.4999 2.5998 116.1216)" class="st0" width="7.8" height="4"/>
			</g>
			<g>
				<rect x="110.3" y="66.1" transform="matrix(0.866 -0.5 0.5 0.866 -18.7754 66.2276)" class="st0" width="7.8" height="4"/>
			</g>
			<g>
				<rect x="114.8" y="83" class="st0" width="7.8" height="4"/>
			</g>
			<g>
				
					<rect x="112.2" y="97.9" transform="matrix(0.5001 -0.866 0.866 0.5001 -31.1162 149.8018)" class="st0" width="4" height="7.8"/>
			</g>
			<g>
				<rect x="99.9" y="110.3" transform="matrix(0.866 -0.5 0.5 0.866 -43.4505 66.2278)" class="st0" width="4" height="7.8"/>
			</g>
			<g>
				<rect x="83" y="114.8" class="st0" width="4" height="7.8"/>
			</g>
			<g>
				
					<rect x="64.2" y="112.2" transform="matrix(0.5003 -0.8658 0.8658 0.5003 -64.8194 116.0628)" class="st0" width="7.8" height="4"/>
			</g>
			<g>
				
					<rect x="51.9" y="99.9" transform="matrix(0.8663 -0.4995 0.4995 0.8663 -43.4182 41.4994)" class="st0" width="7.8" height="4"/>
			</g>
			<g>
				<rect x="47.4" y="83" class="st0" width="7.8" height="4"/>
			</g>
			<g>
				
					<rect x="53.8" y="64.2" transform="matrix(0.5002 -0.8659 0.8659 0.5002 -31.1168 82.3867)" class="st0" width="4" height="7.8"/>
			</g>
			<g>
				
					<rect x="66.1" y="51.9" transform="matrix(0.8662 -0.4997 0.4997 0.8662 -18.7707 41.5218)" class="st0" width="4" height="7.8"/>
			</g>
		</g>
		<g>
			<g>
				<path class="st0" d="M85,89.4L85,89.4c-1.1,0-2.1-0.4-2.9-1.1c-0.9-0.8-1.4-1.8-1.4-3c-0.1-1.2,0.3-2.3,1.1-3.1
					c0.8-0.9,2-1.5,3.2-1.5c1.1,0,2.1,0.4,2.9,1.1c1.8,1.6,1.9,4.4,0.3,6.1C87.4,88.8,86.2,89.4,85,89.4z M85,84.6
					c-0.1,0-0.2,0-0.3,0.1c-0.1,0.1-0.1,0.2-0.1,0.3c0,0.1,0,0.2,0.1,0.2c0.1,0.1,0.3,0.2,0.5,0c0.1-0.1,0.1-0.4,0-0.5
					C85.2,84.7,85.1,84.6,85,84.6z"/>
			</g>
			<g>
				
					<rect x="82.5" y="72.1" transform="matrix(0.6665 -0.7455 0.7455 0.6665 -23.6379 95.3557)" class="st0" width="24.6" height="4"/>
			</g>
			<g>
				
					<rect x="73.9" y="66.1" transform="matrix(0.6666 -0.7454 0.7454 0.6666 -31.9862 82.2181)" class="st0" width="4" height="21.6"/>
			</g>
		</g>
	</g>
</g>
</svg>
