<?xml version="1.0" encoding="utf-8"?>
<!-- Generator: Adobe Illustrator 24.2.1, SVG Export Plug-In . SVG Version: 6.00 Build 0)  -->
<svg version="1.1" id="Layer_1" xmlns="http://www.w3.org/2000/svg" xmlns:xlink="http://www.w3.org/1999/xlink" x="0px" y="0px"
	 viewBox="0 0 170 170" style="enable-background:new 0 0 170 170;" xml:space="preserve">
<style type="text/css">
	.st0{fill:#041D3C;}
</style>
<g>
	<g>
		<path class="st0" d="M106.4,135.2H63.6c-2.8,0-5.1-2.3-5.1-5.1V39.8c0-2.8,2.3-5.1,5.1-5.1h42.9c2.8,0,5.1,2.3,5.1,5.1v90.4
			C111.5,133,109.2,135.2,106.4,135.2z M63.6,38.8c-0.6,0-1.1,0.5-1.1,1.1v90.4c0,0.6,0.5,1.1,1.1,1.1h42.9c0.6,0,1.1-0.5,1.1-1.1
			V39.8c0-0.6-0.5-1.1-1.1-1.1H63.6z"/>
	</g>
	<g>
		<rect x="60.9" y="115.5" class="st0" width="48.3" height="4"/>
	</g>
	<g>
		<rect x="60.9" y="48.8" class="st0" width="48.3" height="4"/>
	</g>
	<g>
		<g>
			<rect x="76.8" y="41.6" class="st0" width="16.4" height="4"/>
		</g>
	</g>
	<g>
		<rect x="83" y="123.3" class="st0" width="4" height="4"/>
	</g>
	<g>
		<g>
			<path class="st0" d="M85.4,101.7c-9,0-16.3-7.3-16.3-16.3c0-9,7.3-16.3,16.3-16.3c4.9,0,9.5,2.2,12.6,6l-3.1,2.5
				c-2.3-2.9-5.8-4.5-9.5-4.5c-6.8,0-12.3,5.5-12.3,12.3c0,6.8,5.5,12.3,12.3,12.3c2.7,0,5.3-0.9,7.4-2.5l2.4,3.2
				C92.3,100.6,88.9,101.7,85.4,101.7z"/>
		</g>
		<g>
			<path class="st0" d="M82.8,93.7L82.8,93.7c-0.7,0-1.4-0.1-2.1-0.3c-2.2-0.6-3.9-2.5-4.5-5c-0.8-3.2,0.4-6.8,3.1-9.4
				c1.9-1.8,4.6-2.7,7.8-2.7c1.8,0,3.2,0.3,3.3,0.3l2.1,0.5l-0.6,2.1c-0.1,0.3-2.6,8.5-3,9.8C87.7,92,85.5,93.7,82.8,93.7z M87,80.4
				c-1.5,0-3.6,0.3-5,1.6c-2,1.8-2.3,4-1.9,5.5c0.2,0.6,0.6,1.7,1.7,2.1c1.6,0.5,2.6-0.1,3.2-1.8c0.3-0.7,1.4-4.4,2.3-7.3
				C87.2,80.4,87.1,80.4,87,80.4z"/>
		</g>
		<g>
			<path class="st0" d="M91.4,93.6c-1.5,0-2.9-0.5-4-1.5c-1.2-1.1-2.2-4.2,0.2-12.4l3.8,1.1c-1,3.5-1.6,7.4-1.2,8.5
				c0.6,0.5,1.4,0.5,2.3,0.2c1.8-0.6,3.9-2.7,4.4-5.5c0.5-2.9-0.9-5.8-4-8.3l2.5-3.1c5.8,4.6,5.9,9.5,5.4,12.1
				c-0.7,3.9-3.6,7.4-7,8.6C93,93.5,92.2,93.6,91.4,93.6z"/>
		</g>
	</g>
</g>
</svg>
