<?xml version="1.0" encoding="utf-8"?>
<!-- Generator: Adobe Illustrator 24.2.1, SVG Export Plug-In . SVG Version: 6.00 Build 0)  -->
<svg version="1.1" id="Layer_1" xmlns="http://www.w3.org/2000/svg" xmlns:xlink="http://www.w3.org/1999/xlink" x="0px" y="0px"
	 viewBox="0 0 170 170" style="enable-background:new 0 0 170 170;" xml:space="preserve">
<style type="text/css">
	.st0{fill:#041D3C;}
</style>
<g>
	<g>
		<g>
			<path class="st0" d="M124.6,124.1H45.4c-3.3,0-6-2.7-6-6v-17.2c-0.2-0.9,0.6-2.2,5.4-9.7c2.2-3.4,6.4-9.9,10.4-15.8l3.3,2.3
				c-6.1,9-13.7,21-15.1,23.4v17.1c0,1.1,0.9,2,2,2h79.3c1.1,0,2-0.9,2-2v-17.3c-0.4-1-2.9-5.2-16.1-23.3l3.2-2.4
				c16.9,23.1,16.9,24.4,16.9,25.4v17.6C130.6,121.4,127.9,124.1,124.6,124.1z"/>
		</g>
		<g>
			<path class="st0" d="M63,103.9H45.4c-2.4,0-4.5-1.4-5.5-3.5l3.7-1.6c0.3,0.7,1,1.2,1.8,1.2H63V103.9z"/>
		</g>
		<g>
			<path class="st0" d="M124.6,103.9h-17.8v-4h17.8c0.8,0,1.5-0.5,1.8-1.2l3.7,1.6C129.1,102.5,127,103.9,124.6,103.9z"/>
		</g>
		<g>
			<path class="st0" d="M85,119.8c-13.6,0-24.7-11.1-24.7-24.7c0-13.6,11.1-24.7,24.7-24.7c13.6,0,24.7,11.1,24.7,24.7
				C109.7,108.7,98.6,119.8,85,119.8z M85,74.3c-11.4,0-20.7,9.3-20.7,20.7s9.3,20.7,20.7,20.7c11.4,0,20.7-9.3,20.7-20.7
				S96.4,74.3,85,74.3z"/>
		</g>
		<g>
			<path class="st0" d="M85,109.9l0-4c1.2,0,2.3-0.2,3.4-0.5l1.2,3.8C88.1,109.7,86.6,109.9,85,109.9z M80.4,109.2
				c-1.5-0.5-2.9-1.2-4.2-2.1l2.3-3.2c0.9,0.7,2,1.2,3,1.5L80.4,109.2z M93.8,107.1l-2.4-3.2c0.9-0.7,1.7-1.5,2.4-2.4l3.2,2.4
				C96.2,105.1,95,106.2,93.8,107.1z M72.9,103.8c-0.9-1.3-1.6-2.7-2.1-4.2l3.8-1.2c0.4,1.1,0.9,2.1,1.6,3L72.9,103.8z M99.2,99.6
				l-3.8-1.2c0.4-1.1,0.5-2.2,0.5-3.4l4-0.1V95C99.9,96.6,99.7,98.1,99.2,99.6z M70.1,95L70.1,95c0-1.6,0.2-3.1,0.7-4.6l3.8,1.2
				c-0.3,1.1-0.5,2.2-0.5,3.4L70.1,95z M95.4,91.6c-0.4-1.1-0.9-2.1-1.6-3l3.2-2.4c0.9,1.3,1.6,2.7,2.1,4.1L95.4,91.6z M76.1,88.6
				l-3.2-2.3c0.9-1.3,2-2.4,3.3-3.3l2.4,3.2C77.6,86.9,76.8,87.7,76.1,88.6z M91.4,86.2c-0.9-0.7-2-1.2-3-1.5l1.2-3.8
				c1.5,0.5,2.9,1.2,4.2,2.1L91.4,86.2z M81.6,84.6l-1.2-3.8c1.5-0.5,3-0.7,4.6-0.7l0,4C83.8,84.1,82.7,84.3,81.6,84.6z"/>
		</g>
		<g>
			<path class="st0" d="M126.9,66c-8.6-10.1-23.9-16.1-40.8-16.1c-0.1,0-0.2,0-0.2,0C59.4,49.3,46.4,62.1,43,66l-3-2.6
				C49.7,52,66.9,45.5,85.9,45.9c0.1,0,0.2,0,0.3,0c18.1,0,34.5,6.5,43.8,17.5L126.9,66z"/>
		</g>
		<g>
			<path class="st0" d="M110,66l-3.9-0.8c0-0.2,0-0.2,0-0.2c-0.2-0.2-0.8-0.7-2.4-1c-2.6-0.5-11.7-1-18.7-1.2
				C78,63,68.9,63.5,66.3,64c-1.5,0.3-2.2,0.7-2.4,1c0,0-0.1,0.1,0,0.2L60,66c-0.3-1.2,0-2.3,0.6-3.3c0.9-1.3,2.6-2.2,5-2.6
				c3.1-0.5,13.3-1.1,19.3-1.2l0.1,0l0.1,0c5.9,0.2,16.2,0.7,19.3,1.2c2.4,0.4,4.1,1.3,5,2.7C110,63.7,110.2,64.8,110,66z"/>
		</g>
		<g>
			<g>
				<path class="st0" d="M60.9,78.6H41.2c-2.3,0-4.1-1.9-4.1-4.1V67c0-2.3,1.9-4.1,4.1-4.1h10.6v4H41.2c-0.1,0-0.1,0.1-0.1,0.1v7.5
					c0,0.1,0.1,0.1,0.1,0.1h19.8c0.1,0,0.1-0.1,0.1-0.1V67c0-0.1-0.1-0.1-0.1-0.1h-4.6v-4h4.6c2.3,0,4.1,1.9,4.1,4.1v7.5
					C65.1,76.8,63.2,78.6,60.9,78.6z"/>
			</g>
			<g>
				<path class="st0" d="M128.8,78.6h-19.8c-2.3,0-4.1-1.9-4.1-4.1V67c0-2.3,1.9-4.1,4.1-4.1h4.6v4h-4.6c-0.1,0-0.1,0.1-0.1,0.1v7.5
					c0,0.1,0.1,0.1,0.1,0.1h19.8c0.1,0,0.1-0.1,0.1-0.1V67c0-0.1-0.1-0.1-0.1-0.1h-10.6v-4h10.6c2.3,0,4.1,1.9,4.1,4.1v7.5
					C133,76.8,131.1,78.6,128.8,78.6z"/>
			</g>
		</g>
	</g>
</g>
</svg>
