<?xml version="1.0" encoding="utf-8"?>
<!-- Generator: Adobe Illustrator 24.2.1, SVG Export Plug-In . SVG Version: 6.00 Build 0)  -->
<svg version="1.1" id="Layer_1" xmlns="http://www.w3.org/2000/svg" xmlns:xlink="http://www.w3.org/1999/xlink" x="0px" y="0px"
	 viewBox="0 0 170 170" style="enable-background:new 0 0 170 170;" xml:space="preserve">
<style type="text/css">
	.st0{fill:none;stroke:#EC2028;stroke-width:4;stroke-linecap:round;stroke-linejoin:round;}
</style>
<g>
	<line class="st0" x1="99.8" y1="117.8" x2="69.1" y2="126"/>
	<line class="st0" x1="98" y1="92.8" x2="70.9" y2="101"/>
	<line class="st0" x1="71.4" y1="88.3" x2="97.5" y2="80.4"/>
	<line class="st0" x1="69.7" y1="113.4" x2="99.2" y2="105.4"/>
	<g>
		<line class="st0" x1="97.8" y1="75.8" x2="101.6" y2="131.1"/>
		<line class="st0" x1="67.3" y1="131.1" x2="71.1" y2="75.8"/>
	</g>
	<rect x="67.3" y="64.2" class="st0" width="34.4" height="11"/>
	<rect x="72.8" y="51.9" class="st0" width="23.4" height="12.4"/>
	<polyline class="st0" points="68.3,49.6 84.5,38.8 100.6,49.6 	"/>
	<line class="st0" x1="60.6" y1="131.3" x2="108.3" y2="131.3"/>
	<line class="st0" x1="84.5" y1="64.5" x2="84.5" y2="57.1"/>
	<polyline class="st0" points="133.9,73.7 118.8,65 103.6,56.2 118.8,47.4 133.9,38.7 	"/>
	<polyline class="st0" points="36.1,38.7 51.2,47.4 66.4,56.2 51.2,65 36.1,73.7 	"/>
</g>
</svg>
