<?xml version="1.0" encoding="utf-8"?>
<!-- Generator: Adobe Illustrator 24.2.1, SVG Export Plug-In . SVG Version: 6.00 Build 0)  -->
<svg version="1.1" id="Layer_1" xmlns="http://www.w3.org/2000/svg" xmlns:xlink="http://www.w3.org/1999/xlink" x="0px" y="0px"
	 viewBox="0 0 170 170" style="enable-background:new 0 0 170 170;" xml:space="preserve">
<style type="text/css">
	.st0{fill:none;stroke:#EC2028;stroke-width:4;stroke-linecap:round;stroke-linejoin:round;}
</style>
<g>
	<g>
		<path class="st0" d="M65.8,105.5c-6.8,4.4-11.4,12.5-11.4,21.7"/>
		<path class="st0" d="M114.8,127.3c0-9.3-4.6-17.4-11.4-21.8"/>
		<path class="st0" d="M102.2,98.2c3.5-6.3,5.7-13.9,5.8-22.2c0.4-22.3-13.6-40.6-31.4-40.9c-1.9,0-3.8,0.2-5.7,0.6
			c0.4,1.9,0.9,5.8,1.4,7.8L53.1,63.3l0.3,6.5l7.4,6.5c0,0,5.3-8,17.3-9.5c-6.7,12.8-10.1,22.6-11.3,31.1"/>
		<path class="st0" d="M72.3,43.5C86,44.2,96.4,53,101.1,65.8"/>
		<g>
			<path class="st0" d="M78.2,66.4c1.2-2.5,2.6-5,4.1-7.7"/>
		</g>
		<path class="st0" d="M91.5,98.4h12.8c1.1,0,2,0.9,2,2v3c0,1.1-0.9,2-2,2H65.7c-1.1,0-2-0.9-2-2v-3c0-1.1,0.9-2,2-2h5.8"/>
		<path class="st0" d="M96.2,127.9h19.2c1.1,0,2,0.9,2,2v3c0,1.1-0.9,2-2,2H54.7c-1.1,0-2-0.9-2-2v-3c0-1.1,0.9-2,2-2h6.8"/>
	</g>
	<line class="st0" x1="92.1" y1="127.9" x2="83.1" y2="127.9"/>
	<line class="st0" x1="88.3" y1="98.4" x2="84.3" y2="98.4"/>
</g>
</svg>
