<?xml version="1.0" encoding="utf-8"?>
<!-- Generator: Adobe Illustrator 24.2.1, SVG Export Plug-In . SVG Version: 6.00 Build 0)  -->
<svg version="1.1" id="Layer_1" xmlns="http://www.w3.org/2000/svg" xmlns:xlink="http://www.w3.org/1999/xlink" x="0px" y="0px"
	 viewBox="0 0 170 170" style="enable-background:new 0 0 170 170;" xml:space="preserve">
<style type="text/css">
	.st0{fill:none;stroke:#EC2028;stroke-width:4;stroke-linecap:round;stroke-linejoin:round;}
</style>
<g>
	<g>
		<g>
			<path class="st0" d="M45.5,103c-2,1.5-3.4,3.9-3.4,6.7v14.5l0.2,3.2c0,1.7,1.4,3.1,3.1,3.1c1.7,0,3.1-0.6,3.1-2.3v0.8
				c0,1.7,1.4,3.1,3.1,3.1c1.7,0,3.1-1.4,3.1-3.1v1.5c0,1.7,1.4,3.1,3.1,3.1c1.7,0,3.1-1.4,3.1-3.1l0,0.5c0,1.8,1.4,3.2,3.2,3.2
				c1.8,0,3.2-1.4,3.2-3.2l0-15.7l0.1,1.5v6.4c0,2.6,2.1,4.7,4.7,4.7h1.6c0.1,0-0.1,0,0,0V122c0,0,0,0,0,0v-7.9l-9-10.4"/>
			<g>
				<polyline class="st0" points="42.5,80.3 42.5,102.2 67.7,102.2 67.7,73.8 				"/>
			</g>
		</g>
	</g>
	<g>
		<g>
			<path class="st0" d="M102.9,124.4c1.5,2,3.9,3.4,6.7,3.4H124l3.2-0.2c1.7,0,3.1-1.4,3.1-3.1c0-1.7-0.6-3.1-2.3-3.1h0.8
				c1.7,0,3.1-1.4,3.1-3.1c0-1.7-1.4-3.1-3.1-3.1h1.5c1.7,0,3.1-1.4,3.1-3.1c0-1.7-1.4-3.1-3.1-3.1l0.5,0c1.8,0,3.2-1.4,3.2-3.2
				c0-1.8-1.4-3.2-3.2-3.2l-15.7,0l1.5-0.1h6.4c2.6,0,4.7-2.1,4.7-4.7v-1.6c0-0.1,0,0.1,0,0h-5.9c0,0,0,0,0,0H114l-10.4,9"/>
			<g>
				<polyline class="st0" points="80.2,127.3 102.1,127.3 102.1,102.2 73.7,102.2 				"/>
			</g>
		</g>
	</g>
	<g>
		<g>
			<path class="st0" d="M124.3,67c2-1.5,3.4-3.9,3.4-6.7V45.8l-0.2-3.2c0-1.7-1.4-3.1-3.1-3.1c-1.7,0-3.1,0.6-3.1,2.3v-0.8
				c0-1.7-1.4-3.1-3.1-3.1c-1.7,0-3.1,1.4-3.1,3.1v-1.5c0-1.7-1.4-3.1-3.1-3.1c-1.7,0-3.1,1.4-3.1,3.1l0-0.5c0-1.8-1.4-3.2-3.2-3.2
				s-3.2,1.4-3.2,3.2l0,15.7l-0.1-1.5v-6.4c0-2.6-2.1-4.7-4.7-4.7H96c-0.1,0,0.1,0,0,0V48c0,0,0,0,0,0v7.9l9,10.4"/>
			<g>
				<polyline class="st0" points="127.2,89.7 127.2,67.8 102,67.8 102,96.2 				"/>
			</g>
		</g>
	</g>
	<g>
		<g>
			<path class="st0" d="M67.1,46.4c-1.5-2-3.9-3.4-6.7-3.4H46l-3.2,0.2c-1.7,0-3.1,1.4-3.1,3.1c0,1.7,0.6,3.1,2.3,3.1h-0.8
				c-1.7,0-3.1,1.4-3.1,3.1c0,1.7,1.4,3.1,3.1,3.1h-1.5c-1.7,0-3.1,1.4-3.1,3.1c0,1.7,1.4,3.1,3.1,3.1l-0.5,0
				c-1.8,0-3.2,1.4-3.2,3.2c0,1.8,1.4,3.2,3.2,3.2l15.7,0l-1.5,0.1H47c-2.6,0-4.7,2.1-4.7,4.7v1.6c0,0.1,0-0.1,0,0h5.9c0,0,0,0,0,0
				H56l10.4-9"/>
			<g>
				<polyline class="st0" points="89.8,43.5 67.9,43.5 67.9,68.6 96.3,68.6 				"/>
			</g>
		</g>
	</g>
</g>
</svg>
