<?xml version="1.0" encoding="utf-8"?>
<!-- Generator: Adobe Illustrator 24.2.1, SVG Export Plug-In . SVG Version: 6.00 Build 0)  -->
<svg version="1.1" id="Layer_1" xmlns="http://www.w3.org/2000/svg" xmlns:xlink="http://www.w3.org/1999/xlink" x="0px" y="0px"
	 viewBox="0 0 170 170" style="enable-background:new 0 0 170 170;" xml:space="preserve">
<style type="text/css">
	.st0{fill:none;stroke:#041d3c;stroke-width:4;stroke-linecap:round;stroke-linejoin:round;}
</style>
<g>
	<path class="st0" d="M49.5,131.9v-12.1c0-5.4,4.9-9.7,11-9.7h48.1c6.1,0,11,4.3,11,9.7v12.1"/>
	<path class="st0" d="M110.3,60.2v19.1c0,13.9-11.3,25.2-25.2,25.2l0,0c-11.7,0-21.6-8-24.4-18.9"/>
	<polyline class="st0" points="91.6,111 87.8,117.6 80.3,117.6 76.5,111 	"/>
	<polyline class="st0" points="80.8,117.5 77.5,136.7 84.3,143.5 90.5,136.7 87.3,117.5 	"/>
	<line class="st0" x1="86" y1="70.4" x2="86" y2="83.8"/>
	<path class="st0" d="M78.8,33.1c-4.6,0-8.6,2.3-10.9,5.9h-7.3c-5.6,0-10.1,4.5-10.1,10.1v36.7h10V63.8c0-3.9,3.2-7.1,7.1-7.1h4.1
		H101h6.5c7.2,0,13-5.8,13-13V33.1H78.8z"/>
</g>
</svg>
