<?xml version="1.0" encoding="utf-8"?>
<!-- Generator: Adobe Illustrator 24.2.1, SVG Export Plug-In . SVG Version: 6.00 Build 0)  -->
<svg version="1.1" id="Layer_1" xmlns="http://www.w3.org/2000/svg" xmlns:xlink="http://www.w3.org/1999/xlink" x="0px" y="0px"
	 viewBox="0 0 170 170" style="enable-background:new 0 0 170 170;" xml:space="preserve">
<style type="text/css">
	.st0{fill:none;stroke:#041d3c;stroke-width:4;stroke-linecap:round;stroke-linejoin:round;}
</style>
<g>
	<path class="st0" d="M137.7,100.9c3.1,0,7.4-2.7,7.4-5.9c0-12.1,0-24.1,0-36.2c0-3.3-2.4-7-5.4-8c-10.4-3.3-21.4-3.3-31.8,0
		c-3,1-5.4,4.8-5.4,8c0,12.1,0,24.1,0,36.2"/>
	<polyline class="st0" points="62.7,65.9 72.8,97.2 61.9,101 	"/>
	<path class="st0" d="M93,94.5c0,3.7-3,6.8-6.8,6.8c-3.7,0-6.8-3-6.8-6.8c0-3.7,3-6.8,6.8-6.8C90,87.7,93,90.7,93,94.5z"/>
	<rect x="76.3" y="108.3" class="st0" width="18.7" height="20.3"/>
	<line class="st0" x1="68.3" y1="98" x2="76.2" y2="108.3"/>
	<line class="st0" x1="95.1" y1="108.3" x2="102.9" y2="98"/>
	<g>
		<line class="st0" x1="80.3" y1="128.6" x2="80.3" y2="145.2"/>
		<line class="st0" x1="91" y1="128.7" x2="91" y2="145.2"/>
	</g>
	<path class="st0" d="M39.1,125.7c0.7,6.4,1.4,12.8,2.1,19.2h10c0.7-6.4,1.4-12.8,2.1-19.2"/>
	<line class="st0" x1="123.8" y1="106.3" x2="123.8" y2="142"/>
	<g>
		<polyline class="st0" points="111.4,64.3 111.4,142.6 136.2,142.6 136.2,64.3 		"/>
	</g>
	<path class="st0" d="M62.7,65.9c-1-3.3-3.8-7-6-8c-3.8-1.7-7.2-2.5-10.6-2.5h0c-3.4,0-6.8,0.8-10.6,2.5c-2.2,1-5,4.8-6,8
		c-1.6,5.3-3.2,10.5-4.7,15.8c1.6,5.3,3.5,11.6,5.1,16.9"/>
	<g>
		<path class="st0" d="M36.9,67.9c-3.5,17.3-7,34.6-10.6,51.8c13.3,0,26.5,0,39.7,0c-3.5-17.3-7-34.6-10.6-51.8"/>
	</g>
	<path class="st0" d="M135.5,36.4c0,6.4-5.2,11.6-11.6,11.6c-6.4,0-11.6-5.2-11.6-11.6c0-6.4,5.2-11.6,11.6-11.6
		C130.2,24.8,135.5,30,135.5,36.4z"/>
	<path class="st0" d="M57.2,43.6c0,6.1-4.9,11.1-11,11.1c-6.1,0-11-4.9-11-11.1c0-6.1,4.9-11.1,11-11.1
		C52.3,32.5,57.2,37.5,57.2,43.6z"/>
</g>
</svg>
