<?xml version="1.0" encoding="utf-8"?>
<!-- Generator: Adobe Illustrator 24.2.1, SVG Export Plug-In . SVG Version: 6.00 Build 0)  -->
<svg version="1.1" id="Layer_1" xmlns="http://www.w3.org/2000/svg" xmlns:xlink="http://www.w3.org/1999/xlink" x="0px" y="0px"
	 viewBox="0 0 170 170" style="enable-background:new 0 0 170 170;" xml:space="preserve">
<style type="text/css">
	.st0{fill:none;stroke:#041d3c;stroke-width:4;stroke-linecap:round;stroke-linejoin:round;}
</style>
<g>
	<path class="st0" d="M111.9,69.9v39.3c0,5.8-2,10.6-5.7,14.4"/>
	<path class="st0" d="M64.6,123.2c-3.2-3.8-5.1-8.6-5.1-13.9V69.9"/>
	<path class="st0" d="M75,120.7c-13.1,2.3-23.9,9.1-29.3,18.1"/>
	<path class="st0" d="M124.3,138.8c-5.4-9-16.2-15.8-29.2-18.1"/>
	<path class="st0" d="M110.5,78.9c5.1,0,9.3,4.2,9.3,9.3l0,0c0,5.1-3,9.2-8.1,9.2"/>
	<path class="st0" d="M59.9,97.2c-5.1,0-8.3-4-8.3-9.1l0,0c0-5.1,4.2-9.3,9.3-9.3"/>
	<path class="st0" d="M94.7,113.7l0,8.3c0,5.3-4.3,9.7-9.7,9.7l0,0c-5.3,0-9.7-4.3-9.7-9.7l0-8.5"/>
	<path class="st0" d="M111.9,92.1c0,12-9.7,21.6-21.6,21.6h-9.1c-12,0-21.6-9.7-21.6-21.6V52.8c0-12,9.7-21.6,21.6-21.6h9.1
		c12,0,21.6,9.7,21.6,21.6V92.1z"/>
	<path class="st0" d="M90.2,31.2h-9.1c-12,0-21.6,9.7-21.6,21.6v25.9c10.8-1,21.1-11.1,26.2-25.5c5.1,14.4,15.4,24.5,26.2,25.5V52.8
		C111.9,40.9,102.2,31.2,90.2,31.2z"/>
	<path class="st0" d="M76.4,92.7v4c0,3.1,2.5,5.7,5.7,5.7h4c3.1,0,5.7-2.5,5.7-5.7v-4H76.4z"/>
</g>
</svg>
