<?xml version="1.0" encoding="utf-8"?>
<!-- Generator: Adobe Illustrator 24.2.0, SVG Export Plug-In . SVG Version: 6.00 Build 0)  -->
<svg version="1.1" id="Layer_1" xmlns="http://www.w3.org/2000/svg" xmlns:xlink="http://www.w3.org/1999/xlink" x="0px" y="0px"
	 viewBox="0 0 170 170" style="enable-background:new 0 0 170 170;" xml:space="preserve">
<style type="text/css">
	.st0{fill:none;stroke:#EC2028;stroke-width:4;stroke-linecap:round;stroke-linejoin:round;}
</style>
<g>
	<path class="st0" d="M104.6,56.5c-6.1-3.5-7.7-3.7-16.2-1.4c-1.3,0.3-2.4,0.5-3.4,0.6c-1-0.1-2.1-0.3-3.4-0.6
		c-8.5-2.2-10.1-2.1-16.2,1.4c-5.3,2.8-8.4,11-6.9,20.1c1.8,10.6,5.8,11.3,5.8,22.8c0,11.4,4.1,17.1,7.5,17.1c3.3,0,5-3.9,8.6-13.7
		c2.5-6.7,6.2-7.8,9.1,0c3.6,9.8,5.3,13.7,8.6,13.7c3.3,0,7.5-5.7,7.5-17.1c0-11.4,4.1-12.1,5.8-22.8
		C113,67.4,109.9,59.3,104.6,56.5z"/>
	<g>
		<g>
			<g>
				<path class="st0" d="M53,28.3c-3,3.1-4.2,7.4-3.5,11.4c4,0.6,8.2-0.7,11.3-3.8c3-3.1,4.2-7.4,3.5-11.4
					C60.3,23.9,56.1,25.1,53,28.3z"/>
				<path class="st0" d="M31.1,45.5c0.4,4.2,2.8,7.8,6.2,9.8c3-2.6,4.7-6.5,4.3-10.7c-0.4-4.2-2.8-7.8-6.2-9.8
					C32.4,37.4,30.7,41.3,31.1,45.5z"/>
				<path class="st0" d="M20.2,72.7c2.1,3.7,5.8,5.8,9.8,6.2c1.6-3.6,1.5-7.9-0.6-11.5c-2.1-3.7-5.8-5.8-9.7-6.2
					C18,64.8,18.1,69.1,20.2,72.7z"/>
				<path class="st0" d="M21.9,102c3.5,2.4,7.8,2.8,11.5,1.5c-0.1-3.9-2-7.8-5.5-10.2c-3.5-2.4-7.7-2.8-11.5-1.5
					C16.6,95.7,18.5,99.6,21.9,102z"/>
				<path class="st0" d="M35.8,127.7c4.2,0.7,8.2-0.7,11-3.5c-1.7-3.5-5.1-6.2-9.3-6.9c-4.2-0.7-8.2,0.7-11,3.5
					C28.3,124.3,31.7,127,35.8,127.7z"/>
				<path class="st0" d="M59.3,145.2c4.1-1.1,7.2-4.1,8.5-7.8c-3.1-2.5-7.2-3.5-11.3-2.4c-4.1,1.1-7.2,4.1-8.5,7.8
					C51.1,145.3,55.2,146.3,59.3,145.2z"/>
				<path class="st0" d="M77.4,136.3c-27.5-4.8-47.5-29.7-45.5-58.2c1.1-15.2,8.2-28.5,18.8-37.8"/>
			</g>
			<g>
				<path class="st0" d="M117,28.3c3,3.1,4.2,7.4,3.5,11.4c-4,0.6-8.2-0.7-11.3-3.8c-3-3.1-4.2-7.4-3.5-11.4
					C109.7,23.9,113.9,25.2,117,28.3z"/>
				<path class="st0" d="M138.9,45.5c-0.4,4.2-2.8,7.8-6.2,9.8c-3-2.6-4.7-6.5-4.3-10.7c0.4-4.2,2.8-7.8,6.2-9.8
					C137.6,37.4,139.3,41.3,138.9,45.5z"/>
				<path class="st0" d="M149.8,72.7c-2.1,3.7-5.8,5.8-9.7,6.2c-1.6-3.6-1.5-7.9,0.6-11.6c2.1-3.7,5.8-5.8,9.8-6.2
					C152,64.8,151.9,69.1,149.8,72.7z"/>
				<path class="st0" d="M148.1,102c-3.5,2.4-7.7,2.8-11.5,1.5c0.1-3.9,2-7.8,5.5-10.2c3.5-2.4,7.7-2.8,11.5-1.5
					C153.4,95.7,151.5,99.6,148.1,102z"/>
				<path class="st0" d="M134.2,127.7c-4.2,0.7-8.2-0.7-11-3.5c1.7-3.5,5.1-6.2,9.3-6.9c4.2-0.7,8.2,0.7,11,3.5
					C141.7,124.3,138.3,127,134.2,127.7z"/>
				<path class="st0" d="M110.7,145.2c-4.1-1.1-7.2-4.1-8.5-7.8c3.1-2.5,7.2-3.5,11.3-2.4c4.1,1.1,7.2,4.1,8.5,7.8
					C118.9,145.3,114.8,146.3,110.7,145.2z"/>
				<path class="st0" d="M92.6,136.3c27.5-4.8,47.5-29.7,45.5-58.2c-1.1-15.2-8.2-28.5-18.8-37.8"/>
			</g>
		</g>
	</g>
</g>
</svg>
