<?xml version="1.0" encoding="utf-8"?>
<!-- Generator: Adobe Illustrator 24.2.0, SVG Export Plug-In . SVG Version: 6.00 Build 0)  -->
<svg version="1.1" id="Layer_1" xmlns="http://www.w3.org/2000/svg" xmlns:xlink="http://www.w3.org/1999/xlink" x="0px" y="0px"
	 viewBox="0 0 170 170" style="enable-background:new 0 0 170 170;" xml:space="preserve">
<style type="text/css">
	.st0{fill:none;stroke:#EC2028;stroke-width:4;stroke-linecap:round;stroke-linejoin:round;}
</style>
<g>
	<g>
		<path class="st0" d="M90.6,53.7l0,18.9l0.1-2.2v-9.1c0-3.7,3-6.7,6.7-6.7h2.2c0.1,0-0.1,0,0,0v8.4c0,0,0,0,0,0v11.1L87,89.3
			c0,0-3.3,2.1-5.3,2.6v4.9"/>
		<g>
			<polyline class="st0" points="78.8,97.5 87.5,97.5 87.5,150.5 			"/>
		</g>
		<path class="st0" d="M55,59V38c0-2.4,2-4.4,4.4-4.4l0,0c2.4,0,4.4,2,4.4,4.4v15.9"/>
		<path class="st0" d="M64,53.9V28.4c0-2.4,2-4.4,4.4-4.4l0,0c2.4,0,4.4,2,4.4,4.4v25.4"/>
		<path class="st0" d="M72.9,53.9V23.9c0-2.4,2-4.4,4.4-4.4l0,0c2.4,0,4.4,2,4.4,4.4v29.9"/>
		<path class="st0" d="M81.8,53.9V31.5c0-2.4,2-4.4,4.4-4.4l0,0c2.4,0,4.4,2,4.4,4.4v22.3"/>
	</g>
	<g>
		<path class="st0" d="M35.3,99.5l0,18.9l-0.1-2.2v-9.1c0-3.7-3-6.7-6.7-6.7c0,0-2.1,0-2.2,0v8.4c0,0,0,0,0,0V120L38.9,135
			c0,0,3.3,2.1,5.3,2.6v12.8"/>
		<path class="st0" d="M66.2,150.5v-14.8c2.9-2.1,4.7-5.6,4.7-9.4V99.5"/>
		<path class="st0" d="M70.9,99.6V83.7c0-2.4-2-4.4-4.4-4.4l0,0c-2.4,0-4.4,2-4.4,4.4v15.9"/>
		<path class="st0" d="M62,99.6V74.2c0-2.4-2-4.4-4.4-4.4l0,0c-2.4,0-4.4,2-4.4,4.4v25.4"/>
		<path class="st0" d="M53,99.6V69.7c0-2.4-2-4.4-4.4-4.4l0,0c-2.4,0-4.4,2-4.4,4.4v29.9"/>
		<path class="st0" d="M44.1,99.6V77.3c0-2.4-2-4.4-4.4-4.4l0,0c-2.4,0-4.4,2-4.4,4.4v22.3"/>
	</g>
	<g>
		<path class="st0" d="M107.9,95.5l0,18.9l-0.1-2.2v-9.1c0-3.7-3-6.7-6.7-6.7c0,0-2.1,0-2.2,0v8.4c0,0,0,0,0,0V116l12.7,15.1
			c0,0,3.3,2.1,5.3,2.6v5.2"/>
		<path class="st0" d="M138.7,139v-7.4c2.9-2.2,4.7-5.6,4.7-9.4V95.5"/>
		<g>
			<polyline class="st0" points="143.8,150.5 143.8,139.3 102.9,139.3 102.9,150.5 			"/>
		</g>
		<path class="st0" d="M143.5,95.7V79.7c0-2.4-2-4.4-4.4-4.4l0,0c-2.4,0-4.4,2-4.4,4.4v15.9"/>
		<path class="st0" d="M134.5,95.7V70.2c0-2.4-2-4.4-4.4-4.4l0,0c-2.4,0-4.4,2-4.4,4.4v25.4"/>
		<path class="st0" d="M125.6,95.7V65.7c0-2.4-2-4.4-4.4-4.4l0,0c-2.4,0-4.4,2-4.4,4.4v29.9"/>
		<path class="st0" d="M116.7,95.7V73.3c0-2.4-2-4.4-4.4-4.4l0,0c-2.4,0-4.4,2-4.4,4.4v22.3"/>
	</g>
</g>
</svg>
