<?xml version="1.0" encoding="utf-8"?>
<!-- Generator: Adobe Illustrator 24.2.0, SVG Export Plug-In . SVG Version: 6.00 Build 0)  -->
<svg version="1.1" id="Layer_1" xmlns="http://www.w3.org/2000/svg" xmlns:xlink="http://www.w3.org/1999/xlink" x="0px" y="0px"
	 viewBox="0 0 170 170" style="enable-background:new 0 0 170 170;" xml:space="preserve">
<style type="text/css">
	.st0{fill:none;stroke:#EC2028;stroke-width:4;stroke-linecap:round;stroke-linejoin:round;}
</style>
<g>
	<path class="st0" d="M142,34.4v-4.9c0-0.6-0.5-1.1-1.1-1.1h-7.8c-0.6,0-1.1,0.5-1.1,1.1v4.9"/>
	<polyline class="st0" points="142,110.4 142,112.5 137,123.6 132,112.5 132,110.4 	"/>
	<polyline class="st0" points="91.3,150.5 27.9,150.5 27.9,124.3 27.9,89.9 27.9,19.5 119.4,19.5 119.4,89.9 119.4,122.3 	"/>
	<g>
		<polygon class="st0" points="97.2,128.3 115.2,128.3 97.2,146.2 		"/>
	</g>
	<line class="st0" x1="59.6" y1="43.8" x2="101.3" y2="43.8"/>
	<line class="st0" x1="59.6" y1="54.1" x2="101.3" y2="54.1"/>
	<polyline class="st0" points="52.5,43.5 45.4,52.4 40.7,49.4 	"/>
	<line class="st0" x1="59.6" y1="74.4" x2="101.3" y2="74.4"/>
	<line class="st0" x1="59.6" y1="84.7" x2="101.3" y2="84.7"/>
	<polyline class="st0" points="52.5,74 45.4,83 40.7,79.9 	"/>
	<line class="st0" x1="59.6" y1="105" x2="101.3" y2="105"/>
	<line class="st0" x1="59.6" y1="115.2" x2="101.3" y2="115.2"/>
	<polyline class="st0" points="52.5,104.6 45.4,113.6 40.7,110.5 	"/>
	<rect x="131.9" y="39.8" class="st0" width="10.2" height="64.6"/>
</g>
</svg>
