<?xml version="1.0" encoding="utf-8"?>
<!-- Generator: Adobe Illustrator 24.2.0, SVG Export Plug-In . SVG Version: 6.00 Build 0)  -->
<svg version="1.1" id="Layer_1" xmlns="http://www.w3.org/2000/svg" xmlns:xlink="http://www.w3.org/1999/xlink" x="0px" y="0px"
	 viewBox="0 0 170 170" style="enable-background:new 0 0 170 170;" xml:space="preserve">
<style type="text/css">
	.st0{fill:none;stroke:#EC2028;stroke-width:4;stroke-linecap:round;stroke-linejoin:round;}
</style>
<g>
	<g>
		<g>
			<polyline class="st0" points="120,121.8 129.7,144.6 111,143.9 98.5,157.8 91.5,141.7 			"/>
		</g>
		<g>
			<polyline class="st0" points="82.3,131.6 71.7,157.8 59,144.1 40.3,145.1 46.3,130.1 			"/>
		</g>
	</g>
	<path class="st0" d="M145.2,72.4c0,3.1-5.6,5.7-6,8.6c-0.5,3,4,7.2,3.1,10c-0.9,2.9-7,3.6-8.4,6.3c-1.4,2.7,1.6,8.1-0.2,10.5
		c-1.8,2.4-7.8,1.3-9.9,3.4c-2.1,2.1-1,8.1-3.4,9.9c-2.4,1.8-7.8-1.2-10.5,0.2c-2.7,1.4-3.4,7.5-6.3,8.4c-2.8,0.9-7-3.6-10-3.1
		c-2.9,0.5-5.5,6-8.6,6c-3.1,0-5.7-5.6-8.6-6c-3-0.5-7.2,4-10,3.1c-2.9-0.9-3.6-7-6.3-8.4c-2.7-1.4-8.1,1.6-10.5-0.2
		c-2.4-1.8-1.3-7.8-3.4-9.9c-2.1-2.1-8.1-0.9-9.9-3.4c-1.8-2.4,1.2-7.8-0.2-10.5c-1.4-2.7-7.5-3.4-8.4-6.3c-0.9-2.8,3.6-7,3.1-10
		c-0.5-2.9-6-5.5-6-8.6c0-3.1,5.6-5.6,6-8.6c0.5-3-4-7.2-3.1-10c0.9-2.9,7-3.6,8.4-6.3c1.4-2.7-1.6-8.1,0.2-10.5
		c1.8-2.4,7.8-1.3,9.9-3.4c2.1-2.1,0.9-8.1,3.4-9.9c2.4-1.8,7.8,1.2,10.5-0.2c2.7-1.4,3.4-7.5,6.3-8.4c2.8-0.9,7,3.6,10,3.1
		c2.9-0.5,5.5-6,8.6-6c3.1,0,5.6,5.6,8.6,6c3,0.5,7.2-4,10-3.1c2.9,0.9,3.6,7,6.3,8.4c2.7,1.4,8.1-1.6,10.5,0.2
		c2.4,1.8,1.3,7.8,3.4,9.9c2.1,2.1,8.1,0.9,9.9,3.4c1.8,2.4-1.2,7.8,0.2,10.5c1.4,2.7,7.5,3.4,8.4,6.3c0.9,2.8-3.6,7-3.1,10
		C139.6,66.7,145.2,69.3,145.2,72.4z"/>
	<path class="st0" d="M124,72.4c0,21.5-17.5,39-39,39c-21.5,0-39-17.5-39-39s17.5-39,39-39C106.5,33.4,124,50.9,124,72.4z"/>
	<polygon class="st0" points="85,55.7 90.1,66.1 101.6,67.8 93.3,75.9 95.3,87.3 85,81.9 74.7,87.3 76.7,75.9 68.4,67.8 79.9,66.1 	
		"/>
</g>
</svg>
