<svg id="svg-icon-3" width="52px" x="0px" y="0px" viewBox="0 0 100 100">
	<g>
		<circle class="st0" cx="50" cy="50" r="25.6"/>
		<circle class="st0" cx="50" cy="50" r="17.2"/>
		<g>
			<g>
				<polyline class="st0" points="57.5,13 50.6,6.1 43.6,13 			"/>
				<line class="st0" x1="50.6" y1="7.5" x2="50.6" y2="19.2"/>
			</g>
			<g>
				<polyline class="st0" points="29.1,18.5 19.3,18.6 19.3,28.4 			"/>
				<line class="st0" x1="20.3" y1="19.5" x2="28.6" y2="27.8"/>
			</g>
			<g>
				<polyline class="st0" points="13,42.5 6.1,49.4 13,56.4 			"/>
				<line class="st0" x1="7.5" y1="49.4" x2="19.2" y2="49.4"/>
			</g>
			<g>
				<polyline class="st0" points="18.5,70.9 18.6,80.7 28.4,80.7 			"/>
				<line class="st0" x1="19.5" y1="79.7" x2="27.8" y2="71.4"/>
			</g>
			<g>
				<polyline class="st0" points="70.9,81.4 80.7,81.4 80.7,71.6 			"/>
				<line class="st0" x1="79.7" y1="80.5" x2="71.4" y2="72.2"/>
			</g>
			<g>
				<polyline class="st0" points="87,57.5 93.9,50.6 87,43.6 			"/>
				<line class="st0" x1="92.5" y1="50.6" x2="80.8" y2="50.6"/>
			</g>
			<g>
				<polyline class="st0" points="42.5,87 49.4,93.9 56.4,87 			"/>
				<line class="st0" x1="49.4" y1="92.5" x2="49.4" y2="80.8"/>
			</g>
			<g>
				<polyline class="st0" points="81.4,29.1 81.4,19.3 71.6,19.3 			"/>
				<line class="st0" x1="80.5" y1="20.3" x2="72.2" y2="28.6"/>
			</g>
		</g>
		<g>
			<path class="st0" d="M46.5,54v0.8c0,1.4,1.1,2.5,2.5,2.5h2c1.4,0,2.5-1.1,2.5-2.5v-1.7c0-0.8-0.6-1.5-1.4-2l-3.6-1.4l-0.5-0.2
				c-0.8-0.5-1.4-1.1-1.4-1.9V46c0-1.4,1.1-2.5,2.5-2.5h2c1.4,0,2.5,1.1,2.5,2.5v0.8"/>
			<line class="st0" x1="50.1" y1="40.1" x2="50.1" y2="43.2"/>
			<line class="st0" x1="50.1" y1="57.3" x2="50.1" y2="60.4"/>
		</g>
	</g>
</svg>
