<svg id="svg-icon-7" width="52px" x="0px" y="0px" viewBox="0 0 100 100">
	<g>
		<g>
			<path class="st0" d="M66.2,17.6h10.2c1.8,0,3.3,1.5,3.3,3.3V92c0,1.8-1.5,3.3-3.3,3.3H24c-1.8,0-3.3-1.5-3.3-3.3V20.9
				c0-1.8,1.5-3.3,3.3-3.3h8.1"/>
			<g>
				<polyline class="st0" points="61.8,23.9 73,23.9 73,87.9 27.8,87.8 27.8,23.9 36.5,23.9 			"/>
			</g>
			<g>
				<path class="st0" d="M48.9,8.9L48.9,8.9c1.3,0,2.4,1.1,2.4,2.4c0,0.7-0.3,1.4-0.8,1.8l1.1,2l0.6,0.9h5.1v7H41v-7h4.6l0.5-0.9
					l1.1-2c-0.5-0.4-0.8-1.1-0.8-1.8C46.5,10,47.6,8.9,48.9,8.9 M48.9,4.8L48.9,4.8c-3.3,0-6.1,2.7-6.1,6c0,0.6,0.1,1.1,0.2,1.7h-2.8
					h-3.4v3.4v7.6v3.4h3.4h17.7h3.4v-3.4v-7.6v-3.4h-3.4h-3.3c0.2-0.5,0.2-1.1,0.2-1.7c0-1.6-0.6-3.1-1.8-4.3
					C52.1,5.5,50.5,4.8,48.9,4.8L48.9,4.8z"/>
			</g>
		</g>
		<g>
			<path class="st0" d="M57.1,35.4c3.8,3.8,3.8,10,0,13.9c-3.8,3.8-10,3.8-13.9,0c-3.8-3.8-3.8-10,0-13.9
				C47.1,31.6,53.3,31.6,57.1,35.4z"/>
			<g>
				<line class="st0" x1="50.2" y1="36.8" x2="50.2" y2="47.9"/>
				<line class="st0" x1="44.7" y1="42.4" x2="55.7" y2="42.4"/>
			</g>
		</g>
		<line class="st0" x1="36.2" y1="67.2" x2="64.2" y2="67.2"/>
		<line class="st0" x1="36.2" y1="75.2" x2="64.2" y2="75.2"/>
	</g>
</svg>
