<svg id="svg-icon-1" width="52px" x="0px" y="0px" viewBox="0 0 100 100">
	<g>
		<path class="st0" d="M10.8,31.1V15.2c0-1.4,1-2.5,2.2-2.5H87c1.2,0,2.2,1.1,2.2,2.5v10.9"/>
		<g>
			<g>
				<g>
					<polyline class="st0" points="17.4,31.1 17.4,20.4 82.6,20.4 82.6,26.1 				"/>
				</g>
			</g>
		</g>
		<path class="st0" d="M90.9,59.3l3.3-25.9c0-1.4-1-2.5-2.2-2.5H54.5l-3.2,5.8H8c-1.2,0-2.2,1.1-2.2,2.5l4.4,35.2
			c0,1.4,1,2.5,2.2,2.5H50"/>
		<line class="st0" x1="35.2" y1="50.9" x2="59.6" y2="50.9"/>
		<line class="st0" x1="35.2" y1="57.9" x2="53.6" y2="57.9"/>
		<g>
			<path class="st0" d="M93.5,87.2c0-4.8,0-9.6,0-14.4c0-2.8-2-6-4.6-6.9c-8.9-2.9-18.4-2.9-27.3,0c-2.6,0.9-4.6,4.1-4.6,6.9
				c0,4.8,0,9.6,0,14.4H93.5z"/>
			<g>
				<line class="st0" x1="85.9" y1="86.9" x2="85.9" y2="76.6"/>
				<line class="st0" x1="64.6" y1="76.6" x2="64.6" y2="86.9"/>
			</g>
			<path class="st0" d="M85.2,53.9c0,5.5-4.5,10-10,10c-5.5,0-10-4.5-10-10c0-5.5,4.5-10,10-10C80.7,43.9,85.2,48.4,85.2,53.9z"/>
		</g>
		<g>
			<g>
				<line class="st0" x1="23.8" y1="46.6" x2="23.8" y2="62.2"/>
				<line class="st0" x1="16" y1="54.4" x2="31.6" y2="54.4"/>
			</g>
		</g>
	</g>
</svg>
