<?xml version="1.0" encoding="utf-8"?>
<!-- Generator: Adobe Illustrator 24.1.2, SVG Export Plug-In . SVG Version: 6.00 Build 0)  -->
<svg version="1.1" id="Layer_1" xmlns="http://www.w3.org/2000/svg" xmlns:xlink="http://www.w3.org/1999/xlink" x="0px" y="0px"
	 viewBox="0 0 100 100" style="enable-background:new 0 0 100 100;" xml:space="preserve">
<style type="text/css">
	.st0{fill:none;stroke:#292E34;stroke-width:2;stroke-linecap:round;stroke-linejoin:round;}
	.st1{clip-path:url(#SVGID_2_);}
</style>
<path class="st0" d="M59.3,70.9h15c6.1,0,11.1,4.4,11.1,9.8v12.3"/>
<path class="st0" d="M14.6,92.9V80.7c0-5.4,5-9.8,11.1-9.8h15"/>
<polyline class="st0" points="59.3,64.4 59.3,71 50,76.3 40.7,71 40.7,63.9 "/>
<path class="st0" d="M71.4,48.5c-1.7,10.3-10.4,17.8-21,17.8l0,0c-10.3,0-18.9-7.4-21-17.2c-0.2-0.9-0.3-1.7-0.4-2.6"/>
<g>
	<line class="st0" x1="43" y1="38.4" x2="39" y2="38.4"/>
	<line class="st0" x1="61.3" y1="38.4" x2="57.3" y2="38.4"/>
</g>
<g>
	<path class="st0" d="M54.7,56.7c-4.5,3.3-9.1,0-9.1,0"/>
</g>
<path class="st0" d="M75.3,39.4l1.5-20.2c0-4.2-3.3-7.7-7.4-7.8V10c0-2-1.6-3.7-3.6-3.7H34.5c-2,0-3.6,1.6-3.6,3.7v1.4
	c-4.1,0.1-7.4,3.6-7.4,7.8l1.4,19"/>
<path class="st0" d="M29,46.6c0,0,1.5-18.7,3.7-25.5l17.4,3.2l17.4-3.2c2.2,6.8,3.8,27.4,3.8,27.4"/>
<path class="st0" d="M30,36.6c-1.9,0-5.2,1.3-5.4,3.2L24,46.8c-0.2,2,3.2,3.9,5.3,4.2"/>
<path class="st0" d="M70.3,36.7c2.2,0,4.9,1.1,5.1,3.1l0.6,6.9c0.2,2-2.8,3.5-4.9,3.9"/>
<polyline class="st0" points="55.2,81.1 52.6,85.5 47.4,85.5 44.9,81.1 "/>
<polyline class="st0" points="45.8,93.7 47.4,85.5 52.6,85.5 54.3,93.7 "/>
<g>
	<polygon class="st0" points="39.7,83.4 50,76.6 40.5,71.1 	"/>
	<polygon class="st0" points="60.4,83.4 50,76.6 59.5,71.1 	"/>
</g>
<line class="st0" x1="77.1" y1="90.9" x2="63.6" y2="90.9"/>
</svg>
