<svg id="svg-icon-3" width="52px" x="0px" y="0px" viewBox="0 0 100 100">
	<g>
		<path class="st0" d="M60.2,15c-6-6-14.1-9.4-22.6-9.3C29.1,5.7,21,9,15,15.1c-6,6-9.3,14-9.3,22.5c0,17.6,14.3,31.9,31.9,31.9
			c8.5,0,16.6-3.3,22.6-9.4c6-6,9.3-14,9.3-22.5C69.5,29.1,66.2,21.1,60.2,15z"/>
		<path class="st0" d="M54.4,54.3c-4.5,4.5-10.5,7-16.8,7c-13.1,0-23.7-10.6-23.7-23.7c0-6.3,2.5-12.3,6.9-16.7
			c4.5-4.5,10.5-7,16.8-7c6.3,0,12.3,2.5,16.8,7c4.5,4.5,7,10.4,7,16.8C61.3,43.9,58.9,49.8,54.4,54.3z"/>
		<g>
			<path class="st0" d="M42.3,32.9v-1.2c0-2-1.7-3.7-3.7-3.7h-3c-2,0-3.7,1.7-3.7,3.7v2.5c0,1.2,0.9,2.1,2.1,2.9l5.6,2.2"/>
			<path class="st0" d="M31.9,43.8V45c0,2,1.7,3.7,3.7,3.7h3c2,0,3.7-1.7,3.7-3.7v-2.5c0-1.2-1-2.2-2.2-2.9l-5.4-2.1"/>
			<line class="st0" x1="37.3" y1="22.3" x2="37.3" y2="28.1"/>
			<line class="st0" x1="37.3" y1="48.7" x2="37.3" y2="53.3"/>
		</g>
		<g>
			<g>
				<path class="st0" d="M93.7,83.3c2.7,6.5-3.8,13.1-10.4,10.4c-8.4-8.4-12.8-12.8-21.2-21.2c3.5-3.5,6.9-6.9,10.4-10.4
					C80.8,70.4,85.3,74.9,93.7,83.3z"/>
				<line class="st0" x1="77.2" y1="69.1" x2="69.1" y2="77.2"/>
				<g>
					<line class="st0" x1="66.5" y1="66.5" x2="60.8" y2="60.8"/>
				</g>
			</g>
		</g>
	</g>
</svg>
