<svg id="svg-icon-8" width="52px" x="0px" y="0px" viewBox="0 0 100 100">
	<g>
		<path class="st0" d="M14.3,72.2V29c0-2.2,1.8-3.9,3.9-3.9h64c2.2,0,3.9,1.8,3.9,3.9v43.2"/>
		<polyline class="st0" points="79.7,71.8 79.7,31.8 20.7,31.8 20.7,71.8 	"/>
		<path class="st0" d="M5.4,72.7V77c0,0,3.1,2.3,5.4,2.3h28.5h21.8h28.5c2.3,0,5.4-2.3,5.4-2.3v-4.2H5.4V72.7z"/>
		<g>
			<polyline class="st0" points="21,70.2 32,59.2 36,63.2 48.4,50.8 54.8,57.2 71.5,40.6 		"/>
			<polyline class="st0" points="72.5,50.3 72.5,40.2 62.4,40.2 		"/>
		</g>
		<line class="st0" x1="25.4" y1="38.6" x2="41.7" y2="38.6"/>
		<line class="st0" x1="25.4" y1="44.4" x2="37.9" y2="44.4"/>
	</g>
</svg>
