<svg id="svg-icon-5" width="52px" x="0px" y="0px" viewBox="0 0 100 100">
	<g>
		<g>
			<path class="st0" d="M92.1,56.6l0-11.8L81.6,44c-0.7-3.9-2.2-7.5-4.1-10.7l7-8.3l-8.4-8.4l-8,6.8c-3.2-2.1-6.7-3.7-10.5-4.7
				L56.6,7.9H44.8L44,18.4c-3.9,0.7-7.5,2.2-10.7,4.1l-8.3-7l-8.4,8.4l6.8,8c-2.1,3.2-3.7,6.7-4.7,10.5L7.9,43.4l0,11.8L18.4,56
				c0.7,3.9,2.2,7.5,4.1,10.7l-7,8.3l8.4,8.4l8-6.8c3.1,2.1,6.7,3.7,10.5,4.7l0.9,10.8h11.8L56,81.6c3.9-0.7,7.5-2.2,10.7-4.1l8.3,7
				l8.4-8.4l-6.8-8c2.1-3.2,3.7-6.7,4.7-10.5L92.1,56.6z"/>
		</g>
		<path class="st0" d="M71.5,50c0,11.9-9.6,21.5-21.5,21.5c-11.9,0-21.5-9.6-21.5-21.5"/>
		<g>
			<path class="st0" d="M29.2,44.5c2.4-9.2,10.8-16,20.8-16c10.6,0,19.4,7.7,21.2,17.8"/>
		</g>
		<path class="st0" d="M56.3,47.9c0,3.5-2.8,6.3-6.3,6.3c-3.5,0-6.3-2.8-6.3-6.3c0-3.5,2.8-6.3,6.3-6.3
			C53.5,41.6,56.3,44.4,56.3,47.9z"/>
		<path class="st0" d="M61,68.4v-7.2c0-3.5-2.8-6.3-6.3-6.3h-9.4c-3.5,0-6.3,2.8-6.3,6.3v7.2"/>
	</g>
</svg>
