<svg id="svg-icon-8" width="52px" x="0px" y="0px" viewBox="0 0 100 100">
	<g>
		<g>
			<path class="st0" d="M22.2,42.4V9.8c0-1.6,1.3-2.9,2.9-2.9h48.7c1.6,0,2.9,1.3,2.9,2.9v41.1"/>
			<line class="st0" x1="54.4" y1="82" x2="41.9" y2="82"/>
			<line class="st0" x1="50.1" y1="75.7" x2="33.1" y2="75.7"/>
			<line class="st0" x1="27.2" y1="15.5" x2="71.7" y2="15.5"/>
		</g>
		<path class="st0" d="M86.3,93.1v-4.5c2.3-1.7,3.7-4.4,3.7-7.4v-16l-0.2-3.5c0-1.9-1.5-3.4-3.4-3.4c-1.9,0-3.4,0.7-3.4,2.6v-0.9
			c0-1.9-1.5-3.4-3.4-3.4c-1.9,0-3.4,1.5-3.4,3.4v-1.7c0-1.9-1.5-3.4-3.4-3.4c-1.9,0-3.4,1.5-3.4,3.4v1.9c0-4.7,0-19.8,0-19.8
			c0-2-1.6-3.6-3.6-3.6c-2,0-3.6,1.6-3.6,3.6l0,34.7L62,73.4v-7.1c0-2.9-2.3-5.2-5.2-5.2H55c-0.1,0,0.1,0,0,0v6.6c0,0,0,0,0,0v8.7
			l9.9,11.8c0,0,2.6,1.6,4.2,2v2.9"/>
		<g>
			<path class="st0" d="M14.3,81.5V58.8l5.2-11.7l0-0.1l11.7,0.2c0,0.1,0,0.2,0,0.2l0,1.9c-0.1,3.2-2.7,5.8-5.9,5.7l-1.3,0l-1.8,5.4
				c3.7,2.7,6.1,7.9,6.1,13.8c0,2.7-0.5,5.3-1.4,7.5"/>
		</g>
		<polyline class="st0" points="37.2,93.1 37.2,82.1 10,82.1 10,93.1 	"/>
		<rect x="31.4" y="22.4" class="st0" width="14.1" height="10.6"/>
		<line class="st0" x1="29.4" y1="40" x2="56.2" y2="40"/>
		<line class="st0" x1="35.6" y1="47.1" x2="56.2" y2="47.1"/>
		<line class="st0" x1="35.6" y1="54.1" x2="56.2" y2="54.1"/>
		<line class="st0" x1="29.4" y1="61.2" x2="49.4" y2="61.2"/>
		<line class="st0" x1="65.6" y1="31.1" x2="65.6" y2="20.1"/>
	</g>
</svg>
