<svg id="svg-icon-6" width="52px" x="0px" y="0px" viewBox="0 0 100 100">
	<g>
		<path class="st0" d="M71.4,38.7c0.7-0.3,0.7-0.2,1.5-0.2h0.5c3,0,5.4,2.4,5.4,5.4v10c0,3-2.4,5.4-5.4,5.4h-0.5
			c-1,0-1.8-0.2-2.6-0.7"/>
		<line class="st0" x1="27.5" y1="78.1" x2="27.5" y2="59.3"/>
		<line class="st0" x1="72.7" y1="66.3" x2="72.7" y2="78.1"/>
		<path class="st0" d="M71.1,38.7v12.7c0,2.4-0.4,4.7-1.1,6.8c-2.8,8.2-10.6,14-19.7,14l0,0c-9.3,0-17.2-6.1-19.9-14.5"/>
		<path class="st0" d="M40.6,16.1c-2,1-3.8,2.4-5.4,4c-3.7,3.8-5.9,8.9-5.9,14.6v3.7"/>
		<path class="st0" d="M32.1,42.2c4-1.2,7.3-4.3,9.1-8.8"/>
		<path class="st0" d="M20.3,94.8v-8.6c0-4.6,4.2-8.3,9.3-8.3h41c5.2,0,9.3,3.7,9.3,8.3v8.6"/>
		<line class="st0" x1="50.5" y1="83.6" x2="50.5" y2="87.1"/>
		<line class="st0" x1="50.5" y1="91.3" x2="50.5" y2="94.8"/>
		<path class="st0" d="M32,53.9c0,3-2.4,5.4-5.4,5.4h-0.5c-3,0-5.4-2.4-5.4-5.4V44c0-3,2.4-5.4,5.4-5.4h0.5c3,0,5.4,2.4,5.4,5.4V53.9
			z"/>
		<line class="st0" x1="51.6" y1="46.3" x2="51.6" y2="57.1"/>
		<g>
			<path class="st0" d="M20.9,34.2c0-16,13-29,29-29s29,13,29,29v10.7"/>
			<path class="st0" d="M20.9,42.4v-8.2c0-16,13-29,29-29"/>
		</g>
		<path class="st0" d="M50.2,13.8c-5.6,0-10.6,2.2-14.4,5.7C36.2,33.1,49.1,44,64.9,44c2.1,0,4.2-0.2,6.2-0.6v-8.7
			C71.1,23.2,61.7,13.8,50.2,13.8z"/>
		<path class="st0" d="M53.5,66.2h17.4c1.9,0,3.5-1.6,3.5-3.5v-3.4"/>
	</g>
</svg>
