<?xml version="1.0" encoding="utf-8"?>
<!-- Generator: Adobe Illustrator 24.1.2, SVG Export Plug-In . SVG Version: 6.00 Build 0)  -->
<svg version="1.1" id="Layer_1" xmlns="http://www.w3.org/2000/svg" xmlns:xlink="http://www.w3.org/1999/xlink" x="0px" y="0px"
	 viewBox="0 0 48 48" style="enable-background:new 0 0 48 48;" xml:space="preserve">
<style type="text/css">
	.st0{fill:#EC1C24;}
</style>
<g>
	<path class="st0" d="M43.2,4.8h-4.5c-0.6,0-1.1,0.5-1.1,1.1s0.5,1.1,1.1,1.1h1.8L29.4,18.2l-10.6-4.2c-0.3-0.1-0.7-0.1-1,0.1
		l-13.5,9c-0.5,0.3-0.7,1-0.3,1.6c0.3,0.5,1,0.7,1.6,0.3c0,0,0,0,0,0l13-8.7l10.7,4.3c0.4,0.2,0.9,0.1,1.2-0.3L42.1,8.7v1.8
		c0,0.6,0.5,1.1,1.1,1.1c0.6,0,1.1-0.5,1.1-1.1V6C44.3,5.3,43.8,4.8,43.2,4.8z"/>
	<path class="st0" d="M4.8,29.6h4.5c0.6,0,1.1,0.5,1.1,1.1V42c0,0.6-0.5,1.1-1.1,1.1H4.8c-0.6,0-1.1-0.5-1.1-1.1V30.8
		C3.7,30.1,4.2,29.6,4.8,29.6z"/>
	<path class="st0" d="M16.1,22.9h4.5c0.6,0,1.1,0.5,1.1,1.1v18c0,0.6-0.5,1.1-1.1,1.1h-4.5c-0.6,0-1.1-0.5-1.1-1.1V24
		C15,23.4,15.5,22.9,16.1,22.9z"/>
	<path class="st0" d="M27.4,25.1h4.5c0.6,0,1.1,0.5,1.1,1.1V42c0,0.6-0.5,1.1-1.1,1.1h-4.5c-0.6,0-1.1-0.5-1.1-1.1V26.3
		C26.3,25.6,26.8,25.1,27.4,25.1z"/>
	<path class="st0" d="M38.7,18.4h4.5c0.6,0,1.1,0.5,1.1,1.1V42c0,0.6-0.5,1.1-1.1,1.1h-4.5c-0.6,0-1.1-0.5-1.1-1.1V19.5
		C37.5,18.9,38,18.4,38.7,18.4z"/>
</g>
</svg>
