<?xml version="1.0" encoding="utf-8"?>
<!-- Generator: Adobe Illustrator 24.1.2, SVG Export Plug-In . SVG Version: 6.00 Build 0)  -->
<svg version="1.1" id="Layer_1" xmlns="http://www.w3.org/2000/svg" xmlns:xlink="http://www.w3.org/1999/xlink" x="0px" y="0px"
	 viewBox="0 0 48 48" style="enable-background:new 0 0 48 48;" xml:space="preserve">
<style type="text/css">
	.st0{fill:#EC1C24;}
</style>
<g>
	<path class="st0" d="M7.6,22.9h6.6c0.6,0,1.1,0.5,1.1,1.1v17.7c0,0.6-0.5,1.1-1.1,1.1H7.6c-0.6,0-1.1-0.5-1.1-1.1V24
		C6.5,23.4,7,22.9,7.6,22.9z"/>
	<path class="st0" d="M20.7,14h6.6c0.6,0,1.1,0.5,1.1,1.1v26.6c0,0.6-0.5,1.1-1.1,1.1h-6.6c-0.6,0-1.1-0.5-1.1-1.1V15.1
		C19.6,14.5,20.1,14,20.7,14z"/>
	<path class="st0" d="M33.9,5.2h6.6c0.6,0,1.1,0.5,1.1,1.1v35.5c0,0.6-0.5,1.1-1.1,1.1h-6.6c-0.6,0-1.1-0.5-1.1-1.1V6.3
		C32.8,5.7,33.3,5.2,33.9,5.2z"/>
</g>
</svg>
