<?xml version="1.0" encoding="utf-8"?>
<!-- Generator: Adobe Illustrator 24.1.2, SVG Export Plug-In . SVG Version: 6.00 Build 0)  -->
<svg version="1.1" id="Layer_1" xmlns="http://www.w3.org/2000/svg" xmlns:xlink="http://www.w3.org/1999/xlink" x="0px" y="0px"
	 viewBox="0 0 48 48" style="enable-background:new 0 0 48 48;" xml:space="preserve">
<style type="text/css">
	.st0{fill:#2B4258;}
</style>
<path class="st0" d="M24,8c0.6,0,1-0.4,1-1V3c0-0.6-0.4-1-1-1s-1,0.4-1,1v4C23,7.6,23.4,8,24,8z"/>
<path class="st0" d="M27,43h-6c-0.6,0-1,0.4-1,1s0.4,1,1,1h6c0.6,0,1-0.4,1-1S27.6,43,27,43z"/>
<path class="st0" d="M24,11c-7.2,0-13,5.8-13,13c0,4.9,2.7,9.3,7,11.5V40c0,0.6,0.4,1,1,1h10c0.6,0,1-0.4,1-1v-4.5
	c6.4-3.3,8.8-11.2,5.5-17.5C33.3,13.7,28.9,11,24,11z M27,23c0.6,0,1,0.4,1,1v4c0,0.6-0.4,1-1,1h-2v1c0,0.6-0.4,1-1,1s-1-0.4-1-1v-1
	h-2c-0.6,0-1-0.4-1-1s0.4-1,1-1h5v-2h-5c-0.6,0-1-0.4-1-1v-4c0-0.6,0.4-1,1-1h2v-1c0-0.6,0.4-1,1-1s1,0.4,1,1v1h2c0.6,0,1,0.4,1,1
	s-0.4,1-1,1h-5v2H27z"/>
<path class="st0" d="M10.7,12.1c0.4,0.4,1,0.4,1.4,0c0.4-0.4,0.4-1,0-1.4L9.3,7.9c-0.4-0.4-1-0.4-1.4,0c-0.4,0.4-0.4,1,0,1.4
	L10.7,12.1z"/>
<path class="st0" d="M36.6,12.4c0.3,0,0.5-0.1,0.7-0.3l2.8-2.8c0.4-0.4,0.4-1,0-1.4c-0.4-0.4-1-0.4-1.4,0c0,0,0,0,0,0l-2.8,2.8
	c-0.4,0.4-0.4,1,0,1.4C36.1,12.3,36.3,12.4,36.6,12.4z"/>
<path class="st0" d="M8,24c0-0.6-0.4-1-1-1H3c-0.6,0-1,0.4-1,1s0.4,1,1,1h4C7.6,25,8,24.6,8,24z"/>
<path class="st0" d="M45,23h-4c-0.6,0-1,0.4-1,1s0.4,1,1,1h4c0.6,0,1-0.4,1-1S45.6,23,45,23z"/>
<path class="st0" d="M42.2,36.1l-3.5-2c-0.5-0.3-1.1-0.1-1.4,0.3s-0.1,1.1,0.3,1.4c0,0,0,0,0,0l3.5,2c0.5,0.3,1.1,0.1,1.4-0.3
	S42.7,36.4,42.2,36.1C42.3,36.1,42.2,36.1,42.2,36.1z"/>
<path class="st0" d="M9.2,34.1l-3.5,2c-0.5,0.3-0.7,0.9-0.4,1.4c0.3,0.5,0.9,0.7,1.4,0.4c0,0,0,0,0,0l3.5-2c0.5-0.3,0.7-0.9,0.4-1.4
	S9.7,33.8,9.2,34.1C9.3,34.1,9.2,34.1,9.2,34.1z"/>
</svg>
