<?xml version="1.0" encoding="utf-8"?>
<!-- Generator: Adobe Illustrator 24.1.2, SVG Export Plug-In . SVG Version: 6.00 Build 0)  -->
<svg version="1.1" id="Layer_1" xmlns="http://www.w3.org/2000/svg" xmlns:xlink="http://www.w3.org/1999/xlink" x="0px" y="0px"
	 viewBox="0 0 48 48" style="enable-background:new 0 0 48 48;" xml:space="preserve">
<style type="text/css">
	.st0{fill:#EC1C24;}
</style>
<g>
	<path class="st0" d="M43,20h-2.5c-0.4-1.7-1.1-3.4-2-4.9l1.8-1.8c0.4-0.4,0.4-1,0-1.4L36,7.7c-0.4-0.4-1-0.4-1.4,0l-1.8,1.8
		c-1.5-0.9-3.1-1.6-4.9-2V5c0-0.6-0.4-1-1-1h-6c-0.6,0-1,0.4-1,1v2.5c-1.7,0.4-3.4,1.1-4.9,2l-1.8-1.8c-0.4-0.4-1-0.4-1.4,0L7.7,12
		c-0.4,0.4-0.4,1,0,1.4l1.8,1.8c-0.9,1.5-1.6,3.1-2,4.9H5c-0.6,0-1,0.4-1,1v6c0,0.6,0.4,1,1,1h2.5c0.4,1.7,1.1,3.4,2,4.9l-1.8,1.8
		c-0.4,0.4-0.4,1,0,1.4l4.2,4.2c0.4,0.4,1,0.4,1.4,0l1.8-1.8c1.5,0.9,3.1,1.6,4.9,2V43c0,0.6,0.4,1,1,1h6c0.6,0,1-0.4,1-1v-2.5
		c1.7-0.4,3.4-1.1,4.9-2l1.8,1.8c0.4,0.4,1,0.4,1.4,0l4.2-4.2c0.4-0.4,0.4-1,0-1.4l-1.8-1.8c0.9-1.5,1.6-3.1,2-4.9H43
		c0.6,0,1-0.4,1-1v-6C44,20.4,43.6,20,43,20z M24,36c-6.6,0-12-5.4-12-12s5.4-12,12-12s12,5.4,12,12C36,30.6,30.6,36,24,36z"/>
	<path class="st0" d="M24,14c-5.5,0-10,4.5-10,10s4.5,10,10,10s10-4.5,10-10C34,18.5,29.5,14,24,14z M27,23c0.6,0,1,0.4,1,1v4
		c0,0.6-0.4,1-1,1h-2v1c0,0.6-0.4,1-1,1s-1-0.4-1-1v-1h-2c-0.6,0-1-0.4-1-1s0.4-1,1-1h5v-2h-5c-0.6,0-1-0.4-1-1v-4c0-0.6,0.4-1,1-1
		h2v-1c0-0.6,0.4-1,1-1s1,0.4,1,1v1h2c0.6,0,1,0.4,1,1s-0.4,1-1,1h-5v2H27z"/>
</g>
</svg>
