<?xml version="1.0" encoding="utf-8"?>
<!-- Generator: Adobe Illustrator 24.1.2, SVG Export Plug-In . SVG Version: 6.00 Build 0)  -->
<svg version="1.1" id="Layer_1" xmlns="http://www.w3.org/2000/svg" xmlns:xlink="http://www.w3.org/1999/xlink" x="0px" y="0px"
	 viewBox="0 0 48 48" style="enable-background:new 0 0 48 48;" xml:space="preserve">
<style type="text/css">
	.st0{fill:#2B4258;}
</style>
<path class="st0" d="M7.6,26c6.2-1.5,12.2-4.4,16.5-8.4l3.7,3.7V9.6H16.1l3.4,3.4c-3.1,4.8-7.2,9-12.3,11.9
	C6.6,25.2,6.9,26.1,7.6,26 M44.3,38.2v1.9H3.7v-1.9h11.4v-4.5c0-0.7,0.6-1.3,1.3-1.3h3.8v5.7h2.5V26.1c0-0.7,0.6-1.3,1.3-1.3h3.8
	v13.4h2.5V18.5c0-0.7,0.6-1.3,1.3-1.3h3.8v21H38V10.8c0-0.7,0.6-1.3,1.3-1.3h3.8v28.6H44.3z"/>
</svg>
