<?xml version="1.0" encoding="utf-8"?>
<!-- Generator: Adobe Illustrator 24.1.2, SVG Export Plug-In . SVG Version: 6.00 Build 0)  -->
<svg version="1.1" id="Layer_1" xmlns="http://www.w3.org/2000/svg" xmlns:xlink="http://www.w3.org/1999/xlink" x="0px" y="0px"
	 viewBox="0 0 100 100.6" style="enable-background:new 0 0 100 100.6;" xml:space="preserve">
<style type="text/css">
	.st0{fill:#EC1C24;}
	.st1{fill:#2B4258;}
	.st2{fill:#FFFFFF;}
</style>
<path class="st2" d="M50,0C22.4,0,0,22.4,0,50s22.4,50,50,50s50-22.4,50-50S77.6,0,50,0z M25.7,36.2c1.2-2.9,4.1-4.8,7.3-4.7
	c5.7,0,11.3,0,17,0l0,0c5.7,0,11.4,0,17,0c3.1-0.1,6,1.6,7.3,4.5c0.4,0.6,0.3,1.5-0.3,1.9c-0.1,0.1-0.3,0.2-0.4,0.2L51,49.9
	c-0.6,0.3-1.3,0.3-1.9,0L26.3,38c-0.6-0.2-1-0.9-0.8-1.5C25.5,36.4,25.6,36.3,25.7,36.2z M74.9,62.1c-0.6,3.7-3.8,6.5-7.6,6.4
	c-4.6,0-9.3,0-13.9,0H32.9c-3.6,0.1-6.7-2.3-7.6-5.7c-0.2-0.7-0.3-1.3-0.3-2c0-5.4,0-10.9,0-16.3c0-1.4,0.9-1.9,2.1-1.3
	c7.1,3.7,14.2,7.4,21.3,11.1c1,0.6,2.2,0.6,3.2,0c7.1-3.7,14.1-7.4,21.2-11c0.2-0.1,0.4-0.2,0.6-0.3c0.6-0.2,1.3,0.1,1.5,0.7
	c0.1,0.2,0.1,0.4,0.1,0.5c0,4.7,0,9.4,0,14.1C75.1,59.6,75,60.8,74.9,62.1z"/>
</svg>
