<?xml version="1.0" encoding="utf-8"?>
<!-- Generator: Adobe Illustrator 24.1.2, SVG Export Plug-In . SVG Version: 6.00 Build 0)  -->
<svg version="1.1" id="Layer_1" xmlns="http://www.w3.org/2000/svg" xmlns:xlink="http://www.w3.org/1999/xlink" x="0px" y="0px"
	 viewBox="0 0 48 48" style="enable-background:new 0 0 48 48;" xml:space="preserve">
<style type="text/css">
	.st0{fill:#2B4258;}
</style>
<path class="st0" d="M41.7,36.2c0-0.5-0.4-0.9-0.9-0.9H38v-4.5c0-0.5-0.4-0.9-0.9-0.9c-0.5,0-0.9,0.4-0.9,0.9v5.4
	c0,0.5,0.4,0.9,0.9,0.9h3.6C41.3,37.1,41.7,36.8,41.7,36.2 M45.3,36.2c0,4.5-3.6,8.1-8.1,8.1S29,40.7,29,36.2s3.6-8.1,8.1-8.1
	S45.3,31.7,45.3,36.2 M27.2,33.1v-4.5c0-0.3-0.2-0.5-0.5-0.5h-4.5c-0.3,0-0.5,0.2-0.5,0.5v4.5c0,0.3,0.2,0.5,0.5,0.5h4.5
	C27,33.5,27.2,33.3,27.2,33.1 M19.9,20.4c0-0.3-0.2-0.5-0.5-0.5h-4.5c-0.3,0-0.5,0.2-0.5,0.5v4.5c0,0.3,0.2,0.5,0.5,0.5h4.5
	c0.3,0,0.5-0.2,0.5-0.5V20.4z M19.9,28.5c0-0.3-0.2-0.5-0.5-0.5h-4.5c-0.3,0-0.5,0.2-0.5,0.5v4.5c0,0.3,0.2,0.5,0.5,0.5h4.5
	c0.3,0,0.5-0.2,0.5-0.5V28.5z M12.7,20.4c0-0.3-0.2-0.5-0.5-0.5H7.7c-0.3,0-0.5,0.2-0.5,0.5v4.5c0,0.3,0.2,0.5,0.5,0.5h4.5
	c0.3,0,0.5-0.2,0.5-0.5V20.4z M12.7,28.5c0-0.3-0.2-0.5-0.5-0.5H7.7c-0.3,0-0.5,0.2-0.5,0.5v4.5c0,0.3,0.2,0.5,0.5,0.5h4.5
	c0.3,0,0.5-0.2,0.5-0.5V28.5z M21.7,24.9c0,0.3,0.2,0.5,0.5,0.5h4.5c0.3,0,0.5-0.2,0.5-0.5v-4.5c0-0.3-0.2-0.5-0.5-0.5h-4.5
	c-0.3,0-0.5,0.2-0.5,0.5V24.9z M29,24.9c0,0.3,0.2,0.5,0.5,0.5H34c0.3,0,0.5-0.2,0.5-0.5v-4.5c0-0.3-0.2-0.5-0.5-0.5h-4.5
	c-0.3,0-0.5,0.2-0.5,0.5V24.9z M27.3,38H5.4c-1.5,0-2.7-1.2-2.7-2.7V15.4h36.2v11c-0.5-0.1-1.2-0.2-1.8-0.2c-2.2,0-4.2,0.6-5.7,1.8
	h-2c-0.3,0-0.5,0.2-0.5,0.5v2c-1.2,1.6-1.8,3.6-1.8,5.7C27.2,36.9,27.3,37.5,27.3,38 M38.9,13.6H2.7V10c0-1.5,1.2-2.7,2.7-2.7h0.9
	V4.5c0-0.5,0.4-0.9,0.9-0.9c0.5,0,0.9,0.4,0.9,0.9v2.7h3.6V4.5c0-0.5,0.4-0.9,0.9-0.9c0.5,0,0.9,0.4,0.9,0.9v2.7h3.6V4.5
	c0-0.5,0.4-0.9,0.9-0.9C18.7,3.6,19,4,19,4.5v2.7h3.6V4.5c0-0.5,0.4-0.9,0.9-0.9c0.5,0,0.9,0.4,0.9,0.9v2.7h3.6V4.5
	c0-0.5,0.4-0.9,0.9-0.9c0.5,0,0.9,0.4,0.9,0.9v2.7h3.6V4.5c0-0.5,0.4-0.9,0.9-0.9c0.5,0,0.9,0.4,0.9,0.9v2.7h0.9
	c1.5,0,2.7,1.2,2.7,2.7V13.6z"/>
</svg>
