<?xml version="1.0" encoding="utf-8"?>
<!-- Generator: Adobe Illustrator 24.1.2, SVG Export Plug-In . SVG Version: 6.00 Build 0)  -->
<svg version="1.1" id="Layer_1" xmlns="http://www.w3.org/2000/svg" xmlns:xlink="http://www.w3.org/1999/xlink" x="0px" y="0px"
	 viewBox="0 0 85 28.3" style="enable-background:new 0 0 85 28.3;" xml:space="preserve">
<style type="text/css">
	.st0{fill:#B4B4B5;}
</style>
<g>
	<path class="st0" d="M70.7,16.1c-0.3-0.6-0.8-0.8-1.6-0.8h-1.7c-0.1,0-0.2,0-0.3-0.1C67.1,15.2,67,15.1,67,15c0-0.1,0-0.1,0.1-0.2
		c0.1-0.1,0.2-0.1,0.3-0.1h3.3v-1.2h-3.1c-0.3,0-0.6,0.1-0.9,0.2c-0.3,0.1-0.5,0.4-0.7,0.6c-0.1,0.2-0.1,0.4-0.1,0.6
		c0,0.2,0,0.4,0.1,0.6c0.3,0.5,0.8,0.8,1.6,0.8h1.7c0.1,0,0.2,0,0.2,0.1c0.1,0.1,0.1,0.1,0.1,0.2c0,0.2-0.1,0.3-0.4,0.3H66v1.2h3.1
		c0.3,0,0.7-0.1,0.9-0.2c0.3-0.1,0.5-0.4,0.7-0.7c0.1-0.2,0.1-0.4,0.1-0.6C70.9,16.5,70.8,16.3,70.7,16.1 M64.3,15.6
		c0,0-0.1,0.1-0.2,0.1h-2.4v-0.9h2.4c0.1,0,0.1,0,0.2,0.1c0,0,0.1,0.1,0.1,0.2v0.4C64.3,15.5,64.3,15.6,64.3,15.6 M65.5,15
		c0-0.4-0.1-0.7-0.4-1c-0.3-0.3-0.6-0.4-1-0.4h-3.6v4.6h1.2v-1.3h2.4c0.4,0,0.7-0.1,1-0.4c0.3-0.3,0.4-0.6,0.4-1V15z M59.9,13.6
		h-1.2v4.6h1.2V13.6z M57,15.6c0,0-0.1,0.1-0.2,0.1h-2.7v-0.9h2.7c0.1,0,0.1,0,0.2,0.1c0,0,0.1,0.1,0.1,0.2v0.4
		C57.1,15.5,57.1,15.6,57,15.6 M58.2,15c0-0.4-0.1-0.7-0.4-1c-0.3-0.3-0.6-0.4-1-0.4H53v4.6h1.2v-1.3h1.1l1.3,1.3h1.7l-1.3-1.3
		c0.4,0,0.7-0.2,0.9-0.4c0.3-0.3,0.4-0.6,0.4-1V15z M52.5,13.6h-4.4v1.2h1.6v3.4h1.2v-3.4h1.6V13.6z M45.7,17h-3.3v-3.4h-1.2v4.6
		h4.5V17z M37.3,16c0.3-0.6,0.5-1,0.6-1.3c0.1,0.2,0.2,0.4,0.3,0.6c0.1,0.1,0.2,0.3,0.3,0.6H37.3z M38.6,13.6h-1.3l-2.4,4.6h1.4
		l0.5-1h2.4l0.5,1H41L38.6,13.6z M35.5,13.6h-4.4v1.2h1.6v3.4h1.2v-3.4h1.6V13.6z M30.7,13.6h-1.2v3.1c-0.1-0.1-0.2-0.2-0.3-0.3
		l-2.5-2.7h-1.2v4.6h1.2v-3c0.1,0.1,0.2,0.3,0.3,0.4l2.3,2.6h1.4V13.6z M25,17h-3.4v-0.6h3.3v-1.2h-3.3v-0.5H25v-1.2h-4.6v4.6H25V17
		z M18.6,16.9c0,0-0.1,0.1-0.2,0.1h-2.9v-2.2h2.9c0.1,0,0.1,0,0.2,0.1c0,0,0.1,0.1,0.1,0.2v1.8C18.7,16.8,18.6,16.9,18.6,16.9
		 M19.8,15c0-0.4-0.1-0.7-0.4-1c-0.3-0.3-0.6-0.4-1-0.4h-4.1v4.6h4.1c0.4,0,0.7-0.1,1-0.4c0.3-0.3,0.4-0.6,0.4-1V15z"/>
	<path class="st0" d="M39.7,10.7c-0.3-0.6-0.8-0.8-1.6-0.8h-1.7c-0.1,0-0.2,0-0.3-0.1C36.1,9.7,36,9.6,36,9.6c0-0.1,0-0.1,0.1-0.2
		c0.1,0,0.2-0.1,0.3-0.1h3.3V8.1h-3.1c-0.3,0-0.6,0.1-0.9,0.2c-0.3,0.1-0.5,0.4-0.7,0.6c-0.1,0.2-0.1,0.4-0.1,0.6
		c0,0.2,0,0.4,0.1,0.6c0.3,0.5,0.8,0.8,1.6,0.8h1.7c0.1,0,0.2,0,0.2,0.1c0.1,0.1,0.1,0.1,0.1,0.2c0,0.2-0.1,0.3-0.4,0.3H35v1.2h3.1
		c0.3,0,0.7-0.1,0.9-0.2c0.3-0.1,0.5-0.4,0.7-0.7c0.1-0.2,0.1-0.4,0.1-0.6C39.9,11.1,39.8,10.9,39.7,10.7 M34.4,10.7
		c-0.3-0.6-0.8-0.8-1.6-0.8H31c-0.1,0-0.2,0-0.3-0.1c-0.1-0.1-0.1-0.1-0.1-0.2c0-0.1,0-0.1,0.1-0.2c0.1,0,0.2-0.1,0.3-0.1h3.3V8.1
		h-3.1c-0.3,0-0.6,0.1-0.9,0.2c-0.3,0.1-0.5,0.4-0.7,0.6c-0.1,0.2-0.1,0.4-0.1,0.6c0,0.2,0,0.4,0.1,0.6c0.3,0.5,0.8,0.8,1.6,0.8h1.7
		c0.1,0,0.2,0,0.2,0.1c0.1,0.1,0.1,0.1,0.1,0.2c0,0.2-0.1,0.3-0.4,0.3h-3.3v1.2h3.1c0.3,0,0.7-0.1,0.9-0.2c0.3-0.1,0.5-0.4,0.7-0.7
		c0.1-0.2,0.1-0.4,0.1-0.6C34.5,11.1,34.4,10.9,34.4,10.7 M29,8.1h-1.2v4.6H29V8.1z M26.2,8.1l-0.8,2.5c-0.1,0.4-0.2,0.7-0.3,0.9
		c-0.1-0.4-0.2-0.7-0.3-0.9l-0.8-2.5h-1.2l-0.8,2.5c-0.1,0.4-0.2,0.7-0.3,0.9c-0.1-0.4-0.2-0.7-0.3-0.9l-0.8-2.5h-1.3l1.8,4.6h1.3
		l1-2.8l1,2.8h1.3l1.8-4.6H26.2z M19.1,10.7c-0.3-0.6-0.8-0.8-1.6-0.8h-1.7c-0.1,0-0.2,0-0.3-0.1c-0.1-0.1-0.1-0.1-0.1-0.2
		c0-0.1,0-0.1,0.1-0.2c0.1,0,0.2-0.1,0.3-0.1H19V8.1h-3.1c-0.3,0-0.6,0.1-0.9,0.2c-0.3,0.1-0.5,0.4-0.7,0.6
		c-0.1,0.2-0.1,0.4-0.1,0.6c0,0.2,0,0.4,0.1,0.6c0.3,0.5,0.8,0.8,1.6,0.8h1.7c0.1,0,0.2,0,0.2,0.1c0.1,0.1,0.1,0.1,0.1,0.2
		c0,0.2-0.1,0.3-0.4,0.3h-3.3v1.2h3.1c0.3,0,0.7-0.1,0.9-0.2c0.3-0.1,0.5-0.4,0.7-0.7c0.1-0.2,0.1-0.4,0.1-0.6
		C19.2,11.1,19.2,10.9,19.1,10.7"/>
	<path class="st0" d="M60.5,21.2h-0.4v0.4h0.4V21.2z M59.6,21.7v-0.4H58v-0.5h1.6v-0.3H58V20h1.6v-0.4h-2v2.1H59.6z M57.2,21.7v-0.4
		h-1.6v-1.7h-0.4v2.1H57.2z M54.7,19.6h-0.4v2.1h0.4V19.6z M53.8,21.7v-2.1h-0.4l-0.8,1.7l-0.8-1.7h-0.5v2.1h0.4v-1.4l0.7,1.4h0.4
		l0.7-1.4v1.4H53.8z M50.9,21c0-0.1,0-0.2,0-0.2c0-0.1-0.1-0.1-0.1-0.2c-0.1,0-0.1-0.1-0.2-0.1c-0.1,0-0.2,0-0.3,0h-0.8
		c-0.1,0-0.2,0-0.2-0.1c0,0-0.1-0.1-0.1-0.2c0-0.1,0-0.1,0.1-0.2c0,0,0.1-0.1,0.2-0.1h1.4c0-0.1,0-0.1,0-0.2c0-0.1,0-0.1,0-0.2h-1.5
		c-0.1,0-0.2,0-0.3,0c-0.1,0-0.2,0.1-0.2,0.1c-0.1,0-0.1,0.1-0.1,0.2c0,0.1,0,0.2,0,0.3v0.1c0,0.1,0,0.2,0,0.2
		c0,0.1,0.1,0.1,0.1,0.2c0.1,0,0.1,0.1,0.2,0.1c0.1,0,0.2,0,0.3,0h0.8c0.1,0,0.2,0,0.2,0.1c0,0,0.1,0.1,0.1,0.2c0,0,0,0.1,0,0.1
		c0,0,0,0.1,0,0.1c0,0-0.1,0-0.1,0c0,0-0.1,0-0.1,0h-1.4c0,0.1,0,0.1,0,0.2c0,0.1,0,0.1,0,0.2h1.5c0.1,0,0.2,0,0.3,0
		c0.1,0,0.2-0.1,0.2-0.1c0.1,0,0.1-0.1,0.1-0.2C50.8,21.3,50.9,21.2,50.9,21L50.9,21z M46.7,20.4c0,0.1,0,0.2,0,0.2
		c0,0-0.1,0.1-0.2,0.1h-1.3V20h1.3c0.1,0,0.1,0,0.2,0.1c0,0,0,0.1,0,0.2V20.4z M47.2,21.7L46.4,21c0.1,0,0.2,0,0.3,0
		c0.1,0,0.2,0,0.2-0.1c0.1,0,0.1-0.1,0.1-0.2c0-0.1,0-0.2,0-0.3v-0.1c0-0.1,0-0.2,0-0.3c0-0.1-0.1-0.2-0.1-0.2
		c0-0.1-0.1-0.1-0.2-0.1c-0.1,0-0.2,0-0.3,0h-1.7v2.1h0.4V21h0.7l0.7,0.7H47.2z M43.7,21.7c0.1,0,0.2,0,0.3,0c0.1,0,0.1-0.1,0.2-0.1
		c0.1-0.1,0.1-0.1,0.1-0.2c0-0.1,0-0.2,0-0.3v-1.4h-0.4V21c0,0.1,0,0.2-0.1,0.2c0,0-0.1,0.1-0.2,0.1h-1c-0.1,0-0.1,0-0.2-0.1
		c0,0-0.1-0.1-0.1-0.2v-1.4H42V21c0,0.1,0,0.2,0,0.3c0,0.1,0.1,0.2,0.1,0.2c0,0.1,0.1,0.1,0.2,0.1c0.1,0,0.2,0,0.3,0H43.7z M41.1,21
		c0,0.1,0,0.2-0.1,0.2c0,0-0.1,0.1-0.2,0.1h-1.1c0,0-0.1,0-0.1,0c0,0-0.1,0-0.1,0c0,0,0,0,0-0.1c0,0,0-0.1,0-0.1v-0.7
		c0-0.1,0-0.2,0.1-0.2c0,0,0.1-0.1,0.2-0.1h1.1c0.1,0,0.2,0,0.2,0.1c0,0,0.1,0.1,0.1,0.2V21z M40.9,21.7c0.1,0,0.2,0,0.3,0
		c0.1,0,0.2-0.1,0.2-0.1c0.1-0.1,0.1-0.1,0.1-0.2c0-0.1,0-0.2,0-0.3v-0.7c0-0.1,0-0.2,0-0.3c0-0.1-0.1-0.2-0.1-0.2
		c-0.1-0.1-0.1-0.1-0.2-0.1c-0.1,0-0.2,0-0.3,0h-1.1c-0.1,0-0.2,0-0.3,0c-0.1,0-0.2,0.1-0.2,0.1c-0.1,0.1-0.1,0.1-0.1,0.2
		c0,0.1,0,0.2,0,0.3V21c0,0.1,0,0.2,0,0.3c0,0.1,0.1,0.2,0.1,0.2c0.1,0.1,0.1,0.1,0.2,0.1c0.1,0,0.2,0,0.3,0H40.9z M37.9,21.7v-0.8
		l1-1.3h-0.5l-0.7,1l-0.7-1h-0.5l1,1.3v0.8H37.9z M35,21.2h-0.4v0.4H35V21.2z M34.2,20.4c0,0.1,0,0.1-0.1,0.2c0,0-0.1,0.1-0.2,0.1
		h-1.2V20h1.2c0.1,0,0.1,0,0.2,0c0,0,0.1,0.1,0.1,0.2V20.4z M33.9,21c0.1,0,0.2,0,0.3,0c0.1,0,0.1-0.1,0.2-0.1c0,0,0.1-0.1,0.1-0.2
		c0-0.1,0-0.2,0-0.3v-0.2c0-0.1,0-0.2,0-0.3c0-0.1-0.1-0.1-0.1-0.2c0,0-0.1-0.1-0.2-0.1c-0.1,0-0.2,0-0.3,0h-1.6v2.1h0.4V21H33.9z
		 M31.8,19.6h-0.4v2.1h0.4V19.6z M30.5,20.4c0,0.1,0,0.2,0,0.2c0,0-0.1,0.1-0.2,0.1H29V20h1.3c0.1,0,0.1,0,0.2,0.1c0,0,0,0.1,0,0.2
		V20.4z M31,21.7L30.2,21c0.1,0,0.2,0,0.3,0c0.1,0,0.2,0,0.2-0.1c0.1,0,0.1-0.1,0.1-0.2c0-0.1,0-0.2,0-0.3v-0.1c0-0.1,0-0.2,0-0.3
		c0-0.1-0.1-0.2-0.1-0.2c0-0.1-0.1-0.1-0.2-0.1c-0.1,0-0.2,0-0.3,0h-1.7v2.1H29V21h0.7l0.7,0.7H31z M27.5,21.7V20h0.8v-0.4h-1.9V20
		h0.8v1.7H27.5z M24.4,20.4c0,0.1,0,0.2,0,0.2c0,0-0.1,0.1-0.2,0.1h-1.3V20h1.3c0.1,0,0.1,0,0.2,0.1c0,0,0,0.1,0,0.2V20.4z
		 M24.9,21.7L24.1,21c0.1,0,0.2,0,0.3,0c0.1,0,0.2,0,0.2-0.1c0.1,0,0.1-0.1,0.1-0.2c0-0.1,0-0.2,0-0.3v-0.1c0-0.1,0-0.2,0-0.3
		c0-0.1-0.1-0.2-0.1-0.2c0-0.1-0.1-0.1-0.2-0.1c-0.1,0-0.2,0-0.3,0h-1.7v2.1h0.4V21h0.7l0.7,0.7H24.9z M21.4,21.7c0.1,0,0.2,0,0.3,0
		c0.1,0,0.1-0.1,0.2-0.1c0.1-0.1,0.1-0.1,0.1-0.2c0-0.1,0-0.2,0-0.3v-1.4h-0.4V21c0,0.1,0,0.2-0.1,0.2c0,0-0.1,0.1-0.2,0.1h-1
		c-0.1,0-0.1,0-0.2-0.1c0,0-0.1-0.1-0.1-0.2v-1.4h-0.4V21c0,0.1,0,0.2,0,0.3c0,0.1,0.1,0.2,0.1,0.2c0.1,0.1,0.1,0.1,0.2,0.1
		c0.1,0,0.2,0,0.3,0H21.4z M18.8,21c0,0.1,0,0.2-0.1,0.2c0,0-0.1,0.1-0.2,0.1h-1.1c0,0-0.1,0-0.1,0c0,0-0.1,0-0.1,0c0,0,0,0,0-0.1
		c0,0,0-0.1,0-0.1v-0.7c0-0.1,0-0.2,0.1-0.2c0,0,0.1-0.1,0.2-0.1h1.1c0.1,0,0.2,0,0.2,0.1c0,0,0.1,0.1,0.1,0.2V21z M18.6,21.7
		c0.1,0,0.2,0,0.3,0c0.1,0,0.2-0.1,0.2-0.1c0.1-0.1,0.1-0.1,0.1-0.2c0-0.1,0-0.2,0-0.3v-0.7c0-0.1,0-0.2,0-0.3
		c0-0.1-0.1-0.2-0.1-0.2c-0.1-0.1-0.1-0.1-0.2-0.1c-0.1,0-0.2,0-0.3,0h-1.1c-0.1,0-0.2,0-0.3,0c-0.1,0-0.2,0.1-0.2,0.1
		c-0.1,0.1-0.1,0.1-0.1,0.2c0,0.1,0,0.2,0,0.3V21c0,0.1,0,0.2,0,0.3c0,0.1,0.1,0.2,0.1,0.2c0.1,0.1,0.1,0.1,0.2,0.1
		c0.1,0,0.2,0,0.3,0H18.6z M15.6,21.7v-0.8l1-1.3h-0.5l-0.7,1l-0.7-1h-0.5l1,1.3v0.8H15.6z"/>
</g>
</svg>
