<svg xmlns="http://www.w3.org/2000/svg" viewBox="0 0 951.13 100.91"><defs><style>.cls-1{fill:#fff;}.cls-2{fill:#ec1c24;}</style></defs><g id="Camada_2" data-name="Camada 2"><g id="Layer_1" data-name="Layer 1"><path class="cls-1" d="M442.55,41a12.7,12.7,0,0,0-12.64-12.72H393V69.45h36.91a12.72,12.72,0,0,0,12.61-12.72ZM431.41,58.31a2,2,0,0,1-1.5.63H403.55V38.79h26.39a2,2,0,0,1,1.5.63,2.13,2.13,0,0,1,.63,1.56V56.74a2.19,2.19,0,0,1-.63,1.57Zm57.08.68H458V53.94h29.56V43.55H458V38.79h30.53V28.28h-41V69.5h41V59Zm51.3-30.71H529.31V55.76a37.14,37.14,0,0,0-2.48-3.11l-22.5-24.37h-11.1V69.5h10.51v-27a32.56,32.56,0,0,0,2.68,3.4l21.13,23.6h12.32V28.28Zm43.8,0H544.2V38.79h14.35V69.5h10.5V38.79h14.57V28.28Zm27.21,0H599L577.43,69.45h12.12l4.38-8.87h21.9l4.38,8.87h12.15L610.83,28.28ZM599.55,50.07A100.74,100.74,0,0,0,605,38.73c.67,1.73,1.51,3.63,2.52,5.72.62,1.25,1.58,3.12,2.9,5.62ZM674.72,59h-30V28.28H634.15V69.5h40.52V59Zm33.83-30.71h-10.5V69.5h10.5Zm52.07,0h-10.5V55.76a37.14,37.14,0,0,0-2.48-3.11l-22.5-24.37H714V69.5h10.52v-27a32.56,32.56,0,0,0,2.68,3.4l21.08,23.59h12.32V28.28Zm45.42,0L793.36,53.41a62.34,62.34,0,0,0-2.63,5.69,57.47,57.47,0,0,0-2.64-5.69L775.43,28.28H763.25l21.58,41.17h11.82l21.57-41.17ZM859.82,59H829.34V53.94h29.51V43.55H829.34V38.79h30.49V28.28h-41V69.5h41V59Zm47.73-7.72q-3.72-7.44-14.56-7.44H877.55a3.78,3.78,0,0,1-2.36-.75,2.27,2.27,0,0,1-1-1.86,2.07,2.07,0,0,1,1-1.77,4.11,4.11,0,0,1,2.38-.66h29.34V28.28h-28a19,19,0,0,0-8,1.64,12.69,12.69,0,0,0-6,5.71,12.24,12.24,0,0,0,0,11q3.62,7.31,14,7.31H894.6a3.42,3.42,0,0,1,2.25.77,2.37,2.37,0,0,1,.92,1.91c0,1.57-1,2.36-3.17,2.36H864.92V69.49h28a20.16,20.16,0,0,0,8.32-1.64,12.65,12.65,0,0,0,6.31-5.91,11.5,11.5,0,0,0,1.26-5.31,11.82,11.82,0,0,0-1.26-5.31Zm43.58-23H911.68V38.79H926V69.5h10.52V38.79h14.56V28.28Z"/><path class="cls-1" d="M181.92,51.27q-3.72-7.44-14.57-7.44H151.91a3.75,3.75,0,0,1-2.35-.75,2.25,2.25,0,0,1-1-1.86,2.08,2.08,0,0,1,.95-1.77,4.11,4.11,0,0,1,2.38-.66h29.35V28.28h-27.9a19,19,0,0,0-8,1.64,12.69,12.69,0,0,0-6,5.71,12.18,12.18,0,0,0,0,11q3.72,7.24,14.07,7.24h15.66a3.39,3.39,0,0,1,2.24.77,2.38,2.38,0,0,1,.93,1.91c0,1.57-1.06,2.36-3.17,2.36H139.32V69.42h28a20.21,20.21,0,0,0,8.33-1.64,12.74,12.74,0,0,0,6.24-5.92,11.5,11.5,0,0,0,1.26-5.31,11.82,11.82,0,0,0-1.26-5.31Zm64.28-23-7,22.5c-1.17,3.43-2.08,6-2.75,7.72q-1.53-5.16-2.35-7.74L227,28.27H216L209,50.75c-1.13,3.59-1.92,6.16-2.35,7.74-1.22-3.43-2.13-6-2.75-7.72l-7-22.5h-12.1l15.94,41.17h11.44l9.42-25,9.36,25h11.44l15.93-41.17Zm24.63,0H260.32V69.49h10.51V28.28Zm48.46,23q-3.74-7.44-14.57-7.44H289.28a3.75,3.75,0,0,1-2.35-.75,2.27,2.27,0,0,1-1-1.86,2.07,2.07,0,0,1,1-1.77,4.11,4.11,0,0,1,2.38-.66h29.35V28.28h-28a19.08,19.08,0,0,0-8,1.66,12.69,12.69,0,0,0-6,5.71,12.18,12.18,0,0,0,0,11q3.72,7.24,14.07,7.24h15.65a3.4,3.4,0,0,1,2.25.77,2.38,2.38,0,0,1,.93,1.91c0,1.57-1.06,2.36-3.18,2.36H276.69V69.44h28A20.16,20.16,0,0,0,313,67.8a12.72,12.72,0,0,0,6.25-5.92,11.68,11.68,0,0,0,1.25-5.31,11.94,11.94,0,0,0-1.25-5.31Zm48.34,0q-3.72-7.44-14.56-7.44H337.63a3.78,3.78,0,0,1-2.36-.75,2.27,2.27,0,0,1-1-1.86,2.07,2.07,0,0,1,1-1.77,4.11,4.11,0,0,1,2.38-.66H367V28.28H339.05A19.08,19.08,0,0,0,331,29.94a12.69,12.69,0,0,0-6,5.71,12.24,12.24,0,0,0,0,11q3.71,7.29,14.05,7.29h15.66a3.39,3.39,0,0,1,2.24.77,2.38,2.38,0,0,1,.93,1.91c0,1.57-1.05,2.36-3.17,2.36H325V69.49h28a20.16,20.16,0,0,0,8.32-1.64,12.61,12.61,0,0,0,6.24-5.92,11.5,11.5,0,0,0,1.26-5.31,11.82,11.82,0,0,0-1.26-5.31Z"/><path class="cls-1" d="M155.61,100.88a11.31,11.31,0,0,0,2.9-.31,3.87,3.87,0,0,0,1.88-1,4,4,0,0,0,1-1.89,12.31,12.31,0,0,0,.29-2.9V88.16a12.39,12.39,0,0,0-.29-2.91,4,4,0,0,0-1-1.88,3.87,3.87,0,0,0-1.88-1,11.76,11.76,0,0,0-2.9-.3H145.33a12.08,12.08,0,0,0-2.94.3,3.68,3.68,0,0,0-2.86,2.9,12.38,12.38,0,0,0-.28,2.91V94.8a12.3,12.3,0,0,0,.28,2.9,3.63,3.63,0,0,0,2.86,2.9,11.62,11.62,0,0,0,2.94.31Zm2.26-6.08a2.71,2.71,0,0,1-.49,1.89,2.53,2.53,0,0,1-1.8.49H145.33a4.44,4.44,0,0,1-1.09-.11,1.49,1.49,0,0,1-.71-.38,1.61,1.61,0,0,1-.38-.73A5,5,0,0,1,143,94.8V88.17a2.69,2.69,0,0,1,.51-1.9,2.47,2.47,0,0,1,1.78-.51h10.22a2.47,2.47,0,0,1,1.78.51,2.69,2.69,0,0,1,.51,1.9V94.8Zm23.21,0a11,11,0,0,0,2.8-.29,4.18,4.18,0,0,0,1.82-.91,3.61,3.61,0,0,0,1-1.65,8.51,8.51,0,0,0,.3-2.46v-1.7a10.44,10.44,0,0,0-.3-2.73,3.79,3.79,0,0,0-1-1.76,3.93,3.93,0,0,0-1.82-.94,11.49,11.49,0,0,0-2.8-.29h-14.6v18.84h3.82V94.8Zm2.1-5.28a2,2,0,0,1-.47,1.46,2.32,2.32,0,0,1-1.63.45H170.3V85.79h10.78a2.37,2.37,0,0,1,1.63.44,2.11,2.11,0,0,1,.47,1.56Zm22.5,5.28a11.49,11.49,0,0,0,2.8-.29,4,4,0,0,0,1.81-.91,3.53,3.53,0,0,0,1-1.65,8.51,8.51,0,0,0,.3-2.46v-1.7a10.44,10.44,0,0,0-.3-2.73,3.66,3.66,0,0,0-1-1.76,4,4,0,0,0-1.81-.94,11.49,11.49,0,0,0-2.8-.29H191.07v18.84h3.83V94.8Zm2.09-5.28a2,2,0,0,1-.46,1.46,2.32,2.32,0,0,1-1.63.45H194.9V85.79h10.78a2.37,2.37,0,0,1,1.63.44,2.1,2.1,0,0,1,.46,1.56ZM232,100.91a11.39,11.39,0,0,0,2.91-.31,3.66,3.66,0,0,0,2.88-2.9,11.76,11.76,0,0,0,.3-2.9V88.18a11.84,11.84,0,0,0-.3-2.91,3.69,3.69,0,0,0-2.88-2.9,11.84,11.84,0,0,0-2.91-.3H221.73a12.08,12.08,0,0,0-2.94.3,3.68,3.68,0,0,0-2.86,2.9,12.39,12.39,0,0,0-.29,2.91V94.8a12.31,12.31,0,0,0,.29,2.9,3.63,3.63,0,0,0,2.86,2.9,11.62,11.62,0,0,0,2.94.31Zm2.27-6.08a2.67,2.67,0,0,1-.5,1.89,2.49,2.49,0,0,1-1.79.49H221.73a4.44,4.44,0,0,1-1.09-.11,1.49,1.49,0,0,1-.71-.38,1.55,1.55,0,0,1-.38-.78,5,5,0,0,1-.11-1.16V88.15a2.69,2.69,0,0,1,.51-1.9,2.47,2.47,0,0,1,1.78-.51H232a2.47,2.47,0,0,1,1.78.51,2.69,2.69,0,0,1,.51,1.9v6.68ZM265,100.91l-7.21-6.22a17.34,17.34,0,0,0,3.05-.23,4.59,4.59,0,0,0,2-.86,3.51,3.51,0,0,0,1.15-1.73,9.61,9.61,0,0,0,.35-2.82V87.9a10.34,10.34,0,0,0-.3-2.71,4,4,0,0,0-.94-1.8,3.84,3.84,0,0,0-1.72-1,9.27,9.27,0,0,0-2.62-.32H242.85v18.84h3.85V94.75h6.14l6.74,6.16Zm-4.4-11.5a2.61,2.61,0,0,1-.44,1.72,1.83,1.83,0,0,1-1.46.49H246.7V85.79h11.94c.83,0,1.35.23,1.57.67a4.9,4.9,0,0,1,.33,2v1Zm18,11.47V85.76h7.11V82h-18v3.72h7.11v15.12Zm26.18,0a9.82,9.82,0,0,0,2.75-.33,4.13,4.13,0,0,0,1.83-1.06,4.3,4.3,0,0,0,1-1.84,10.16,10.16,0,0,0,.31-2.74V82H306.8v12.9a2.63,2.63,0,0,1-.47,1.74,2,2,0,0,1-1.6.53h-9.51a2.09,2.09,0,0,1-1.6-.53,2.68,2.68,0,0,1-.46-1.74V82h-3.8v12.9a11,11,0,0,0,.31,2.74,4.3,4.3,0,0,0,1,1.84,4,4,0,0,0,1.81,1.06,9.68,9.68,0,0,0,2.73.33Zm31.76,0V82h-3.68V95.67L319.44,82h-4.1v18.84H319V87l13.73,13.88Zm8.67,0V82h-3.83v18.84Zm14.74,0V85.76H367V82H349v3.72h7.1v15.12Zm14.78,0V82h-3.83v18.84Zm23.61,0v-3.7h-14.9V92.94h14.46v-3H383.39V85.77h14.89V82H379.55v18.84Zm24.48-6.11a6.05,6.05,0,0,0-.34-2.15,3.34,3.34,0,0,0-1.1-1.52,5.09,5.09,0,0,0-2-.89,13.68,13.68,0,0,0-3.06-.28h-7.78a2.78,2.78,0,0,1-1.92-.48,2.21,2.21,0,0,1-.49-1.6,2.14,2.14,0,0,1,.49-1.59,2.88,2.88,0,0,1,1.92-.47h13.16c.09-.64.18-1.26.25-1.87s.15-1.24.23-1.88H408.47a12.58,12.58,0,0,0-3,.3,4.72,4.72,0,0,0-1.94.93,3.45,3.45,0,0,0-1,1.65,8.46,8.46,0,0,0-.31,2.4v.62a7.46,7.46,0,0,0,.31,2.25,3.51,3.51,0,0,0,1,1.59,4.65,4.65,0,0,0,1.89.93,12,12,0,0,0,2.93.3h7.9a3.33,3.33,0,0,1,2,.45,2,2,0,0,1,.54,1.63,3.06,3.06,0,0,1-.13,1,1.4,1.4,0,0,1-.43.64,1.66,1.66,0,0,1-.82.34,6.84,6.84,0,0,1-1.28.1H402.92c0,.62-.08,1.24-.13,1.85s-.09,1.23-.13,1.85h13.76a13.3,13.3,0,0,0,2.95-.29,4.54,4.54,0,0,0,2-.93A3.59,3.59,0,0,0,422.46,98a8.07,8.07,0,0,0,.34-2.54v-.66Zm24.32,6.11V85.76h7.1V82h-18v3.72h7.1v15.12Zm30,0V82h-3.76v7.67H461.68V82h-3.76v18.84h3.76V93.1h11.61v7.78Zm28.79,0L495.17,82h-4l-10.62,18.84h4.35l2.44-4.38h11.71l2.43,4.38Zm-8.24-7.34h-8.83l4.42-7.8,4.41,7.8Zm18,7.34V85.76h7.11V82h-18v3.72h7.1v15.12Zm43.88,0V82h-4.1L548.11,97.1,540.84,82h-4.19v18.84h3.51V88.56l6.14,12.32h3.54L556,88.56v12.32Zm28.7,0L577.55,82h-4l-10.67,18.84h4.36l2.43-4.38h11.75l2.43,4.38ZM580,93.54h-8.84l4.42-7.8,4.42,7.8Zm18,7.34V85.76h7.1V82h-18v3.72h7.1v15.12Zm21.57,0V85.76h7.1V82h-18v3.72h7.1v15.12Zm29.55,0v-3.7H634.24V92.94H648.7v-3H634.24V85.77h14.89V82H630.42v18.84Zm26.49,0-7.22-6.22a17.45,17.45,0,0,0,3.06-.23,4.59,4.59,0,0,0,2-.86,3.51,3.51,0,0,0,1.15-1.73,9.61,9.61,0,0,0,.35-2.82V87.87a10.34,10.34,0,0,0-.3-2.71,3.88,3.88,0,0,0-.95-1.8,3.72,3.72,0,0,0-1.71-1,9.27,9.27,0,0,0-2.62-.32H653.55v18.84h3.84V94.72h6.16l6.73,6.16Zm-4.41-11.47a2.61,2.61,0,0,1-.44,1.72,1.91,1.91,0,0,1-1.46.49h-12V85.79h12c.83,0,1.35.23,1.57.67a4.9,4.9,0,0,1,.33,2v1Z"/><path class="cls-2" d="M87,44.83c-.2-3-.51-6-.9-8.77a89.45,89.45,0,0,0-2.27-11.12,98.54,98.54,0,0,0-17.57-9.11,5.18,5.18,0,0,0-4.34-.15,3.16,3.16,0,0,0-.84,2.57c.4,6.17.46,13.11.19,20.7,0,1-.07,1.94-.11,2.93a220.17,220.17,0,0,1,22,7.24,3,3,0,0,0,2.58,0A5.49,5.49,0,0,0,87,44.83Z"/><path class="cls-1" d="M55.07,12c-.27-3.3-4.35-6.92-9.14-8.12A128.45,128.45,0,0,0,16.14,0,150.85,150.85,0,0,0,9.3,22.28c-1.21,5.08,2.62,10,8.59,10.88a355.57,355.57,0,0,1,36,7.24l1.2.3v-.62A217.13,217.13,0,0,0,55.07,12Z"/><path class="cls-1" d="M44.32,44c-9.11-2-18.46-3.81-27.83-5.26a11,11,0,0,0-7.86,1.76,11.18,11.18,0,0,0-4.18,7.08C3.29,54.8,2.32,62,1.53,69.18.89,75.09.37,81,0,86.7a384.66,384.66,0,0,0,38.17,7.64A11.09,11.09,0,0,0,46,92.55a11.23,11.23,0,0,0,4.15-7c2.2-13,3.8-26.23,4.68-39.07C51.37,45.66,47.86,44.84,44.32,44Z"/><path class="cls-1" d="M87.55,56.37a223.41,223.41,0,0,0-26.7-8.65,344,344,0,0,1-4.55,38c-1.06,5.9,2.28,11,7.36,11.31a136.68,136.68,0,0,0,22.71,0,127.14,127.14,0,0,0,5.85-29.47C92.64,62.58,90.55,57.59,87.55,56.37Z"/></g></g></svg>