<?xml version="1.0" encoding="utf-8"?>
<!-- Generator: Adobe Illustrator 24.1.2, SVG Export Plug-In . SVG Version: 6.00 Build 0)  -->
<svg version="1.1" id="Layer_1" xmlns="http://www.w3.org/2000/svg" xmlns:xlink="http://www.w3.org/1999/xlink" x="0px" y="0px"
	 viewBox="0 0 85 28.3" style="enable-background:new 0 0 85 28.3;" xml:space="preserve">
<style type="text/css">
	.st0{fill:#B4B4B5;}
</style>
<g>
	<g>
		<path class="st0" d="M20.1,11.7h-1.9v1.4h1.9c0,0,0.1,0,0.1,0c0,0,0-0.1,0-0.1v-1.1c0,0,0-0.1,0-0.1
			C20.2,11.7,20.2,11.7,20.1,11.7z"/>
		<path class="st0" d="M19.8,14.9h-1.6v0.6h1.6c0,0,0.1,0,0.1,0c0,0,0-0.1,0-0.1v-0.3c0,0,0-0.1,0-0.1C19.9,15,19.9,14.9,19.8,14.9z
			"/>
		<path class="st0" d="M20.7,9.8h-6.4c-0.8,0-1.5,0.7-1.5,1.5v5.6c0,0.8,0.7,1.5,1.5,1.5h6.4c0.8,0,1.5-0.7,1.5-1.5v-5.6
			C22.1,10.4,21.5,9.8,20.7,9.8z M16.9,17.1h-0.7V16h-1.5v1.1h-0.7v-2.9h0.7v1.1h1.5v-1.1h0.7V17.1z M17,13.3
			c-0.1,0.2-0.2,0.3-0.4,0.4c-0.2,0.1-0.4,0.1-0.6,0.1h-2v-0.7H16c0.1,0,0.2-0.1,0.2-0.2c0-0.1,0-0.1-0.1-0.1c0,0-0.1-0.1-0.2-0.1
			h-1.1c-0.5,0-0.8-0.2-1-0.5c-0.1-0.1-0.1-0.2-0.1-0.4c0-0.1,0-0.3,0.1-0.4c0.1-0.2,0.2-0.3,0.4-0.4c0.2-0.1,0.4-0.1,0.6-0.1h2v0.7
			h-2.1c-0.1,0-0.1,0-0.2,0c0,0-0.1,0.1-0.1,0.1c0,0.1,0,0.1,0.1,0.1c0,0,0.1,0.1,0.2,0.1h1.1c0.5,0,0.9,0.2,1,0.5
			c0.1,0.1,0.1,0.2,0.1,0.4C17,13.1,17,13.2,17,13.3z M20.7,15.4c0,0.2-0.1,0.5-0.3,0.6c-0.2,0.2-0.4,0.3-0.6,0.3h-1.6v0.8h-0.7
			v-2.9h2.3c0.2,0,0.5,0.1,0.6,0.3c0.2,0.2,0.3,0.4,0.3,0.6V15.4z M21,12.9c0,0.2-0.1,0.5-0.3,0.6c-0.2,0.2-0.4,0.3-0.6,0.3h-2.6
			v-2.9h2.6c0.2,0,0.5,0.1,0.6,0.3c0.2,0.2,0.3,0.4,0.3,0.6V12.9z"/>
	</g>
	<path class="st0" d="M72.2,16.3c-0.2-0.4-0.7-0.7-1.3-0.7h-1.4c-0.1,0-0.2,0-0.2-0.1c-0.1,0-0.1-0.1-0.1-0.2s0-0.1,0.1-0.2
		c0.1,0,0.1-0.1,0.2-0.1h2.7v-0.9h-2.5c-0.3,0-0.5,0-0.7,0.1c-0.2,0.1-0.4,0.3-0.5,0.5c-0.1,0.2-0.1,0.3-0.1,0.5
		c0,0.2,0,0.3,0.1,0.5c0.2,0.4,0.7,0.7,1.3,0.7H71c0.1,0,0.1,0,0.2,0.1c0.1,0,0.1,0.1,0.1,0.2c0,0.1-0.1,0.2-0.3,0.2h-2.7V18h2.6
		c0.3,0,0.5,0,0.8-0.1c0.3-0.1,0.4-0.3,0.6-0.5c0.1-0.1,0.1-0.3,0.1-0.5C72.3,16.7,72.2,16.5,72.2,16.3 M67.7,14.3h-1v2.5
		c-0.1-0.1-0.1-0.2-0.2-0.3l-2.1-2.2h-1V18h1v-2.4c0.1,0.1,0.2,0.2,0.2,0.3l1.9,2.1h1.1V14.3z M60.3,16.2c0.2-0.5,0.4-0.8,0.5-1
		c0.1,0.2,0.1,0.3,0.2,0.5c0.1,0.1,0.1,0.3,0.3,0.5H60.3z M61.3,14.3h-1.1l-2,3.7h1.1l0.4-0.8h2l0.4,0.8h1.1L61.3,14.3z M58.2,17
		h-2.7v-2.8h-1V18h3.7V17z M53.2,15.9c0,0-0.1,0.1-0.1,0.1h-2v-0.8h2c0.1,0,0.1,0,0.1,0.1c0,0,0.1,0.1,0.1,0.1v0.4
		C53.2,15.8,53.2,15.9,53.2,15.9 M54.2,15.4c0-0.3-0.1-0.6-0.3-0.8c-0.2-0.2-0.5-0.3-0.8-0.3h-3V18h1v-1.1h2c0.3,0,0.6-0.1,0.8-0.3
		c0.2-0.2,0.3-0.5,0.3-0.8V15.4z"/>
	<path class="st0" d="M47.8,14.3h-1v1.4h-1.9v-1.4h-1V18h1v-1.4h1.9V18h1V14.3z M43.6,14.3H40v0.9h1.3V18h1v-2.8h1.3V14.3z M40.6,17
		h-2.7v-2.8h-1V18h3.7V17z M33.7,16.2c0.2-0.5,0.4-0.8,0.5-1c0.1,0.2,0.1,0.3,0.2,0.5c0.1,0.1,0.1,0.3,0.3,0.5H33.7z M34.8,14.3
		h-1.1l-2,3.7h1.1l0.4-0.8h2l0.4,0.8h1.1L34.8,14.3z M31.5,17h-2.8v-0.5h2.7v-0.9h-2.7v-0.4h2.8v-0.9h-3.7V18h3.7V17z M27.3,14.3h-1
		v1.4h-1.9v-1.4h-1V18h1v-1.4h1.9V18h1V14.3z"/>
	<path class="st0" d="M72.3,12.5h-2.7V9.7h-1v3.7h3.7V12.5z M65.4,11.7c0.2-0.5,0.4-0.8,0.5-1c0.1,0.2,0.1,0.3,0.2,0.5
		c0.1,0.1,0.1,0.3,0.3,0.5H65.4z M66.5,9.7h-1.1l-2,3.7h1.1l0.4-0.8h2l0.4,0.8h1.1L66.5,9.7z M64,9.7h-3.6v0.9h1.3v2.8h1v-2.8H64
		V9.7z M60,9.7h-1v2.5c-0.1-0.1-0.1-0.2-0.2-0.3l-2.1-2.2h-1v3.7h1V11c0.1,0.1,0.2,0.2,0.2,0.3l1.9,2.1H60V9.7z M55.3,12.5h-2.8
		v-0.5h2.7v-0.9h-2.7v-0.4h2.8V9.7h-3.7v3.7h3.7V12.5z M50.1,12.5c0,0-0.1,0.1-0.1,0.1h-2.4v-1.8h2.4c0.1,0,0.1,0,0.1,0.1
		c0,0,0.1,0.1,0.1,0.1v1.4C50.1,12.4,50.1,12.4,50.1,12.5 M51.1,10.9c0-0.3-0.1-0.6-0.3-0.8c-0.2-0.2-0.5-0.3-0.8-0.3h-3.4v3.7h3.4
		c0.3,0,0.6-0.1,0.8-0.3c0.2-0.2,0.3-0.5,0.3-0.8V10.9z"/>
	<path class="st0" d="M44.3,11.8c-0.2-0.4-0.7-0.7-1.3-0.7h-1.4c-0.1,0-0.2,0-0.2-0.1c-0.1,0-0.1-0.1-0.1-0.2c0-0.1,0-0.1,0.1-0.2
		c0.1,0,0.1-0.1,0.2-0.1h2.7V9.8h-2.5c-0.3,0-0.5,0-0.7,0.1c-0.2,0.1-0.4,0.3-0.5,0.5c-0.1,0.2-0.1,0.3-0.1,0.5c0,0.2,0,0.3,0.1,0.5
		c0.2,0.4,0.7,0.7,1.3,0.7h1.4c0.1,0,0.1,0,0.2,0.1c0.1,0,0.1,0.1,0.1,0.2c0,0.1-0.1,0.2-0.3,0.2h-2.7v0.9H43c0.3,0,0.5,0,0.8-0.1
		c0.3-0.1,0.4-0.3,0.6-0.5c0.1-0.1,0.1-0.3,0.1-0.5C44.5,12.1,44.4,12,44.3,11.8"/>
	<path class="st0" d="M39.9,11.8c-0.2-0.4-0.7-0.7-1.3-0.7h-1.4c-0.1,0-0.2,0-0.2-0.1c-0.1,0-0.1-0.1-0.1-0.2c0-0.1,0-0.1,0.1-0.2
		c0.1,0,0.1-0.1,0.2-0.1h2.7V9.8h-2.5c-0.3,0-0.5,0-0.7,0.1c-0.2,0.1-0.4,0.3-0.5,0.5c-0.1,0.2-0.1,0.3-0.1,0.5c0,0.2,0,0.3,0.1,0.5
		c0.2,0.4,0.7,0.7,1.3,0.7h1.4c0.1,0,0.1,0,0.2,0.1c0.1,0,0.1,0.1,0.1,0.2c0,0.1-0.1,0.2-0.3,0.2H36v0.9h2.6c0.3,0,0.5,0,0.8-0.1
		c0.3-0.1,0.4-0.3,0.6-0.5c0.1-0.1,0.1-0.3,0.1-0.5C40,12.1,40,12,39.9,11.8"/>
	<rect x="34.5" y="9.8" class="st0" width="1" height="3.7"/>
	<path class="st0" d="M33.3,9.8l-0.6,2c-0.1,0.3-0.2,0.5-0.3,0.7c-0.1-0.3-0.2-0.5-0.2-0.7l-0.6-2h-1l-0.6,2
		c-0.1,0.3-0.2,0.6-0.2,0.7c-0.1-0.3-0.2-0.5-0.3-0.7l-0.6-2h-1.1l1.5,3.7h1l0.9-2.3l0.9,2.3h1l1.5-3.7H33.3z"/>
	<path class="st0" d="M27.4,11.8c-0.2-0.4-0.7-0.7-1.3-0.7h-1.4c-0.1,0-0.2,0-0.2-0.1c-0.1,0-0.1-0.1-0.1-0.2c0-0.1,0-0.1,0.1-0.2
		c0.1,0,0.1-0.1,0.2-0.1h2.7V9.8h-2.5c-0.3,0-0.5,0-0.7,0.1c-0.2,0.1-0.4,0.3-0.5,0.5c-0.1,0.2-0.1,0.3-0.1,0.5c0,0.2,0,0.3,0.1,0.5
		c0.2,0.4,0.7,0.7,1.3,0.7h1.4c0.1,0,0.1,0,0.2,0.1c0.1,0,0.1,0.1,0.1,0.2c0,0.1-0.1,0.2-0.3,0.2h-2.7v0.9h2.6c0.3,0,0.5,0,0.8-0.1
		c0.3-0.1,0.4-0.3,0.6-0.5c0.1-0.1,0.1-0.3,0.1-0.5C27.5,12.1,27.5,12,27.4,11.8"/>
	<path class="st0" d="M67.6,20.7V19h-0.3v0.7h-1V19H66v1.7h0.3V20h1v0.7H67.6z M65,20.7v-1.4h0.6V19H64v0.3h0.6v1.4H65z M64.1,20.7
		v-0.3h-1.3V19h-0.3v1.7H64.1z M61.4,20h-0.8l0.4-0.7L61.4,20z M62.2,20.7L61.2,19h-0.4l-0.9,1.7h0.4l0.2-0.4h1l0.2,0.4H62.2z
		 M59.7,20.7v-0.3h-1.3V20h1.3v-0.3h-1.3v-0.4h1.3V19H58v1.7H59.7z M57.6,20.7V19h-0.3v0.7h-1V19h-0.3v1.7h0.3V20h1v0.7H57.6z"/>
	<path class="st0" d="M54.7,20.7v-0.3h-1.3V19H53v1.7H54.7z M52,20h-0.8l0.4-0.7L52,20z M52.7,20.7L51.8,19h-0.4l-0.9,1.7h0.4
		l0.2-0.4h1l0.2,0.4H52.7z M50,20.7v-1.4h0.6V19H49v0.3h0.6v1.4H50z M48.7,20.7V19h-0.3v1.2L47.2,19h-0.4v1.7h0.3v-1.3l1.2,1.3H48.7
		z M46.4,20.7v-0.3h-1.3V20h1.3v-0.3h-1.3v-0.4h1.3V19h-1.7v1.7H46.4z M44,20.1c0,0.1,0,0.1,0,0.2c0,0-0.1,0-0.2,0h-1.1v-1h1.1
		c0.1,0,0.1,0,0.2,0c0,0,0,0.1,0,0.2V20.1z M43.8,20.7c0.1,0,0.2,0,0.3,0c0.1,0,0.1,0,0.2-0.1c0,0,0.1-0.1,0.1-0.2
		c0-0.1,0-0.2,0-0.3v-0.6c0-0.1,0-0.2,0-0.3c0-0.1,0-0.1-0.1-0.2c0,0-0.1-0.1-0.2-0.1c-0.1,0-0.2,0-0.3,0h-1.4v1.7H43.8z"/>
	<path class="st0" d="M41.1,20v-0.3h-1.2v-0.4h1.3V19h-1.6v1.7h0.3V20H41.1z M38.7,20.1c0,0.1,0,0.1,0,0.2c0,0-0.1,0-0.2,0h-0.9
		c0,0-0.1,0-0.1,0c0,0,0,0-0.1,0c0,0,0,0,0-0.1s0-0.1,0-0.1v-0.6c0-0.1,0-0.1,0-0.2c0,0,0.1,0,0.2,0h0.9c0.1,0,0.1,0,0.2,0
		c0,0,0,0.1,0,0.2V20.1z M38.5,20.7c0.1,0,0.2,0,0.3,0c0.1,0,0.1,0,0.2-0.1c0,0,0.1-0.1,0.1-0.2c0-0.1,0-0.2,0-0.3v-0.6
		c0-0.1,0-0.2,0-0.3s0-0.1-0.1-0.2c0,0-0.1-0.1-0.2-0.1c-0.1,0-0.2,0-0.3,0h-0.9c-0.1,0-0.2,0-0.3,0c-0.1,0-0.1,0-0.2,0.1
		c0,0-0.1,0.1-0.1,0.2c0,0.1,0,0.2,0,0.3v0.6c0,0.1,0,0.2,0,0.3c0,0.1,0,0.1,0.1,0.2c0,0,0.1,0.1,0.2,0.1c0.1,0,0.2,0,0.3,0H38.5z"
		/>
	<polygon class="st0" points="35.8,20.7 35.8,19 35.4,19 34.8,20.3 34.1,19 33.8,19 33.8,20.7 34.1,20.7 34.1,19.6 34.6,20.7 
		34.9,20.7 35.5,19.6 35.5,20.7 	"/>
	<polygon class="st0" points="33.4,20.7 33.4,20.3 32.1,20.3 32.1,20 33.3,20 33.3,19.7 32.1,19.7 32.1,19.3 33.4,19.3 33.4,19 
		31.7,19 31.7,20.7 	"/>
	<polygon class="st0" points="30.8,20.7 30.8,19.3 31.4,19.3 31.4,19 29.8,19 29.8,19.3 30.4,19.3 30.4,20.7 	"/>
	<path class="st0" d="M29.5,20.1c0-0.1,0-0.1,0-0.2c0-0.1-0.1-0.1-0.1-0.1c0,0-0.1-0.1-0.2-0.1c-0.1,0-0.2,0-0.3,0h-0.7
		c-0.1,0-0.1,0-0.2,0c0,0,0-0.1,0-0.1c0-0.1,0-0.1,0-0.1c0,0,0.1,0,0.2,0h1.2c0-0.1,0-0.1,0-0.2c0-0.1,0-0.1,0-0.2h-1.2
		c-0.1,0-0.2,0-0.3,0c-0.1,0-0.1,0-0.2,0.1c0,0-0.1,0.1-0.1,0.1c0,0.1,0,0.1,0,0.2v0.1c0,0.1,0,0.1,0,0.2c0,0.1,0,0.1,0.1,0.1
		c0,0,0.1,0.1,0.2,0.1c0.1,0,0.2,0,0.3,0h0.7c0.1,0,0.1,0,0.2,0c0,0,0,0.1,0,0.1c0,0,0,0.1,0,0.1c0,0,0,0,0,0.1c0,0,0,0-0.1,0
		c0,0-0.1,0-0.1,0h-1.2c0,0.1,0,0.1,0,0.2c0,0.1,0,0.1,0,0.2H29c0.1,0,0.2,0,0.3,0c0.1,0,0.1,0,0.2-0.1c0,0,0.1-0.1,0.1-0.2
		C29.5,20.3,29.5,20.3,29.5,20.1L29.5,20.1z"/>
	<polygon class="st0" points="26.7,20.7 26.7,20 27.5,19 27.1,19 26.5,19.8 25.9,19 25.5,19 26.3,20 26.3,20.7 	"/>
	<path class="st0" d="M25.3,20.1c0-0.1,0-0.1,0-0.2c0-0.1-0.1-0.1-0.1-0.1c0,0-0.1-0.1-0.2-0.1c-0.1,0-0.2,0-0.3,0h-0.7
		c-0.1,0-0.1,0-0.2,0c0,0,0-0.1,0-0.1c0-0.1,0-0.1,0-0.1c0,0,0.1,0,0.2,0h1.2c0-0.1,0-0.1,0-0.2c0-0.1,0-0.1,0-0.2h-1.2
		c-0.1,0-0.2,0-0.3,0c-0.1,0-0.1,0-0.2,0.1c0,0-0.1,0.1-0.1,0.1c0,0.1,0,0.1,0,0.2v0.1c0,0.1,0,0.1,0,0.2c0,0.1,0,0.1,0.1,0.1
		c0,0,0.1,0.1,0.2,0.1c0.1,0,0.2,0,0.3,0h0.7c0.1,0,0.1,0,0.2,0c0,0,0,0.1,0,0.1c0,0,0,0.1,0,0.1c0,0,0,0,0,0.1c0,0,0,0-0.1,0
		c0,0-0.1,0-0.1,0h-1.2c0,0.1,0,0.1,0,0.2c0,0.1,0,0.1,0,0.2h1.2c0.1,0,0.2,0,0.3,0c0.1,0,0.1,0,0.2-0.1c0,0,0.1-0.1,0.1-0.2
		S25.3,20.3,25.3,20.1L25.3,20.1z"/>
</g>
</svg>
