<?xml version="1.0" encoding="utf-8"?>
<!-- Generator: Adobe Illustrator 24.1.2, SVG Export Plug-In . SVG Version: 6.00 Build 0)  -->
<svg version="1.1" id="Layer_1" xmlns="http://www.w3.org/2000/svg" xmlns:xlink="http://www.w3.org/1999/xlink" x="0px" y="0px"
	 viewBox="0 0 85 28.3" style="enable-background:new 0 0 85 28.3;" xml:space="preserve">
<style type="text/css">
	.st0{fill:#B4B4B5;}
</style>
<g>
	<path class="st0" d="M39.1,12.7c-0.1,0.2-0.3,0.4-0.4,0.6c-0.1,0.1-0.3,0.2-0.6,0.2h-2.6v-3.3h2.6c0.2,0,0.4,0.1,0.6,0.2
		c0.2,0.2,0.3,0.4,0.4,0.6C39.3,11.6,39.3,12.2,39.1,12.7 M40.6,10.3c-0.3-0.5-0.6-0.9-1.1-1.2c-0.4-0.3-0.9-0.4-1.4-0.4v0h-3.4
		c-0.2,0-0.5,0.1-0.6,0.3c-0.2,0.2-0.3,0.4-0.3,0.6V18c0,0.2,0.1,0.5,0.2,0.6c0.2,0.2,0.4,0.3,0.6,0.3c0.2,0,0.5-0.1,0.6-0.3
		c0.2-0.2,0.2-0.4,0.2-0.6v-2.8h2.6c0.5,0,1-0.2,1.4-0.4c0.5-0.3,0.8-0.7,1.1-1.2C41.2,12.5,41.2,11.3,40.6,10.3"/>
	<path class="st0" d="M77.4,16.4c-0.2,0-0.4,0.1-0.5,0.2c-0.2,0.1-0.3,0.2-0.4,0.4c0-0.2-0.1-0.3-0.3-0.4c-0.1-0.1-0.3-0.1-0.5-0.1
		c-0.2,0-0.3,0-0.5,0.1c-0.1,0.1-0.3,0.2-0.3,0.3v-0.3c0,0,0-0.1,0-0.1c0,0-0.1-0.1-0.2,0c-0.1,0-0.1,0.1-0.1,0.1v2.1
		c0,0.1,0,0.1,0.1,0.1c0.1,0,0.1,0,0.2,0c0,0,0-0.1,0-0.1v-1.4c0-0.1,0-0.2,0.1-0.3c0.1-0.1,0.2-0.2,0.3-0.3
		c0.1-0.1,0.2-0.1,0.4-0.1c0.2,0,0.3,0.1,0.4,0.2c0.1,0.1,0.2,0.3,0.1,0.5v1.3c0,0.1,0,0.1,0.1,0.1c0.1,0,0.1,0,0.2,0
		c0,0,0-0.1,0-0.1v-1.3c0-0.1,0-0.3,0.1-0.4c0.1-0.1,0.2-0.2,0.3-0.3c0.1-0.1,0.2-0.1,0.4-0.1c0.2,0,0.4,0.1,0.5,0.2
		c0.1,0.2,0.2,0.3,0.2,0.5v1.3c0,0,0,0.1,0,0.1c0.1,0.1,0.1,0.1,0.2,0c0,0,0-0.1,0-0.1v-1.3c0-0.2-0.1-0.5-0.2-0.7
		C77.8,16.5,77.6,16.4,77.4,16.4L77.4,16.4z"/>
	<path class="st0" d="M73.7,17.6c0,0.2,0,0.4-0.1,0.5c-0.1,0.1-0.2,0.3-0.3,0.4c-0.1,0.1-0.3,0.1-0.4,0.1v0c-0.2,0-0.3,0-0.5-0.1
		c-0.1-0.1-0.2-0.2-0.3-0.4c-0.1-0.2-0.1-0.3-0.1-0.5c0-0.2,0-0.4,0.1-0.5c0.1-0.2,0.2-0.3,0.3-0.4c0.1-0.1,0.3-0.1,0.4-0.1
		c0.2,0,0.3,0,0.4,0.1c0.1,0.1,0.2,0.2,0.3,0.4C73.6,17.3,73.7,17.4,73.7,17.6 M73.9,18.7v-2.1c0,0,0-0.1,0-0.1c0,0-0.1,0-0.1,0l0,0
		c0,0-0.1,0-0.1,0c0,0,0,0.1,0,0.1v0.3c-0.1-0.2-0.2-0.3-0.4-0.4c-0.3-0.2-0.8-0.2-1.1,0c-0.2,0.1-0.3,0.3-0.4,0.5
		c-0.1,0.2-0.2,0.4-0.1,0.7c0,0.2,0,0.5,0.1,0.7c0.1,0.2,0.2,0.3,0.4,0.5c0.2,0.1,0.4,0.2,0.6,0.2c0.2,0,0.4-0.1,0.5-0.1
		c0.2-0.1,0.3-0.2,0.4-0.4v0.3c0,0,0,0.1,0,0.1c0.1,0.1,0.1,0.1,0.2,0C73.9,18.8,73.9,18.7,73.9,18.7"/>
	<path class="st0" d="M71.3,16.3c-0.2,0-0.4,0.1-0.5,0.2c-0.1,0.1-0.3,0.3-0.3,0.5v-0.4c0,0,0-0.1,0-0.1c0,0-0.1,0-0.1,0
		c0,0-0.1,0-0.1,0c0,0,0,0.1,0,0.1v2.1c0,0,0,0.1,0,0.1c0,0,0.1,0,0.1,0c0,0,0.1,0,0.1,0c0,0,0-0.1,0-0.1v-1.1c0-0.2,0-0.3,0.1-0.4
		c0.1-0.1,0.2-0.3,0.3-0.4c0.1-0.1,0.2-0.1,0.4-0.1c0,0,0.1,0,0.1,0c0,0,0.1,0,0.1,0c0,0,0.1,0,0.1,0c0,0,0-0.1,0-0.1
		c0-0.1,0-0.1-0.1-0.1C71.4,16.4,71.3,16.4,71.3,16.3L71.3,16.3z"/>
	<path class="st0" d="M69.2,17.7c0,0.2,0,0.4-0.1,0.5c-0.1,0.2-0.2,0.3-0.3,0.4c-0.1,0.1-0.3,0.1-0.5,0.1v0c-0.2,0-0.3,0-0.5-0.1
		c-0.1-0.1-0.3-0.2-0.3-0.4c-0.1-0.2-0.1-0.3-0.1-0.5c0-0.2,0-0.4,0.1-0.5c0.1-0.2,0.2-0.3,0.3-0.4c0.1-0.1,0.3-0.1,0.5-0.1
		c0.2,0,0.3,0,0.5,0.1c0.1,0.1,0.3,0.2,0.3,0.4C69.2,17.3,69.2,17.5,69.2,17.7 M69.5,18.6v-2.1c0,0,0-0.1,0-0.1c0,0-0.1,0-0.1,0l0,0
		c0,0-0.1,0-0.1,0c0,0,0,0.1,0,0.1v0.3c-0.1-0.2-0.2-0.3-0.4-0.4c-0.2-0.1-0.4-0.2-0.6-0.2c-0.2,0-0.4,0.1-0.6,0.2
		c-0.2,0.1-0.3,0.3-0.4,0.5c-0.2,0.4-0.2,0.9,0,1.3c0.1,0.2,0.2,0.3,0.4,0.5c0.2,0.1,0.4,0.2,0.6,0.2c0.2,0,0.4-0.1,0.5-0.1
		c0.2-0.1,0.3-0.2,0.4-0.4v0.3c0,0.2-0.1,0.5-0.2,0.6c-0.2,0.2-0.4,0.3-0.7,0.2c-0.2,0-0.4,0-0.6-0.1l-0.1,0c0,0-0.1,0-0.1,0
		c0,0,0,0,0,0c0,0,0,0,0,0.1c0,0,0,0.1,0,0.1c0,0.1,0.1,0.1,0.2,0.1c0.1,0.1,0.2,0.1,0.3,0.1c0.1,0,0.2,0,0.4,0c0.2,0,0.4,0,0.6-0.1
		c0.2-0.1,0.3-0.2,0.4-0.4C69.4,19.1,69.5,18.9,69.5,18.6"/>
	<path class="st0" d="M66.5,17.7c0,0.2,0,0.4-0.1,0.5c-0.2,0.3-0.5,0.5-0.8,0.5c-0.2,0-0.3,0-0.5-0.1c-0.1-0.1-0.3-0.2-0.3-0.4
		c-0.1-0.2-0.1-0.3-0.1-0.5c0-0.2,0-0.4,0.1-0.5c0.1-0.2,0.2-0.3,0.3-0.4c0.1-0.1,0.3-0.1,0.5-0.1c0.2,0,0.3,0,0.5,0.1
		c0.1,0.1,0.3,0.2,0.3,0.4C66.5,17.3,66.5,17.5,66.5,17.7L66.5,17.7z M66.8,17.7c0-0.2-0.1-0.4-0.2-0.6c-0.2-0.4-0.6-0.6-1-0.6
		c-0.4,0-0.8,0.2-1,0.6c-0.2,0.4-0.2,0.9,0,1.3c0.1,0.2,0.2,0.3,0.4,0.5c0.4,0.2,0.9,0.2,1.2,0c0.2-0.1,0.3-0.3,0.4-0.5
		C66.7,18.1,66.8,17.9,66.8,17.7L66.8,17.7z"/>
	<path class="st0" d="M64,16.4c-0.2,0-0.4,0.1-0.5,0.2c-0.1,0.1-0.3,0.3-0.3,0.5v-0.4c0,0,0-0.1,0-0.1c0,0-0.1-0.1-0.2,0
		c-0.1,0-0.1,0.1-0.1,0.1v2.1c0,0.1,0,0.1,0.1,0.1c0.1,0,0.1,0,0.2,0c0,0,0-0.1,0-0.1v-1.2c0-0.2,0-0.3,0.1-0.4
		c0.1-0.1,0.2-0.3,0.3-0.4c0.1-0.1,0.2-0.1,0.4-0.1c0,0,0.1,0,0.1,0c0,0,0.1,0,0.1,0c0,0,0.1,0,0.1,0c0,0,0-0.1,0-0.1
		c0-0.1,0-0.1-0.1-0.1C64.2,16.4,64.1,16.4,64,16.4L64,16.4z"/>
	<path class="st0" d="M62.1,16.5c0,0.2-0.1,0.4-0.2,0.5c-0.1,0.1-0.3,0.2-0.4,0.2v0h-1v-1.4h1c0.2,0,0.3,0.1,0.4,0.2
		C62.1,16.1,62.1,16.3,62.1,16.5 M62.4,16.5c0-0.2,0-0.3-0.1-0.5c-0.1-0.1-0.2-0.3-0.3-0.3c-0.1-0.1-0.3-0.1-0.5-0.1h-1.1
		c0,0-0.1,0-0.1,0c0,0,0,0.1,0,0.1v3.1c0,0,0,0.1,0,0.1c0.1,0.1,0.1,0.1,0.2,0c0,0,0-0.1,0-0.1v-1.3h1c0.3,0,0.6-0.2,0.8-0.5
		C62.4,16.8,62.4,16.7,62.4,16.5"/>
	<path class="st0" d="M58.4,16.7C58.4,16.7,58.5,16.7,58.4,16.7c0.1-0.1,0.1-0.1,0.1-0.1c0,0,0-0.1,0-0.1c0,0-0.1,0-0.1,0h-0.5v-0.5
		c0-0.1,0-0.1-0.1-0.1c0,0-0.1,0-0.2,0c0,0-0.1,0.1-0.1,0.1v0.5h-0.3c0,0-0.1,0-0.1,0c0,0,0,0.1,0,0.1c0,0,0,0.1,0,0.1
		c0,0,0.1,0,0.1,0h0.3v1.6c0,0.1,0,0.3,0.1,0.4c0,0.1,0.1,0.1,0.2,0.1c0.1,0,0.2,0,0.2,0c0.1,0,0.1,0,0.2,0c0,0,0.1-0.1,0.1-0.1
		c0,0,0-0.1,0-0.1c0,0,0,0-0.1,0h-0.1h-0.1c-0.1,0-0.1,0-0.2-0.1c-0.1-0.1-0.1-0.2-0.1-0.2v-1.6L58.4,16.7L58.4,16.7z"/>
	<path class="st0" d="M55.9,16.4c-0.2,0-0.3,0-0.5,0.1c-0.2,0.1-0.3,0.2-0.4,0.3v-0.3c0,0,0-0.1,0-0.1c-0.1-0.1-0.1-0.1-0.2,0
		c0,0,0,0.1,0,0.1v2.1c0,0,0,0.1,0,0.1c0.1,0.1,0.1,0.1,0.2,0c0,0,0-0.1,0-0.1v-1.4c0-0.1,0-0.2,0.1-0.3c0.1-0.1,0.2-0.2,0.3-0.3
		c0.1-0.1,0.3-0.1,0.4-0.1c0.2,0,0.4,0.1,0.5,0.2c0.1,0.1,0.2,0.3,0.2,0.5v1.4c0,0,0,0.1,0,0.1c0,0,0.1,0,0.1,0c0,0,0.1,0,0.1,0
		c0,0,0-0.1,0-0.1v-1.4c0-0.2-0.1-0.5-0.2-0.7C56.4,16.5,56.2,16.4,55.9,16.4L55.9,16.4z"/>
	<path class="st0" d="M53.9,17.6c0,0.2,0,0.4-0.1,0.5c-0.1,0.1-0.2,0.3-0.3,0.4c-0.1,0.1-0.3,0.1-0.4,0.1v0c-0.2,0-0.3,0-0.5-0.1
		c-0.1-0.1-0.2-0.2-0.3-0.4c-0.1-0.2-0.1-0.3-0.1-0.5c0-0.2,0-0.4,0.1-0.5c0.1-0.2,0.2-0.3,0.3-0.4c0.1-0.1,0.3-0.1,0.4-0.1
		c0.2,0,0.3,0,0.4,0.1c0.1,0.1,0.2,0.2,0.3,0.4C53.8,17.3,53.9,17.5,53.9,17.6 M54.1,18.7v-2.1c0,0,0-0.1,0-0.1c0,0-0.1,0-0.1,0l0,0
		c0,0-0.1,0-0.1,0c0,0,0,0.1,0,0.1v0.3c-0.1-0.2-0.2-0.3-0.4-0.4c-0.3-0.2-0.8-0.2-1.1,0c-0.2,0.1-0.3,0.3-0.4,0.5
		c-0.1,0.2-0.2,0.4-0.1,0.7c0,0.2,0,0.5,0.1,0.7c0.1,0.2,0.2,0.3,0.4,0.5c0.2,0.1,0.4,0.2,0.6,0.2c0.2,0,0.4-0.1,0.5-0.1
		c0.2-0.1,0.3-0.2,0.4-0.4v0.3c0,0,0,0.1,0,0.1c0.1,0.1,0.1,0.1,0.2,0C54.1,18.8,54.1,18.8,54.1,18.7"/>
	<path class="st0" d="M51.3,18.7v-3.2c0-0.1,0-0.1-0.1-0.1c0,0-0.1,0-0.2,0c0,0-0.1,0.1-0.1,0.1v3.2c0,0,0,0.1,0,0.1
		c0.1,0.1,0.1,0.1,0.2,0C51.3,18.8,51.3,18.8,51.3,18.7"/>
	<path class="st0" d="M50.2,17.7c0,0.2,0,0.3-0.1,0.5c-0.1,0.1-0.2,0.3-0.3,0.4c-0.1,0.1-0.3,0.1-0.4,0.1c-0.2,0-0.3,0-0.5-0.1
		c-0.1-0.1-0.2-0.2-0.3-0.4c-0.1-0.3-0.1-0.7,0-1c0.1-0.1,0.2-0.3,0.3-0.3c0.1-0.1,0.3-0.1,0.5-0.1c0.2,0,0.3,0,0.4,0.1
		c0.1,0.1,0.2,0.2,0.3,0.3C50.2,17.3,50.2,17.5,50.2,17.7 M50.3,17c-0.1-0.2-0.2-0.3-0.4-0.4c-0.2-0.1-0.4-0.2-0.6-0.2l0,0
		c-0.2,0-0.4,0-0.5,0.1c-0.2,0.1-0.3,0.2-0.4,0.4v-0.3c0,0,0-0.1,0-0.1c0,0-0.1,0-0.1,0s-0.1,0-0.1,0c0,0,0,0.1,0,0.1v3.1
		c0,0,0,0.1,0,0.1c0,0,0.1,0.1,0.2,0c0.1,0,0.1-0.1,0.1-0.1v-1.3c0.1,0.1,0.2,0.3,0.4,0.4c0.2,0.1,0.3,0.1,0.5,0.1
		c0.2,0,0.4-0.1,0.6-0.2c0.2-0.1,0.3-0.3,0.4-0.4C50.5,17.9,50.5,17.4,50.3,17"/>
	<path class="st0" d="M46.7,16.4c-0.2,0-0.4,0.1-0.5,0.2c-0.2,0.1-0.3,0.2-0.4,0.4c0-0.2-0.1-0.3-0.3-0.4c-0.1-0.1-0.3-0.1-0.5-0.1
		c-0.2,0-0.3,0-0.5,0.1c-0.1,0.1-0.3,0.2-0.3,0.3v-0.3c0,0,0-0.1,0-0.1c0,0-0.1-0.1-0.2,0c-0.1,0-0.1,0.1-0.1,0.1v2.1
		c0,0.1,0,0.1,0.1,0.1c0.1,0,0.1,0,0.2,0c0,0,0-0.1,0-0.1v-1.3c0-0.1,0-0.2,0.1-0.3c0.1-0.1,0.2-0.2,0.3-0.3
		c0.1-0.1,0.2-0.1,0.4-0.1c0.2,0,0.3,0.1,0.4,0.2c0.1,0.1,0.2,0.3,0.1,0.5v1.3c0,0.1,0,0.1,0.1,0.1c0.1,0,0.1,0,0.2,0
		c0,0,0-0.1,0-0.1v-1.3c0-0.1,0-0.3,0.1-0.4c0.1-0.1,0.2-0.2,0.3-0.3c0.1-0.1,0.2-0.1,0.4-0.1c0.2,0,0.4,0.1,0.5,0.2
		c0.1,0.2,0.2,0.3,0.2,0.5v1.3c0,0,0,0.1,0,0.1c0.1,0.1,0.1,0.1,0.2,0c0,0,0-0.1,0-0.1v-1.3c0-0.2-0.1-0.5-0.2-0.7
		C47.2,16.5,46.9,16.4,46.7,16.4L46.7,16.4z"/>
	<path class="st0" d="M43.2,18.7v-3c0,0,0-0.1,0-0.1c0,0-0.1,0-0.1,0c0,0-0.1,0-0.1,0c0,0,0,0.1,0,0.1v3c0,0,0,0.1,0,0.1
		c0,0,0.1,0,0.1,0c0,0,0.1,0,0.1,0C43.2,18.8,43.2,18.8,43.2,18.7L43.2,18.7z"/>
	<path class="st0" d="M77.6,14.5v-3.2c0,0,0-0.1,0-0.1c-0.1-0.1-0.1-0.1-0.2,0c0,0,0,0.1,0,0.1v3.2c0,0.1,0,0.1,0.1,0.1
		c0,0,0.1,0,0.2,0C77.5,14.6,77.6,14.5,77.6,14.5"/>
	<path class="st0" d="M76.3,13.4c0,0.2,0,0.4-0.1,0.5c-0.1,0.1-0.2,0.3-0.3,0.4c-0.1,0.1-0.3,0.1-0.4,0.1v0c-0.2,0-0.3,0-0.5-0.1
		c-0.1-0.1-0.2-0.2-0.3-0.4c-0.1-0.2-0.1-0.3-0.1-0.5c0-0.2,0-0.4,0.1-0.5c0.1-0.2,0.2-0.3,0.3-0.4c0.1-0.1,0.3-0.1,0.4-0.1
		c0.2,0,0.3,0,0.4,0.1c0.1,0.1,0.2,0.2,0.3,0.4C76.3,13,76.3,13.2,76.3,13.4 M76.6,14.5v-2.1c0,0,0-0.1,0-0.1c0,0-0.1,0-0.1,0l0,0
		c0,0-0.1,0-0.1,0c0,0,0,0.1,0,0.1v0.3c-0.1-0.2-0.2-0.3-0.4-0.4c-0.3-0.2-0.8-0.2-1.1,0c-0.2,0.1-0.3,0.3-0.4,0.5
		c-0.1,0.2-0.2,0.4-0.1,0.7c0,0.2,0,0.5,0.1,0.7c0.1,0.2,0.2,0.3,0.4,0.5c0.2,0.1,0.4,0.2,0.6,0.2c0.2,0,0.4-0.1,0.5-0.1
		c0.2-0.1,0.3-0.2,0.4-0.4v0.3c0,0,0,0.1,0,0.1c0,0,0.1,0,0.1,0c0,0,0.1,0,0.1,0C76.6,14.5,76.6,14.5,76.6,14.5"/>
	<path class="st0" d="M73.9,12.4C73.9,12.5,74,12.4,73.9,12.4c0.1-0.1,0.1-0.1,0.1-0.1c0,0,0-0.1,0-0.1c0,0-0.1,0-0.1,0h-0.5v-0.5
		c0-0.1,0-0.1-0.1-0.1c0,0-0.1,0-0.2,0c0,0-0.1,0.1-0.1,0.1v0.5h-0.3c0,0-0.1,0-0.1,0c0,0,0,0.1,0,0.1c0,0,0,0.1,0,0.1
		c0,0,0.1,0,0.1,0h0.3v1.6c0,0.1,0,0.3,0.1,0.4c0,0.1,0.1,0.1,0.2,0.1c0.1,0,0.2,0,0.2,0c0.1,0,0.1,0,0.2,0c0,0,0.1-0.1,0.1-0.1
		c0,0,0-0.1,0-0.1c0,0,0,0-0.1,0h-0.1h-0.1c-0.1,0-0.1,0-0.2-0.1c-0.1-0.1-0.1-0.2-0.1-0.2v-1.6L73.9,12.4L73.9,12.4z"/>
	<path class="st0" d="M71.4,12.1c-0.2,0-0.3,0-0.5,0.1c-0.1,0.1-0.3,0.2-0.4,0.3v-0.2c0-0.1,0-0.1-0.1-0.1c0,0-0.1,0-0.2,0
		c0,0-0.1,0.1-0.1,0.1v2.1c0,0.1,0,0.1,0.1,0.1c0,0,0.1,0,0.2,0c0,0,0.1-0.1,0.1-0.1v-1.4c0-0.1,0-0.2,0.1-0.3
		c0.2-0.2,0.4-0.4,0.7-0.4c0.2,0,0.4,0.1,0.5,0.2c0.1,0.1,0.2,0.3,0.2,0.5v1.4c0,0,0,0.1,0,0.1c0,0,0.1,0,0.1,0c0,0,0.1,0,0.1,0
		c0,0,0-0.1,0-0.1v-1.4c0-0.2-0.1-0.5-0.2-0.7C71.9,12.2,71.7,12.1,71.4,12.1L71.4,12.1z"/>
	<path class="st0" d="M69.5,13.2h-1.6c0-0.2,0.1-0.4,0.3-0.5c0.1-0.1,0.3-0.2,0.5-0.2l0,0c0.1,0,0.3,0,0.4,0.1
		c0.1,0.1,0.2,0.1,0.3,0.2C69.4,12.9,69.5,13,69.5,13.2L69.5,13.2z M69.8,13.3c0-0.2-0.1-0.4-0.2-0.6c-0.1-0.2-0.2-0.3-0.4-0.4
		c-0.2-0.1-0.3-0.1-0.5-0.1c-0.2,0-0.4,0.1-0.5,0.2c-0.2,0.1-0.3,0.3-0.4,0.4c-0.1,0.2-0.2,0.4-0.2,0.7c0,0.2,0,0.5,0.2,0.7
		c0.1,0.2,0.3,0.3,0.4,0.4c0.2,0.1,0.4,0.2,0.6,0.2c0.2,0,0.3,0,0.5-0.1c0.1-0.1,0.3-0.2,0.4-0.3c0,0,0-0.1,0-0.1
		c0-0.1-0.1-0.1-0.1-0.1c0,0-0.1,0-0.1,0c-0.1,0.1-0.2,0.2-0.3,0.2c-0.1,0.1-0.3,0.1-0.4,0.1c-0.2,0-0.4,0-0.5-0.1
		c-0.1-0.1-0.3-0.2-0.3-0.4c-0.1-0.2-0.1-0.3-0.1-0.5h1.8C69.7,13.4,69.7,13.4,69.8,13.3C69.7,13.3,69.8,13.3,69.8,13.3L69.8,13.3z"
		/>
	<path class="st0" d="M66.9,13c0,0.4-0.1,0.7-0.3,1c-0.2,0.3-0.5,0.4-0.9,0.4l0,0h-1v-2.8h1c0.2,0,0.5,0.1,0.6,0.2
		c0.2,0.1,0.3,0.3,0.4,0.5C66.8,12.5,66.9,12.7,66.9,13 M67,12.1c-0.1-0.2-0.3-0.5-0.5-0.6c-0.2-0.2-0.5-0.2-0.8-0.2h-1.2
		c0,0-0.1,0-0.1,0c0,0,0,0.1,0,0.1v3.1c0,0,0,0.1,0,0.1c0,0,0.1,0,0.1,0h1.2c0.3,0,0.5-0.1,0.8-0.2c0.2-0.2,0.4-0.4,0.5-0.6
		C67.2,13.3,67.2,12.7,67,12.1"/>
	<path class="st0" d="M61.6,12.1c-0.2,0-0.3,0-0.5,0.1c-0.2,0.1-0.3,0.2-0.4,0.3v-0.3c0-0.1,0-0.1-0.1-0.1c0,0-0.1,0-0.2,0
		c0,0-0.1,0.1-0.1,0.1v2.1c0,0.1,0,0.1,0.1,0.1c0,0,0.1,0,0.2,0c0,0,0.1-0.1,0.1-0.1v-1.4c0-0.1,0-0.2,0.1-0.3
		c0.2-0.2,0.4-0.3,0.7-0.4c0.2,0,0.4,0.1,0.5,0.2c0.1,0.1,0.2,0.3,0.2,0.5v1.4c0,0,0,0.1,0,0.1c0,0,0.1,0,0.1,0c0,0,0.1,0,0.1,0
		c0,0,0-0.1,0-0.1v-1.4c0-0.2-0.1-0.5-0.2-0.7C62.1,12.2,61.9,12.1,61.6,12.1L61.6,12.1z"/>
	<path class="st0" d="M59.6,13.4c0,0.2,0,0.4-0.1,0.5c-0.1,0.1-0.2,0.3-0.3,0.4c-0.1,0.1-0.3,0.1-0.4,0.1v0c-0.2,0-0.3,0-0.5-0.1
		c-0.1-0.1-0.2-0.2-0.3-0.4c-0.1-0.2-0.1-0.3-0.1-0.5c0-0.2,0-0.4,0.1-0.5c0.1-0.2,0.2-0.3,0.3-0.4c0.1-0.1,0.3-0.1,0.4-0.1
		c0.2,0,0.3,0,0.4,0.1c0.1,0.1,0.2,0.2,0.3,0.4C59.5,13,59.6,13.2,59.6,13.4 M59.8,14.5v-2.1c0,0,0-0.1,0-0.1c0,0-0.1,0-0.1,0l0,0
		c0,0-0.1,0-0.1,0c0,0,0,0.1,0,0.1v0.3c-0.1-0.2-0.2-0.3-0.4-0.4c-0.3-0.2-0.8-0.2-1.1,0c-0.2,0.1-0.3,0.3-0.4,0.5
		c-0.1,0.2-0.2,0.4-0.1,0.7c0,0.2,0,0.5,0.1,0.7c0.1,0.2,0.2,0.3,0.4,0.5c0.2,0.1,0.4,0.2,0.6,0.2c0.2,0,0.4-0.1,0.5-0.1
		c0.2-0.1,0.3-0.2,0.4-0.4v0.3c0,0.1,0,0.1,0.1,0.1c0,0,0.1,0,0.2,0C59.8,14.6,59.8,14.5,59.8,14.5"/>
	<path class="st0" d="M56.4,12.1c-0.4,0-0.9,0.2-1.1,0.6c-0.1,0.2-0.2,0.4-0.2,0.6c0,0.2,0,0.5,0.2,0.7c0.1,0.2,0.2,0.3,0.4,0.5
		c0.2,0.1,0.4,0.2,0.6,0.2c0.2,0,0.3,0,0.4-0.1c0.1,0,0.2-0.1,0.3-0.2c0.1,0,0.1-0.1,0.1-0.2c0,0,0-0.1,0-0.1c0,0-0.1,0-0.1,0
		c0,0,0,0-0.1,0L57,14.2c0,0-0.1,0.1-0.1,0.1c-0.1,0-0.1,0.1-0.2,0.1c-0.1,0-0.2,0-0.3,0c-0.3,0-0.7-0.2-0.8-0.5
		c-0.1-0.2-0.1-0.3-0.1-0.5c0-0.2,0-0.3,0.1-0.5c0.1-0.2,0.2-0.3,0.3-0.4c0.1-0.1,0.3-0.1,0.5-0.1c0.1,0,0.2,0,0.3,0
		c0.1,0,0.1,0,0.2,0.1c0,0,0.1,0.1,0.1,0.1c0,0,0,0,0.1,0.1c0,0,0,0,0.1,0c0,0,0.1,0,0.1,0c0,0,0-0.1,0-0.1c0-0.1-0.1-0.1-0.1-0.2
		c-0.1-0.1-0.2-0.1-0.3-0.1C56.7,12.1,56.5,12.1,56.4,12.1"/>
	<path class="st0" d="M54.5,11.8c0.1,0,0.1,0,0.1,0c0,0,0.1-0.1,0.1-0.1v0c0-0.1,0-0.1-0.1-0.1c0,0-0.1-0.1-0.1,0
		c-0.1,0-0.1,0-0.2,0c0,0-0.1,0.1-0.1,0.1v0c0,0,0,0.1,0.1,0.1C54.4,11.8,54.5,11.8,54.5,11.8L54.5,11.8z"/>
	<path class="st0" d="M54.7,14.5v-2.2c0-0.1,0-0.1-0.1-0.1c0,0-0.1,0-0.2,0c0,0-0.1,0.1-0.1,0.1v2.2c0,0.1,0,0.1,0.1,0.1
		c0,0,0.1,0,0.2,0C54.7,14.6,54.7,14.5,54.7,14.5"/>
	<path class="st0" d="M53.8,12.1c-0.2,0-0.4,0.1-0.5,0.2c-0.1,0.1-0.3,0.3-0.3,0.5v-0.4c0-0.1,0-0.1-0.1-0.1c0,0-0.1,0-0.2,0
		c0,0-0.1,0.1-0.1,0.1v2.1c0,0.1,0,0.1,0.1,0.1c0,0,0.1,0,0.2,0c0,0,0.1-0.1,0.1-0.1v-1.2c0-0.2,0-0.3,0.1-0.4
		c0.1-0.1,0.2-0.3,0.3-0.4c0.1-0.1,0.2-0.1,0.4-0.1c0,0,0.1,0,0.1,0c0,0,0.1,0,0.1,0c0,0,0.1,0,0.1,0c0,0,0-0.1,0-0.1
		c0-0.1,0-0.1-0.1-0.1C53.9,12.1,53.9,12.1,53.8,12.1L53.8,12.1z"/>
	<path class="st0" d="M51.9,13.2h-1.6c0-0.2,0.1-0.4,0.3-0.5c0.1-0.1,0.3-0.2,0.5-0.2l0,0c0.1,0,0.3,0,0.4,0.1
		c0.1,0.1,0.2,0.1,0.3,0.2C51.8,12.9,51.9,13,51.9,13.2L51.9,13.2z M52.2,13.3c0-0.2-0.1-0.4-0.2-0.6c-0.1-0.2-0.2-0.3-0.4-0.4
		c-0.2-0.1-0.3-0.1-0.5-0.1c-0.2,0-0.4,0.1-0.5,0.2c-0.2,0.1-0.3,0.3-0.4,0.4C50,12.9,50,13.2,50,13.4c0,0.2,0,0.5,0.2,0.7
		c0.1,0.2,0.3,0.3,0.4,0.4c0.2,0.1,0.4,0.2,0.6,0.2c0.2,0,0.3,0,0.5-0.1c0.1-0.1,0.3-0.2,0.4-0.3c0,0,0-0.1,0-0.1
		c0-0.1-0.1-0.1-0.1-0.1c0,0-0.1,0-0.1,0c-0.1,0.1-0.2,0.2-0.3,0.2c-0.1,0.1-0.3,0.1-0.4,0.1c-0.2,0-0.4,0-0.5-0.1
		c-0.1-0.1-0.3-0.2-0.3-0.4c-0.1-0.2-0.1-0.3-0.1-0.5H52C52.1,13.4,52.1,13.4,52.2,13.3C52.2,13.3,52.2,13.3,52.2,13.3L52.2,13.3z"
		/>
	<path class="st0" d="M48.6,12.2c-0.2,0-0.4,0.1-0.5,0.2c-0.2,0.1-0.3,0.2-0.4,0.4c0-0.2-0.1-0.3-0.3-0.4c-0.1-0.1-0.3-0.1-0.5-0.1
		c-0.2,0-0.3,0-0.5,0.1c-0.1,0.1-0.3,0.2-0.3,0.3v-0.3c0-0.1,0-0.1-0.1-0.1c-0.1,0-0.1,0-0.2,0c0,0,0,0.1,0,0.1v2.1c0,0,0,0.1,0,0.1
		c0,0,0.1,0.1,0.2,0c0.1,0,0.1-0.1,0.1-0.1v-1.3c0-0.1,0-0.2,0.1-0.3c0.1-0.1,0.2-0.2,0.3-0.3c0.1-0.1,0.2-0.1,0.4-0.1
		c0.2,0,0.3,0.1,0.4,0.2c0.1,0.1,0.2,0.3,0.1,0.5v1.3c0,0,0,0.1,0,0.1c0,0,0.1,0.1,0.2,0c0.1,0,0.1-0.1,0.1-0.1v-1.3
		c0-0.1,0-0.3,0.1-0.4c0.1-0.1,0.2-0.2,0.3-0.3c0.1-0.1,0.2-0.1,0.4-0.1c0.2,0,0.4,0.1,0.5,0.2c0.1,0.1,0.2,0.3,0.2,0.5v1.3
		c0,0.1,0,0.1,0.1,0.1c0,0,0.1,0,0.2,0c0,0,0.1-0.1,0.1-0.1v-1.4c0-0.2-0.1-0.5-0.2-0.7C49.1,12.2,48.9,12.1,48.6,12.2L48.6,12.2z"
		/>
	<path class="st0" d="M44.7,13.4h-1.3l0.7-1.6L44.7,13.4z M45.5,14.5C45.5,14.5,45.5,14.5,45.5,14.5L45.5,14.5l-1.3-3.1
		c0,0,0-0.1-0.1-0.1c0,0-0.1,0-0.1,0c-0.1,0-0.1,0-0.1,0.1l-1.3,3.1c0,0,0,0,0,0c0,0,0,0.1,0,0.1c0,0,0.1,0,0.1,0
		c0.1,0,0.1,0,0.1-0.1l0.4-0.9h1.5l0.4,0.9c0,0,0,0.1,0.1,0.1c0,0,0.1,0,0.1,0c0,0,0.1,0,0.1,0C45.5,14.6,45.5,14.5,45.5,14.5"/>
	<path class="st0" d="M22.9,16.2c-0.4,0.7-1.2,1-2,1l0,0h-2.4v-6.9h2.4c0.8,0,1.5,0.3,2,1C23.7,12.8,23.7,14.7,22.9,16.2 M24.9,11.1
		c-0.3-0.7-0.8-1.4-1.5-1.8c-0.7-0.5-1.5-0.7-2.4-0.7v0h-3.5c-0.2,0-0.5,0.1-0.6,0.3c-0.2,0.2-0.3,0.4-0.3,0.6V18
		c0,0.2,0.1,0.5,0.3,0.6c0.2,0.2,0.4,0.3,0.6,0.3H21c0.8,0,1.7-0.2,2.4-0.7c0.7-0.5,1.2-1.1,1.5-1.8C25.6,14.7,25.6,12.8,24.9,11.1"
		/>
	<path class="st0" d="M12.8,14.9h-3l1.5-3.4L12.8,14.9z M15.9,17.7L15.9,17.7l-3.6-8.6c-0.1-0.2-0.2-0.3-0.3-0.4
		c-0.1-0.1-0.3-0.2-0.5-0.2c-0.2,0-0.4,0-0.5,0.1c-0.2,0.1-0.3,0.3-0.4,0.5l-3.7,8.8c0,0.1,0,0.2,0,0.3c0,0.3,0.2,0.6,0.4,0.7
		C7.5,19,7.8,19,8.1,18.8c0.1-0.1,0.3-0.3,0.3-0.4l0.8-1.8h4.4l0.8,1.8c0.1,0.2,0.2,0.3,0.3,0.4c0.1,0.1,0.3,0.2,0.5,0.2
		c0.2,0,0.4-0.1,0.6-0.2c0.2-0.2,0.3-0.4,0.3-0.6C15.9,18,15.9,17.8,15.9,17.7"/>
	<path class="st0" d="M31.8,13.7c0.2,0,0.4-0.2,0.5-0.4c0.1-0.5,0.2-0.9,0.5-1.4c0.6-1.3,0.5-2.1-0.2-2.8c-0.5-0.5-1.2-0.7-1.9-0.5
		c-0.1,0-0.2,0.1-0.4,0.1C30,8.8,29.7,8.9,29.4,9c-0.3-0.1-0.5-0.1-0.8-0.2c-0.1-0.1-0.2-0.1-0.4-0.1c-0.7-0.2-1.4,0-1.9,0.5
		c-0.7,0.7-0.8,1.6-0.2,2.8c0.2,0.4,0.4,0.9,0.5,1.4c0,0.2,0.2,0.4,0.5,0.4h0.1v0.4c-0.2,0-0.5,0.1-0.5,0.4c0,0.1,0,0.2,0.1,0.3
		c0.1,0.1,0.2,0.2,0.3,0.2l0.2,0v0.9c-0.2,0-0.5,0.1-0.5,0.4c0,0.1,0,0.2,0.1,0.3c0.1,0.1,0.2,0.2,0.3,0.2l0.2,0v0.9
		c0,0.2,0.1,0.3,0.2,0.4l1.8,1.1c0.1,0.1,0.3,0.1,0.5,0l1.8-1.1c0.1-0.1,0.2-0.2,0.2-0.4h0.1c0.2,0,0.4-0.2,0.5-0.4
		c0-0.2-0.1-0.4-0.4-0.5h-0.2V16h0.1c0.2,0,0.4-0.2,0.5-0.4c0-0.2-0.1-0.4-0.4-0.5h-0.2L31.8,13.7L31.8,13.7L31.8,13.7z M27,11.6
		c-0.5-1.1-0.2-1.5,0-1.8c0.2-0.3,0.6-0.4,1-0.3l0.3,0.1c0.2,0.1,0.4,0.1,0.6,0.2c0,0,0,0,0.1,0c0.5,0.1,0.9,0.3,1.3,0.6
		c0.1,0,0.1,0.1,0.2,0.1c0.2,0,0.3-0.1,0.4-0.2c0.1-0.1,0.1-0.2,0-0.3c0-0.1-0.1-0.2-0.2-0.3l-0.1-0.1c0.1,0,0.2-0.1,0.3-0.1
		c0.3-0.1,0.7,0,1,0.3c0.3,0.3,0.5,0.7,0,1.8c-0.2,0.4-0.3,0.8-0.5,1.2h-4C27.3,12.4,27.1,12,27,11.6L27,11.6z M29.5,18.4l-1.4-0.8
		v-0.5l2.6,0.5L29.5,18.4z M28.1,16.1v-0.9l2.7,0.6v0.9L28.1,16.1z M30.8,14.9l-2.7-0.6v-0.6h2.7V14.9z"/>
</g>
</svg>
