<?xml version="1.0" encoding="utf-8"?>
<!-- Generator: Adobe Illustrator 24.1.2, SVG Export Plug-In . SVG Version: 6.00 Build 0)  -->
<svg version="1.1" id="Layer_1" xmlns="http://www.w3.org/2000/svg" xmlns:xlink="http://www.w3.org/1999/xlink" x="0px" y="0px"
	 viewBox="0 0 48 48" style="enable-background:new 0 0 48 48;" xml:space="preserve">
<style type="text/css">
	.st0{fill:#EC1C24;}
</style>
<path class="st0" d="M40.5,15.8h-3.1V4.4c0-0.6-0.5-1-1-1c0,0,0,0,0,0h-8.2c-0.6,0-1,0.5-1,1c0,0.2,0.1,0.4,0.2,0.6l1.7,2.5L27.3,10
	c-0.3,0.5-0.2,1.1,0.3,1.4c0.2,0.1,0.4,0.2,0.6,0.2h7.2v4.1h-3.1c-0.6,0-1,0.5-1,1c0,0,0,0,0,0v5.2H24c-0.6,0-1,0.5-1,1c0,0,0,0,0,0
	v5.2h-7.2c-0.6,0-1,0.5-1,1c0,0,0,0,0,0v5.2H7.5c-0.6,0-1,0.5-1,1c0,0,0,0,0,0v8.2c0,0.6,0.5,1,1,1c0,0,0,0,0,0h33c0.6,0,1-0.5,1-1
	c0,0,0,0,0,0V16.8C41.5,16.2,41.1,15.8,40.5,15.8C40.5,15.8,40.5,15.8,40.5,15.8z"/>
</svg>
