<?xml version="1.0" encoding="utf-8"?>
<!-- Generator: Adobe Illustrator 24.1.2, SVG Export Plug-In . SVG Version: 6.00 Build 0)  -->
<svg version="1.1" id="Layer_1" xmlns="http://www.w3.org/2000/svg" xmlns:xlink="http://www.w3.org/1999/xlink" x="0px" y="0px"
	 viewBox="0 0 48 48" style="enable-background:new 0 0 48 48;" xml:space="preserve">
<style type="text/css">
	.st0{fill-rule:evenodd;clip-rule:evenodd;fill:#EC1C24;}
</style>
<g>
	<path class="st0" d="M43.1,29.9c-0.1-0.2-0.2-0.4-0.3-0.5C41,28.1,39.1,28.9,39,29l-6.7,2.8c0,0.1,0,0.3,0,0.4
		c0,0.9-0.4,2.2-2.2,2.2H19.9c-0.2,0-0.4,0.2-0.4,0.4s0.2,0.4,0.4,0.4h10.9c1.2,0,2.2-1,2.2-2.2c0-0.1,0-0.3,0-0.4l6.7-2.8
		C39.8,29.7,41.4,29,43.1,29.9L43.1,29.9z M44.1,30.3c0,0.3-0.1,0.6-0.3,0.9c-0.7,1.4-16.5,10.6-20.5,10.6c-1.7,0-3.4-0.3-5-1l0,0
		l-5.4-2.7c-0.2-0.1-0.3-0.3-0.3-0.5V30c0-1.1,0.9-1.9,1.9-1.9c0.6,0,1.1,0,1.1,0s3.6-0.2,6.2,2.4c0.8,0.8,1.9,1.2,3.1,1.2h6
		c0.2,0,0.3,0,0.4,0.1l0,0c-0.1-0.2-0.1-0.3-0.3-0.4c-0.2-0.3-0.6-0.4-1-0.4h-4.6c-1.2,0-2.3-0.4-3.1-1.2c-2.6-2.6-6.2-2.4-6.2-2.4
		l0,0H13c-0.3,0-0.5-0.2-0.5-0.5s0.2-0.4,0.5-0.4h3.1c0.3,0,4-0.2,6.9,2.6c0.6,0.6,1.5,1,2.4,1H30c0.8,0,1.5,0.4,1.9,1l6.7-2.8
		C40.3,27.3,44.2,28,44.1,30.3L44.1,30.3z M20.2,17c-2.4-2.4-2.4-6.3,0-8.7L20.6,8c2.4-2.4,6.3-2.4,8.7,0l0.2,0.2L29.8,8
		c2.4-2.4,6.3-2.4,8.7,0l0.3,0.3c2.4,2.4,2.4,6.3,0,8.7l-0.2,0.2l-8,8c-0.6,0.6-1.5,0.6-2,0l-8-8L20.2,17z M11.5,25.4
		c0,0.1,0,0.1,0,0.2v13.6c0,0.1,0,0.1,0,0.2c-0.1,0.1-0.2,0.2-0.4,0.2H4.3c-0.2,0-0.4-0.2-0.4-0.4V25.6c0-0.2,0.2-0.4,0.4-0.4h6.9
		C11.3,25.2,11.5,25.3,11.5,25.4L11.5,25.4z"/>
</g>
</svg>
