<?xml version="1.0" encoding="utf-8"?>
<!-- Generator: Adobe Illustrator 24.1.2, SVG Export Plug-In . SVG Version: 6.00 Build 0)  -->
<svg version="1.1" id="Layer_1" xmlns="http://www.w3.org/2000/svg" xmlns:xlink="http://www.w3.org/1999/xlink" x="0px" y="0px"
	 viewBox="0 0 48 48" style="enable-background:new 0 0 48 48;" xml:space="preserve">
<style type="text/css">
	.st0{fill:#EC1C24;}
</style>
<g>
	<path class="st0" d="M43.1,20h-2.5c-0.4-1.7-1.1-3.4-2-4.9l1.8-1.8c0.4-0.4,0.4-1,0-1.4l-4.3-4.3c-0.4-0.4-1-0.4-1.4,0l-1.8,1.8
		c-1.5-0.9-3.2-1.6-4.9-2V4.9c0-0.6-0.5-1-1-1h-6c-0.6,0-1,0.5-1,1v2.5c-1.7,0.4-3.4,1.1-4.9,2l-1.8-1.8c-0.4-0.4-1-0.4-1.4,0
		l-4.3,4.3c-0.4,0.4-0.4,1,0,1.4l1.8,1.8c-0.9,1.5-1.6,3.2-2,4.9H4.9c-0.6,0-1,0.5-1,1v6c0,0.6,0.5,1,1,1h2.5c0.4,1.7,1.1,3.4,2,4.9
		l-1.8,1.8c-0.4,0.4-0.4,1,0,1.4l4.3,4.3c0.4,0.4,1,0.4,1.4,0l1.8-1.8c1.5,0.9,3.2,1.6,4.9,2v2.5c0,0.6,0.5,1,1,1h6c0.6,0,1-0.5,1-1
		v-2.5c1.7-0.4,3.4-1.1,4.9-2l1.8,1.8c0.4,0.4,1,0.4,1.4,0l4.3-4.3c0.4-0.4,0.4-1,0-1.4l-1.8-1.8c0.9-1.5,1.6-3.2,2-4.9h2.5
		c0.6,0,1-0.5,1-1v-6C44.1,20.4,43.7,20,43.1,20z M24,36.1c-6.7,0-12.1-5.4-12.1-12.1S17.3,11.9,24,11.9S36.1,17.3,36.1,24
		C36.1,30.7,30.7,36.1,24,36.1z"/>
	<path class="st0" d="M24,13.9c-5.6,0-10.1,4.5-10.1,10.1S18.4,34.1,24,34.1S34.1,29.6,34.1,24C34.1,18.4,29.6,13.9,24,13.9z M27,23
		c0.6,0,1,0.5,1,1v4c0,0.6-0.5,1-1,1h-2v1c0,0.6-0.5,1-1,1s-1-0.5-1-1v-1h-2c-0.6,0-1-0.5-1-1s0.5-1,1-1h5v-2h-5c-0.6,0-1-0.5-1-1
		v-4c0-0.6,0.5-1,1-1h2v-1c0-0.6,0.5-1,1-1s1,0.5,1,1v1h2c0.6,0,1,0.5,1,1s-0.5,1-1,1h-5v2H27z"/>
</g>
</svg>
