<?xml version="1.0" encoding="utf-8"?>
<!-- Generator: Adobe Illustrator 24.1.2, SVG Export Plug-In . SVG Version: 6.00 Build 0)  -->
<svg version="1.1" id="Layer_1" xmlns="http://www.w3.org/2000/svg" xmlns:xlink="http://www.w3.org/1999/xlink" x="0px" y="0px"
	 viewBox="0 0 48 48" style="enable-background:new 0 0 48 48;" xml:space="preserve">
<style type="text/css">
	.st0{fill:#2B4258;}
</style>
<g>
	<path class="st0" d="M10,32h28V12H10V32z M31,18h2c0.6,0,1,0.4,1,1s-0.4,1-1,1h-2c-0.6,0-1-0.4-1-1S30.4,18,31,18z M31,24h2
		c0.6,0,1,0.4,1,1s-0.4,1-1,1h-2c-0.6,0-1-0.4-1-1S30.4,24,31,24z M20,16c3.3,0,6,2.7,6,6s-2.7,6-6,6s-6-2.7-6-6
		C14,18.7,16.7,16,20,16z"/>
	<circle class="st0" cx="20" cy="22" r="4"/>
	<path class="st0" d="M41,6H7C5.3,6,4,7.3,4,9v26c0,1.7,1.3,3,3,3h3v3c0,0.6,0.4,1,1,1h4c0.6,0,1-0.4,1-1v-3h16v3c0,0.6,0.4,1,1,1h4
		c0.6,0,1-0.4,1-1v-3h3c1.7,0,3-1.3,3-3V9C44,7.3,42.7,6,41,6z M40,33c0,0.6-0.4,1-1,1H9c-0.6,0-1-0.4-1-1V11c0-0.6,0.4-1,1-1h30
		c0.6,0,1,0.4,1,1V33z"/>
</g>
</svg>
