<?xml version="1.0" encoding="utf-8"?>
<!-- Generator: Adobe Illustrator 24.1.2, SVG Export Plug-In . SVG Version: 6.00 Build 0)  -->
<svg version="1.1" id="Layer_1" xmlns="http://www.w3.org/2000/svg" xmlns:xlink="http://www.w3.org/1999/xlink" x="0px" y="0px"
	 viewBox="0 0 100 100.6" style="enable-background:new 0 0 100 100.6;" xml:space="preserve">
<style type="text/css">
	.st0{fill:#EC1C24;}
	.st1{fill:#2B4258;}
	.st2{fill:#FFFFFF;}
</style>
<path class="st2" d="M50,0.3c-27.6,0-50,22.4-50,50c0,27.6,22.4,50,50,50s50-22.4,50-50C100,22.7,77.6,0.3,50,0.3z M74.4,37
	c-1,1.2-2.3,2.3-3.5,3.5c-1,1-2.3,2.3-3.3,3.3c-1.9,1.9-4.1,1.9-6.2,0c-1.4-1.4-2.9-2.7-4.1-4.1c-0.4-0.4-0.6-0.4-1-0.2
	c-2.3,1-4.1,2.3-6,3.7c-3.7,3.1-7,6.4-9.5,10.5c-0.6,0.8-1,1.9-1.4,2.7c-0.2,0.4-0.2,0.8,0.2,1.2c1.4,1.4,2.9,2.9,4.1,4.1
	c1.9,1.9,1.9,4.1,0,6c-2.3,2.3-4.5,4.5-6.8,6.8c-1.9,1.9-4.1,1.9-6.2,0c-1.2-1.2-2.5-2.7-3.9-3.7c-1.9-1.9-2.7-3.9-2.5-6.6
	c0.2-3.5,1.4-7,3.1-10.1c3.5-7.2,8.4-13.4,14.6-18.8c4.5-3.7,9.5-7,15.3-9.1c2.7-1,5.6-1.6,8.4-1.4c1.9,0.2,3.3,0.8,4.7,2.3
	s2.9,2.9,4.1,4.1C76.1,32.8,76.1,35.1,74.4,37z"/>
</svg>
