<?xml version="1.0" encoding="utf-8"?>
<!-- Generator: Adobe Illustrator 24.1.2, SVG Export Plug-In . SVG Version: 6.00 Build 0)  -->
<svg version="1.1" id="Layer_1" xmlns="http://www.w3.org/2000/svg" xmlns:xlink="http://www.w3.org/1999/xlink" x="0px" y="0px"
	 viewBox="0 0 100 100.6" style="enable-background:new 0 0 100 100.6;" xml:space="preserve">
<style type="text/css">
	.st0{fill:#EC1C24;}
	.st1{fill:#2B4258;}
	.st2{fill:#FFFFFF;}
</style>
<g>
	<path class="st0" d="M50,36.4c-4.8,0-8.7,3.9-8.7,8.7c0,4.8,3.9,8.7,8.7,8.7s8.7-3.9,8.7-8.7C58.7,40.3,54.8,36.4,50,36.4z
		 M50,50.3c-2.9,0-5.2-2.3-5.2-5.2c0-2.9,2.3-5.2,5.2-5.2s5.2,2.3,5.2,5.2C55.2,48,52.9,50.3,50,50.3z"/>
	<path class="st0" d="M50,0.3c-27.6,0-50,22.4-50,50c0,27.6,22.4,50,50,50s50-22.4,50-50C100,22.7,77.6,0.3,50,0.3z M51.3,74.2
		c-0.7,0.7-1.8,0.7-2.5,0c0,0,0,0,0,0c-0.7-0.8-18-18.9-18-29.2c0-10.6,8.6-19.2,19.2-19.2s19.2,8.6,19.2,19.2
		C69.2,55.3,52,73.5,51.3,74.2z"/>
</g>
</svg>
