<?xml version="1.0" encoding="utf-8"?>
<!-- Generator: Adobe Illustrator 24.1.2, SVG Export Plug-In . SVG Version: 6.00 Build 0)  -->
<svg version="1.1" id="Layer_1" xmlns="http://www.w3.org/2000/svg" xmlns:xlink="http://www.w3.org/1999/xlink" x="0px" y="0px"
	 viewBox="0 0 85 28.3" style="enable-background:new 0 0 85 28.3;" xml:space="preserve">
<style type="text/css">
	.st0{fill:#B4B4B5;}
</style>
<path class="st0" d="M60.8,16.2h-3.4v-3.5h-1.2v4.7h4.6V16.2z M52.3,15.2c0.3-0.6,0.5-1,0.6-1.3c0.1,0.2,0.2,0.4,0.3,0.7
	c0.1,0.1,0.2,0.4,0.3,0.6H52.3z M53.6,12.7h-1.3l-2.5,4.7h1.4l0.5-1h2.5l0.5,1h1.4L53.6,12.7z M50.5,12.7h-4.5v1.2h1.6v3.5h1.2v-3.5
	h1.7V12.7z M45.6,12.7h-1.2v3.1c-0.1-0.1-0.2-0.2-0.3-0.4l-2.6-2.8h-1.3v4.7h1.2v-3.1c0.1,0.1,0.2,0.3,0.3,0.4l2.4,2.7h1.4V12.7z
	 M39.8,16.2h-3.5v-0.6h3.4v-1.2h-3.4v-0.5h3.5v-1.2h-4.7v4.7h4.7V16.2z M33.3,16.1c0,0-0.1,0.1-0.2,0.1h-3v-2.3h3
	c0.1,0,0.1,0,0.2,0.1c0,0,0.1,0.1,0.1,0.2v1.8C33.4,16,33.3,16.1,33.3,16.1 M34.6,14.2c0-0.4-0.1-0.7-0.4-1c-0.3-0.3-0.6-0.4-1-0.4
	h-4.2v4.7h4.2c0.4,0,0.7-0.1,1-0.4c0.3-0.3,0.4-0.6,0.4-1V14.2z"/>
<path class="st0" d="M55.1,9.7c-0.3-0.6-0.8-0.8-1.7-0.8h-1.8c-0.1,0-0.2,0-0.3-0.1c-0.1-0.1-0.1-0.1-0.1-0.2c0-0.1,0-0.2,0.1-0.2
	c0.1-0.1,0.2-0.1,0.3-0.1H55V7.1h-3.2c-0.3,0-0.6,0.1-0.9,0.2c-0.3,0.1-0.5,0.4-0.7,0.6c-0.1,0.2-0.1,0.4-0.1,0.6
	c0,0.2,0,0.4,0.1,0.6C50.5,9.7,51,10,51.8,10h1.8c0.1,0,0.2,0,0.3,0.1c0.1,0.1,0.1,0.1,0.1,0.2c0,0.2-0.1,0.3-0.4,0.3h-3.4v1.2h3.2
	c0.4,0,0.7-0.1,0.9-0.2c0.3-0.1,0.6-0.4,0.7-0.7c0.1-0.2,0.1-0.4,0.1-0.6C55.2,10.1,55.2,9.9,55.1,9.7 M49.6,9.7
	c-0.3-0.6-0.8-0.8-1.7-0.8h-1.8c-0.1,0-0.2,0-0.3-0.1c-0.1-0.1-0.1-0.1-0.1-0.2c0-0.1,0-0.2,0.1-0.2c0.1-0.1,0.2-0.1,0.3-0.1h3.3
	V7.1h-3.2c-0.3,0-0.6,0.1-0.9,0.2c-0.3,0.1-0.5,0.4-0.7,0.6c-0.1,0.2-0.1,0.4-0.1,0.6c0,0.2,0,0.4,0.1,0.6C45,9.7,45.5,10,46.3,10
	h1.8c0.1,0,0.2,0,0.3,0.1c0.1,0.1,0.1,0.1,0.1,0.2c0,0.2-0.1,0.3-0.4,0.3h-3.4v1.2h3.2c0.4,0,0.7-0.1,0.9-0.2
	c0.3-0.1,0.6-0.4,0.7-0.7c0.1-0.2,0.1-0.4,0.1-0.6C49.7,10.1,49.7,9.9,49.6,9.7 M44,7.1h-1.2v4.7H44V7.1z M41.2,7.1l-0.8,2.6
	c-0.1,0.4-0.2,0.7-0.3,0.9c-0.1-0.4-0.2-0.7-0.3-0.9l-0.8-2.6h-1.3L37,9.7c-0.1,0.4-0.2,0.7-0.3,0.9c-0.1-0.4-0.2-0.7-0.3-0.9
	l-0.8-2.6h-1.4l1.8,4.7h1.3l1.1-2.8l1.1,2.8h1.3l1.8-4.7H41.2z M33.9,9.7c-0.3-0.6-0.8-0.8-1.7-0.8h-1.8c-0.1,0-0.2,0-0.3-0.1
	c-0.1-0.1-0.1-0.1-0.1-0.2c0-0.1,0-0.2,0.1-0.2c0.1-0.1,0.2-0.1,0.3-0.1h3.3V7.1h-3.2c-0.3,0-0.6,0.1-0.9,0.2
	c-0.3,0.1-0.5,0.4-0.7,0.6c-0.1,0.2-0.1,0.4-0.1,0.6c0,0.2,0,0.4,0.1,0.6c0.3,0.5,0.8,0.8,1.6,0.8h1.8c0.1,0,0.2,0,0.3,0.1
	c0.1,0.1,0.1,0.1,0.1,0.2c0,0.2-0.1,0.3-0.4,0.3h-3.4v1.2h3.2c0.4,0,0.7-0.1,0.9-0.2c0.3-0.1,0.6-0.4,0.7-0.7
	c0.1-0.2,0.1-0.4,0.1-0.6C34.1,10.1,34,9.9,33.9,9.7"/>
<g>
	<path class="st0" d="M33.6,21.5c-0.2,0.2-0.3,0.3-0.4,0.3h-2.8c-0.1,0-0.1,0-0.2-0.1c0,0-0.1-0.1-0.1-0.2v-1.8c0-0.1,0-0.1,0.1-0.2
		c0,0,0.1-0.1,0.2-0.1h2.8c0.1,0,0.2,0.1,0.2,0.3l1-0.8c-0.1-0.2-0.3-0.4-0.5-0.5c-0.2-0.1-0.5-0.2-0.7-0.2h-2.8
		c-0.4,0-0.7,0.1-1,0.4c-0.3,0.3-0.4,0.6-0.4,1v1.8c0,0.4,0.1,0.7,0.4,1c0.3,0.3,0.6,0.4,1,0.4h2.8c0.2,0,0.4-0.1,0.7-0.2
		c0.2-0.1,0.4-0.3,0.6-0.5L33.6,21.5z M39.6,18.3h-1.2v1.7h-2.4v-1.7h-1.2V23h1.2v-1.8h2.4V23h1.2V18.3z M43.7,18.3h-1.3L39.9,23
		h1.4l0.5-1h2.5l0.5,1h1.4L43.7,18.3z M42.4,20.8c0.3-0.6,0.5-1,0.6-1.3c0.1,0.2,0.2,0.4,0.3,0.7c0.1,0.1,0.2,0.4,0.3,0.6H42.4z
		 M51.7,18.3h-1.2v3.1c-0.1-0.1-0.2-0.2-0.3-0.4l-2.6-2.8h-1.3V23h1.2v-3.1c0.1,0.1,0.2,0.3,0.3,0.4l2.4,2.7h1.4V18.3z M57.6,18.3
		h-1.2v3.1c-0.1-0.1-0.2-0.2-0.3-0.4l-2.6-2.8h-1.3V23h1.2v-3.1c0.1,0.1,0.2,0.3,0.3,0.4l2.4,2.7h1.4V18.3z M62.9,21.8h-3.5v-0.6
		h3.4v-1.2h-3.4v-0.5h3.5v-1.2h-4.7V23h4.7V21.8z M68,21.8h-3.4v-3.5h-1.2V23H68V21.8z"/>
</g>
<path class="st0" d="M26.2,12.6v3.1c0,0.3-0.3,0.6-0.6,0.6h-7.1c-0.3,0-0.6-0.3-0.6-0.6V8.6c0-0.3,0.3-0.6,0.6-0.6h7.1
	c0.3,0,0.6,0.3,0.6,0.6v3.1h1V8.2c0-0.6-0.5-1.1-1.1-1.1h-8c-0.6,0-1.1,0.5-1.1,1.1v8c0,0.6,0.5,1.1,1.1,1.1h8
	c0.6,0,1.1-0.5,1.1-1.1v-3.6H26.2z"/>
<path class="st0" d="M20.7,14.6V9.8c0-0.2,0.3-0.3,0.4-0.2l3.1,2.5c0.1,0.1,0.1,0.3,0,0.4l-3.1,2.3C21,14.9,20.7,14.8,20.7,14.6"/>
</svg>
