<?xml version="1.0" encoding="utf-8"?>
<!-- Generator: Adobe Illustrator 24.1.2, SVG Export Plug-In . SVG Version: 6.00 Build 0)  -->
<svg version="1.1" id="Layer_1" xmlns="http://www.w3.org/2000/svg" xmlns:xlink="http://www.w3.org/1999/xlink" x="0px" y="0px"
	 viewBox="0 0 48 48" style="enable-background:new 0 0 48 48;" xml:space="preserve">
<style type="text/css">
	.st0{fill:#EC1C24;}
</style>
<g>
	<path class="st0" d="M39.8,37.6c-1.6,0-3,0.8-3.9,2.2c-0.6-0.5-1.3-0.8-2.1-0.9c-1.3-0.3-2.6-0.1-3.7,0.4c-0.6-0.9-1.5-1.5-2.6-1.7
		c-0.1,0-0.1,0-0.2,0l-6.9,0c-1,0.2-2,0.8-2.6,1.7c-1.2-0.6-2.5-0.7-3.7-0.4c-0.7,0.2-1.5,0.5-2.1,0.9c-1.3-2.1-4.1-2.8-6.2-1.5
		S3,42.3,4.3,44.4c0.8,1.4,2.3,2.2,3.9,2.2h31.6c2.5,0,4.5-2,4.5-4.5C44.3,39.6,42.3,37.6,39.8,37.6z"/>
	<path class="st0" d="M29.5,6.9c-1.1-3-2.9-5.5-5.5-5.5s-4.4,2.5-5.5,5.5c1.7,0.9,3.6,1.3,5.5,1.3C25.9,8.2,27.8,7.8,29.5,6.9z"/>
	<path class="st0" d="M12.7,30.8c0.2,0,0.3,0,0.5-0.1l1.8-0.9c0,0,0-0.1,0-0.1V19l-3.1,3.1c-0.2,0.2-0.3,0.5-0.3,0.8v6.8
		C11.6,30.3,12.1,30.8,12.7,30.8C12.7,30.8,12.7,30.8,12.7,30.8z"/>
	<path class="st0" d="M20.6,35.3h6.8c0.6,0,1.1-0.5,1.1-1.1c0,0,0,0,0,0v-3.4h-9v3.4C19.5,34.8,20,35.3,20.6,35.3
		C20.6,35.3,20.6,35.3,20.6,35.3z"/>
	<path class="st0" d="M30.8,13.8c0-1.6-0.2-3.2-0.6-4.8c-1.9,0.9-4,1.4-6.1,1.4c-2.1,0-4.2-0.4-6.1-1.4c-0.4,1.6-0.6,3.2-0.6,4.8
		v14.7h13.6V13.8z M26.3,24h-4.5c-0.6,0-1.1-0.5-1.1-1.1c0-0.6,0.5-1.1,1.1-1.1h4.5c0.6,0,1.1,0.5,1.1,1.1
		C27.4,23.5,26.9,24,26.3,24z M26.3,19.5h-4.5c-0.6,0-1.1-0.5-1.1-1.1s0.5-1.1,1.1-1.1h4.5c0.6,0,1.1,0.5,1.1,1.1
		S26.9,19.5,26.3,19.5z"/>
	<path class="st0" d="M35.3,30.8c0.6,0,1.1-0.5,1.1-1.1c0,0,0,0,0,0v-6.8c0-0.3-0.1-0.6-0.3-0.8L33.1,19v10.6c0,0.1,0,0.1,0,0.1
		l1.8,0.9C35,30.7,35.1,30.8,35.3,30.8z"/>
</g>
</svg>
