<?xml version="1.0" encoding="utf-8"?>
<!-- Generator: Adobe Illustrator 24.1.3, SVG Export Plug-In . SVG Version: 6.00 Build 0)  -->
<svg version="1.1" id="Layer_1" xmlns="http://www.w3.org/2000/svg" xmlns:xlink="http://www.w3.org/1999/xlink" x="0px" y="0px"
	 viewBox="0 0 100 100" style="enable-background:new 0 0 100 100;" xml:space="preserve">
<style type="text/css">
	.st0{fill:none;stroke:#081F40;stroke-width:2;stroke-linecap:round;stroke-linejoin:round;}
</style>
<g>
	<g>
		<path class="st0" d="M50,84.8l-1.5-2.3c-1-1.5-25-38.1-25-52.1C23.5,15.8,35.4,3.9,50,3.9c14.6,0,26.5,11.9,26.5,26.5
			c0,14-24,50.6-25,52.1L50,84.8z"/>
	</g>
	<g>
		<path class="st0" d="M50,42.2c-6.5,0-11.7-5.3-11.7-11.7c0-6.5,5.3-11.7,11.7-11.7c6.5,0,11.7,5.3,11.7,11.7
			C61.7,36.9,56.5,42.2,50,42.2z"/>
	</g>
	<g>
		<path class="st0" d="M63.8,70.3c11.9,2.2,19,6.8,19,12.3c0,7.7-14.1,13.5-32.8,13.5s-32.8-5.8-32.8-13.5c0-5.5,7.1-10.1,19-12.3"
			/>
	</g>
</g>
</svg>
