<?xml version="1.0" encoding="utf-8"?>
<!-- Generator: Adobe Illustrator 24.1.3, SVG Export Plug-In . SVG Version: 6.00 Build 0)  -->
<svg version="1.1" id="Layer_1" xmlns="http://www.w3.org/2000/svg" xmlns:xlink="http://www.w3.org/1999/xlink" x="0px" y="0px"
	 viewBox="0 0 100 100" style="enable-background:new 0 0 100 100;" xml:space="preserve">
<style type="text/css">
	.st0{fill:none;stroke:#081F40;stroke-width:2;stroke-linecap:round;stroke-linejoin:round;}
</style>
<g>
	<g>
		<path class="st0" d="M65.9,63.9c-6.5,0-12.7-2.1-17.9-6l-8.3,2.2l2.2-8.3c-3.9-5.2-6-11.4-6-17.9c0-16.5,13.5-30,30-30
			s30,13.5,30,30S82.5,63.9,65.9,63.9z"/>
	</g>
	<g>
		<path class="st0" d="M59.8,96.1L59.8,96.1c-12.4,0-26.1-7-37.8-19.1C9.7,64.8,3.2,50.5,4.2,38l0-0.6l0.4-0.5c1-1.2,1.8-2.1,2.7-3
			c2-2,4.1-3.7,6.5-5.2l1.6-1l1.1,1.6c3.4,5.1,7.3,10.3,11.4,15.3l1,1.2l-1,1.2c-0.1,0.2-0.3,0.4-0.7,0.6L22.3,51
			c-0.3,0.2-0.4,0.5-0.4,0.7c-0.1,0.6,0.1,1.4,0.5,2.1c1.4,1.9,6.9,8.2,11.3,12.8c4.5,4.2,10.8,9.9,12.7,11.2
			c0.5,0.4,1.1,0.6,1.7,0.6c0.5,0,0.9-0.2,1.1-0.4l1.2-1.8c0.7-1.1,1.4-2.1,2.1-3.2c0.2-0.3,0.4-0.5,0.6-0.6l1.2-1l1.2,1
			c5,4.2,10.2,8,15.3,11.4l1.6,1.1l-1,1.6c-1.5,2.3-3.2,4.5-5.2,6.5c-0.9,0.9-1.8,1.7-3,2.7L62.8,96l-0.6,0
			C61.4,96.1,60.6,96.1,59.8,96.1z"/>
	</g>
</g>
</svg>
