<?xml version="1.0" encoding="utf-8"?>
<!-- Generator: Adobe Illustrator 24.1.3, SVG Export Plug-In . SVG Version: 6.00 Build 0)  -->
<svg version="1.1" id="Layer_1" xmlns="http://www.w3.org/2000/svg" xmlns:xlink="http://www.w3.org/1999/xlink" x="0px" y="0px"
	 viewBox="0 0 100 100" style="enable-background:new 0 0 100 100;" xml:space="preserve">
<style type="text/css">
	.st0{fill:none;stroke:#081F40;stroke-width:2;stroke-linecap:round;stroke-linejoin:round;}
</style>
<g>
	<line class="st0" x1="19.1" y1="33.9" x2="7.9" y2="47.7"/>
	<line class="st0" x1="92.1" y1="47.7" x2="80.8" y2="33.7"/>
	<polyline class="st0" points="91.8,46.6 91.8,94.8 8.2,94.8 8.2,46.6 	"/>
	<g>
		<line class="st0" x1="33.5" y1="72.5" x2="8.6" y2="95.3"/>
		<line class="st0" x1="91.4" y1="95.3" x2="66.5" y2="72.5"/>
	</g>
	<polygon class="st0" points="80.5,4.7 19.5,4.7 19.5,57.2 33.7,71.8 66.3,71.8 80.5,57.2 	"/>
	<g>
		<path class="st0" d="M59.7,51.7c-2.6,2-5.8,3.1-9.3,3.1c-8.5,0-15.4-6.9-15.4-15.4C35,30.9,41.9,24,50.4,24
			c4.8,0,9.1,2.2,11.9,5.6"/>
		<path class="st0" d="M55.3,32.2c0,0-6.3-1.4-10,2c-4.4,4.1-3.5,10.6,0.7,11.8c4.1,1.2,5.6-1.9,6.1-3.3
			C52.5,41.3,55.3,32.2,55.3,32.2z"/>
		<path class="st0" d="M54.8,33.8c0,0-2.7,9.5-0.8,11.2c5.5,5,18.2-8,5.8-17.8"/>
	</g>
	<polyline class="st0" points="8.9,46.7 34.6,71.8 65.4,71.8 91.1,46.7 	"/>
</g>
</svg>
