<?xml version="1.0" encoding="utf-8"?>
<!-- Generator: Adobe Illustrator 24.1.2, SVG Export Plug-In . SVG Version: 6.00 Build 0)  -->
<svg version="1.1" id="Layer_1" xmlns="http://www.w3.org/2000/svg" xmlns:xlink="http://www.w3.org/1999/xlink" x="0px" y="0px"
	 viewBox="0 0 100 30" style="enable-background:new 0 0 100 30;" xml:space="preserve">
<style type="text/css">
	.st0{fill:#EA0029;}
	.st1{fill:#FFFFFF;}
</style>
<g>
	<g>
		<circle class="st0" cx="16.5" cy="10.3" r="4.2"/>
		<circle class="st0" cx="25.7" cy="10.3" r="4.2"/>
		<circle class="st0" cx="16.5" cy="19.7" r="4.2"/>
		<circle class="st0" cx="25.7" cy="19.7" r="4.2"/>
	</g>
	<g>
		<path class="st1" d="M48.2,13.4h-9c-0.1,0-0.2-0.1-0.3-0.2c-0.1-0.1-0.1-0.2-0.1-0.4V12c0-0.2,0-0.3,0.1-0.4
			c0.1-0.1,0.2-0.2,0.3-0.2h11.3c0.1,0,0.3-0.1,0.4-0.2c0.1-0.1,0.1-0.3,0.1-0.4V8.9c0-0.2-0.1-0.3-0.2-0.4
			c-0.1-0.1-0.2-0.2-0.3-0.2H39.2c-0.9,0-1.8,0.4-2.4,1.2c-0.7,0.8-1,1.7-1,2.9v0.2c0,1.1,0.3,2.1,1,2.9c0.7,0.8,1.5,1.2,2.4,1.2h9
			c0.1,0,0.2,0.1,0.3,0.2s0.1,0.2,0.1,0.4V18c0,0.2,0,0.3-0.1,0.4s-0.2,0.2-0.3,0.2H36.9c-0.1,0-0.3,0.1-0.4,0.2
			c-0.1,0.1-0.1,0.3-0.1,0.4v1.9c0,0.2,0.1,0.3,0.1,0.4c0.1,0.1,0.2,0.2,0.4,0.2h11.3c0.9,0,1.8-0.4,2.4-1.2c0.7-0.8,1-1.8,1-2.9
			v-0.2c0-1.1-0.3-2.1-1-2.9C50,13.8,49.2,13.4,48.2,13.4z"/>
		<path class="st1" d="M66.3,8.3h-12c-0.1,0-0.3,0.1-0.3,0.2c-0.1,0.1-0.2,0.3-0.2,0.4v12.2c0,0.2,0.1,0.3,0.1,0.4
			c0.1,0.1,0.2,0.2,0.4,0.2h11.9c0.9,0,1.8-0.4,2.4-1.2c0.7-0.8,1-1.7,1-2.9v-5.3c0-1.1-0.3-2.1-1-2.9C68,8.7,67.2,8.3,66.3,8.3z
			 M56.8,11.4h9.5c0.1,0,0.2,0.1,0.3,0.2c0.1,0.1,0.1,0.2,0.1,0.4v6c0,0.2,0,0.3-0.1,0.4s-0.2,0.2-0.3,0.2h-9.5
			C56.8,18.6,56.8,11.4,56.8,11.4z"/>
		<path class="st1" d="M87.1,8.3H75.2c-0.9,0-1.8,0.4-2.4,1.2c-0.7,0.8-1,1.7-1,2.9v5.3c0,1.1,0.3,2.1,1,2.9s1.5,1.2,2.4,1.2h11.9
			c0.1,0,0.3-0.1,0.4-0.2s0.1-0.3,0.1-0.4v-1.9c0-0.2-0.1-0.3-0.1-0.4c-0.1-0.1-0.3-0.2-0.4-0.2H75.2c-0.1,0-0.2-0.1-0.3-0.2
			c-0.1-0.1-0.1-0.2-0.1-0.4v-6c0-0.2,0-0.3,0.1-0.4c0.1-0.1,0.2-0.2,0.3-0.2h11.9c0.1,0,0.3-0.1,0.4-0.2c0.1-0.1,0.1-0.3,0.1-0.4
			v-2c0-0.2-0.1-0.3-0.1-0.4C87.4,8.4,87.2,8.3,87.1,8.3z"/>
	</g>
</g>
</svg>
