<?xml version="1.0" encoding="utf-8"?>
<!-- Generator: Adobe Illustrator 24.1.2, SVG Export Plug-In . SVG Version: 6.00 Build 0)  -->
<svg version="1.1" id="Layer_1" xmlns="http://www.w3.org/2000/svg" xmlns:xlink="http://www.w3.org/1999/xlink" x="0px" y="0px"
	 viewBox="0 0 183.6 30" style="enable-background:new 0 0 183.6 30;" xml:space="preserve">
<style type="text/css">
	.st0{fill:#FFFFFF;}
	.st1{fill:#EA0029;}
	.st2{fill:#59637F;}
	.st3{fill:#011E41;}
</style>
<g>
	<g>
		<circle class="st1" cx="8.9" cy="11" r="3.6"/>
		<circle class="st1" cx="16.8" cy="11" r="3.6"/>
		<circle class="st1" cx="8.9" cy="19" r="3.6"/>
		<circle class="st1" cx="16.8" cy="19" r="3.6"/>
	</g>
	<g>
		<g>
			<path class="st2" d="M28.2,19c0.3,0,0.5,0,0.6,0.2c0.1,0.1,0.2,0.2,0.2,0.5v0.9c0,0.2-0.1,0.4-0.2,0.5c-0.1,0.1-0.3,0.2-0.6,0.2
				h-1.9V19H28.2z M27,20.7h1.1c0.2,0,0.2,0,0.2-0.2v-0.9c0-0.1-0.1-0.2-0.2-0.2H27V20.7z"/>
			<path class="st2" d="M32,19.5v0.4h1.7l-0.1,0.5H32v0.4h1.8v0.5h-2.4V19h2.3v0.5H32z"/>
			<path class="st2" d="M36.6,21.2H36V19h0.7l1.3,1.5V19h0.7v2.2H38v0l-1.3-1.5V21.2z"/>
			<path class="st2" d="M42.3,21.2h-0.7v-1.7h-1V19h2.7v0.5h-1V21.2z"/>
			<path class="st2" d="M45.5,20.8l-0.2,0.4h-0.8l1.4-2.2h0.6l1.3,2.2H47l-0.2-0.4H45.5z M46.1,19.7l-0.4,0.6h0.7L46.1,19.7z"/>
			<path class="st2" d="M50.4,19v1.7h1.6l-0.1,0.5h-2.2V19H50.4z"/>
			<path class="st2" d="M59.3,19h0.7v2.2h-0.7v-1.4l-0.9,0.8l-0.9-0.8v1.4h-0.7V19h0.7l0.9,0.8L59.3,19z"/>
			<path class="st2" d="M62.9,19.5v0.4h1.7l-0.1,0.5h-1.6v0.4h1.8v0.5h-2.4V19h2.3v0.5H62.9z"/>
			<path class="st2" d="M68.8,19c0.3,0,0.5,0,0.6,0.2c0.1,0.1,0.2,0.2,0.2,0.5v0.9c0,0.2-0.1,0.4-0.2,0.5c-0.1,0.1-0.3,0.2-0.6,0.2
				h-1.9V19H68.8z M67.6,20.7h1.1c0.2,0,0.2,0,0.2-0.2v-0.9c0-0.1-0.1-0.2-0.2-0.2h-1.1V20.7z"/>
			<path class="st2" d="M72.5,21.2h-0.7V19h0.7V21.2z"/>
			<path class="st2" d="M77.5,20.6c0,0.2-0.1,0.3-0.2,0.4c-0.1,0.1-0.3,0.2-0.6,0.2h-1.1c-0.3,0-0.5,0-0.6-0.2
				c-0.1-0.1-0.2-0.2-0.2-0.5v-0.9c0-0.2,0.1-0.4,0.2-0.5c0.1-0.1,0.3-0.2,0.6-0.2h1.1c0.3,0,0.5,0,0.6,0.2c0.1,0.1,0.2,0.2,0.2,0.4
				l-0.7,0.1c0-0.1,0-0.2-0.2-0.2h-0.9c-0.2,0-0.2,0-0.2,0.2v0.9c0,0.1,0.1,0.2,0.2,0.2h0.9c0.2,0,0.2,0,0.2-0.2L77.5,20.6z"/>
			<path class="st2" d="M80.5,20.8l-0.2,0.4h-0.8l1.4-2.2h0.6l1.3,2.2h-0.8l-0.2-0.4H80.5z M81.1,19.7l-0.4,0.6h0.7L81.1,19.7z"/>
			<path class="st2" d="M85.3,19v1.7h1.6l-0.1,0.5h-2.2V19H85.3z"/>
			<path class="st2" d="M92.4,21.2h-0.7V19h0.7v0.8h0.3l0.8-0.8h0.8l-1.1,1.1l1.1,1.1h-0.8l-0.8-0.8h-0.3V21.2z"/>
			<path class="st2" d="M97,21.2h-0.7V19H97l1.3,0.9V19H99v2.2h-0.7v-0.6L97,19.7V21.2z"/>
			<path class="st2" d="M103.9,20.5c0,0.2-0.1,0.4-0.2,0.5c-0.1,0.1-0.3,0.2-0.6,0.2h-1.1c-0.3,0-0.5,0-0.6-0.2
				c-0.1-0.1-0.2-0.2-0.2-0.5v-0.9c0-0.2,0.1-0.4,0.2-0.5c0.1-0.1,0.3-0.2,0.6-0.2h1.1c0.3,0,0.5,0,0.6,0.2c0.1,0.1,0.2,0.2,0.2,0.5
				V20.5z M102.2,19.5c-0.2,0-0.2,0-0.2,0.2v0.9c0,0.1,0.1,0.2,0.2,0.2h0.9c0.2,0,0.2,0,0.2-0.2v-0.9c0-0.1,0-0.2-0.2-0.2H102.2z"/>
			<path class="st2" d="M107.8,21.2h-0.6l-1.3-2.2h0.8l0.8,1.5l0.3-0.7l-0.5-0.8h0.8l0.8,1.5l0.8-1.5h0.8l-1.3,2.2h-0.6l-0.4-0.7
				L107.8,21.2z"/>
			<path class="st2" d="M113.1,19v1.7h1.6l-0.1,0.5h-2.2V19H113.1z"/>
			<path class="st2" d="M117.3,19.5v0.4h1.7l-0.1,0.5h-1.6v0.4h1.8v0.5h-2.4V19h2.3v0.5H117.3z"/>
			<path class="st2" d="M123.1,19c0.3,0,0.5,0,0.6,0.2c0.1,0.1,0.2,0.2,0.2,0.5v0.9c0,0.2-0.1,0.4-0.2,0.5c-0.1,0.1-0.3,0.2-0.6,0.2
				h-1.9V19H123.1z M121.9,20.7h1.1c0.2,0,0.2,0,0.2-0.2v-0.9c0-0.1-0.1-0.2-0.2-0.2h-1.1V20.7z"/>
			<path class="st2" d="M128.2,19.7c0-0.1-0.1-0.2-0.2-0.2h-0.9c-0.2,0-0.2,0-0.2,0.2v0.9c0,0.1,0.1,0.2,0.2,0.2h0.9
				c0.2,0,0.2,0,0.2-0.2v-0.2h-0.7l0.1-0.5h1.3v0.7c0,0.3-0.1,0.4-0.2,0.5c-0.1,0.1-0.3,0.2-0.6,0.2H127c-0.3,0-0.5,0-0.6-0.2
				c-0.1-0.1-0.2-0.2-0.2-0.5v-0.9c0-0.2,0.1-0.4,0.2-0.5c0.1-0.1,0.3-0.2,0.6-0.2h1.1c0.3,0,0.5,0,0.6,0.2c0.1,0.1,0.2,0.2,0.2,0.4
				L128.2,19.7z"/>
			<path class="st2" d="M131.8,19.5v0.4h1.7l-0.1,0.5h-1.6v0.4h1.8v0.5h-2.4V19h2.3v0.5H131.8z"/>
		</g>
		<g>
			<path class="st1" d="M31,12.8h-4c-0.1,0-0.1,0-0.1-0.1c0-0.1-0.1-0.1-0.1-0.2v-0.4c0-0.1,0-0.1,0.1-0.2c0-0.1,0.1-0.1,0.1-0.1h5
				c0.1,0,0.1,0,0.2-0.1c0,0,0.1-0.1,0.1-0.2v-0.8c0-0.1,0-0.1-0.1-0.2c0,0-0.1-0.1-0.2-0.1h-5c-0.4,0-0.8,0.2-1.1,0.5
				c-0.3,0.3-0.4,0.8-0.4,1.3v0.1c0,0.5,0.1,0.9,0.4,1.3c0.3,0.3,0.6,0.5,1.1,0.5h4c0.1,0,0.1,0,0.1,0.1c0,0.1,0.1,0.1,0.1,0.2v0.4
				c0,0.1,0,0.1-0.1,0.2c0,0.1-0.1,0.1-0.1,0.1h-5c0,0-0.1,0-0.2,0.1c0,0-0.1,0.1-0.1,0.2v0.8c0,0.1,0,0.1,0.1,0.2
				c0,0,0.1,0.1,0.2,0.1h5c0.4,0,0.8-0.2,1.1-0.5c0.3-0.3,0.4-0.8,0.4-1.3v-0.1c0-0.5-0.1-0.9-0.4-1.3C31.8,13,31.5,12.8,31,12.8z"
				/>
			<path class="st1" d="M40.2,10.5h-0.8c-0.1,0-0.1,0-0.2,0.1c0,0-0.1,0.1-0.1,0.2v4c0,0.1,0,0.1-0.1,0.2C39,15,39,15,38.9,15h-1.5
				v-4.3c0-0.1,0-0.1-0.1-0.2c0,0-0.1-0.1-0.2-0.1h-0.8c-0.1,0-0.1,0-0.2,0.1c0,0-0.1,0.1-0.1,0.2V15h-1.5c-0.1,0-0.1,0-0.2-0.1
				c0-0.1-0.1-0.1-0.1-0.2v-4c0-0.1,0-0.1-0.1-0.2c0,0-0.1-0.1-0.2-0.1h-0.8c-0.1,0-0.1,0-0.2,0.1c0,0-0.1,0.1-0.1,0.2v3.9
				c0,0.5,0.1,0.9,0.4,1.3c0.3,0.3,0.6,0.5,1.1,0.5h4.2c0.4,0,0.8-0.2,1.1-0.5c0.3-0.3,0.4-0.8,0.4-1.3v-3.9c0-0.1,0-0.1-0.1-0.2
				C40.3,10.6,40.2,10.5,40.2,10.5z"/>
			<path class="st1" d="M42.1,10.5h-0.8c0,0-0.1,0-0.2,0.1c0,0-0.1,0.1-0.1,0.2v5.4c0,0.1,0,0.1,0.1,0.2c0,0,0.1,0.1,0.2,0.1h0.8
				c0.1,0,0.1,0,0.2-0.1c0,0,0.1-0.1,0.1-0.2v-5.4c0-0.1,0-0.1-0.1-0.2C42.3,10.6,42.2,10.5,42.1,10.5z"/>
			<path class="st1" d="M48.5,12.8h-4c-0.1,0-0.1,0-0.1-0.1c0-0.1-0.1-0.1-0.1-0.2v-0.4c0-0.1,0-0.1,0.1-0.2c0-0.1,0.1-0.1,0.1-0.1
				h5c0.1,0,0.1,0,0.2-0.1c0,0,0.1-0.1,0.1-0.2v-0.8c0-0.1,0-0.1-0.1-0.2c0,0-0.1-0.1-0.2-0.1h-5c-0.4,0-0.8,0.2-1.1,0.5
				c-0.3,0.3-0.4,0.8-0.4,1.3v0.1c0,0.5,0.1,0.9,0.4,1.3c0.3,0.3,0.6,0.5,1.1,0.5h4c0.1,0,0.1,0,0.1,0.1c0,0.1,0.1,0.1,0.1,0.2v0.4
				c0,0.1,0,0.1-0.1,0.2c0,0.1-0.1,0.1-0.1,0.1h-5c0,0-0.1,0-0.2,0.1c0,0-0.1,0.1-0.1,0.2v0.8c0,0.1,0,0.1,0.1,0.2
				c0,0,0.1,0.1,0.2,0.1h5c0.4,0,0.8-0.2,1.1-0.5c0.3-0.3,0.4-0.8,0.4-1.3v-0.1c0-0.5-0.1-0.9-0.4-1.3C49.2,13,48.9,12.8,48.5,12.8z
				"/>
			<path class="st1" d="M55.9,12.8h-4c-0.1,0-0.1,0-0.1-0.1c0-0.1-0.1-0.1-0.1-0.2v-0.4c0-0.1,0-0.1,0.1-0.2c0-0.1,0.1-0.1,0.1-0.1
				h5c0.1,0,0.1,0,0.2-0.1c0,0,0.1-0.1,0.1-0.2v-0.8c0-0.1,0-0.1-0.1-0.2c0,0-0.1-0.1-0.2-0.1h-5c-0.4,0-0.8,0.2-1.1,0.5
				c-0.3,0.3-0.4,0.8-0.4,1.3v0.1c0,0.5,0.1,0.9,0.4,1.3c0.3,0.3,0.6,0.5,1.1,0.5h4c0.1,0,0.1,0,0.1,0.1c0,0.1,0.1,0.1,0.1,0.2v0.4
				c0,0.1,0,0.1-0.1,0.2C56,15,56,15,55.9,15h-5c0,0-0.1,0-0.2,0.1c0,0-0.1,0.1-0.1,0.2v0.8c0,0.1,0,0.1,0.1,0.2
				c0,0,0.1,0.1,0.2,0.1h5c0.4,0,0.8-0.2,1.1-0.5c0.3-0.3,0.4-0.8,0.4-1.3v-0.1c0-0.5-0.1-0.9-0.4-1.3C56.7,13,56.3,12.8,55.9,12.8z
				"/>
			<path class="st3" d="M65.4,10.5h-5.2c0,0-0.1,0-0.2,0.1c0,0-0.1,0.1-0.1,0.2v5.4c0,0.1,0,0.1,0.1,0.2c0,0,0.1,0.1,0.2,0.1h5.2
				c0.4,0,0.8-0.2,1.1-0.5c0.3-0.3,0.4-0.8,0.4-1.3v-2.3c0-0.5-0.1-0.9-0.4-1.3C66.1,10.7,65.8,10.5,65.4,10.5z M61.2,11.9h4.2
				c0.1,0,0.1,0,0.2,0.1c0,0.1,0.1,0.1,0.1,0.2v2.7c0,0.1,0,0.1-0.1,0.2c0,0.1-0.1,0.1-0.2,0.1h-4.2V11.9z"/>
			<path class="st3" d="M74.2,10.5H69c-0.4,0-0.8,0.2-1.1,0.5c-0.3,0.3-0.4,0.8-0.4,1.3v2.3c0,0.5,0.1,0.9,0.4,1.3
				c0.3,0.3,0.6,0.5,1.1,0.5h5.2c0,0,0.1,0,0.2-0.1c0,0,0.1-0.1,0.1-0.2v-0.8c0-0.1,0-0.1-0.1-0.2c0,0-0.1-0.1-0.2-0.1H69
				c-0.1,0-0.1,0-0.2-0.1c0-0.1-0.1-0.1-0.1-0.2v-0.6h4.8c0,0,0.1,0,0.2-0.1c0,0,0.1-0.1,0.1-0.2V13c0-0.1,0-0.1-0.1-0.2
				c0,0-0.1-0.1-0.2-0.1h-4.8v-0.6c0-0.1,0-0.1,0.1-0.2c0-0.1,0.1-0.1,0.2-0.1h5.2c0.1,0,0.1,0,0.2-0.1c0,0,0.1-0.1,0.1-0.2v-0.8
				c0-0.1,0-0.1-0.1-0.2C74.4,10.6,74.3,10.5,74.2,10.5z"/>
			<path class="st3" d="M80.6,10.5h-4c-0.4,0-0.8,0.2-1.1,0.5c-0.3,0.3-0.4,0.8-0.4,1.3v3.9c0,0.1,0,0.1,0.1,0.2
				c0,0,0.1,0.1,0.2,0.1h0.8c0.1,0,0.1,0,0.2-0.1c0,0,0.1-0.1,0.1-0.2v-4c0-0.1,0-0.1,0.1-0.2c0-0.1,0.1-0.1,0.2-0.1h4
				c0.1,0,0.1,0,0.2,0.1c0,0.1,0.1,0.1,0.1,0.2v4c0,0.1,0,0.1,0.1,0.2c0,0,0.1,0.1,0.2,0.1h0.8c0.1,0,0.1,0,0.2-0.1
				c0,0,0.1-0.1,0.1-0.2v-3.9c0-0.5-0.1-0.9-0.4-1.3C81.4,10.7,81,10.5,80.6,10.5z"/>
			<path class="st3" d="M89.7,10.5h-6.5c0,0-0.1,0-0.2,0.1c0,0-0.1,0.1-0.1,0.2v0.8c0,0.1,0,0.1,0.1,0.2c0,0,0.1,0.1,0.2,0.1h2.6
				v4.3c0,0.1,0,0.1,0.1,0.2c0,0,0.1,0.1,0.2,0.1h0.8c0,0,0.1,0,0.2-0.1c0,0,0.1-0.1,0.1-0.2v-4.3h2.6c0.1,0,0.1,0,0.2-0.1
				c0,0,0.1-0.1,0.1-0.2v-0.8c0-0.1,0-0.1-0.1-0.2C89.8,10.6,89.7,10.5,89.7,10.5z"/>
			<path class="st3" d="M96.2,10.5h-4c-0.4,0-0.8,0.2-1.1,0.5c-0.3,0.3-0.4,0.8-0.4,1.3v3.9c0,0.1,0,0.1,0.1,0.2
				c0,0,0.1,0.1,0.2,0.1h0.8c0,0,0.1,0,0.2-0.1c0,0,0.1-0.1,0.1-0.2v-1.5h4.4v1.5c0,0.1,0,0.1,0.1,0.2c0,0,0.1,0.1,0.2,0.1h0.8
				c0,0,0.1,0,0.2-0.1c0,0,0.1-0.1,0.1-0.2v-3.9c0-0.5-0.1-0.9-0.4-1.3C96.9,10.7,96.6,10.5,96.2,10.5z M92.2,11.9h4
				c0.1,0,0.1,0,0.2,0.1c0,0.1,0.1,0.1,0.1,0.2v1.1H92v-1.1c0-0.1,0-0.1,0.1-0.2C92.1,11.9,92.2,11.9,92.2,11.9z"/>
			<path class="st3" d="M105.1,15h-5.2c-0.1,0-0.1,0-0.2-0.1c0-0.1-0.1-0.1-0.1-0.2v-4c0-0.1,0-0.1-0.1-0.2c0,0-0.1-0.1-0.2-0.1
				h-0.8c0,0-0.1,0-0.2,0.1c0,0-0.1,0.1-0.1,0.2v3.8c0,0.5,0.1,0.9,0.4,1.3c0.3,0.3,0.6,0.5,1.1,0.5h5.2c0.1,0,0.1,0,0.2-0.1
				c0,0,0.1-0.1,0.1-0.2v-0.8c0-0.1,0-0.1-0.1-0.2C105.2,15.1,105.1,15,105.1,15z"/>
			<path class="st3" d="M114.7,10.5h-5.2c-0.4,0-0.8,0.2-1.1,0.5c-0.3,0.3-0.4,0.8-0.4,1.3v2.3c0,0.5,0.1,0.9,0.4,1.3
				c0.3,0.3,0.6,0.5,1.1,0.5h5.2c0,0,0.1,0,0.2-0.1c0,0,0.1-0.1,0.1-0.2v-0.8c0-0.1,0-0.1-0.1-0.2c0,0-0.1-0.1-0.2-0.1h-5.2
				c-0.1,0-0.1,0-0.2-0.1c0-0.1-0.1-0.1-0.1-0.2v-2.7c0-0.1,0-0.1,0.1-0.2c0-0.1,0.1-0.1,0.2-0.1h5.2c0.1,0,0.1,0,0.2-0.1
				c0,0,0.1-0.1,0.1-0.2v-0.8c0-0.1,0-0.1-0.1-0.2C114.8,10.6,114.7,10.5,114.7,10.5z"/>
			<path class="st3" d="M121,10.5h-4c-0.4,0-0.8,0.2-1.1,0.5c-0.3,0.3-0.4,0.8-0.4,1.3v2.3c0,0.5,0.1,0.9,0.4,1.3
				c0.3,0.3,0.6,0.5,1.1,0.5h4c0.4,0,0.8-0.2,1.1-0.5c0.3-0.3,0.4-0.8,0.4-1.3v-2.3c0-0.5-0.1-0.9-0.4-1.3
				C121.8,10.7,121.4,10.5,121,10.5z M116.8,12.1c0-0.1,0-0.1,0.1-0.2c0-0.1,0.1-0.1,0.1-0.1h4c0.1,0,0.1,0,0.2,0.1
				c0,0.1,0.1,0.1,0.1,0.2v2.7c0,0.1,0,0.1-0.1,0.2c0,0.1-0.1,0.1-0.2,0.1h-4c-0.1,0-0.1,0-0.2-0.1c0-0.1-0.1-0.1-0.1-0.2V12.1z"/>
			<path class="st3" d="M128.6,10.5h-4c-0.4,0-0.8,0.2-1.1,0.5c-0.3,0.3-0.4,0.8-0.4,1.3v3.9c0,0.1,0,0.1,0.1,0.2
				c0,0,0.1,0.1,0.2,0.1h0.8c0.1,0,0.1,0,0.2-0.1c0,0,0.1-0.1,0.1-0.2v-4c0-0.1,0-0.1,0.1-0.2c0-0.1,0.1-0.1,0.2-0.1h4
				c0.1,0,0.1,0,0.2,0.1c0,0.1,0.1,0.1,0.1,0.2v4c0,0.1,0,0.1,0.1,0.2c0,0,0.1,0.1,0.2,0.1h0.8c0.1,0,0.1,0,0.2-0.1
				c0,0,0.1-0.1,0.1-0.2v-3.9c0-0.5-0.1-0.9-0.4-1.3C129.4,10.7,129,10.5,128.6,10.5z"/>
			<path class="st3" d="M136.2,12.8h-4c-0.1,0-0.1,0-0.1-0.1c0-0.1-0.1-0.1-0.1-0.2v-0.4c0-0.1,0-0.1,0.1-0.2c0-0.1,0.1-0.1,0.1-0.1
				h5c0.1,0,0.1,0,0.2-0.1c0,0,0.1-0.1,0.1-0.2v-0.8c0-0.1,0-0.1-0.1-0.2c0,0-0.1-0.1-0.2-0.1h-5c-0.4,0-0.8,0.2-1.1,0.5
				c-0.3,0.3-0.4,0.8-0.4,1.3v0.1c0,0.5,0.1,0.9,0.4,1.3c0.3,0.3,0.6,0.5,1.1,0.5h4c0.1,0,0.1,0,0.1,0.1c0,0.1,0.1,0.1,0.1,0.2v0.4
				c0,0.1,0,0.1-0.1,0.2c0,0.1-0.1,0.1-0.1,0.1h-5c0,0-0.1,0-0.2,0.1c0,0-0.1,0.1-0.1,0.2v0.8c0,0.1,0,0.1,0.1,0.2
				c0,0,0.1,0.1,0.2,0.1h5c0.4,0,0.8-0.2,1.1-0.5c0.3-0.3,0.4-0.8,0.4-1.3v-0.1c0-0.5-0.1-0.9-0.4-1.3C137,13,136.6,12.8,136.2,12.8
				z"/>
			<path class="st3" d="M145.5,10.5h-0.8c-0.1,0-0.1,0-0.2,0.1c0,0-0.1,0.1-0.1,0.2v4c0,0.1,0,0.1-0.1,0.2c0,0.1-0.1,0.1-0.2,0.1h-4
				c-0.1,0-0.1,0-0.2-0.1c0-0.1-0.1-0.1-0.1-0.2v-4c0-0.1,0-0.1-0.1-0.2c0,0-0.1-0.1-0.2-0.1H139c0,0-0.1,0-0.2,0.1
				c0,0-0.1,0.1-0.1,0.2v3.9c0,0.5,0.1,0.9,0.4,1.3c0.3,0.3,0.6,0.5,1.1,0.5h4c0.4,0,0.8-0.2,1.1-0.5c0.3-0.3,0.4-0.8,0.4-1.3v-3.9
				c0-0.1,0-0.1-0.1-0.2C145.6,10.6,145.5,10.5,145.5,10.5z"/>
			<path class="st3" d="M153.5,15h-5.2c-0.1,0-0.1,0-0.2-0.1c0-0.1-0.1-0.1-0.1-0.2v-4c0-0.1,0-0.1-0.1-0.2c0,0-0.1-0.1-0.2-0.1
				h-0.8c0,0-0.1,0-0.2,0.1c0,0-0.1,0.1-0.1,0.2v3.8c0,0.5,0.1,0.9,0.4,1.3c0.3,0.3,0.6,0.5,1.1,0.5h5.2c0.1,0,0.1,0,0.2-0.1
				c0,0,0.1-0.1,0.1-0.2v-0.8c0-0.1,0-0.1-0.1-0.2C153.6,15.1,153.5,15,153.5,15z"/>
			<path class="st3" d="M158.9,10.5h-6.5c0,0-0.1,0-0.2,0.1c0,0-0.1,0.1-0.1,0.2v0.8c0,0.1,0,0.1,0.1,0.2c0,0,0.1,0.1,0.2,0.1h2.6
				v4.3c0,0.1,0,0.1,0.1,0.2c0,0,0.1,0.1,0.2,0.1h0.8c0,0,0.1,0,0.2-0.1c0,0,0.1-0.1,0.1-0.2v-4.3h2.6c0.1,0,0.1,0,0.2-0.1
				c0,0,0.1-0.1,0.1-0.2v-0.8c0-0.1,0-0.1-0.1-0.2C159,10.6,159,10.5,158.9,10.5z"/>
			<path class="st3" d="M161.2,10.5h-0.8c0,0-0.1,0-0.2,0.1c0,0-0.1,0.1-0.1,0.2v5.4c0,0.1,0,0.1,0.1,0.2c0,0,0.1,0.1,0.2,0.1h0.8
				c0.1,0,0.1,0,0.2-0.1c0,0,0.1-0.1,0.1-0.2v-5.4c0-0.1,0-0.1-0.1-0.2C161.3,10.6,161.3,10.5,161.2,10.5z"/>
			<path class="st3" d="M167.9,10.5h-4c-0.4,0-0.8,0.2-1.1,0.5c-0.3,0.3-0.4,0.8-0.4,1.3v3.9c0,0.1,0,0.1,0.1,0.2
				c0,0,0.1,0.1,0.2,0.1h0.8c0.1,0,0.1,0,0.2-0.1c0,0,0.1-0.1,0.1-0.2v-4c0-0.1,0-0.1,0.1-0.2c0-0.1,0.1-0.1,0.2-0.1h4
				c0.1,0,0.1,0,0.2,0.1c0,0.1,0.1,0.1,0.1,0.2v4c0,0.1,0,0.1,0.1,0.2c0,0,0.1,0.1,0.2,0.1h0.8c0.1,0,0.1,0,0.2-0.1
				c0,0,0.1-0.1,0.1-0.2v-3.9c0-0.5-0.1-0.9-0.4-1.3C168.7,10.7,168.3,10.5,167.9,10.5z"/>
			<path class="st3" d="M171.8,12c0-0.1,0.1-0.1,0.2-0.1h5.2c0.1,0,0.1,0,0.2-0.1c0,0,0.1-0.1,0.1-0.2v-0.8c0-0.1,0-0.1-0.1-0.2
				c0,0-0.1-0.1-0.2-0.1h-5.2c-0.4,0-0.8,0.2-1.1,0.5c-0.3,0.3-0.4,0.8-0.4,1.3v2.3c0,0.5,0.1,0.9,0.4,1.3c0.3,0.3,0.6,0.5,1.1,0.5
				h4.1c0.4,0,0.7-0.2,1-0.5c0.3-0.3,0.4-0.7,0.4-1.1v-1.3c0-0.1,0-0.1-0.1-0.2c0,0-0.1-0.1-0.2-0.1h-0.8c-0.1,0-0.1,0-0.2,0.1
				c0,0-0.1,0.1-0.1,0.2v1.3c0,0.1,0,0.1-0.1,0.2c0,0.1-0.1,0.1-0.2,0.1h-4c-0.1,0-0.1,0-0.2-0.1c0-0.1-0.1-0.1-0.1-0.2v-2.7
				C171.7,12.1,171.7,12,171.8,12z"/>
		</g>
	</g>
</g>
</svg>
