<?xml version="1.0" encoding="utf-8"?>
<!-- Generator: Adobe Illustrator 24.1.2, SVG Export Plug-In . SVG Version: 6.00 Build 0)  -->
<svg version="1.1" id="Layer_1" xmlns="http://www.w3.org/2000/svg" xmlns:xlink="http://www.w3.org/1999/xlink" x="0px" y="0px"
	 viewBox="0 0 183.6 30" style="enable-background:new 0 0 183.6 30;" xml:space="preserve">
<style type="text/css">
	.st0{fill:#FFFFFF;}
	.st1{fill:#EA0029;}
	.st2{fill:#59637F;}
	.st3{fill:#011E41;}
</style>
<g>
	<g>
		<circle class="st0" cx="9.4" cy="11" r="3.6"/>
		<circle class="st0" cx="17.3" cy="11" r="3.6"/>
		<circle class="st0" cx="9.4" cy="19" r="3.6"/>
		<circle class="st0" cx="17.3" cy="19" r="3.6"/>
	</g>
	<g>
		<path class="st0" d="M28.7,19c0.3,0,0.5,0,0.6,0.2c0.1,0.1,0.2,0.2,0.2,0.5v0.9c0,0.2-0.1,0.4-0.2,0.5c-0.1,0.1-0.3,0.2-0.6,0.2
			h-1.9V19H28.7z M27.5,20.7h1.1c0.2,0,0.2,0,0.2-0.2v-0.9c0-0.1-0.1-0.2-0.2-0.2h-1.1V20.7z"/>
		<path class="st0" d="M32.5,19.5v0.4h1.7l-0.1,0.5h-1.6v0.4h1.8v0.5h-2.4V19h2.3v0.5H32.5z"/>
		<path class="st0" d="M37.1,21.2h-0.7V19h0.7l1.3,1.5V19h0.7v2.2h-0.7v0l-1.3-1.5V21.2z"/>
		<path class="st0" d="M42.8,21.2h-0.7v-1.7h-1V19h2.7v0.5h-1V21.2z"/>
		<path class="st0" d="M46,20.8l-0.2,0.4H45l1.4-2.2h0.6l1.3,2.2h-0.8l-0.2-0.4H46z M46.6,19.7l-0.4,0.6H47L46.6,19.7z"/>
		<path class="st0" d="M50.9,19v1.7h1.6l-0.1,0.5h-2.2V19H50.9z"/>
		<path class="st0" d="M59.7,19h0.7v2.2h-0.7v-1.4l-0.9,0.8L58,19.8v1.4h-0.7V19H58l0.9,0.8L59.7,19z"/>
		<path class="st0" d="M63.4,19.5v0.4h1.7L65,20.3h-1.6v0.4h1.8v0.5h-2.4V19h2.3v0.5H63.4z"/>
		<path class="st0" d="M69.3,19c0.3,0,0.5,0,0.6,0.2c0.1,0.1,0.2,0.2,0.2,0.5v0.9c0,0.2-0.1,0.4-0.2,0.5c-0.1,0.1-0.3,0.2-0.6,0.2
			h-1.9V19H69.3z M68,20.7h1.1c0.2,0,0.2,0,0.2-0.2v-0.9c0-0.1-0.1-0.2-0.2-0.2H68V20.7z"/>
		<path class="st0" d="M73,21.2h-0.7V19H73V21.2z"/>
		<path class="st0" d="M78,20.6c0,0.2-0.1,0.3-0.2,0.4c-0.1,0.1-0.3,0.2-0.6,0.2h-1.1c-0.3,0-0.5,0-0.6-0.2
			c-0.1-0.1-0.2-0.2-0.2-0.5v-0.9c0-0.2,0.1-0.4,0.2-0.5c0.1-0.1,0.3-0.2,0.6-0.2h1.1c0.3,0,0.5,0,0.6,0.2c0.1,0.1,0.2,0.2,0.2,0.4
			l-0.7,0.1c0-0.1,0-0.2-0.2-0.2h-0.9c-0.2,0-0.2,0-0.2,0.2v0.9c0,0.1,0.1,0.2,0.2,0.2h0.9c0.2,0,0.2,0,0.2-0.2L78,20.6z"/>
		<path class="st0" d="M80.9,20.8l-0.2,0.4h-0.8l1.4-2.2h0.6l1.3,2.2h-0.8l-0.2-0.4H80.9z M81.6,19.7l-0.4,0.6h0.7L81.6,19.7z"/>
		<path class="st0" d="M85.8,19v1.7h1.6l-0.1,0.5h-2.2V19H85.8z"/>
		<path class="st0" d="M92.9,21.2h-0.7V19h0.7v0.8h0.3L94,19h0.8l-1.1,1.1l1.1,1.1H94l-0.8-0.8h-0.3V21.2z"/>
		<path class="st0" d="M97.4,21.2h-0.7V19h0.7l1.3,0.9V19h0.7v2.2h-0.7v-0.6l-1.3-0.9V21.2z"/>
		<path class="st0" d="M104.4,20.5c0,0.2-0.1,0.4-0.2,0.5c-0.1,0.1-0.3,0.2-0.6,0.2h-1.1c-0.3,0-0.5,0-0.6-0.2
			c-0.1-0.1-0.2-0.2-0.2-0.5v-0.9c0-0.2,0.1-0.4,0.2-0.5c0.1-0.1,0.3-0.2,0.6-0.2h1.1c0.3,0,0.5,0,0.6,0.2c0.1,0.1,0.2,0.2,0.2,0.5
			V20.5z M102.7,19.5c-0.2,0-0.2,0-0.2,0.2v0.9c0,0.1,0.1,0.2,0.2,0.2h0.9c0.2,0,0.2,0,0.2-0.2v-0.9c0-0.1,0-0.2-0.2-0.2H102.7z"/>
		<path class="st0" d="M108.2,21.2h-0.6l-1.3-2.2h0.8l0.8,1.5l0.3-0.7l-0.5-0.8h0.8l0.8,1.5l0.8-1.5h0.8l-1.3,2.2H109l-0.4-0.7
			L108.2,21.2z"/>
		<path class="st0" d="M113.6,19v1.7h1.6l-0.1,0.5h-2.2V19H113.6z"/>
		<path class="st0" d="M117.8,19.5v0.4h1.7l-0.1,0.5h-1.6v0.4h1.8v0.5h-2.4V19h2.3v0.5H117.8z"/>
		<path class="st0" d="M123.6,19c0.3,0,0.5,0,0.6,0.2c0.1,0.1,0.2,0.2,0.2,0.5v0.9c0,0.2-0.1,0.4-0.2,0.5c-0.1,0.1-0.3,0.2-0.6,0.2
			h-1.9V19H123.6z M122.4,20.7h1.1c0.2,0,0.2,0,0.2-0.2v-0.9c0-0.1-0.1-0.2-0.2-0.2h-1.1V20.7z"/>
		<path class="st0" d="M128.7,19.7c0-0.1-0.1-0.2-0.2-0.2h-0.9c-0.2,0-0.2,0-0.2,0.2v0.9c0,0.1,0.1,0.2,0.2,0.2h0.9
			c0.2,0,0.2,0,0.2-0.2v-0.2H128l0.1-0.5h1.3v0.7c0,0.3-0.1,0.4-0.2,0.5c-0.1,0.1-0.3,0.2-0.6,0.2h-1.1c-0.3,0-0.5,0-0.6-0.2
			c-0.1-0.1-0.2-0.2-0.2-0.5v-0.9c0-0.2,0.1-0.4,0.2-0.5c0.1-0.1,0.3-0.2,0.6-0.2h1.1c0.3,0,0.5,0,0.6,0.2c0.1,0.1,0.2,0.2,0.2,0.4
			L128.7,19.7z"/>
		<path class="st0" d="M132.3,19.5v0.4h1.7l-0.1,0.5h-1.6v0.4h1.8v0.5h-2.4V19h2.3v0.5H132.3z"/>
	</g>
	<path class="st0" d="M31.5,12.8h-4c-0.1,0-0.1,0-0.1-0.1c0-0.1-0.1-0.1-0.1-0.2v-0.4c0-0.1,0-0.1,0.1-0.2c0-0.1,0.1-0.1,0.1-0.1h5
		c0.1,0,0.1,0,0.2-0.1c0,0,0.1-0.1,0.1-0.2v-0.8c0-0.1,0-0.1-0.1-0.2c0,0-0.1-0.1-0.2-0.1h-5c-0.4,0-0.8,0.2-1.1,0.5
		c-0.3,0.3-0.4,0.8-0.4,1.3v0.1c0,0.5,0.1,0.9,0.4,1.3c0.3,0.3,0.6,0.5,1.1,0.5h4c0.1,0,0.1,0,0.1,0.1c0,0.1,0.1,0.1,0.1,0.2v0.4
		c0,0.1,0,0.1-0.1,0.2c0,0.1-0.1,0.1-0.1,0.1h-5c0,0-0.1,0-0.2,0.1c0,0-0.1,0.1-0.1,0.2v0.8c0,0.1,0,0.1,0.1,0.2
		c0,0,0.1,0.1,0.2,0.1h5c0.4,0,0.8-0.2,1.1-0.5c0.3-0.3,0.4-0.8,0.4-1.3v-0.1c0-0.5-0.1-0.9-0.4-1.3C32.3,13,31.9,12.8,31.5,12.8z"
		/>
	<path class="st0" d="M40.7,10.5h-0.8c-0.1,0-0.1,0-0.2,0.1c0,0-0.1,0.1-0.1,0.2v4c0,0.1,0,0.1-0.1,0.2c0,0.1-0.1,0.1-0.2,0.1h-1.5
		v-4.3c0-0.1,0-0.1-0.1-0.2c0,0-0.1-0.1-0.2-0.1h-0.8c-0.1,0-0.1,0-0.2,0.1c0,0-0.1,0.1-0.1,0.2V15h-1.5c-0.1,0-0.1,0-0.2-0.1
		c0-0.1-0.1-0.1-0.1-0.2v-4c0-0.1,0-0.1-0.1-0.2c0,0-0.1-0.1-0.2-0.1h-0.8c-0.1,0-0.1,0-0.2,0.1c0,0-0.1,0.1-0.1,0.2v3.9
		c0,0.5,0.1,0.9,0.4,1.3c0.3,0.3,0.6,0.5,1.1,0.5h4.2c0.4,0,0.8-0.2,1.1-0.5c0.3-0.3,0.4-0.8,0.4-1.3v-3.9c0-0.1,0-0.1-0.1-0.2
		C40.8,10.6,40.7,10.5,40.7,10.5z"/>
	<path class="st0" d="M42.6,10.5h-0.8c0,0-0.1,0-0.2,0.1c0,0-0.1,0.1-0.1,0.2v5.4c0,0.1,0,0.1,0.1,0.2c0,0,0.1,0.1,0.2,0.1h0.8
		c0.1,0,0.1,0,0.2-0.1c0,0,0.1-0.1,0.1-0.2v-5.4c0-0.1,0-0.1-0.1-0.2C42.8,10.6,42.7,10.5,42.6,10.5z"/>
	<path class="st0" d="M49,12.8h-4c-0.1,0-0.1,0-0.1-0.1c0-0.1-0.1-0.1-0.1-0.2v-0.4c0-0.1,0-0.1,0.1-0.2c0-0.1,0.1-0.1,0.1-0.1h5
		c0.1,0,0.1,0,0.2-0.1c0,0,0.1-0.1,0.1-0.2v-0.8c0-0.1,0-0.1-0.1-0.2c0,0-0.1-0.1-0.2-0.1h-5c-0.4,0-0.8,0.2-1.1,0.5
		c-0.3,0.3-0.4,0.8-0.4,1.3v0.1c0,0.5,0.1,0.9,0.4,1.3c0.3,0.3,0.6,0.5,1.1,0.5h4c0.1,0,0.1,0,0.1,0.1c0,0.1,0.1,0.1,0.1,0.2v0.4
		c0,0.1,0,0.1-0.1,0.2C49.1,15,49,15,49,15h-5c0,0-0.1,0-0.2,0.1c0,0-0.1,0.1-0.1,0.2v0.8c0,0.1,0,0.1,0.1,0.2c0,0,0.1,0.1,0.2,0.1
		h5c0.4,0,0.8-0.2,1.1-0.5c0.3-0.3,0.4-0.8,0.4-1.3v-0.1c0-0.5-0.1-0.9-0.4-1.3C49.7,13,49.4,12.8,49,12.8z"/>
	<path class="st0" d="M56.4,12.8h-4c-0.1,0-0.1,0-0.1-0.1c0-0.1-0.1-0.1-0.1-0.2v-0.4c0-0.1,0-0.1,0.1-0.2c0-0.1,0.1-0.1,0.1-0.1h5
		c0.1,0,0.1,0,0.2-0.1c0,0,0.1-0.1,0.1-0.2v-0.8c0-0.1,0-0.1-0.1-0.2c0,0-0.1-0.1-0.2-0.1h-5c-0.4,0-0.8,0.2-1.1,0.5
		c-0.3,0.3-0.4,0.8-0.4,1.3v0.1c0,0.5,0.1,0.9,0.4,1.3c0.3,0.3,0.6,0.5,1.1,0.5h4c0.1,0,0.1,0,0.1,0.1c0,0.1,0.1,0.1,0.1,0.2v0.4
		c0,0.1,0,0.1-0.1,0.2c0,0.1-0.1,0.1-0.1,0.1h-5c0,0-0.1,0-0.2,0.1c0,0-0.1,0.1-0.1,0.2v0.8c0,0.1,0,0.1,0.1,0.2
		c0,0,0.1,0.1,0.2,0.1h5c0.4,0,0.8-0.2,1.1-0.5c0.3-0.3,0.4-0.8,0.4-1.3v-0.1c0-0.5-0.1-0.9-0.4-1.3C57.2,13,56.8,12.8,56.4,12.8z"
		/>
	<path class="st0" d="M65.8,10.5h-5.2c0,0-0.1,0-0.2,0.1c0,0-0.1,0.1-0.1,0.2v5.4c0,0.1,0,0.1,0.1,0.2c0,0,0.1,0.1,0.2,0.1h5.2
		c0.4,0,0.8-0.2,1.1-0.5c0.3-0.3,0.4-0.8,0.4-1.3v-2.3c0-0.5-0.1-0.9-0.4-1.3C66.6,10.7,66.3,10.5,65.8,10.5z M61.7,11.9h4.2
		c0.1,0,0.1,0,0.2,0.1c0,0.1,0.1,0.1,0.1,0.2v2.7c0,0.1,0,0.1-0.1,0.2c0,0.1-0.1,0.1-0.2,0.1h-4.2V11.9z"/>
	<path class="st0" d="M74.7,10.5h-5.2c-0.4,0-0.8,0.2-1.1,0.5c-0.3,0.3-0.4,0.8-0.4,1.3v2.3c0,0.5,0.1,0.9,0.4,1.3
		c0.3,0.3,0.6,0.5,1.1,0.5h5.2c0,0,0.1,0,0.2-0.1c0,0,0.1-0.1,0.1-0.2v-0.8c0-0.1,0-0.1-0.1-0.2c0,0-0.1-0.1-0.2-0.1h-5.2
		c-0.1,0-0.1,0-0.2-0.1c0-0.1-0.1-0.1-0.1-0.2v-0.6h4.8c0,0,0.1,0,0.2-0.1c0,0,0.1-0.1,0.1-0.2V13c0-0.1,0-0.1-0.1-0.2
		c0,0-0.1-0.1-0.2-0.1h-4.8v-0.6c0-0.1,0-0.1,0.1-0.2c0-0.1,0.1-0.1,0.2-0.1h5.2c0.1,0,0.1,0,0.2-0.1c0,0,0.1-0.1,0.1-0.2v-0.8
		c0-0.1,0-0.1-0.1-0.2C74.9,10.6,74.8,10.5,74.7,10.5z"/>
	<path class="st0" d="M81.1,10.5h-4c-0.4,0-0.8,0.2-1.1,0.5c-0.3,0.3-0.4,0.8-0.4,1.3v3.9c0,0.1,0,0.1,0.1,0.2c0,0,0.1,0.1,0.2,0.1
		h0.8c0.1,0,0.1,0,0.2-0.1c0,0,0.1-0.1,0.1-0.2v-4c0-0.1,0-0.1,0.1-0.2c0-0.1,0.1-0.1,0.2-0.1h4c0.1,0,0.1,0,0.2,0.1
		c0,0.1,0.1,0.1,0.1,0.2v4c0,0.1,0,0.1,0.1,0.2c0,0,0.1,0.1,0.2,0.1h0.8c0.1,0,0.1,0,0.2-0.1c0,0,0.1-0.1,0.1-0.2v-3.9
		c0-0.5-0.1-0.9-0.4-1.3C81.9,10.7,81.5,10.5,81.1,10.5z"/>
	<path class="st0" d="M90.2,10.5h-6.5c0,0-0.1,0-0.2,0.1c0,0-0.1,0.1-0.1,0.2v0.8c0,0.1,0,0.1,0.1,0.2c0,0,0.1,0.1,0.2,0.1h2.6v4.3
		c0,0.1,0,0.1,0.1,0.2c0,0,0.1,0.1,0.2,0.1h0.8c0,0,0.1,0,0.2-0.1c0,0,0.1-0.1,0.1-0.2v-4.3h2.6c0.1,0,0.1,0,0.2-0.1
		c0,0,0.1-0.1,0.1-0.2v-0.8c0-0.1,0-0.1-0.1-0.2C90.3,10.6,90.2,10.5,90.2,10.5z"/>
	<path class="st0" d="M96.7,10.5h-4c-0.4,0-0.8,0.2-1.1,0.5c-0.3,0.3-0.4,0.8-0.4,1.3v3.9c0,0.1,0,0.1,0.1,0.2c0,0,0.1,0.1,0.2,0.1
		h0.8c0,0,0.1,0,0.2-0.1c0,0,0.1-0.1,0.1-0.2v-1.5h4.4v1.5c0,0.1,0,0.1,0.1,0.2c0,0,0.1,0.1,0.2,0.1H98c0,0,0.1,0,0.2-0.1
		c0,0,0.1-0.1,0.1-0.2v-3.9c0-0.5-0.1-0.9-0.4-1.3C97.4,10.7,97.1,10.5,96.7,10.5z M92.7,11.9h4c0.1,0,0.1,0,0.2,0.1
		c0,0.1,0.1,0.1,0.1,0.2v1.1h-4.4v-1.1c0-0.1,0-0.1,0.1-0.2C92.6,11.9,92.7,11.9,92.7,11.9z"/>
	<path class="st0" d="M105.6,15h-5.2c-0.1,0-0.1,0-0.2-0.1c0-0.1-0.1-0.1-0.1-0.2v-4c0-0.1,0-0.1-0.1-0.2c0,0-0.1-0.1-0.2-0.1H99
		c0,0-0.1,0-0.2,0.1c0,0-0.1,0.1-0.1,0.2v3.8c0,0.5,0.1,0.9,0.4,1.3c0.3,0.3,0.6,0.5,1.1,0.5h5.2c0.1,0,0.1,0,0.2-0.1
		c0,0,0.1-0.1,0.1-0.2v-0.8c0-0.1,0-0.1-0.1-0.2C105.7,15.1,105.6,15,105.6,15z"/>
	<path class="st0" d="M115.1,10.5h-5.2c-0.4,0-0.8,0.2-1.1,0.5c-0.3,0.3-0.4,0.8-0.4,1.3v2.3c0,0.5,0.1,0.9,0.4,1.3
		c0.3,0.3,0.6,0.5,1.1,0.5h5.2c0,0,0.1,0,0.2-0.1c0,0,0.1-0.1,0.1-0.2v-0.8c0-0.1,0-0.1-0.1-0.2c0,0-0.1-0.1-0.2-0.1h-5.2
		c-0.1,0-0.1,0-0.2-0.1c0-0.1-0.1-0.1-0.1-0.2v-2.7c0-0.1,0-0.1,0.1-0.2c0-0.1,0.1-0.1,0.2-0.1h5.2c0.1,0,0.1,0,0.2-0.1
		c0,0,0.1-0.1,0.1-0.2v-0.8c0-0.1,0-0.1-0.1-0.2C115.3,10.6,115.2,10.5,115.1,10.5z"/>
	<path class="st0" d="M121.5,10.5h-4c-0.4,0-0.8,0.2-1.1,0.5c-0.3,0.3-0.4,0.8-0.4,1.3v2.3c0,0.5,0.1,0.9,0.4,1.3
		c0.3,0.3,0.6,0.5,1.1,0.5h4c0.4,0,0.8-0.2,1.1-0.5c0.3-0.3,0.4-0.8,0.4-1.3v-2.3c0-0.5-0.1-0.9-0.4-1.3
		C122.3,10.7,121.9,10.5,121.5,10.5z M117.3,12.1c0-0.1,0-0.1,0.1-0.2c0-0.1,0.1-0.1,0.1-0.1h4c0.1,0,0.1,0,0.2,0.1
		c0,0.1,0.1,0.1,0.1,0.2v2.7c0,0.1,0,0.1-0.1,0.2c0,0.1-0.1,0.1-0.2,0.1h-4c-0.1,0-0.1,0-0.2-0.1c0-0.1-0.1-0.1-0.1-0.2V12.1z"/>
	<path class="st0" d="M129.1,10.5h-4c-0.4,0-0.8,0.2-1.1,0.5c-0.3,0.3-0.4,0.8-0.4,1.3v3.9c0,0.1,0,0.1,0.1,0.2c0,0,0.1,0.1,0.2,0.1
		h0.8c0.1,0,0.1,0,0.2-0.1c0,0,0.1-0.1,0.1-0.2v-4c0-0.1,0-0.1,0.1-0.2c0-0.1,0.1-0.1,0.2-0.1h4c0.1,0,0.1,0,0.2,0.1
		c0,0.1,0.1,0.1,0.1,0.2v4c0,0.1,0,0.1,0.1,0.2c0,0,0.1,0.1,0.2,0.1h0.8c0.1,0,0.1,0,0.2-0.1c0,0,0.1-0.1,0.1-0.2v-3.9
		c0-0.5-0.1-0.9-0.4-1.3C129.9,10.7,129.5,10.5,129.1,10.5z"/>
	<path class="st0" d="M136.7,12.8h-4c-0.1,0-0.1,0-0.1-0.1c0-0.1-0.1-0.1-0.1-0.2v-0.4c0-0.1,0-0.1,0.1-0.2c0-0.1,0.1-0.1,0.1-0.1h5
		c0.1,0,0.1,0,0.2-0.1c0,0,0.1-0.1,0.1-0.2v-0.8c0-0.1,0-0.1-0.1-0.2c0,0-0.1-0.1-0.2-0.1h-5c-0.4,0-0.8,0.2-1.1,0.5
		c-0.3,0.3-0.4,0.8-0.4,1.3v0.1c0,0.5,0.1,0.9,0.4,1.3c0.3,0.3,0.6,0.5,1.1,0.5h4c0.1,0,0.1,0,0.1,0.1c0,0.1,0.1,0.1,0.1,0.2v0.4
		c0,0.1,0,0.1-0.1,0.2c0,0.1-0.1,0.1-0.1,0.1h-5c0,0-0.1,0-0.2,0.1c0,0-0.1,0.1-0.1,0.2v0.8c0,0.1,0,0.1,0.1,0.2
		c0,0,0.1,0.1,0.2,0.1h5c0.4,0,0.8-0.2,1.1-0.5c0.3-0.3,0.4-0.8,0.4-1.3v-0.1c0-0.5-0.1-0.9-0.4-1.3C137.5,13,137.1,12.8,136.7,12.8
		z"/>
	<path class="st0" d="M146,10.5h-0.8c-0.1,0-0.1,0-0.2,0.1c0,0-0.1,0.1-0.1,0.2v4c0,0.1,0,0.1-0.1,0.2c0,0.1-0.1,0.1-0.2,0.1h-4
		c-0.1,0-0.1,0-0.2-0.1c0-0.1-0.1-0.1-0.1-0.2v-4c0-0.1,0-0.1-0.1-0.2c0,0-0.1-0.1-0.2-0.1h-0.8c0,0-0.1,0-0.2,0.1
		c0,0-0.1,0.1-0.1,0.2v3.9c0,0.5,0.1,0.9,0.4,1.3c0.3,0.3,0.6,0.5,1.1,0.5h4c0.4,0,0.8-0.2,1.1-0.5c0.3-0.3,0.4-0.8,0.4-1.3v-3.9
		c0-0.1,0-0.1-0.1-0.2C146.1,10.6,146,10.5,146,10.5z"/>
	<path class="st0" d="M154,15h-5.2c-0.1,0-0.1,0-0.2-0.1c0-0.1-0.1-0.1-0.1-0.2v-4c0-0.1,0-0.1-0.1-0.2c0,0-0.1-0.1-0.2-0.1h-0.8
		c0,0-0.1,0-0.2,0.1c0,0-0.1,0.1-0.1,0.2v3.8c0,0.5,0.1,0.9,0.4,1.3c0.3,0.3,0.6,0.5,1.1,0.5h5.2c0.1,0,0.1,0,0.2-0.1
		c0,0,0.1-0.1,0.1-0.2v-0.8c0-0.1,0-0.1-0.1-0.2C154.1,15.1,154,15,154,15z"/>
	<path class="st0" d="M159.4,10.5h-6.5c0,0-0.1,0-0.2,0.1c0,0-0.1,0.1-0.1,0.2v0.8c0,0.1,0,0.1,0.1,0.2c0,0,0.1,0.1,0.2,0.1h2.6v4.3
		c0,0.1,0,0.1,0.1,0.2c0,0,0.1,0.1,0.2,0.1h0.8c0,0,0.1,0,0.2-0.1c0,0,0.1-0.1,0.1-0.2v-4.3h2.6c0.1,0,0.1,0,0.2-0.1
		c0,0,0.1-0.1,0.1-0.2v-0.8c0-0.1,0-0.1-0.1-0.2C159.5,10.6,159.4,10.5,159.4,10.5z"/>
	<path class="st0" d="M161.7,10.5h-0.8c0,0-0.1,0-0.2,0.1c0,0-0.1,0.1-0.1,0.2v5.4c0,0.1,0,0.1,0.1,0.2c0,0,0.1,0.1,0.2,0.1h0.8
		c0.1,0,0.1,0,0.2-0.1c0,0,0.1-0.1,0.1-0.2v-5.4c0-0.1,0-0.1-0.1-0.2C161.8,10.6,161.7,10.5,161.7,10.5z"/>
	<path class="st0" d="M168.4,10.5h-4c-0.4,0-0.8,0.2-1.1,0.5c-0.3,0.3-0.4,0.8-0.4,1.3v3.9c0,0.1,0,0.1,0.1,0.2c0,0,0.1,0.1,0.2,0.1
		h0.8c0.1,0,0.1,0,0.2-0.1c0,0,0.1-0.1,0.1-0.2v-4c0-0.1,0-0.1,0.1-0.2c0-0.1,0.1-0.1,0.2-0.1h4c0.1,0,0.1,0,0.2,0.1
		c0,0.1,0.1,0.1,0.1,0.2v4c0,0.1,0,0.1,0.1,0.2c0,0,0.1,0.1,0.2,0.1h0.8c0.1,0,0.1,0,0.2-0.1c0,0,0.1-0.1,0.1-0.2v-3.9
		c0-0.5-0.1-0.9-0.4-1.3C169.2,10.7,168.8,10.5,168.4,10.5z"/>
	<path class="st0" d="M172.3,12c0-0.1,0.1-0.1,0.2-0.1h5.2c0.1,0,0.1,0,0.2-0.1c0,0,0.1-0.1,0.1-0.2v-0.8c0-0.1,0-0.1-0.1-0.2
		c0,0-0.1-0.1-0.2-0.1h-5.2c-0.4,0-0.8,0.2-1.1,0.5c-0.3,0.3-0.4,0.8-0.4,1.3v2.3c0,0.5,0.1,0.9,0.4,1.3c0.3,0.3,0.6,0.5,1.1,0.5
		h4.1c0.4,0,0.7-0.2,1-0.5c0.3-0.3,0.4-0.7,0.4-1.1v-1.3c0-0.1,0-0.1-0.1-0.2c0,0-0.1-0.1-0.2-0.1h-0.8c-0.1,0-0.1,0-0.2,0.1
		c0,0-0.1,0.1-0.1,0.2v1.3c0,0.1,0,0.1-0.1,0.2c0,0.1-0.1,0.1-0.2,0.1h-4c-0.1,0-0.1,0-0.2-0.1c0-0.1-0.1-0.1-0.1-0.2v-2.7
		C172.2,12.1,172.2,12,172.3,12z"/>
</g>
</svg>
