<?xml version="1.0" encoding="UTF-8"?>
<svg width="290px" height="61px" viewBox="0 0 290 61" version="1.1" xmlns="http://www.w3.org/2000/svg" xmlns:xlink="http://www.w3.org/1999/xlink">
    <!-- Generator: sketchtool 53 (72520) - https://sketchapp.com -->
    <title>0DE51BBF-A535-49A2-B298-9D457986DD75</title>
    <desc>Created with sketchtool.</desc>
    <defs>
        <polygon id="path-1" points="0 0.385491134 56.3290147 0.385491134 56.3290147 39.9950954 0 39.9950954"></polygon>
    </defs>
    <g id="Page-1" stroke="none" stroke-width="1" fill="none" fill-rule="evenodd">
        <g id="SDC-Proposta-v2" transform="translate(-260.000000, -21.000000)">
            <g id="ic-logo-SDC" transform="translate(260.000000, 21.000000)">
                <g id="Group-10" transform="translate(0.000000, 0.153421)">
                    <path d="M289.481672,6.74832887 C289.481672,5.59740017 289.203378,4.53367935 288.646791,3.55770473 C288.090204,2.58119178 287.332479,1.80870222 286.374149,1.23915939 C285.415286,0.670154884 284.361176,0.38538347 283.210754,0.38538347 C282.048094,0.38538347 280.987066,0.676076407 280.028736,1.2580006 C279.069873,1.8399248 278.312681,2.62210412 277.756094,3.60453859 C277.199506,4.58697305 276.921213,5.64746395 276.921213,6.78601129 C276.921213,7.92455862 277.196314,8.9818196 277.746516,9.95779422 C278.296717,10.9337688 279.051782,11.7100266 280.010112,12.285491 C280.968442,12.8609554 282.023084,13.1489567 283.173506,13.1489567 C284.336167,13.1489567 285.399855,12.8577254 286.364571,12.2758012 C287.329286,11.6944154 288.090204,10.912236 288.646791,9.92980157 C289.203378,8.94736711 289.481672,7.88687621 289.481672,6.74832887 M288.57336,6.74725223 C288.57336,7.72053525 288.336039,8.62491327 287.861928,9.45984799 C287.387286,10.295321 286.737048,10.95584 285.911745,11.4424815 C285.08591,11.929123 284.172809,12.1724437 283.17191,12.1724437 C282.184314,12.1724437 281.280791,11.929123 280.461873,11.4424815 C279.642956,10.95584 278.999103,10.3017809 278.531378,9.47976584 C278.063121,8.65775081 277.828993,7.76037095 277.828993,6.78654961 C277.828993,5.81380491 278.066314,4.9126568 278.540956,4.08418193 C279.015598,3.25570706 279.665305,2.59464979 280.491139,2.10154844 C281.316442,1.60844709 282.223158,1.36189641 283.211286,1.36189641 C284.198883,1.36189641 285.102406,1.60521716 285.921323,2.09185867 C286.740772,2.57850018 287.387286,3.23309761 287.861928,4.05457432 C288.336039,4.87658935 288.57336,5.77396921 288.57336,6.74725223" id="Fill-1" fill="#EC0000"></path>
                    <path d="M281.589947,9.84232453 L281.979451,7.36766632 C282.256149,7.38381593 282.741965,7.4069637 283.056974,7.4069637 L283.095818,7.4069637 L284.028075,9.84232453 L284.991194,9.84232453 L283.973268,7.32890726 C284.815598,7.16148966 285.416883,6.68346128 285.5978,5.53091762 C285.624406,5.36888322 285.636644,5.22030683 285.636644,5.0841118 C285.636644,3.89550068 284.704919,3.69147731 283.568332,3.69147731 C282.914369,3.69147731 282.224754,3.75446078 281.705947,3.84328362 L280.76624,9.84232453 L281.589947,9.84232453 Z M282.085873,6.68076968 L282.437066,4.43382094 C282.80635,4.38375715 283.188938,4.36060938 283.495965,4.36060938 C284.428222,4.36060938 284.805488,4.60339182 284.805488,5.21492363 C284.805488,5.30912967 284.796974,5.4162554 284.779415,5.52822601 C284.629892,6.48482111 284.040314,6.72760354 283.093158,6.72760354 C282.777617,6.72760354 282.465268,6.72491194 282.085873,6.68076968 L282.085873,6.68076968 Z" id="Fill-3" fill="#EC0000"></path>
                    <path d="M6.30976147,49.9366862 L6.63488073,48.7405386 C6.0953211,48.5973454 5.34557798,48.4929113 4.47717431,48.4929113 C1.60697248,48.4929113 0.673651376,49.8903906 0.17240367,53.0955494 C0.0611926606,53.7959041 0,54.4117425 0,54.9457562 C0,56.8427967 0.792311927,57.6981876 3.03462385,57.6981876 C3.90302752,57.6981876 4.6873578,57.5937535 5.2726789,57.4505603 L5.32269725,56.2544127 C4.76398165,56.3432355 4.1706789,56.4013741 3.57790826,56.4013741 C1.96295413,56.4013741 1.55748624,55.7392402 1.55748624,54.7056653 C1.55748624,54.2373267 1.64155963,53.6920083 1.73361468,53.0955494 C2.03212844,51.1909724 2.26891743,49.7902631 4.61445872,49.7902631 C5.20776147,49.7902631 5.78190826,49.8478633 6.30976147,49.9366862 L6.30976147,49.9366862 Z M6.93711927,54.1560403 C6.87220183,54.5667787 6.83761468,54.9532926 6.83761468,55.3134289 C6.83761468,56.7426692 7.41921101,57.6981876 9.21029358,57.6981876 C10.4958716,57.6981876 11.3914128,57.5662991 12.1337064,57.4462537 L12.1831927,56.350772 C11.4866606,56.4401332 10.652844,56.528956 9.76102752,56.528956 C8.816,56.528956 8.21897248,56.2737922 8.21897248,55.2208378 C8.21897248,55.1201719 8.22322936,55.007663 8.23440367,54.8913858 L9.42047706,54.8375538 C10.3506055,54.7950265 11.9692844,54.6324538 12.7536147,54.4930288 C12.7956514,54.3186131 12.8259817,54.1485039 12.8531193,53.9821629 C12.9180367,53.5563516 12.9600734,53.1649928 12.9600734,52.8091631 C12.9600734,51.4423679 12.3710275,50.618738 10.4650092,50.618738 C8.24238532,50.618738 7.32768807,51.6555428 6.93711927,54.1560403 L6.93711927,54.1560403 Z M8.35306422,53.8890335 C8.54834862,52.6422838 8.88517431,51.7249861 10.2931376,51.7249861 C11.2152844,51.7249861 11.5632844,52.1201131 11.5632844,52.8554586 C11.5632844,53.0061883 11.5478532,53.168761 11.5212477,53.346945 C11.5058165,53.4363062 11.4829358,53.5800377 11.4563303,53.6683222 C10.9816881,53.7339973 10.2048073,53.8002107 9.70781651,53.8233584 L8.35306422,53.8890335 Z M20.184,53.1843723 C20.2340183,52.8673017 20.2680734,52.565304 20.2680734,52.2864541 C20.2680734,51.302943 19.8242936,50.618738 17.9954312,50.618738 C16.7290092,50.618738 15.703633,50.8389109 14.8847156,51.2216566 C14.7814862,51.6399315 14.7011376,52.0345202 14.6282385,52.4877859 L13.8284771,57.6050582 L15.2518716,57.6050582 L15.9829908,52.936745 C16.0324771,52.6272108 16.0936697,52.2902223 16.1665688,52.0113724 C16.4799817,51.8568745 16.9929358,51.7793564 17.4212844,51.7793564 C18.4892294,51.7793564 18.7914679,52.0619746 18.7914679,52.7084972 C18.7914679,52.8904494 18.7685872,53.1030859 18.7302752,53.3431768 L18.0646055,57.6050582 L19.4917248,57.6050582 L20.184,53.1843723 Z M23.0919817,49.0043155 L22.8243303,50.7107907 L21.6951927,50.7107907 L21.5233211,51.8025042 L22.6519266,51.8025042 L22.0245688,55.8167583 C21.9979633,55.9987106 21.9825321,56.1688198 21.9825321,56.323856 C21.9825321,57.2529968 22.499211,57.6981876 23.6581468,57.6981876 C23.9646422,57.6981876 24.3621284,57.6518921 24.6797982,57.5975217 L24.7372661,56.5445673 C24.5691193,56.555872 24.4046972,56.5644852 24.2285688,56.5644852 C23.7044404,56.5644852 23.4479633,56.4169854 23.4479633,55.9599515 C23.4479633,55.8824334 23.4554128,55.7898423 23.470844,55.6929447 L24.0790459,51.8025042 L25.4683853,51.8025042 L25.6402569,50.7107907 L24.2514495,50.7107907 L24.5574128,48.7636864 L23.0919817,49.0043155 Z M27.438789,57.6050582 L28.1693761,52.9442814 C28.2193945,52.6347473 28.2805872,52.2977588 28.3566789,52.0194473 C28.6668991,51.864411 29.183578,51.7874312 29.6119266,51.7874312 C29.7992294,51.7874312 29.971633,51.7949677 30.1168991,51.8143472 L30.4116881,50.6451156 C30.2201284,50.6257361 30.0136697,50.618738 29.7955046,50.618738 C28.9191193,50.618738 27.8900183,50.7883088 27.0748257,51.2216566 C26.9715963,51.6399315 26.8912477,52.0345202 26.8188807,52.4877859 L26.0191193,57.6050582 L27.438789,57.6050582 Z M30.6564587,55.4334743 C30.6564587,57.0629697 31.4104587,57.6981876 33.1893028,57.6981876 C35.3741468,57.6981876 36.3197064,56.695297 36.7171927,54.1560403 C36.7900917,53.6877017 36.8284037,53.2737334 36.8284037,52.9055224 C36.8284037,51.2835635 36.0823853,50.618738 34.2992844,50.618738 C32.1144404,50.618738 31.1768624,51.5780246 30.7713945,54.1560403 C30.6947706,54.636222 30.6564587,55.0620333 30.6564587,55.4334743 L30.6564587,55.4334743 Z M35.2900734,54.1560403 C35.0032661,55.9830993 34.544055,56.528956 33.3351009,56.528956 C32.4395596,56.528956 32.0873028,56.2694857 32.0873028,55.3597244 C32.0873028,55.0426538 32.1293394,54.6475267 32.2059633,54.1560403 C32.5044771,52.2552315 32.9445321,51.7874312 34.1534862,51.7874312 C35.0570092,51.7874312 35.4050092,52.0888906 35.4050092,52.9986518 C35.4050092,53.3081859 35.3629725,53.6920083 35.2900734,54.1560403 L35.2900734,54.1560403 Z M44.1938716,56.3701515 C43.2376697,56.3701515 42.9274495,56.2156536 42.9274495,55.5885105 C42.9274495,55.417863 42.9503303,55.2165312 42.9886422,54.9726722 L43.1993578,53.6295631 L46.7996147,53.6295631 L46.9911743,52.4027313 L43.3903853,52.4027313 L43.5782202,51.2178884 C43.7580734,50.0723429 44.002844,49.820409 45.2197798,49.820409 L47.5653211,49.820409 L47.7526239,48.6242614 C47.1172844,48.5935772 46.0653028,48.5623546 45.452844,48.5623546 C43.9033394,48.5623546 42.4570642,48.6474092 42.1356697,50.6914112 L41.3816697,55.4991494 C41.3513394,55.6967129 41.3359083,55.8748969 41.3359083,56.0374696 C41.3359083,57.5587627 42.6326606,57.628206 44.0331743,57.628206 C44.645633,57.628206 45.7093211,57.5975217 46.3521101,57.5662991 L46.5394128,56.3701515 L44.1938716,56.3701515 Z M52.451156,55.379104 C52.4016697,55.6897147 52.3404771,56.0261649 52.2638532,56.3044765 C51.9499083,56.4595127 51.4449358,56.5370308 51.0203119,56.5370308 C49.9603486,56.5370308 49.6581101,56.2581809 49.6581101,55.6116583 C49.6581101,55.4297061 49.6809908,55.2165312 49.7193028,54.9726722 L50.3849725,50.7107907 L48.961578,50.7107907 L48.2693028,55.1314766 C48.2192844,55.4490856 48.1809725,55.7548515 48.1809725,56.0337014 C48.1809725,57.0134442 48.6247523,57.6981876 50.4461651,57.6981876 C51.7088624,57.6981876 52.726789,57.4774763 53.5457064,57.0941923 C53.6489358,56.6764558 53.7292844,56.2813287 53.8021835,55.8286014 L54.601945,50.7107907 L53.1822752,50.7107907 L52.451156,55.379104 Z M56.7330459,57.6050582 L57.463633,52.9442814 C57.5136514,52.6347473 57.574844,52.2977588 57.6514679,52.0194473 C57.961156,51.864411 58.4778349,51.7874312 58.9061835,51.7874312 C59.0940183,51.7874312 59.2658899,51.7949677 59.411156,51.8143472 L59.705945,50.6451156 C59.5149174,50.6257361 59.3079266,50.618738 59.0897615,50.618738 C58.2139083,50.618738 57.1842752,50.7883088 56.3696147,51.2216566 C56.2663853,51.6399315 56.1855046,52.0345202 56.1131376,52.4877859 L55.3133761,57.6050582 L56.7330459,57.6050582 Z M59.9507156,55.4334743 C59.9507156,57.0629697 60.7047156,57.6981876 62.4840917,57.6981876 C64.6689358,57.6981876 65.6139633,56.695297 66.0119817,54.1560403 C66.0843486,53.6877017 66.1226606,53.2737334 66.1226606,52.9055224 C66.1226606,51.2835635 65.3766422,50.618738 63.5935413,50.618738 C61.4086972,50.618738 60.4711193,51.5780246 60.0656514,54.1560403 C59.9890275,54.636222 59.9507156,55.0620333 59.9507156,55.4334743 L59.9507156,55.4334743 Z M64.5843303,54.1560403 C64.2975229,55.9830993 63.8383119,56.528956 62.6293578,56.528956 C61.7338165,56.528956 61.3820917,56.2694857 61.3820917,55.3597244 C61.3820917,55.0426538 61.4241284,54.6475267 61.5007523,54.1560403 C61.7987339,52.2552315 62.238789,51.7874312 63.4482752,51.7874312 C64.3512661,51.7874312 64.6992661,52.0888906 64.6992661,52.9986518 C64.6992661,53.3081859 64.6572294,53.6920083 64.5843303,54.1560403 L64.5843303,54.1560403 Z M68.5602569,57.5081606 C68.9923303,57.6244377 69.5244404,57.6981876 69.9873761,57.6981876 C72.0232294,57.6981876 73.0448807,56.8191106 73.462055,54.1598086 C73.534422,53.6952382 73.5727339,53.2850382 73.5727339,52.9249019 C73.5727339,51.1909724 72.7155046,50.618738 70.8983486,50.618738 C70.0256881,50.618738 68.9923303,50.7883088 68.1776697,51.2216566 C68.0744404,51.6399315 67.9940917,52.0345202 67.9211927,52.4877859 L66.7234128,60.1443148 L68.1468073,60.1443148 L68.5602569,57.5081606 Z M69.8341284,56.5601786 C69.4898532,56.5601786 69.0497982,56.4826605 68.7401101,56.3663833 L69.2796697,52.9055224 C69.329156,52.5959882 69.3946055,52.2595381 69.4669725,51.9806882 C69.7809174,51.825652 70.2933394,51.7481338 70.7222202,51.7481338 C71.8471009,51.7481338 72.1301835,52.3133701 72.1301835,53.0955494 C72.1301835,53.4206949 72.0806972,53.7845994 72.0232294,54.1598086 C71.8050642,55.5497515 71.6135046,56.5601786 69.8341284,56.5601786 L69.8341284,56.5601786 Z M74.5715046,54.1560403 C74.5065872,54.5667787 74.472,54.9532926 74.472,55.3134289 C74.472,56.7426692 75.0535963,57.6981876 76.8441468,57.6981876 C78.1302569,57.6981876 79.0252661,57.5662991 79.7675596,57.4462537 L79.817578,56.350772 C79.1210459,56.4401332 78.2866972,56.528956 77.3954128,56.528956 C76.4503853,56.528956 75.8533578,56.2737922 75.8533578,55.2208378 C75.8533578,55.1201719 75.8570826,55.007663 75.868789,54.8913858 L77.0548624,54.8375538 C77.9844587,54.7950265 79.6031376,54.6324538 80.3874679,54.4930288 C80.4295046,54.3186131 80.460367,54.1485039 80.4869725,53.9821629 C80.5518899,53.5563516 80.5944587,53.1649928 80.5944587,52.8091631 C80.5944587,51.4423679 80.0048807,50.618738 78.0993945,50.618738 C75.8762385,50.618738 74.9615413,51.6555428 74.5715046,54.1560403 L74.5715046,54.1560403 Z M75.9874495,53.8890335 C76.1822018,52.6422838 76.5190275,51.7249861 77.9269908,51.7249861 C78.8491376,51.7249861 79.1976697,52.1201131 79.1976697,52.8554586 C79.1976697,53.0061883 79.1822385,53.168761 79.155633,53.346945 C79.1402018,53.4363062 79.1173211,53.5800377 79.0901835,53.6683222 C78.6160734,53.7339973 77.8391927,53.8002107 77.3416697,53.8233584 L75.9874495,53.8890335 Z M85.9969725,55.379104 C85.9469541,55.6897147 85.8857615,56.0261649 85.8096697,56.3044765 C85.4957248,56.4595127 84.9907523,56.5370308 84.5661284,56.5370308 C83.5061651,56.5370308 83.2039266,56.2581809 83.2039266,55.6116583 C83.2039266,55.4297061 83.2268073,55.2165312 83.2651193,54.9726722 L83.930789,50.7107907 L82.5073945,50.7107907 L81.8145872,55.1314766 C81.7651009,55.4490856 81.726789,55.7548515 81.726789,56.0337014 C81.726789,57.0134442 82.1705688,57.6981876 83.9919817,57.6981876 C85.2546789,57.6981876 86.2726055,57.4774763 87.0915229,57.0941923 C87.1947523,56.6764558 87.2751009,56.2813287 87.3474679,55.8286014 L88.1472294,50.7107907 L86.7275596,50.7107907 L85.9969725,55.379104 Z M92.2455413,57.461865 C92.9495229,57.5975217 93.9823486,57.6981876 94.9965505,57.6981876 C98.2525321,57.6981876 99.0714495,56.1612833 99.5535413,53.0955494 C99.6610275,52.3984247 99.7296697,51.7831247 99.7296697,51.2453427 C99.7296697,49.410209 98.9565138,48.4929113 96.4391009,48.4929113 C95.4248991,48.4929113 94.3574862,48.5935772 93.6114679,48.7286955 L92.2455413,57.461865 Z M94.9656881,49.8360203 C95.2450459,49.7972612 95.593578,49.7585022 95.9915963,49.7585022 C97.7592661,49.7585022 98.1950642,50.4593952 98.1950642,51.5274225 C98.1950642,51.9919929 98.1109908,52.5227767 98.0231927,53.0955494 C97.7246789,54.9882835 97.483633,56.4320584 94.9465321,56.4320584 C94.5490459,56.4320584 94.2122202,56.3932993 93.9440367,56.3550786 L94.9656881,49.8360203 Z M100.907761,54.1560403 C100.842844,54.5667787 100.808257,54.9532926 100.808257,55.3134289 C100.808257,56.7426692 101.389853,57.6981876 103.180936,57.6981876 C104.466514,57.6981876 105.362055,57.5662991 106.104349,57.4462537 L106.153835,56.350772 C105.457303,56.4401332 104.623486,56.528956 103.73167,56.528956 C102.786642,56.528956 102.189615,56.2737922 102.189615,55.2208378 C102.189615,55.1201719 102.193872,55.007663 102.205046,54.8913858 L103.391119,54.8375538 C104.321248,54.7950265 105.939394,54.6324538 106.724257,54.4930288 C106.766294,54.3186131 106.796624,54.1485039 106.823761,53.9821629 C106.888679,53.5563516 106.930716,53.1649928 106.930716,52.8091631 C106.930716,51.4423679 106.34167,50.618738 104.435651,50.618738 C102.213028,50.618738 101.29833,51.6555428 100.907761,54.1560403 L100.907761,54.1560403 Z M102.323706,53.8890335 C102.518991,52.6422838 102.855817,51.7249861 104.26378,51.7249861 C105.185927,51.7249861 105.533927,52.1201131 105.533927,52.8554586 C105.533927,53.0061883 105.519028,53.168761 105.49189,53.346945 C105.476459,53.4363062 105.453578,53.5800377 105.426972,53.6683222 C104.95233,53.7339973 104.17545,53.8002107 103.678459,53.8233584 L102.323706,53.8890335 Z M113.228771,54.0553745 C113.611358,54.0785222 114.11633,54.10167 114.556385,54.10167 L115.865376,57.6050582 L117.640495,57.6050582 L116.175064,53.9396356 C117.322826,53.6489427 118.149725,52.9173654 118.40567,51.2722587 C118.443982,51.0246314 118.463138,50.8001519 118.463138,50.5945135 C118.463138,48.8062137 117.066881,48.4929113 115.364128,48.4929113 C114.353651,48.4929113 113.282514,48.5935772 112.536495,48.7286955 L111.147156,57.6050582 L112.670055,57.6050582 L113.228771,54.0553745 Z M113.42033,52.8204678 L113.89444,49.7859565 C114.330771,49.7278179 114.809138,49.6965954 115.222587,49.6965954 C116.442716,49.6965954 116.936514,50.025509 116.936514,50.8389109 C116.936514,50.9702611 116.921083,51.1139926 116.898202,51.2684905 C116.695468,52.5572292 115.914862,52.8786064 114.678771,52.8786064 C114.254147,52.8786064 113.833248,52.8748381 113.42033,52.8204678 L113.42033,52.8204678 Z M119.301743,54.1560403 C119.236294,54.5667787 119.202239,54.9532926 119.202239,55.3134289 C119.202239,56.7426692 119.783835,57.6981876 121.574385,57.6981876 C122.859963,57.6981876 123.755505,57.5662991 124.497798,57.4462537 L124.547284,56.350772 C123.851284,56.4401332 123.016936,56.528956 122.125119,56.528956 C121.180092,56.528956 120.583596,56.2737922 120.583596,55.2208378 C120.583596,55.1201719 120.587321,55.007663 120.598495,54.8913858 L121.784569,54.8375538 C122.714697,54.7950265 124.333376,54.6324538 125.117706,54.4930288 C125.159743,54.3186131 125.190073,54.1485039 125.217211,53.9821629 C125.282128,53.5563516 125.324165,53.1649928 125.324165,52.8091631 C125.324165,51.4423679 124.735119,50.618738 122.829633,50.618738 C120.606477,50.618738 119.69178,51.6555428 119.301743,54.1560403 L119.301743,54.1560403 Z M120.717156,53.8890335 C120.91244,52.6422838 121.249266,51.7249861 122.657229,51.7249861 C123.579376,51.7249861 123.927376,52.1201131 123.927376,52.8554586 C123.927376,53.0061883 123.912477,53.168761 123.885339,53.346945 C123.87044,53.4363062 123.847028,53.5800377 123.820422,53.6683222 C123.34578,53.7339973 122.569431,53.8002107 122.071908,53.8233584 L120.717156,53.8890335 Z M132.177211,52.7897835 C132.203817,52.6115995 132.219248,52.4490268 132.219248,52.2977588 C132.219248,50.9551881 131.159284,50.618738 129.835394,50.618738 C128.859505,50.618738 127.964495,50.7457815 127.225927,50.8695952 L127.175908,51.9456974 C127.868716,51.8568745 128.72222,51.7718199 129.52145,51.7718199 C130.386661,51.7718199 130.753817,52.1201131 130.753817,52.8091631 C130.753817,52.9329767 130.74211,53.0648652 130.719229,53.2075201 C129.889138,53.2430492 129.073945,53.2737334 128.319945,53.3894723 C127.000312,53.5908041 126.376147,54.3455291 126.188844,55.5497515 C126.158514,55.735472 126.143083,55.9141943 126.143083,56.0762287 C126.143083,57.1485626 126.797046,57.6981876 128.366239,57.6981876 C129.613505,57.6981876 130.631431,57.5280784 131.446092,57.0941923 C131.549853,56.6764558 131.633927,56.2813287 131.702569,55.8286014 L132.177211,52.7897835 Z M128.725945,54.3342243 C129.288385,54.2023359 129.976936,54.1910312 130.570239,54.1678834 L130.371229,55.4372425 C130.321211,55.747315 130.256294,56.0837652 130.183394,56.3631534 C129.732165,56.5644852 129.185156,56.5989377 128.748826,56.5989377 C127.99855,56.5989377 127.573927,56.4363649 127.573927,55.8092218 C127.573927,55.7236289 127.581908,55.6310378 127.596807,55.5266037 C127.72345,54.7212766 128.006532,54.5011036 128.725945,54.3342243 L128.725945,54.3342243 Z M135.977009,48.0477204 L134.553615,48.0477204 L133.332954,55.8286014 C133.260055,56.2813287 133.221743,56.6764558 133.195138,57.0941923 C133.872514,57.5280784 134.852128,57.6981876 135.724257,57.6981876 C137.91655,57.6981876 138.972789,56.8578697 139.397413,54.1560403 C139.470312,53.6839335 139.508624,53.266197 139.508624,52.9017541 C139.508624,51.2103519 138.708862,50.618738 137.032716,50.618738 C136.56978,50.618738 136.015321,50.6914112 135.544404,50.8076884 L135.977009,48.0477204 Z M134.721761,56.335699 C134.733468,56.0568492 134.775505,55.7198607 134.824991,55.4103265 L135.36455,51.9494656 C135.71255,51.8337268 136.176018,51.7562086 136.520294,51.7562086 C137.76756,51.7562086 138.081505,52.2514633 138.081505,53.0298744 C138.081505,53.358788 138.024037,53.7420721 137.959119,54.1560403 C137.76011,55.4259378 137.495651,56.5677151 135.900385,56.5677151 C135.471505,56.5677151 134.981963,56.490197 134.721761,56.335699 L134.721761,56.335699 Z M141.448697,49.1738864 C141.448697,49.5959295 141.655156,49.7428909 142.202697,49.7428909 C142.875817,49.7428909 143.101963,49.5227179 143.205193,48.848741 C143.224349,48.7249273 143.235523,48.6167249 143.235523,48.5235955 C143.235523,48.1020908 143.025339,47.954591 142.482055,47.954591 C141.823835,47.954591 141.586514,48.1758406 141.47956,48.848741 C141.460404,48.9725546 141.448697,49.0812953 141.448697,49.1738864 L141.448697,49.1738864 Z M141.338018,50.7107907 L140.258899,57.6050582 L141.689743,57.6050582 L142.768862,50.7107907 L141.338018,50.7107907 Z M144.873358,48.0477204 L143.656422,55.8205266 C143.61811,56.0762287 143.595229,56.3082447 143.595229,56.5214195 C143.595229,57.1022671 143.740495,57.5356149 144.004954,57.9108241 L145.340018,57.3035989 C145.144734,56.9628421 145.053211,56.6376967 145.053211,56.2506444 C145.053211,56.0956082 145.068642,55.9330355 145.095248,55.7548515 L146.300477,48.0477204 L144.873358,48.0477204 Z M147.785064,49.1738864 C147.785064,49.5959295 147.992055,49.7428909 148.539064,49.7428909 C149.212716,49.7428909 149.43833,49.5227179 149.54156,48.848741 C149.560716,48.7249273 149.57189,48.6167249 149.57189,48.5235955 C149.57189,48.1020908 149.361706,47.954591 148.818422,47.954591 C148.160202,47.954591 147.922881,48.1758406 147.815927,48.848741 C147.796771,48.9725546 147.785064,49.0812953 147.785064,49.1738864 L147.785064,49.1738864 Z M147.674385,50.7107907 L146.595266,57.6050582 L148.02611,57.6050582 L149.105229,50.7107907 L147.674385,50.7107907 Z M151.772165,49.0043155 L151.504514,50.7107907 L150.375376,50.7107907 L150.203505,51.8025042 L151.33211,51.8025042 L150.704752,55.8167583 C150.677615,55.9987106 150.662716,56.1688198 150.662716,56.323856 C150.662716,57.2529968 151.179394,57.6981876 152.33833,57.6981876 C152.644826,57.6981876 153.042312,57.6518921 153.359982,57.5975217 L153.41745,56.5445673 C153.249303,56.555872 153.084881,56.5644852 152.908752,56.5644852 C152.384624,56.5644852 152.128147,56.4169854 152.128147,55.9599515 C152.128147,55.8824334 152.135596,55.7898423 152.151028,55.6929447 L152.759229,51.8025042 L154.148569,51.8025042 L154.32044,50.7107907 L152.931633,50.7107907 L153.237596,48.7636864 L151.772165,49.0043155 Z M160.756312,52.7897835 C160.782917,52.6115995 160.798349,52.4490268 160.798349,52.2977588 C160.798349,50.9551881 159.738385,50.618738 158.414495,50.618738 C157.438606,50.618738 156.543596,50.7457815 155.805028,50.8695952 L155.755009,51.9456974 C156.447817,51.8568745 157.300789,51.7718199 158.10055,51.7718199 C158.965229,51.7718199 159.332917,52.1201131 159.332917,52.8091631 C159.332917,52.9329767 159.321211,53.0648652 159.29833,53.2075201 C158.468239,53.2430492 157.653046,53.2737334 156.899046,53.3894723 C155.579413,53.5908041 154.955248,54.3455291 154.767945,55.5497515 C154.737615,55.735472 154.722183,55.9141943 154.722183,56.0762287 C154.722183,57.1485626 155.376147,57.6981876 156.945339,57.6981876 C158.192606,57.6981876 159.210532,57.5280784 160.025193,57.0941923 C160.128954,56.6764558 160.213028,56.2813287 160.28167,55.8286014 L160.756312,52.7897835 Z M157.305046,54.3342243 C157.867486,54.2023359 158.556037,54.1910312 159.149339,54.1678834 L158.95033,55.4372425 C158.900312,55.747315 158.835394,56.0837652 158.762495,56.3631534 C158.311266,56.5644852 157.764257,56.5989377 157.327927,56.5989377 C156.577651,56.5989377 156.153028,56.4363649 156.153028,55.8092218 C156.153028,55.7236289 156.161009,55.6310378 156.175908,55.5266037 C156.30255,54.7212766 156.585633,54.5011036 157.305046,54.3342243 L157.305046,54.3342243 Z M162.501101,60.0205012 C162.753321,60.1911487 163.128459,60.2918146 163.476459,60.2918146 C164.215028,60.2918146 164.949872,59.9898169 165.075982,59.1844898 C165.083963,59.1381943 165.087688,59.0918987 165.087688,59.0450649 C165.087688,58.572958 164.677963,58.2978764 164.23844,58.2709604 L164.697119,57.6788081 C165.274991,57.6438173 165.776239,57.5625309 166.224275,57.4580968 L166.266312,56.3400056 C165.872018,56.4169854 165.481982,56.490197 165.095138,56.490197 C163.763798,56.490197 163.404092,56.1300607 163.404092,55.3058924 C163.404092,54.9769787 163.46156,54.5743152 163.538183,54.0903653 C163.821266,52.3026037 164.066037,51.8025042 165.822532,51.8025042 C166.216294,51.8025042 166.598881,51.8767924 166.958587,51.9456974 L167.245927,50.8577521 C166.813321,50.7226338 166.289193,50.618738 165.585211,50.618738 C163.140165,50.618738 162.443633,51.8337268 162.087651,54.0903653 C162.015284,54.5468608 161.968991,54.9963583 161.968991,55.4140948 C161.968991,56.6452332 162.386165,57.60129 163.874477,57.6901128 L163.128459,58.7086147 C163.492422,58.7086147 164.184697,58.8243536 164.11978,59.2388602 C164.073486,59.5214783 163.805835,59.6146077 163.564789,59.6146077 C163.346624,59.6146077 163.078972,59.5483943 162.822495,59.4052011 L162.501101,60.0205012 Z M173.658385,52.7897835 C173.685523,52.6115995 173.700422,52.4490268 173.700422,52.2977588 C173.700422,50.9551881 172.640991,50.618738 171.316569,50.618738 C170.341211,50.618738 169.441945,50.7457815 168.703376,50.8695952 L168.65389,51.9456974 C169.34989,51.8568745 170.19967,51.7718199 170.999431,51.7718199 C171.86411,51.7718199 172.234991,52.1158066 172.234991,52.8091631 C172.234991,52.9329767 172.223817,53.0648652 172.200936,53.2075201 C171.366587,53.2430492 170.555119,53.2737334 169.801651,53.3894723 C168.481486,53.5908041 167.857853,54.3455291 167.67055,55.5497515 C167.639688,55.735472 167.624257,55.9141943 167.624257,56.0762287 C167.624257,57.1485626 168.278752,57.6981876 169.847413,57.6981876 C171.094679,57.6981876 172.112606,57.5280784 172.927798,57.0941923 C173.031028,56.6764558 173.107651,56.2813287 173.180018,55.8286014 L173.658385,52.7897835 Z M170.23,56.5989377 C169.480257,56.5989377 169.051376,56.4363649 169.051376,55.8129901 C169.051376,55.7279355 169.063083,55.6310378 169.078514,55.5266037 C169.204624,54.7212766 169.487706,54.5011036 170.203394,54.3342243 C170.76956,54.2023359 171.454385,54.1910312 172.047688,54.1678834 L171.848679,55.4372425 C171.799193,55.747315 171.738,56.0837652 171.661376,56.3631534 C171.209615,56.5644852 170.66633,56.5989377 170.23,56.5989377 L170.23,56.5989377 Z M172.694202,48.0708682 C172.556385,48.5354386 172.40367,48.7286955 172.208385,48.7286955 C171.860385,48.7286955 171.860385,48.0401839 171.102661,48.0401839 C170.620569,48.0401839 170.050147,48.5429751 169.817083,49.5803182 L170.601413,49.5803182 C170.739229,49.1200544 170.891945,48.9224908 171.087229,48.9224908 C171.431505,48.9224908 171.439486,49.6115408 172.196679,49.6115408 C172.675046,49.6115408 173.241211,49.1119796 173.478532,48.0708682 L172.694202,48.0708682 Z M174.856165,55.4334743 C174.856165,57.0629697 175.609633,57.6981876 177.389009,57.6981876 C179.573853,57.6981876 180.518881,56.695297 180.916899,54.1560403 C180.989798,53.6877017 181.02811,53.2737334 181.02811,52.9055224 C181.02811,51.2835635 180.282092,50.618738 178.498991,50.618738 C176.314147,50.618738 175.376569,51.5780246 174.971101,54.1560403 C174.894477,54.636222 174.856165,55.0620333 174.856165,55.4334743 L174.856165,55.4334743 Z M179.48978,54.1560403 C179.202972,55.9830993 178.743761,56.528956 177.534275,56.528956 C176.639266,56.528956 176.287009,56.2694857 176.287009,55.3597244 C176.287009,55.0426538 176.329578,54.6475267 176.40567,54.1560403 C176.704183,52.2552315 177.144239,51.7874312 178.353193,51.7874312 C179.256183,51.7874312 179.604716,52.0888906 179.604716,52.9986518 C179.604716,53.3081859 179.562679,53.6920083 179.48978,54.1560403 L179.48978,54.1560403 Z M185.600532,54.9500627 C185.600532,56.8777875 186.400294,57.6981876 188.512239,57.6981876 C191.206844,57.6981876 192.18167,56.3631534 192.694624,53.0955494 C192.805303,52.3914265 192.862771,51.7755882 192.862771,51.2453427 C192.862771,49.3133113 192.067266,48.4929113 189.954789,48.4929113 C187.261248,48.4929113 186.281633,49.8284838 185.772404,53.0955494 C185.661725,53.8002107 185.600532,54.4192789 185.600532,54.9500627 L185.600532,54.9500627 Z M191.148844,53.0955494 C190.838624,55.0658016 190.536385,56.4207536 188.676661,56.4207536 C187.460257,56.4207536 187.123431,55.8399061 187.123431,54.8876176 C187.123431,54.3842881 187.219211,53.7765246 187.326165,53.0955494 C187.632128,51.1252973 187.934367,49.7671153 189.794092,49.7671153 C191.011028,49.7671153 191.347853,50.3511928 191.347853,51.3072496 C191.347853,51.8100407 191.255798,52.4145743 191.148844,53.0955494 L191.148844,53.0955494 Z M195.154569,57.6050582 L195.885688,52.9442814 C195.935174,52.6347473 195.996367,52.2977588 196.072991,52.0194473 C196.383211,51.864411 196.899358,51.7874312 197.328239,51.7874312 C197.515541,51.7874312 197.687945,51.7949677 197.833211,51.8143472 L198.128,50.6451156 C197.93644,50.6257361 197.729982,50.618738 197.511817,50.618738 C196.635431,50.618738 195.60633,50.7883088 194.791138,51.2216566 C194.687908,51.6399315 194.60756,52.0345202 194.534661,52.4877859 L193.735431,57.6050582 L195.154569,57.6050582 Z M204.261101,52.7897835 C204.287706,52.6115995 204.303138,52.4490268 204.303138,52.2977588 C204.303138,50.9551881 203.243174,50.618738 201.919284,50.618738 C200.943927,50.618738 200.048385,50.7457815 199.309817,50.8695952 L199.26033,51.9456974 C199.952606,51.8568745 200.806642,51.7718199 201.605872,51.7718199 C202.47055,51.7718199 202.837706,52.1201131 202.837706,52.8091631 C202.837706,52.9329767 202.826532,53.0648652 202.803651,53.2075201 C201.973028,53.2430492 201.157835,53.2737334 200.404367,53.3894723 C199.084202,53.5908041 198.460569,54.3455291 198.272734,55.5497515 C198.242404,55.735472 198.226972,55.9141943 198.226972,56.0762287 C198.226972,57.1485626 198.881468,57.6981876 200.450128,57.6981876 C201.697394,57.6981876 202.715321,57.5280784 203.530514,57.0941923 C203.633743,56.6764558 203.717817,56.2813287 203.786991,55.8286014 L204.261101,52.7897835 Z M200.809835,54.3342243 C201.372275,54.2023359 202.061358,54.1910312 202.654128,54.1678834 L202.455119,55.4372425 C202.405633,55.747315 202.340183,56.0837652 202.267817,56.3631534 C201.816055,56.5644852 201.269046,56.5989377 200.832716,56.5989377 C200.082972,56.5989377 199.658349,56.4363649 199.658349,55.8092218 C199.658349,55.7236289 199.665798,55.6310378 199.681229,55.5266037 C199.807339,54.7212766 200.090422,54.5011036 200.809835,54.3342243 L200.809835,54.3342243 Z M206.572055,48.0477204 L205.355651,55.8205266 C205.317339,56.0762287 205.294459,56.3082447 205.294459,56.5214195 C205.294459,57.1022671 205.439725,57.5356149 205.703651,57.9108241 L207.039248,57.3035989 C206.843963,56.9628421 206.751908,56.6376967 206.751908,56.2506444 C206.751908,56.0956082 206.767339,55.9330355 206.793945,55.7548515 L207.999706,48.0477204 L206.572055,48.0477204 Z M218.904771,57.6050582 L217.557468,49.5690135 C217.435083,48.8293614 217.022165,48.4929113 216.421413,48.4929113 C215.812679,48.4929113 215.300257,48.8293614 214.94055,49.5690135 L211.037523,57.6050582 L212.601927,57.6050582 L213.704459,55.2089948 L216.922661,55.2089948 L217.286092,57.6050582 L218.904771,57.6050582 Z M214.251468,54.0203836 L216.126624,49.9404544 L216.742807,54.0203836 L214.251468,54.0203836 Z M221.621193,50.7107907 L220.113725,50.7107907 L221.254037,56.7496673 C221.376422,57.4037264 221.705266,57.6981876 222.252807,57.6981876 C222.799817,57.6981876 223.22444,57.4037264 223.554349,56.7496673 L226.592165,50.7107907 L225.145358,50.7107907 L222.520459,56.2113471 L221.621193,50.7107907 Z M232.771028,52.7897835 C232.798165,52.6115995 232.813064,52.4490268 232.813064,52.2977588 C232.813064,50.9551881 231.753633,50.618738 230.429743,50.618738 C229.453853,50.618738 228.558312,50.7457815 227.819743,50.8695952 L227.770257,51.9456974 C228.462532,51.8568745 229.316037,51.7718199 230.115798,51.7718199 C230.980477,51.7718199 231.347633,52.1201131 231.347633,52.8091631 C231.347633,52.9329767 231.336459,53.0648652 231.313578,53.2075201 C230.482954,53.2430492 229.668294,53.2737334 228.914294,53.3894723 C227.594128,53.5908041 226.970495,54.3455291 226.783193,55.5497515 C226.75233,55.735472 226.736899,55.9141943 226.736899,56.0762287 C226.736899,57.1485626 227.391394,57.6981876 228.960055,57.6981876 C230.207321,57.6981876 231.225248,57.5280784 232.04044,57.0941923 C232.14367,56.6764558 232.227743,56.2813287 232.296917,55.8286014 L232.771028,52.7897835 Z M229.319761,54.3342243 C229.882202,54.2023359 230.571284,54.1910312 231.164055,54.1678834 L230.965046,55.4372425 C230.91556,55.747315 230.850642,56.0837652 230.777743,56.3631534 C230.325982,56.5644852 229.778972,56.5989377 229.342642,56.5989377 C228.592899,56.5989377 228.168275,56.4363649 228.168275,55.8092218 C228.168275,55.7236289 228.175725,55.6310378 228.191156,55.5266037 C228.317266,54.7212766 228.600349,54.5011036 229.319761,54.3342243 L229.319761,54.3342243 Z M240.129046,53.1843723 C240.179064,52.8673017 240.213651,52.565304 240.213651,52.2864541 C240.213651,51.302943 239.769339,50.618738 237.940477,50.618738 C236.674055,50.618738 235.648679,50.8389109 234.829761,51.2216566 C234.726532,51.6399315 234.646183,52.0345202 234.573817,52.4877859 L233.773523,57.6050582 L235.196917,57.6050582 L235.928037,52.936745 C235.977523,52.6272108 236.038716,52.2902223 236.111615,52.0113724 C236.42556,51.8568745 236.937982,51.7793564 237.367394,51.7793564 C238.434275,51.7793564 238.736514,52.0619746 238.736514,52.7084972 C238.736514,52.8904494 238.713633,53.1030859 238.675321,53.3431768 L238.009651,57.6050582 L239.436771,57.6050582 L240.129046,53.1843723 Z M241.946734,60.0205012 C242.199486,60.1911487 242.574092,60.2918146 242.922624,60.2918146 C243.661193,60.2918146 244.395505,59.9898169 244.522147,59.1844898 C244.529596,59.1381943 244.533321,59.0918987 244.533321,59.0450649 C244.533321,58.572958 244.124128,58.2978764 243.684073,58.2709604 L244.143284,57.6788081 C244.721156,57.6438173 245.222404,57.5625309 245.669908,57.4580968 L245.711945,56.3400056 C245.317651,56.4169854 244.927615,56.490197 244.541303,56.490197 C243.209431,56.490197 242.849725,56.1300607 242.849725,55.3058924 C242.849725,54.9769787 242.907193,54.5743152 242.983817,54.0903653 C243.266899,52.3026037 243.51167,51.8025042 245.268165,51.8025042 C245.661927,51.8025042 246.045046,51.8767924 246.40422,51.9456974 L246.69156,50.8577521 C246.258954,50.7226338 245.734826,50.618738 245.030844,50.618738 C242.585798,50.618738 241.889266,51.8337268 241.533284,54.0903653 C241.460917,54.5468608 241.415156,54.9963583 241.415156,55.4140948 C241.415156,56.6452332 241.831798,57.60129 243.320642,57.6901128 L242.574092,58.7086147 C242.938055,58.7086147 243.63033,58.8243536 243.565413,59.2388602 C243.519651,59.5214783 243.251468,59.6146077 243.010422,59.6146077 C242.792257,59.6146077 242.524606,59.5483943 242.268128,59.4052011 L241.946734,60.0205012 Z M253.10455,52.7897835 C253.131156,52.6115995 253.146587,52.4490268 253.146587,52.2977588 C253.146587,50.9551881 252.086624,50.618738 250.762734,50.618738 C249.786844,50.618738 248.891303,50.7457815 248.152734,50.8695952 L248.103248,51.9456974 C248.796055,51.8568745 249.649028,51.7718199 250.448257,51.7718199 C251.312936,51.7718199 251.681156,52.1201131 251.681156,52.8091631 C251.681156,52.9329767 251.66945,53.0648652 251.646569,53.2075201 C250.815945,53.2430492 250.001284,53.2737334 249.247284,53.3894723 C247.927119,53.5908041 247.303486,54.3455291 247.116183,55.5497515 C247.085321,55.735472 247.06989,55.9141943 247.06989,56.0762287 C247.06989,57.1485626 247.724385,57.6981876 249.293046,57.6981876 C250.540844,57.6981876 251.558239,57.5280784 252.373431,57.0941923 C252.476661,56.6764558 252.560734,56.2813287 252.629908,55.8286014 L253.10455,52.7897835 Z M249.652752,54.3342243 C250.215193,54.2023359 250.904275,54.1910312 251.497046,54.1678834 L251.298037,55.4372425 C251.24855,55.747315 251.183633,56.0837652 251.110734,56.3631534 C250.659505,56.5644852 250.111963,56.5989377 249.676165,56.5989377 C248.92589,56.5989377 248.501266,56.4363649 248.501266,55.8092218 C248.501266,55.7236289 248.508716,55.6310378 248.524147,55.5266037 C248.650257,54.7212766 248.933339,54.5011036 249.652752,54.3342243 L249.652752,54.3342243 Z M259.09611,50.8076884 C258.664037,50.6914112 258.131927,50.618738 257.668991,50.618738 C255.63367,50.618738 254.612018,51.4967383 254.195376,54.1560403 C254.121945,54.6206107 254.084165,55.0308108 254.084165,55.390947 C254.084165,57.1254149 254.940862,57.6981876 256.75855,57.6981876 C257.630679,57.6981876 258.664037,57.5280784 259.479229,57.0941923 C259.582991,56.6764558 259.662807,56.2813287 259.73145,55.8286014 L260.95211,48.0477204 L259.528716,48.0477204 L259.09611,50.8076884 Z M257.822239,51.7562086 C258.166514,51.7562086 258.607101,51.8337268 258.916789,51.9494656 L258.377229,55.4103265 C258.327211,55.7198607 258.262294,56.0568492 258.189394,56.335699 C257.875982,56.490197 257.363028,56.5677151 256.934679,56.5677151 C255.809266,56.5677151 255.526183,56.0030171 255.526183,55.2208378 C255.526183,54.8956924 255.576202,54.5317879 255.63367,54.1560403 C255.851835,52.7666358 256.042862,51.7562086 257.822239,51.7562086 L257.822239,51.7562086 Z M267.284752,52.7897835 C267.311358,52.6115995 267.326789,52.4490268 267.326789,52.2977588 C267.326789,50.9551881 266.266826,50.618738 264.942936,50.618738 C263.967578,50.618738 263.072037,50.7457815 262.333468,50.8695952 L262.283982,51.9456974 C262.976257,51.8568745 263.829761,51.7718199 264.629523,51.7718199 C265.494202,51.7718199 265.861358,52.1201131 265.861358,52.8091631 C265.861358,52.9329767 265.850183,53.0648652 265.826771,53.2075201 C264.996679,53.2430492 264.181486,53.2737334 263.428018,53.3894723 C262.107853,53.5908041 261.48422,54.3455291 261.296385,55.5497515 C261.266055,55.735472 261.250624,55.9141943 261.250624,56.0762287 C261.250624,57.1485626 261.905119,57.6981876 263.47378,57.6981876 C264.721046,57.6981876 265.738972,57.5280784 266.554165,57.0941923 C266.657394,56.6764558 266.741468,56.2813287 266.81011,55.8286014 L267.284752,52.7897835 Z M263.833486,54.3342243 C264.395927,54.2023359 265.084477,54.1910312 265.67778,54.1678834 L265.478771,55.4372425 C265.428752,55.747315 265.363835,56.0837652 265.291468,56.3631534 C264.839706,56.5644852 264.292697,56.5989377 263.856367,56.5989377 C263.106624,56.5989377 262.681468,56.4363649 262.681468,55.8092218 C262.681468,55.7236289 262.68945,55.6310378 262.704881,55.5266037 C262.830991,54.7212766 263.114073,54.5011036 263.833486,54.3342243 L263.833486,54.3342243 Z" id="Fill-5" fill="#EC0000"></path>
                    <g id="Group-9">
                        <mask id="mask-2" fill="white">
                            <use xlink:href="#path-1"></use>
                        </mask>
                        <g id="Clip-8"></g>
                        <path d="M48.718244,39.9950954 L8.3007578,39.9950954 C7.01784037,39.9950954 5.80516147,39.7447765 4.69571193,39.2511368 C3.57774862,38.7553439 2.62527156,38.0522976 1.86488624,37.1613776 C1.09971193,36.266151 0.551638532,35.1512898 0.236097248,33.8490931 C-0.0789119266,32.5560478 -0.0789119266,31.0675923 0.236629358,29.4267922 L3.81134495,10.8219059 C4.11517982,9.24032099 4.69039083,7.7787815 5.52101468,6.47766145 C6.34365688,5.18623116 7.32061101,4.0789064 8.42367523,3.18744805 C9.52195046,2.29921964 10.7266477,1.60317155 12.0031798,1.118145 C13.2866294,0.63204181 14.531767,0.385491134 15.7050697,0.385491134 L56.3290147,0.385491134 L54.1862073,11.5362569 L17.6940972,11.5362569 C16.0099688,11.5362569 14.7201339,11.9889842 13.8597119,12.8815192 C12.9700239,13.8052767 12.3479872,15.1607671 12.0116936,16.910308 L10.7404826,23.5284172 C10.3727945,25.442684 10.438244,26.8213222 10.9341706,27.6266493 C11.4002991,28.3862191 12.4661156,28.7700415 14.1034183,28.7700415 L50.8754183,28.7700415 L48.718244,39.9950954 Z" id="Fill-7" fill="#EC0000" mask="url(#mask-2)"></path>
                    </g>
                </g>
                <polygon id="Fill-11" fill="#EC0000" points="103.275119 40.1485167 52.7629725 40.1485167 57.603578 14.9518989 108.116257 14.9518989 106.058587 25.6617803 64.9168991 25.6617803 64.2900734 28.9240011 105.431761 28.9240011"></polygon>
                <polygon id="Fill-12" fill="#EC0000" points="60.6496954 0.538320254 58.5489248 11.4247707 108.527365 11.4247707 110.628136 0.538320254"></polygon>
                <g id="Group-19" transform="translate(107.486239, 0.153421)" fill="#EC0000">
                    <path d="M51.3946514,39.9950954 L41.1573853,39.9950954 L34.345844,25.5083591 L12.6596972,25.5083591 L9.87622936,39.9950954 L0.505770642,39.9950954 L5.34744037,14.7984776 L46.5614954,14.7984776 L47.1883211,11.5362569 L5.97373394,11.5362569 L8.11654128,0.384952813 L48.6063945,0.384952813 C49.8845229,0.384952813 51.0972018,0.635271732 52.2109083,1.1289114 C53.331,1.62793428 54.282945,2.33044221 55.0417339,3.21867063 C55.8111651,4.11981873 56.3464679,5.25136791 56.6311468,6.58209558 C56.9136972,7.89775028 56.9035872,9.36897953 56.5976239,10.9537944 L55.5525596,16.3956738 C55.2955505,17.7328613 54.7985596,18.9731512 54.0764862,20.0820909 C53.3623945,21.1781109 52.4993119,22.1465491 51.5127798,22.9610276 C50.5198624,23.7798127 49.4231835,24.4161073 48.2514771,24.8505317 C47.202156,25.2408139 46.1400642,25.4582953 45.0891468,25.5008226 L51.3946514,39.9950954 Z" id="Fill-13"></path>
                    <path d="M95.0598716,39.9956337 L64.4576881,39.9956337 C63.1758349,39.9956337 61.9636881,39.7453148 60.8526422,39.2511368 C59.7336147,38.7548055 58.7811376,38.0522976 58.0223486,37.1613776 C57.2566422,36.266151 56.709633,35.1518281 56.3935596,33.8496314 C56.0785505,32.5571245 56.0780183,31.0681306 56.3935596,29.4267922 L59.9693394,10.8219059 C60.2721101,9.24085931 60.8473211,7.7787815 61.6790092,6.47766145 C62.5016514,5.18515452 63.4786055,4.07782975 64.5822018,3.18744805 C65.6815413,2.298143 66.8867706,1.60209491 68.1611743,1.118145 C69.4430275,0.63204181 70.6881651,0.384952813 71.8614679,0.384952813 L102.463651,0.384952813 C103.648661,0.384952813 104.801743,0.636348372 105.89044,1.13160301 C106.981266,1.62739596 107.930018,2.34174694 108.711156,3.25527641 C109.493358,4.17365076 110.060055,5.31058314 110.396881,6.6359276 L110.396881,6.63646592 C110.731578,7.96073375 110.746477,9.43788452 110.441578,11.0270059 L106.86633,29.6318922 C106.555578,31.2560044 106.00378,32.7266953 105.22956,34.0030527 C104.456936,35.2751034 103.518826,36.3608954 102.442367,37.2302826 C101.374422,38.0937483 100.184624,38.777415 98.9064954,39.2635182 C97.6246422,39.7490831 96.3310826,39.9956337 95.0598716,39.9956337 L95.0598716,39.9956337 Z M73.8520917,11.5367952 C72.1679633,11.5367952 70.8781284,11.9889842 70.0171743,12.8815192 C69.1280183,13.8052767 68.5065138,15.1602288 68.169156,16.910308 L66.8974128,23.5284172 C66.530789,25.4421457 66.5957064,26.8207838 67.091633,27.6271876 C67.5566972,28.3862191 68.6230459,28.7700415 70.2608807,28.7700415 L93.0846789,28.7700415 C94.7709358,28.7700415 96.0597064,28.3291572 96.9148073,27.4586933 C97.7986422,26.5586219 98.4265321,25.167064 98.7809174,23.3233171 L100.052661,16.7046696 C100.382569,14.9868897 100.280936,13.6685434 99.7488257,12.7862365 C99.2470459,11.9572233 98.1642018,11.5367952 96.531156,11.5367952 L73.8520917,11.5367952 Z" id="Fill-15"></path>
                    <path d="M159.432209,39.9950954 L150.13465,39.9950954 L152.918117,25.5083591 L121.073989,25.5083591 L118.291053,39.9950954 L108.920062,39.9950954 L113.761732,14.7984776 L154.975787,14.7984776 L155.602613,11.5362569 L114.461457,11.5362569 L114.640246,10.6022712 C114.945145,9.01853304 115.518228,7.56829828 116.344594,6.29140264 C117.163512,5.02365844 118.137273,3.94055809 119.236613,3.07278584 C120.333824,2.20716687 121.534796,1.53641984 122.806007,1.07884762 C124.079879,0.618583804 125.321292,0.384952813 126.491402,0.384952813 L157.020686,0.384952813 C158.200906,0.384952813 159.353457,0.622352045 160.444283,1.09015235 C161.538833,1.55849097 162.493971,2.24700257 163.282558,3.13792259 C164.072741,4.03314917 164.645824,5.14639546 164.987971,6.44751551 C165.328521,7.74809724 165.346081,9.21448162 165.04065,10.8068329 L159.432209,39.9950954 Z" id="Fill-17"></path>
                </g>
            </g>
        </g>
    </g>
</svg>