<svg xmlns="http://www.w3.org/2000/svg" width="100" height="100" viewBox="0 0 100 100">
  <g fill="none" fill-rule="evenodd">
    <rect width="80.556" height="80.556" x="10" y="10" fill="#FFF"/>
    <path fill="#D8213A" d="M100,93.1397459 C100,100 92.9398869,100 92.9398869,100 L7.06260432,100 C0,100 0,93.1397459 0,93.1397459 L0,6.86025408 C0,0 7.06260432,0 7.06260432,0 L92.9398869,0 C100,0 100,6.86025408 100,6.86025408 L100,93.1397459 Z M81.7382054,60.7407662 L81.7382054,40.2920053 L59.0321452,40.2920053 L59.0321452,16.6666667 L39.375143,16.6666667 L39.375143,40.2920053 L16.6666667,40.2920053 L16.6666667,60.7407662 L39.375143,60.7407662 L39.375143,84.3661048 L59.0321452,84.3661048 L59.0321452,60.7407662 L81.7382054,60.7407662 Z"/>
  </g>
</svg>
