<svg id="Camada_1" data-name="Camada 1" xmlns="http://www.w3.org/2000/svg" xmlns:xlink="http://www.w3.org/1999/xlink" viewBox="0 0 2560 3095"><defs><style>.cls-1,.cls-4{fill-opacity:0.7;}.cls-1,.cls-3,.cls-4,.cls-5{fill-rule:evenodd;}.cls-1{fill:url(#Gradiente_sem_nome_3);}.cls-2{opacity:0.75;}.cls-3{fill:url(#Gradiente_sem_nome_5);}.cls-4{fill:url(#Gradiente_sem_nome_3-2);}.cls-5{fill:url(#Gradiente_sem_nome_2);}</style><linearGradient id="Gradiente_sem_nome_3" x1="1.19" y1="1127.92" x2="1.29" y2="1127.71" gradientTransform="matrix(3574, 0, 0, -2341.17, -3573, 2640890.43)" gradientUnits="userSpaceOnUse"><stop offset="0" stop-color="#fff"/><stop offset="1" stop-color="#f8fcfe"/></linearGradient><linearGradient id="Gradiente_sem_nome_5" x1="1.19" y1="1127.85" x2="1.15" y2="1127.66" gradientTransform="matrix(3574, 0, 0, -2341.17, -3573, 2640890.43)" gradientUnits="userSpaceOnUse"><stop offset="0" stop-color="#fff" stop-opacity="0.5"/><stop offset="1" stop-color="#e9f2f9"/></linearGradient><linearGradient id="Gradiente_sem_nome_3-2" x1="1.47" y1="1126.91" x2="1.56" y2="1126.7" gradientTransform="translate(5377 1985328.14) rotate(180) scale(2688 1760)" xlink:href="#Gradiente_sem_nome_3"/><linearGradient id="Gradiente_sem_nome_2" x1="1.47" y1="1126.84" x2="1.42" y2="1126.66" gradientTransform="translate(5377 1985328.14) rotate(180) scale(2688 1760)" xlink:href="#Gradiente_sem_nome_5"/></defs><title>pattern</title><path id="img-esquerda-b" class="cls-1" d="M1393.54,1282.27c620.49-279,1175.79-479.42,1541.2-663.83C2685.59,147.77,2254.48,204.91,2014,301.08,1822.91,377.47,1444.62,518.29,955.86,637.7,469.13,756.6,238.72,563.37,197.21,386.43c0,.1,0,.21,0,.31C58.84-301.55-197.55-1050.55-1106.46-955.61c0,0,252.63,644.52,273.05,1254.7,31,926.38,464,1251.08,841.74,1363.16,437.68,129.86,1385.26-380,1385.26-380"/><g class="cls-2"><path id="img-esquerda-b-2" data-name="img-esquerda-b" class="cls-3" d="M1393.54,1282.27c620.49-279,1175.79-479.42,1541.2-663.83C2685.59,147.77,2254.48,204.91,2014,301.08,1822.91,377.47,1444.62,518.29,955.86,637.7,469.13,756.6,238.72,563.37,197.21,386.43c0,.1,0,.21,0,.31C58.84-301.55-197.55-1050.55-1106.46-955.61c0,0,252.63,644.52,273.05,1254.7,31,926.38,464,1251.08,841.74,1363.16,437.68,129.86,1385.26-380,1385.26-380"/></g><g class="cls-2"><path id="img-direita-b" class="cls-4" d="M908.7,2746.91C442,2537.19,24.4,2386.5-250.43,2247.87-63,1894,261.19,1937,442,2009.29c143.74,57.43,428.26,163.29,795.85,253.06,366.07,89.39,539.36-55.88,570.58-188.9l0,.24c104.1-517.43,296.93-1080.5,980.52-1009.13,0,0-190,484.52-205.36,943.23-23.35,696.42-349,940.52-633.07,1024.78-329.18,97.61-1041.85-285.65-1041.85-285.65"/><path id="img-direita-b-2" data-name="img-direita-b" class="cls-5" d="M908.7,2746.91C442,2537.19,24.4,2386.5-250.43,2247.87-63,1894,261.19,1937,442,2009.29c143.74,57.43,428.26,163.29,795.85,253.06,366.07,89.39,539.36-55.88,570.58-188.9l0,.24c104.1-517.43,296.93-1080.5,980.52-1009.13,0,0-190,484.52-205.36,943.23-23.35,696.42-349,940.52-633.07,1024.78-329.18,97.61-1041.85-285.65-1041.85-285.65"/></g></svg>